<?xml version="1.0" encoding="utf-8"?>
<!-- Generator: Adobe Illustrator 16.0.0, SVG Export Plug-In . SVG Version: 6.00 Build 0)  -->
<!DOCTYPE svg PUBLIC "-//W3C//DTD SVG 1.1//EN" "http://www.w3.org/Graphics/SVG/1.1/DTD/svg11.dtd">
<svg version="1.1" id="Слой_1" xmlns="http://www.w3.org/2000/svg" xmlns:xlink="http://www.w3.org/1999/xlink" x="0px" y="0px"
	 width="28.35px" height="28.35px" viewBox="0 0 28.35 28.35" enable-background="new 0 0 28.35 28.35" xml:space="preserve">
<g>
	<g>
		<path fill="#9A2C31" d="M14.104,2.255c6.536,0,11.854,5.318,11.854,11.856c0,6.535-5.317,11.853-11.854,11.853
			c-6.537,0-11.854-5.317-11.854-11.853C2.25,7.574,7.568,2.255,14.104,2.255 M14.104,0.255C6.452,0.255,0.25,6.459,0.25,14.111
			c0,7.648,6.202,13.853,13.854,13.853s13.854-6.204,13.854-13.853C27.958,6.459,21.757,0.255,14.104,0.255L14.104,0.255z"/>
	</g>
	
		<polyline fill="none" stroke="#9A2C31" stroke-width="2" stroke-linecap="round" stroke-linejoin="round" stroke-miterlimit="10" points="
		13,8 13,15 20,15 	"/>
</g>
</svg>
