<svg xmlns="http://www.w3.org/2000/svg" width="40" height="40" viewBox="0 0 40 40"><path d="M20 2c9.9 0 18 8.1 18 18 0 9.9-8.1 18-18 18S2 29.9 2 20C2 10.1 10.1 2 20 2M20 0C9 0 0 9 0 20c0 11 9 20 20 20s20-9 20-20C40 9 31 0 20 0" fill="#3C2B21"/><path d="M20 6c7.7 0 14 6.3 14 14 0 7.7-6.3 14-14 14 -7.7 0-14-6.3-14-14C6 12.3 12.3 6 20 6M20 5C11.7 5 5 11.7 5 20c0 8.3 6.7 15 15 15s15-6.7 15-15C35 11.7 28.3 5 20 5" fill="#3C2B21"/><path d="M27.5 28.5c-0.3 0-0.5-0.1-0.7-0.3L11.8 13.2c-0.4-0.4-0.4-1 0-1.4 0.4-0.4 1-0.4 1.4 0l14.9 14.9c0.4 0.4 0.4 1 0 1.4C28 28.4 27.7 28.5 27.5 28.5" fill="#3C2B21"/><path d="M12.5 28.5c-0.3 0-0.5-0.1-0.7-0.3 -0.4-0.4-0.4-1 0-1.4l14.9-14.9c0.4-0.4 1-0.4 1.4 0 0.4 0.4 0.4 1 0 1.4L13.2 28.2C13.1 28.4 12.8 28.5 12.5 28.5" fill="#3C2B21"/></svg>