<svg xmlns="http://www.w3.org/2000/svg" viewBox="0 0 145.02 40.16"><defs><style>.cls-1{fill:#b3282d;}</style></defs><title>family-recipe-text-1</title><g id="Слой_2" data-name="Слой 2"><g id="Desktop"><g id="Каталог_Раздел" data-name="Каталог Раздел"><path class="cls-1" d="M37.1,21.09c-.25-.15-.56,0-.85,0l-.13,0c-.56.18-1.12.34-1.68.51s-1.17.17-1.73.34-1.13.31-1.69.47-1.07.53-1.63.68-1.14.26-1.71.41-1.14.27-1.71.4-1.16.16-1.73.29-1.16.17-1.73.29l-1.72.35c-.57.11-1.13.29-1.71.39s-1.15.23-1.72.33-1.15.24-1.72.33-1.18,0-1.76.12-1.13.38-1.71.46-1.17.11-1.75.17-1.16.17-1.74.23-1.18-.06-1.76,0-1.16.16-1.74.2C5.12,27.1,5,27,5,27a1.45,1.45,0,0,0-.79.5,1.27,1.27,0,0,0,0,1c.16.83,0,.87.13,1.71s.19.83.36,1.66.15.84.31,1.67.37.8.54,1.63.11.85.27,1.69a1.07,1.07,0,0,0,.53.78c.26.15.56.39.84.33l.16,0c.56-.18,1.09-.48,1.65-.65l1.7-.52,1.7-.5c.57-.16,1.1-.46,1.67-.61s1.21-.06,1.78-.2,1.12-.41,1.69-.54,1.05-.14,1.63-.27a10.35,10.35,0,0,1-.82,1.27,13.12,13.12,0,0,1-1.33,1,.63.63,0,0,0-.18.59c.06.17.33.15.52.15.77,0,1.23-.62,1.61,0,.47.81-.25,1-.5,1.88-.05.19-.12.45,0,.55a.66.66,0,0,0,.64,0,14.85,14.85,0,0,0,1.19-1.34,14.39,14.39,0,0,0,1.28-1.23A14.1,14.1,0,0,0,22.63,36c.13-.22-.09-.51.17-.53s.19.21.36.41a14.34,14.34,0,0,0,1.55,1.45,14.7,14.7,0,0,0,1.59,1.41c.1.07.24.18.35.16l0-.14c.24,0,.27-.2.23-.44,0,0,.24-.15.23-.18-.32-.86-1.09-.81-.69-1.64s.68-.19,1.44-.25c.19,0,.36,0,.41-.22s0-.48-.11-.58a13.34,13.34,0,0,1-1.47-.91,11,11,0,0,1-1-1.29l1.7-.27c.6-.09,1.2-.15,1.79-.24s1.16-.41,1.76-.48,1.22.07,1.82,0,1.19-.2,1.79-.26l1.8-.16,1.8-.14.15,0a1.32,1.32,0,0,0,.8-.4,1.29,1.29,0,0,0,.09-1c-.16-.83-.1-.85-.27-1.68s-.14-.84-.3-1.67-.33-.8-.49-1.64.08-.88-.08-1.72-.27-.82-.43-1.65a1.24,1.24,0,0,0-.54-.85S37.1,21.09,37.1,21.09ZM20.22,31.79c-.6.13-1.12.38-1.72.51l-1.8.4c-.6.14-1.2.27-1.79.42s-1.24.13-1.83.29-1.19.31-1.78.47-1.12.56-1.71.73-1.28.28-1.87.47c-.47-.84-.18-1-.36-1.92s-.08-1-.26-1.92-.41-.91-.29-1.87c.61,0,1.11,0,1.72-.06s1.22-.19,1.83-.26,1.22-.17,1.83-.24,1.21-.21,1.82-.29,1.24,0,1.84-.13S17,28,17.64,27.89s1.32-.12,1.92-.23c.48.93.17,1,.45,2.06A4,4,0,0,1,20.22,31.79Zm16.37-2.37c-.61.05-1.16.23-1.77.29L33,29.89c-.61.07-1.22.12-1.83.19s-1.24,0-1.85.06-1.22.15-1.83.24-1.18.41-1.78.51-1.3.13-1.91.23c-.48-.93-.19-1-.39-2.07A4.94,4.94,0,0,1,23.1,27c.6-.13,1.19-.14,1.79-.27l1.79-.42c.6-.14,1.18-.36,1.77-.51s1.18-.34,1.77-.5,1.17-.37,1.76-.54,1.22-.21,1.81-.38,1.26-.51,1.84-.7c.47.84.16,1,.35,1.94a15,15,0,0,0,.41,1.88A3.31,3.31,0,0,1,36.59,29.42Zm.05.06"/><path class="cls-1" d="M18.75,2.61a10.6,10.6,0,0,1,1.69,0,7.23,7.23,0,0,1,1.63.5A6.14,6.14,0,0,1,23.51,4a6.73,6.73,0,0,1,1,1.36c.48.67.22,1.1,1,1.4s.82-.4,1.63-.58A7.62,7.62,0,0,1,28.71,6a7.49,7.49,0,0,1,1.62.2,6.67,6.67,0,0,1,1.49.64,6.11,6.11,0,0,1,2.41,2.57,5.39,5.39,0,0,1,.62,1.88,5.16,5.16,0,0,1-.2,2,4.37,4.37,0,0,1-1,1.73,7.32,7.32,0,0,1-1.31.92,6.69,6.69,0,0,1-1.33.92,7,7,0,0,1-1.59.32c-1.19.12-1.51-.67-2.28.24s-.06,1.11,0,2.3c.06.92.2,1.56.26,2.14s0,.83,0,1.33c-.48,0-1,0-1.67.06s-1.14.23-1.76.24-1.17-.18-1.77-.18-1.19,0-1.76,0H18.74c-.55,0-1.14.22-1.76.21s-1.17-.06-1.76-.07l-1.77,0c-.62,0-1.21-.22-1.76-.24s-1.18,0-1.65,0c0-.49,0-.81,0-1.3s.13-1.23.19-2.15c.08-1.19.91-1.48.14-2.39s-1.21,0-2.4-.1a6.74,6.74,0,0,1-1.51-.59A6.34,6.34,0,0,1,5,16a8,8,0,0,1-1.11-1.15,4.38,4.38,0,0,1-1.23-1.56,5.43,5.43,0,0,1,0-2,5.29,5.29,0,0,1,.58-1.89,6,6,0,0,1,1-1.76,5.81,5.81,0,0,1,1.36-.92A6.86,6.86,0,0,1,7.15,6.2a7.64,7.64,0,0,1,1.62,0,6.88,6.88,0,0,1,1.55.16c.81.18.82.45,1.59.15s.54-.55,1-1.22a6.25,6.25,0,0,1,1.17-1.17,5.89,5.89,0,0,1,1.34-1,7.08,7.08,0,0,1,1.61-.48,9.48,9.48,0,0,1,1.68-.25v.14m0-2.53-.07.16h.06a12.09,12.09,0,0,0-1.8.11,10,10,0,0,0-1.81.25,8.85,8.85,0,0,0-1.67.75,8.93,8.93,0,0,0-1.31,1.27,9.31,9.31,0,0,0-1.24,1.36,10,10,0,0,0-2.14-.24,9.86,9.86,0,0,0-1.68,0,9.68,9.68,0,0,0-1.66.35,9,9,0,0,0-1.53.74A8.18,8.18,0,0,0,2.59,5.88,7.82,7.82,0,0,0,1.37,7.43,9,9,0,0,0,.56,9.22,7.6,7.6,0,0,0,0,11.12a7.93,7.93,0,0,0,.34,2A7.09,7.09,0,0,0,1,15,6.42,6.42,0,0,0,2.13,16.6a10.51,10.51,0,0,0,1.11,1.2,9.11,9.11,0,0,0,1.42.8,9,9,0,0,0,1.47.74,8.76,8.76,0,0,0,1.55.25c0,.65.09,1.11,0,1.55s-.31,1-.35,1.57,0,1,0,1.61.06,1.05,1,1.28c.39.1,1,0,1.74,0,.48,0,1,.12,1.72.14.51,0,1.09,0,1.73.05s1.1.21,1.73.21H17c.55,0,1.13-.12,1.74-.12h0c.61,0,1.19-.15,1.73-.15s1.19.24,1.73.24,1.2-.14,1.73-.14,1.22.15,1.74.13c.67,0,1.23-.32,1.71-.35.78-.05,1.35.08,1.74,0,.93-.23,1-.68,1-1.27a13,13,0,0,0-.27-1.6c0-.54-.08-1-.14-1.58s-.07-1-.11-1.65a10.63,10.63,0,0,0,1.7-.15,9.05,9.05,0,0,0,1.54-.6,9.42,9.42,0,0,0,1.28-1,10,10,0,0,0,1.31-1,6.77,6.77,0,0,0,1.24-1.62,7.42,7.42,0,0,0,.52-2,7.74,7.74,0,0,0,.12-2,7.34,7.34,0,0,0-.52-1.87,8.94,8.94,0,0,0-.73-1.81,7.92,7.92,0,0,0-1.17-1.59A8.08,8.08,0,0,0,33.5,5,8.62,8.62,0,0,0,32,4.32a9.87,9.87,0,0,0-1.55-.69,10.16,10.16,0,0,0-1.7-.1,10.52,10.52,0,0,0-2.15.42,10,10,0,0,0-1.15-1.48A8.73,8.73,0,0,0,24,1.28,8.63,8.63,0,0,0,22.28.73,10.51,10.51,0,0,0,20.57.1,12.34,12.34,0,0,0,18.75,0S18.75,0,18.75,0Z"/><path class="cls-1" d="M61.09,10.09a9.19,9.19,0,0,1,.06,1.41,3.39,3.39,0,0,1-.53,1.32,2.36,2.36,0,0,1-1.13.8,4.61,4.61,0,0,1-1.36,0c-.86,0-1.3-.67-1.81,0-.7,1,.78,1.47.19,2.5-.34.59-.78,0-1.46,0s-1.08.54-1.42-.05c-.59-1,.79-1.47.09-2.44-.5-.7-.89-.1-1.75-.1a3.8,3.8,0,0,1-1.3-.18,2,2,0,0,1-1.08-.7,3.07,3.07,0,0,1-.52-1.25,7.12,7.12,0,0,1-.17-1.38,7.64,7.64,0,0,1,.23-1.35,4.37,4.37,0,0,1,.22-1.37,2.42,2.42,0,0,1,1.14-.91,3.8,3.8,0,0,1,1.42-.29c.89,0,1.27.87,1.8.16.71-1-.65-1.38-.06-2.42.34-.59.71.14,1.39.14S56,3.39,56.31,4c.59,1-.54,1.32.17,2.27.53.71.81.16,1.7.16a3.53,3.53,0,0,1,1.36.2,2.06,2.06,0,0,1,1,.87,3.19,3.19,0,0,1,.63,1.22A11.7,11.7,0,0,1,61.09,10.09Zm-7.35,1.72c.13-.88-.18-.9-.18-1.79a7.15,7.15,0,0,0,0-1.76c0-.15,0,.07-.18.07-.78,0-1.35,0-1.57.41a2.79,2.79,0,0,0-.24,1.32A2.06,2.06,0,0,0,52,11.17a.88.88,0,0,0,.61.49,3.67,3.67,0,0,0,.82.07C53.61,11.77,53.72,11.94,53.74,11.81Zm4.72-1.74a2.09,2.09,0,0,0-.37-1.21c-.22-.36-.62-.5-1.39-.5-.15,0-.18-.24-.2-.1A7.23,7.23,0,0,0,56.31,10a8.17,8.17,0,0,0,0,1.79c0,.13.24-.13.37-.13a3.59,3.59,0,0,0,.94-.06.88.88,0,0,0,.61-.61A2.51,2.51,0,0,0,58.46,10.06Z"/><path class="cls-1" d="M70.25,12.15c0,.54,0,1-.23,1.28a1.93,1.93,0,0,1-1.34.41l-2.18,0c-1.09,0-1.09-.18-2.18-.18A1.79,1.79,0,0,1,63,13.26a2.57,2.57,0,0,1-.79-2,2.41,2.41,0,0,1,.71-1.94A2.34,2.34,0,0,1,64.31,9c.81,0,.81.11,1.62.11a16,16,0,0,0,1.63.08c.06,0,.11-.18.11-.24a.92.92,0,0,0-.22-.52,1.09,1.09,0,0,0-.88-.28c-.93,0-.93.05-1.86.05s-1.13.55-1.79-.11-.78-1.17-.17-1.86.91,0,1.73,0,.82,0,1.64,0,.82.17,1.64.17a2.56,2.56,0,0,1,1.86.59A2.85,2.85,0,0,1,70.18,9c0,.78,0,.77,0,1.55S70.25,11.37,70.25,12.15Zm-2.64-.87c0-.23.14-.29-.08-.34-.95-.22-.95,0-1.92,0-.18,0-.25,0-.33.07s-.28.13-.28.29a.64.64,0,0,0,.14.42c.08.07.28-.09.44-.09.71,0,.71,0,1.43,0a.56.56,0,0,0,.37-.07C67.47,11.52,67.61,11.45,67.61,11.28Z"/><path class="cls-1" d="M82.44,13.7c-.38.57-.64.15-1.33.15s-1.09.51-1.46-.06c-.55-.84,0-1.06.07-2.07s.22-1,.25-2c0-.11-.12-.28-.19-.28s0,.21,0,.34c-.29.83-.33.82-.62,1.65s-.31.83-.6,1.66c-.17.49-.66.66-1.35.66s-1-.24-1.17-.73c-.29-.83-.3-.83-.59-1.66s-.36-.81-.65-1.64a.27.27,0,0,0-.2-.2c-.07,0-.06.07-.06.18,0,1-.1,1-.07,2s.82,1.23.28,2.06c-.37.57-.79,0-1.48,0s-1.1.55-1.49,0c-.57-.84.14-1.09.14-2.11s-.07-1-.07-2,.16-1,.16-2a1,1,0,0,1,.55-1,2.44,2.44,0,0,1,1.3-.52,1.78,1.78,0,0,1,1.82,1.28c.29.8.32.79.61,1.6s.28.81.57,1.61c.08.21.24.16.34.16s.12,0,.2-.21c.29-.81.31-.8.6-1.6s.47-.74.77-1.54.79-1.06,1.79-1.06a2.53,2.53,0,0,1,1.35.21,1.19,1.19,0,0,1,.61,1.06c0,1,0,1,0,2a8.21,8.21,0,0,0,.14,2C82.79,12.71,83,12.86,82.44,13.7Z"/><path class="cls-1" d="M92.53,13.7c-.39.57-.64.15-1.33.15s-1.08.51-1.46-.06c-.54-.8,0-1,.07-2s.21-1,.25-1.92c0-.15-.12-.34-.2-.34s0,.26-.16.41c-.66.82-.69.8-1.34,1.62s-.67.81-1.33,1.63a1.53,1.53,0,0,1-.71.45,2.14,2.14,0,0,1-.73,0c-1,0-1.45-.34-1.45-1.28s-.07-1-.07-2,0-1,0-2-.62-1.21,0-2.06c.38-.57.72.12,1.4.12s1.09-.74,1.48-.17c.54.8,0,1-.08,2s0,1,0,1.93c0,.14-.11.23,0,.23s.11-.12.22-.26c.67-.84.79-.75,1.47-1.59s.66-.85,1.33-1.7A1.53,1.53,0,0,1,91,6.13c1.06,0,1.5.59,1.5,1.58s0,1,0,2a8.35,8.35,0,0,0,0,2C92.66,12.75,93.1,12.87,92.53,13.7Z"/><path class="cls-1" d="M103.16,13.72c-.21.65-.63.14-1.32.14s-.9.39-1.44,0-.34-.85-.67-1.65-.16-.87-.48-1.67S99,9.7,98.63,8.9c-.06-.13-.2,0-.24,0s0,0-.06.11c-.33.8-.34.79-.66,1.59s-.42.76-.75,1.56,0,1-.69,1.51-.61,0-1.29,0-1.12.76-1.33.1c-.29-.9.38-.83.79-1.69s.36-.88.77-1.73.54-.8.95-1.65.21-1,.62-1.81a1.77,1.77,0,0,1,1.66-.7,1.79,1.79,0,0,1,1.66.69c.41.85.26.93.67,1.78s.47.83.88,1.68.12,1,.69,1.8S103.45,12.81,103.16,13.72Z"/><path class="cls-1" d="M112.12,11.45a2.77,2.77,0,0,1-.44,1.94,2.08,2.08,0,0,1-1.42.46l-1.53,0c-.77,0-.77-.18-1.54-.18l-1.54,0c-.49,0-.94.06-1.18-.2a1.72,1.72,0,0,1-.37-1.17c0-1,0-1,0-2s.11-1,.11-2-.5-1.1.06-1.91c.39-.56.58,0,1.27,0s1-.7,1.33-.09c.6,1.08-.67,1.44,0,2.46.47.69.85,0,1.69,0s.84.14,1.67.14c.63,0,1.2,0,1.52.43A3.86,3.86,0,0,1,112.12,11.45Zm-2.69-.29c0-.21-.16-.26-.26-.33a1,1,0,0,0-.52-.1c-.85,0-.86-.27-1.68,0-.25.08-.12.17-.12.43a.68.68,0,0,0,.68.72c.56,0,.56-.23,1.12-.23.27,0,.41,0,.52-.06A.46.46,0,0,0,109.43,11.16Z"/><path class="cls-1" d="M121.43,13.7c-.41.55-.64.15-1.33.15s-1,.45-1.45,0,0-.78,0-1.49.75-1.14.14-1.49a2,2,0,0,0-2.53,0c-.61.36.17.8.17,1.51s.43,1-.06,1.47-.75,0-1.43,0-.93.46-1.34-.09c-.55-.74.09-.9.09-1.83s0-.93,0-1.85-.07-.93-.07-1.86-.59-1.1,0-1.85c.41-.55.67,0,1.36,0s1-.52,1.28.08c.61,1.15-.71,1.52.18,2.47s1.44.91,2.27,0-.66-1.45-.05-2.6c.32-.61.81.09,1.49.09s1-.6,1.4-.05c.55.74-.15.95-.15,1.87s0,.93,0,1.85a7.22,7.22,0,0,0,.2,1.84C121.73,12.8,122,13,121.43,13.7Z"/><path class="cls-1" d="M130.94,11.45a2.77,2.77,0,0,1-.44,1.94,2.08,2.08,0,0,1-1.42.46l-1.53,0c-.77,0-.77-.18-1.54-.18l-1.54,0c-.49,0-.94.06-1.18-.2a1.72,1.72,0,0,1-.37-1.17c0-1,0-1,0-2s.11-1,.11-2-.5-1.1.06-1.91c.39-.56.58,0,1.27,0s1-.7,1.33-.09c.6,1.08-.67,1.44,0,2.46.47.69.85,0,1.69,0s.84.14,1.67.14c.63,0,1.2,0,1.52.43A3.86,3.86,0,0,1,130.94,11.45Zm-2.69-.29c0-.21-.16-.26-.26-.33a1,1,0,0,0-.52-.1c-.85,0-.86-.27-1.68,0-.25.08-.12.17-.12.43a.68.68,0,0,0,.68.72c.56,0,.56-.23,1.12-.23.27,0,.41,0,.52-.06A.46.46,0,0,0,128.25,11.16Zm6.4,2.54c-.41.55-.64.15-1.33.15s-1.05.5-1.46-.06c-.55-.74,0-1,0-1.92S132,11,132,10s0-.93,0-1.86-.75-1.18-.2-1.93c.41-.55.78,0,1.47,0s1-.51,1.42,0c.55.74-.09,1-.09,1.89s-.08.93-.08,1.85a7.44,7.44,0,0,0,0,1.88C134.74,12.84,135.2,13,134.64,13.7Z"/><path class="cls-1" d="M144.74,13.7c-.39.57-.64.15-1.33.15s-1.08.51-1.46-.06c-.54-.8,0-1,.07-2s.21-1,.25-1.92c0-.15-.12-.34-.2-.34s0,.26-.16.41c-.66.82-.69.8-1.34,1.62s-.67.81-1.33,1.63a1.53,1.53,0,0,1-.71.45,2.14,2.14,0,0,1-.73,0c-1,0-1.45-.34-1.45-1.28s-.07-1-.07-2,0-1,0-2-.62-1.21,0-2.06c.38-.57.72.12,1.4.12s1.09-.74,1.48-.17c.54.8,0,1-.08,2s0,1,0,1.93c0,.14-.11.23,0,.23s.11-.12.22-.26c.67-.84.79-.75,1.47-1.59s.66-.85,1.33-1.7a1.53,1.53,0,0,1,1.21-.72c1.06,0,1.5.59,1.5,1.58s0,1,0,2a8.35,8.35,0,0,0,0,2C144.87,12.75,145.3,12.87,144.74,13.7Zm-1.1-10a3.2,3.2,0,0,1-.83,1.81,3.46,3.46,0,0,1-2.31.69,3.4,3.4,0,0,1-2.29-.72,3,3,0,0,1-.84-1.75c.82-.38.86-.09,1.76,0,.07.23.28.25.44.42a1.14,1.14,0,0,0,.94.39,1.2,1.2,0,0,0,1-.35c.16-.17.34-.29.4-.52C142.68,3.25,142.82,3.32,143.64,3.7Z"/><path class="cls-1" d="M57,23.8a12.22,12.22,0,0,1,.07,1.53,3.58,3.58,0,0,1-.53,1.45,2.41,2.41,0,0,1-1.21.84,5.09,5.09,0,0,1-1.45,0c-1,0-1.45-.75-2.11,0s.78,1.48.18,2.51c-.34.59-.79,0-1.48,0s-1,.49-1.42,0,.09-.88.09-1.72.08-.84.08-1.67,0-.84,0-1.68-.07-.84-.07-1.68,0-.84,0-1.68a1.36,1.36,0,0,1,.47-1.18,2,2,0,0,1,1.07-.13c.86,0,.86-.23,1.72-.23s.86,0,1.72,0a3.08,3.08,0,0,1,2.24.77,3,3,0,0,1,.52,1.38A6.17,6.17,0,0,1,57,23.8ZM54.3,24A2.36,2.36,0,0,0,54,23a.78.78,0,0,0-.87-.56l-1,0c-.08,0-.22-.12-.29-.06a.54.54,0,0,0-.14.31c0,.77.23.77.23,1.55s-.53.89-.05,1.5.54,0,1.14,0a1.07,1.07,0,0,0,1.06-.49A2.81,2.81,0,0,0,54.3,24Z"/><path class="cls-1" d="M66.16,23.22c0,.66,0,1.21-.32,1.45a1.39,1.39,0,0,1-.8.23l-2,0c-1,0-1-.3-2-.18a1.53,1.53,0,0,0,0,.75c.1.16.39.09.63.14a3.9,3.9,0,0,0,.69.06l1.8,0c.9,0,1.17-.57,1.77.09s.55,1.1-.07,1.88c-.48.61-.68,0-1.46,0s-.78.07-1.56.07-.78,0-1.56,0a7.19,7.19,0,0,1-1.52-.07,1.77,1.77,0,0,1-1-.91,2.64,2.64,0,0,1-.54-1.25c0-.38,0-.85,0-1.38,0-1,0-1.59,0-1.85A2.25,2.25,0,0,1,58.88,21a2.5,2.5,0,0,1,1.45-.68c.44-.06,1.12.06,2,.06a17.94,17.94,0,0,1,1.86.06,2.94,2.94,0,0,1,1.26.26c.31.25.37.73.5,1.25A5.21,5.21,0,0,1,66.16,23.22Zm-2.64-.56c0-.33-.34-.39-.9-.42l-.38,0c-.57,0-.86,0-1,.17a1,1,0,0,0-.25.76,8.12,8.12,0,0,0,2,0A.5.5,0,0,0,63.52,22.66Z"/><path class="cls-1" d="M76.65,27.69c-.7.7-1,.16-1.94.16h-2l-2,0c-1,0-1-.18-2-.18a1,1,0,0,1-.75-.27c-.23-.21-.54-.42-.54-.79,0-.78,0-.78,0-1.56s0-.78,0-1.57.11-.79.11-1.57-.46-.9.05-1.49.59,0,1.28,0,.89-.61,1.34-.09,0,.78,0,1.59.05.81.05,1.62-.14.81-.14,1.62c0,.21.23.27.32.36s.15.12.37.12c.93,0,1.1.64,1.77,0s.13-.81.13-1.71-.07-.91-.07-1.81-.41-1,.13-1.74c.41-.55.59,0,1.28,0s1-.71,1.45-.16c.55.72-.18,1-.18,1.87s0,.91,0,1.81-.49,1.09,0,1.86c.31.49.83-.48,1.31-.15C77.62,26.22,77.35,27,76.65,27.69Z"/><path class="cls-1" d="M85.41,23.22c0,.66,0,1.21-.32,1.45a1.39,1.39,0,0,1-.8.23l-2,0c-1,0-1-.3-2-.18a1.53,1.53,0,0,0,0,.75c.1.16.39.09.63.14a3.9,3.9,0,0,0,.69.06l1.8,0c.9,0,1.17-.57,1.77.09s.55,1.1-.07,1.88c-.48.61-.68,0-1.46,0s-.78.07-1.56.07-.78,0-1.56,0A7.19,7.19,0,0,1,79,27.64a1.77,1.77,0,0,1-1-.91,2.64,2.64,0,0,1-.54-1.25c0-.38,0-.85,0-1.38,0-1,0-1.59,0-1.85A2.25,2.25,0,0,1,78.13,21a2.5,2.5,0,0,1,1.45-.68c.44-.06,1.12.06,2,.06a17.94,17.94,0,0,1,1.86.06,2.94,2.94,0,0,1,1.26.26c.31.25.37.73.5,1.25A5.21,5.21,0,0,1,85.41,23.22Zm-2.64-.56c0-.33-.34-.39-.9-.42l-.38,0c-.57,0-.86,0-1,.17a1,1,0,0,0-.25.76,8.12,8.12,0,0,0,2,0A.5.5,0,0,0,82.77,22.66Z"/><path class="cls-1" d="M94.77,27.7c-.39.57-.64.15-1.33.15s-1,.48-1.46-.05,0-.92,0-1.76.18-.85.18-1.69,0-.85,0-1.69c0-.17-.23-.2-.31-.27a.36.36,0,0,0-.29-.11l-1.51,0c-.15,0-.29-.06-.38,0a.56.56,0,0,0-.23.39c0,.85,0,.85,0,1.69s.07.85.07,1.69.57,1,0,1.69-.67,0-1.36,0-.9.47-1.29-.09c-.57-.82-.21-.94-.21-1.94s0-1,0-2,0-1,0-2a1.43,1.43,0,0,1,.51-1,1.75,1.75,0,0,1,1.31-.47c.77,0,.77.16,1.54.16H91.6c.77,0,.77-.2,1.54-.2a1.66,1.66,0,0,1,1.26.57,1.22,1.22,0,0,1,.35,1c0,1,0,1,0,2a8.06,8.06,0,0,0,.21,2C95.12,26.72,95.34,26.88,94.77,27.7Z"/><path class="cls-1" d="M104.18,22.24c-.4.57-.65.15-1.34.15s-.88-.61-1.3-.05c-.55.72,0,.84,0,1.75s-.18.91-.18,1.82.55,1,0,1.76c-.41.55-.6.18-1.29.18s-1,.48-1.44-.07c-.55-.73,0-1,0-1.87s.11-.91.11-1.82.61-1.17.06-1.9c-.42-.55-.79,0-1.49,0s-.95.66-1.35.09c-.57-.8-.66-1.17,0-1.92s.82,0,1.64,0,.83.14,1.65.14.83-.23,1.66-.23.83,0,1.66,0,1-.41,1.72,0C105.18,20.65,104.75,21.44,104.18,22.24Z"/></g></g></g></svg>