<svg xmlns="http://www.w3.org/2000/svg" viewBox="0 0 66.03 66.37"><defs><style>.cls-1{fill:#b3282d;}</style></defs><title>family-recipe-logo</title><g id="Слой_2" data-name="Слой 2"><g id="Desktop"><g id="Каталог_Раздел" data-name="Каталог Раздел"><path class="cls-1" d="M33.11,66.37c-.46,0-.93-.1-1.41-.13s-.94,0-1.41,0-.9-.27-1.37-.34-1,0-1.42-.07-.9-.28-1.36-.4-.91-.23-1.36-.36-.86-.4-1.31-.54-1-.1-1.4-.25-.82-.49-1.26-.66-.94-.2-1.37-.38-.87-.38-1.29-.58-.81-.49-1.23-.71-.78-.55-1.18-.78-.83-.44-1.23-.69-.87-.4-1.25-.66-.71-.64-1.07-.92a6.34,6.34,0,0,1-.89-.9,9,9,0,0,1-.73-1c-.23-.35-.51-.68-.73-1s-.4-.83-.66-1.22a11.85,11.85,0,0,0-.89-1.08,5,5,0,0,0-.88-.62c-.29-.23-.51-.51-.81-.7a8.09,8.09,0,0,1-1.33-.85,8.3,8.3,0,0,1-.86-1,12.64,12.64,0,0,1-.67-1.15c-.22-.38-.4-.79-.59-1.19s-.39-.8-.56-1.21-.37-.82-.52-1.23-.28-.86-.41-1.27-.3-.87-.42-1.26-.1-1-.2-1.32S.7,40.9.61,40.48s0-.89-.11-1.32-.22-.86-.27-1.29S.12,37,.09,36.55s0-.88,0-1.32S0,34.35,0,33.91s.24-.86.29-1.3.13-.86.2-1.3,0-.89.08-1.32.24-.84.35-1.27.22-.84.34-1.28.19-.85.32-1.28a7.12,7.12,0,0,0,.31-1.62c0-.56.09-1.11.09-1.65s0-1,0-1.52a6.19,6.19,0,0,1,.35-1.47,6.31,6.31,0,0,1,.38-1.11c.18-.34.43-.65.65-1s.34-.72.56-1,.73-.7,1-1.09.32-.82.57-1.21.49-.73.75-1.1.47-.76.74-1.11.56-.7.85-1,.62-.65.93-1,.72-.53,1.06-.82a5.71,5.71,0,0,1,.91-.59c.31-.18.61-.4.95-.57s.84-.39,1.24-.63a5.76,5.76,0,0,0,1-.94c.12-.12.18-.05.3-.17.36-.37.74-.65,1.07-1s.71-.64,1.08-.94a10.78,10.78,0,0,1,1.1-.93A13.53,13.53,0,0,1,18.67,3c.44-.21.87-.42,1.32-.61s.95-.23,1.4-.4.89-.38,1.34-.53.91-.33,1.37-.46S25,.73,25.49.62s1-.1,1.44-.19.95-.15,1.42-.22A11,11,0,0,1,29.92,0a13.67,13.67,0,0,1,1.53,0c.47,0,1,.23,1.5.32s1,.07,1.55.14l1.54.19c.52.06,1,.2,1.54.26S38.51,1,39,1s.92.05,1.37.11.9.17,1.36.23.91.15,1.35.24.92.1,1.36.21.9.21,1.33.35.8.31,1.25.47.8.37,1.22.56.81.36,1.21.57.78.43,1.16.68a12.28,12.28,0,0,1,1,.85,10.09,10.09,0,0,1,1.07.82c.29.31.55.62.85.89s.61.56.92.82.63.54.94.79.66.62,1,.9.69.56,1,.88a10.67,10.67,0,0,1,1,.88,9.93,9.93,0,0,1,.61,1.22c.22.39.49.76.72,1.15s.39.81.62,1.21.46.78.67,1.18.43.79.63,1.2.44.79.63,1.2.51.76.69,1.18.32.85.49,1.28.26.87.4,1.3.34.84.47,1.28.26.87.37,1.32a7.9,7.9,0,0,1,.17,1.06c0,.35-.05.72,0,1.07s.1.8.14,1.2a7.22,7.22,0,0,0,.31,1.16c.11.38.07.77.17,1.09s.33.83.42,1.23a5.68,5.68,0,0,1,.1,1.28,6,6,0,0,1-.09,1.29,12.16,12.16,0,0,0-.12,1.31c0,.46-.13.87-.14,1.3s-.05.84,0,1.31c0,.2.15.19.15.39a9.39,9.39,0,0,1-.24,1.41,11.76,11.76,0,0,1-.34,1.36c-.12.45-.08,1-.25,1.4s-.33.89-.52,1.32-.55.78-.77,1.2-.4.86-.63,1.27-.49.81-.74,1.21-.56.77-.81,1.16A8.54,8.54,0,0,0,61,50.11c-.19.43-.29.88-.44,1.3s-.37,1-.61,1.45a6.66,6.66,0,0,1-.81,1.29c-.31.38-.72.71-1.07,1.07s-.76.7-1.1,1-.26.29-.54.57-.6.67-.93,1-.71.56-1.05.86-.64.65-1,.93-.8.45-1.17.7-.79.45-1.18.67a10.16,10.16,0,0,1-1.32.68c-.46.17-.94.28-1.42.43s-.81.32-1.22.46-.79.33-1.19.52-.89.2-1.29.38-.78.46-1.18.63-.85.28-1.26.43-.8.42-1.21.56-.88.19-1.3.31-.88.15-1.31.25-.84.32-1.27.39-.88.15-1.32.2-.88.11-1.32.14-.88,0-1.32,0C33.08,66.37,33.11,66.37,33.11,66.37Zm-8.3-9.52A1.65,1.65,0,0,0,25,58.19a1.21,1.21,0,0,0,.63.35,1.76,1.76,0,0,0,.53.27c.67.12.7-.07,1.36.05s.65.2,1.32.32l1.33.23c.67.12.64.26,1.31.37s.7-.09,1.37,0c0,0,0,.18,0,.18s.2-.2.23-.36c.15-.87.15-.87.3-1.74,0-.09.08-.14,0-.22s-.09-.23-.18-.24c-.31-.05-.49.27-.58,0-.18-.6,0-.61.09-1.23s.22-.6.33-1.21.15-.61.26-1.23.14-.61.25-1.23c0-.09-.08-.22-.13-.29s-.14-.21-.23-.23c-.57-.1-.58,0-1.14-.13s-.59,0-1.16,0c0,0,0-.12,0-.12s-.19.15-.22.31c-.11.61-.12.61-.23,1.23s-.17.61-.27,1.22-.14.61-.24,1.23.35,1-.21,1.27c-.76.38-.87-.1-1.71-.24a.85.85,0,0,1-.25-.11,1.69,1.69,0,0,1,0-.35c.14-.77.3-.74.43-1.51s0-.79.14-1.56.28-.74.42-1.51c0-.18-.17-.37-.35-.4l-1.08-.17c-.54-.09-.54-.09-1.07-.21,0-.05-.12,0-.17,0-.54-.33-.45-.49-1-.82s-.53-.36-1.07-.69-.63-.2-1.17-.53-.51-.39-1.06-.72a1.74,1.74,0,0,0-.89-.28c-.08,0-.16.07-.24.08a1.32,1.32,0,0,0-.89.66c-.32.52-.36.49-.68,1s-.28.54-.6,1.06-.39.48-.71,1-.23.57-.55,1.09a1.44,1.44,0,0,0-.27,1.21c.1.31.43.51.82.75.54.33.44.51,1,.85s.63.2,1.18.53l1.09.68c.55.34.58.29,1.12.62a.18.18,0,0,0,.13,0s0,0,.07,0,.23,0,.28-.06c.45-.74.48-.72.93-1.46a.47.47,0,0,0-.18-.55c-.49-.3-.48-.32-1-.62s-.56-.19-1.06-.49-.45-.38-.94-.68c-.15-.1-.13-.09-.13-.09.12-.18-.06-.36.16-.31a2.25,2.25,0,0,1,1,.5c.51.31.53.28,1,.59l1,.61c.05,0,.07.18.13.18s.06-.05.08-.06.13-.1.18-.18l.81-1.32c0-.08.17-.17.15-.26a.55.55,0,0,0-.18-.27c-.5-.31-.54-.25-1-.56s-.56-.22-1.07-.52a4.63,4.63,0,0,1-.95-.71c-.08-.07,0-.09,0-.17a.39.39,0,0,1,.1-.1.24.24,0,0,0,.09.14c.5.31.52.28,1,.58s.53.27,1,.57.47.35,1,.66a.38.38,0,0,0,.19.06c.11,0,.17-.11.23-.22s.35-.46.34-.28a8.93,8.93,0,0,1-.3,1.5c-.13.75-.21.73-.32,1.49S24.93,56.1,24.8,56.85Zm15.23-6c-.62.12-.64,0-1.27.17s-.61.21-1.23.34-.66,0-1.28.11-.59.31-1.22.43a1.46,1.46,0,0,0-1,.49,1.32,1.32,0,0,0-.18,1.09c.12.6,0,.62.1,1.22s.33.56.45,1.15-.05.63.07,1.23.29.57.41,1.17a1.22,1.22,0,0,0,.61,1,1.24,1.24,0,0,0,.61.23c.14,0,.31.1.48.07.63-.13.62-.16,1.24-.29s.6-.26,1.23-.38.65,0,1.28-.14.64-.08,1.27-.21a.54.54,0,0,0,.29-.15c.05-.07,0-.23,0-.32-.17-.85-.1-.86-.27-1.71,0-.09-.15-.18-.23-.23s-.15.09-.21.09,0-.12-.07-.11c-.57.11-.54.23-1.11.35l-1.14.21c-.57.11-.58.05-1.15.17a1,1,0,0,1-.22,0c-.07-.21-.29-.35-.1-.47.5-.31.58-.17,1.16-.28l1.16-.21c.58-.12.57-.15,1.15-.26.18,0,.38-.13.34-.31-.15-.76-.28-.73-.43-1.49,0-.16-.11-.36-.26-.36s0,.09-.06.09l-1.15.25c-.58.12-.58.09-1.16.21s-.57.32-1.16.33c-.1,0,.06-.22,0-.31s0-.07,0-.08l-.11-.05a.16.16,0,0,0,.12,0l1.15-.23c.57-.11.56-.17,1.14-.29l1.15-.22a.34.34,0,0,0,.29-.37c0-.16-.18-.46-.08-.33.45.56.31.66.7,1.26s.47.56.85,1.17.34.64.73,1.25.48.55.87,1.16c0,.08,0,.29.11.31s.07-.15.1-.15a.25.25,0,0,0,.16,0c.49-.31.46-.35.94-.66l1-.6c.16-.1.21-.2.11-.36-.33-.52-.22-.59-.55-1.11s-.3-.54-.63-1.06-.39-.49-.72-1S44,52,43.69,51.49c0-.06-.18-.08-.18-.1S44.32,51,45,50.5c0,0,.05,0,.07,0s0,0,0,.07c.33.52.44.45.77,1s.36.5.69,1l.67,1c.33.52.2.6.53,1.12a.41.41,0,0,0,.34.13c.06,0,.11-.05.16-.09l1-.61c.49-.31.55-.21,1-.52a.55.55,0,0,0,.2-.26c0-.09-.06-.22-.11-.3-.34-.54-.43-.48-.77-1s-.25-.6-.59-1.14-.42-.49-.76-1-.37-.53-.68-1.09a.53.53,0,0,0,.3-.12c.33-.44.3-.46.63-.9s.1-.88.64-.92.49.42,1,.79l1,.76c.5.38.55.31,1.06.68s.52.35,1,.73c.06,0,.07.08.14.08s0,.05,0,.05a.32.32,0,0,0,.21-.14l.69-.92c.34-.46.41-.41.75-.87.11-.15,0-.34-.16-.45-.5-.37-.48-.4-1-.78s-.49-.39-1-.77-.48-.4-1-.78-.79-.14-.92-.76.29-.38.63-.82.19-.54.52-1c.11-.15.21-.36.06-.47-.71-.53-.73-.5-1.44-1-.06,0-.15-.14-.22-.14l-.06,0a.49.49,0,0,0-.27.16c-.44.59-.41.61-.85,1.2s-.33.67-.77,1.26-.47.57-.92,1.16-.5.55-.94,1.14-.4.63-.84,1.22a.55.55,0,0,0-.08.17,2.2,2.2,0,0,0-.85.35c-.63.39-.68.3-1.31.7s-.6.44-1.23.84-.58.48-1.21.87c-.43.27-.81.44-.93.74,0,0,0,0-.08-.08s-.11-.11-.18-.11S40.06,50.83,40,50.84ZM15,49.43a2.18,2.18,0,0,0,1.21.93c.1,0,.2-.06.31-.06a2.35,2.35,0,0,0,1.16-.17c.31-.16.54-.53.89-.8a5.44,5.44,0,0,0,.88-.72,2.13,2.13,0,0,0,.48-1,2.29,2.29,0,0,0-.47-1.8c-.4-.52-.57-.39-1-.9s-.27-.62-.67-1.14-.54-.41-.94-.93a1.33,1.33,0,0,0-1-.6v-.09a1.89,1.89,0,0,0-1.22.34c-.57.44-.54.47-1.11.92s-.49.55-1.06,1-.64.36-1.21.8-.6.41-1.17.85a.52.52,0,0,0-.1.6c.35.45.41.41.76.86s.29.5.65,1c.05.07.22.09.31.1s0-.15,0-.15.15.09.21,0c.68-.53.49-1.18,1.35-1.18.67,0,.47.59.89,1.1S14.55,48.91,15,49.43Zm17.59-2.16a.63.63,0,0,0,.2.74c.11.07.25,0,.38,0s.34.08.46,0a11.71,11.71,0,0,0,.91-1,11.19,11.19,0,0,0,1-1,11.44,11.44,0,0,0,.8-1.15,11.8,11.8,0,0,0,1.07,1.29,12.29,12.29,0,0,0,1.43.83c.11.07.18.27.31.27s.09-.18.11-.18a.5.5,0,0,0,.45-.67s.05-.13,0-.15c-.17-.45-.4-.43-.22-.87s.28,0,.64,0,.44-.29.52-.57a.64.64,0,0,0-.16-.74,8.6,8.6,0,0,1-1.39-1.27c.43-.07.79,0,1.22-.09s.84-.2,1.27-.25.87,0,1.29-.09.85-.17,1.28-.22.84-.24,1.27-.28.87,0,1.3,0,.85-.19,1.28-.22h.14a1.14,1.14,0,0,0,.75-.4,1.22,1.22,0,0,0,.26-1C49,39.59,49,39.6,48.87,39s-.17-.63-.3-1.27-.11-.64-.23-1.28-.16-.63-.28-1.27,0-.67-.09-1.31a1.29,1.29,0,0,0-.7-.78c-.19-.11-.38-.31-.6-.31s-.16.09-.24.11a1.11,1.11,0,0,0-.15.06c-.45.15-.92.27-1.41.42s-.9.38-1.39.52-1,.09-1.44.22c0-.19.06-.31,0-.51s-.23-.74-.27-1.24a7.82,7.82,0,0,0,1.24-.24,7.13,7.13,0,0,0,1.13-.47,7.44,7.44,0,0,0,1-.71,8.09,8.09,0,0,0,.92-.8,5.3,5.3,0,0,0,.79-.94A5.72,5.72,0,0,0,47.38,28a6.13,6.13,0,0,0,.35-1.19,6.65,6.65,0,0,0-.07-1.24A5.76,5.76,0,0,0,47.36,24a7.32,7.32,0,0,0-.8-1.37,6.79,6.79,0,0,0-.85-1.36,6.65,6.65,0,0,0-1.19-.69A7,7,0,0,0,43.3,20,7.69,7.69,0,0,0,42,19.74a7.89,7.89,0,0,0-1.34-.12,9.3,9.3,0,0,0-1.6.1,7,7,0,0,0-.92-1.14,6.14,6.14,0,0,0-1.2-.82,6.89,6.89,0,0,0-1.38-.43,9.4,9.4,0,0,0-1.41-.26c-.48,0-1,.08-1.43.08a8.54,8.54,0,0,0-1.3,0,6.33,6.33,0,0,0-1.28.27A5.82,5.82,0,0,0,29,18,7.12,7.12,0,0,0,28,19a9.62,9.62,0,0,0-.81,1s-.12,0-.16,0a8.17,8.17,0,0,0-1.59-.41,8.58,8.58,0,0,0-1.34.15,7.6,7.6,0,0,0-1.29.36,6.75,6.75,0,0,0-1.22.55,6.28,6.28,0,0,0-1.15.71,6.53,6.53,0,0,0-1,1.23,7.18,7.18,0,0,0-.65,1.46,5.75,5.75,0,0,0-.23,1.56,6.47,6.47,0,0,0-.08,1.23A6,6,0,0,0,18.87,28a5.62,5.62,0,0,0,.5,1.11,5.45,5.45,0,0,0,.67,1A8.11,8.11,0,0,0,21,31a7.3,7.3,0,0,0,1.06.62,7.11,7.11,0,0,0,1.11.52,7.24,7.24,0,0,0,1.18.27c0,.51,0,.88,0,1.23s0,.68-.06,1.06-.06.64-.06,1.06c0,.61.05,1,.71,1.18a6.83,6.83,0,0,0,1.54.23c-.42,0-.83.12-1.25.16s-.84,0-1.25,0-.82.19-1.23.22c-.05,0-.1,0-.16,0a1.21,1.21,0,0,0-.75.44,1.27,1.27,0,0,0-.26,1c.13.64,0,.65.17,1.29s.15.63.27,1.27.3.61.42,1.24-.05.67.07,1.32.17.63.29,1.27a1.38,1.38,0,0,0,.58.93,1.44,1.44,0,0,0,.69.17l.26,0s.1-.06.15-.08c.45-.15.86-.42,1.31-.56s.92-.24,1.38-.37.93-.2,1.39-.32.9-.31,1.36-.43l1.38-.37c.46-.11,1-.19,1.46-.29a9.54,9.54,0,0,1-1.16,1.07.7.7,0,0,0-.16.78c.1.26.34.33.62.33s.41-.08.71.14S32.67,46.8,32.54,47.27ZM53.2,32.43c-.09,0-.19,0-.25,0s0,.16,0,.25c0,.52-.1.53-.06,1s.23.5.27,1c0,.09,0,.16,0,.22a.27.27,0,0,0,.2.06,5.07,5.07,0,0,0,1.22,0c.37,0,.77-.28,1.19-.31s.86.1,1.23.07c.69-.06.59-.22,1.19-.27A1.75,1.75,0,0,0,59.51,34a1.65,1.65,0,0,0,.43-1.33l0,0a3,3,0,0,0,1.29.6s.07-.12.09-.12.18.08.24,0a.45.45,0,0,0,.17-.31c-.05-.64,0-.64-.07-1.27,0-.13-.19-.27-.31-.31a.51.51,0,0,1-.28-.24.66.66,0,0,1-.23-.46c0-.23-.11-.47,0-.61s.25-.11.39-.18.07-.19.06-.33c-.05-.63,0-.64-.09-1.27,0-.11,0-.18-.08-.24a.31.31,0,0,0-.15-.07s-.08,0-.12.05a3.13,3.13,0,0,0-1.28.89c-.25-.73,0-.79-.11-1.56,0-.17-.1-.21-.27-.21a4.44,4.44,0,0,0-1.22-.06c-.37,0-.79.2-1.21.23s-.86-.08-1.24,0c-.7.06-.6.14-1.21.19a3.84,3.84,0,0,0-.45,0c.6-.34.62-.31,1.23-.63s.56-.42,1.17-.74.7-.17,1.31-.49.63-.3,1.24-.63c.16-.09.13-.37,0-.53-.48-.9-.43-.93-.9-1.83a.36.36,0,0,0-.21-.17s-.07,0-.1,0a.28.28,0,0,0-.15,0c-.75.4-.77.35-1.52.75s-.72.46-1.48.83a2.79,2.79,0,0,0,.44-.38,1.68,1.68,0,0,0,0-1.84c-.29-.55-.25-.58-.54-1.13s-1-.59-.69-1.14c.48-.85,1-.31,1.85-.77.08,0,0-.23.06-.31a.26.26,0,0,0,0-.22c-.48-.9-.53-.87-1-1.77-.06-.11-.09-.14-.21-.14s-.08,0-.13,0c-.56.3-.62.19-1.19.49s-.58.28-1.14.58-.53.36-1.1.66-.58.28-1.14.58a2.45,2.45,0,0,0-.52.34c.42-.53.5-.47.94-1s.49-.48.92-1l.88-1c.43-.53.34-.61.77-1.14.12-.14.08-.27-.07-.39l-1.58-1.29c-.06-.05-.08-.2-.16-.2s0,.05,0,.05a.33.33,0,0,0-.2.15c-.61.74-.29,1.31-1.23,1.48s-1.16-.25-1.17-1.06.6-.67,1.2-1.4a.51.51,0,0,0,0-.31c0-.09-.14-.11-.21-.17-.79-.65-.72-.73-1.51-1.38-.06-.05-.16,0-.24,0a.25.25,0,0,0-.22.1c-.39.47-.46.41-.85.88s-.36.49-.75,1-.35.5-.74,1-.41.45-.81.91a4.4,4.4,0,0,0,.26-.49,3.23,3.23,0,0,0,.18-1.48,1.47,1.47,0,0,0-1.12-1.32c-.59-.22-.57-.25-1.16-.47s-1,.11-1.15-.5c-.2-1,.33-.92.68-1.83a.31.31,0,0,0,0-.24c0-.08-.07-.21-.15-.24-1-.36-1-.24-2-.6,0,0-.05-.05-.09-.05a.3.3,0,0,0-.3.19c-.22.57-.24.56-.46,1.13s-.29.54-.5,1.12-.19.58-.41,1.16.25,1.26-.36,1.27-.14-.69-.36-1.26-.26-.55-.47-1.12-.16-.59-.37-1.16-.24-.56-.45-1.13a1.72,1.72,0,0,0-1.71-1c-.07,0-.07,0-.14,0a1.46,1.46,0,0,0-1.47.88c-.25.55-.29.53-.55,1.08s-.32.52-.58,1.07-.2.57-.46,1.12,0,1.15-.56,1.15-.24-.6-.41-1.15-.07-.58-.24-1.14-.22-.54-.39-1.09a2,2,0,0,0-.63-.91,1.53,1.53,0,0,0-1-.53,2.6,2.6,0,0,0-.7.18,1.82,1.82,0,0,0-1.35,1.33c-.15.68-.1.69-.25,1.37s.38,1.49-.32,1.45-.22-.79-.42-1.49-.14-.72-.34-1.42c0-.09-.17-.05-.25-.1S24,7.86,24,7.86s-.1-.05-.13,0c-.5.15-.44.33-.94.49l-1,.32c-.18.05-.38.18-.32.35.18.58.23.57.41,1.15s.16.59.34,1.17.12.6.3,1.19.3.55.48,1.13a5.09,5.09,0,0,0,.1.54c-.5-.56-.48-.59-1-1.17s-.51-.56-1-1.14-.43-.63-.92-1.21a1.31,1.31,0,0,0-1-.54,2.21,2.21,0,0,0-1.36.65,2.36,2.36,0,0,0-.61.83,1.67,1.67,0,0,0,0,1.39c.26.66.34.62.6,1.28s1,.87.42,1.33-.55-.41-1.15-.77-.65-.29-1.25-.66a1.9,1.9,0,0,0-1-.34,1.64,1.64,0,0,0-.4.11,2.44,2.44,0,0,0-.87.54c-.46.39-.88.67-1,1.05a1.48,1.48,0,0,0,.42,1.21c.44.53.4.56.85,1.09s.54.45,1,1,1.24.54.83,1.09-.77-.16-1.55-.23-.8.06-1.59,0l-1.58-.13a1.69,1.69,0,0,0-.17,0,1.29,1.29,0,0,0-.89.28,2.37,2.37,0,0,0-.59.76,2.19,2.19,0,0,0-.33,1.15,1.4,1.4,0,0,0,.34.85c.48.58.54.54,1,1.12s.51.57,1,1.15.46.61,1,1.19.38.67.87,1.26c.07.08.21,0,.31,0s0,.11,0,.11a.42.42,0,0,0,.29-.2c.25-.48.18-.51.43-1s.22-.49.47-1c.06-.12.14-.25.05-.35-.38-.44-.82-.28-.81-.86a1.53,1.53,0,0,1,.88-1.59c.49-.35,1.17.17,1.18.17a.49.49,0,0,0,.38-.18c.26-.48.19-.52.44-1s.47-1,.47-1c.58-.49.55-.53,1.13-1,.07-.06.25-.07.25-.16s-.15-.15-.21-.22c-.36-.42-.3-.47-.67-.89s-1.3-.88-.75-.86c.81,0,.73.4,1.42.83a1.43,1.43,0,0,0,.76.28v0A1.55,1.55,0,0,0,20.41,18a1.64,1.64,0,0,0,.66-1,1.7,1.7,0,0,0-.21-.83c-.31-.75-.74-.72-.63-1.52.07-.55.35.48.7.91s.41.38.76.81c.06.07.14,0,.23,0s0,0,0,0,.1,0,.16-.09c.39-.33.42-.3.81-.63l.78-.67c.11-.1.18-.2.13-.33a1.45,1.45,0,0,0,.8.29,2.54,2.54,0,0,0,.72-.13,1.79,1.79,0,0,0,1.3-1.32c.17-.71.26-.69.43-1.4s-.47-1.3.26-1.33.26.57.46,1.27.07.74.27,1.44c0,.09.14.16.22.2a.35.35,0,0,0,.17,0s.08,0,.11,0c1-.3.89-.58,1.88-.72a3.86,3.86,0,0,1,1.79.26c.14,0,.28-.18.34-.31.24-.59.29-.56.53-1.15s.16-.62.39-1.21S33.34,9.6,34,9.62s.11.54.31,1.15.22.6.42,1.2.36.55.56,1.16c0,.13.07.19.21.2.51,0,.51.07,1,.08a5.44,5.44,0,0,1,1,0,1.08,1.08,0,0,0,.51.27c.61.23.58.31,1.19.54s.61.25,1.22.48.6.27,1.21.5a2.07,2.07,0,0,0,.76.08,1.84,1.84,0,0,0,1-.31c.11.13-.08.24-.19.38s-.2.32-.06.44l1.57,1.3c.06.05.16.15.24.15s0-.13,0-.14.23,0,.28-.05c.35-.42.29-.47.63-.89s.14-.78.68-.73c.81.08.94.17,1.18.94.16.52-.27.38-.62.8s-.29.47-.64.89a.28.28,0,0,0-.1.21c0,.09.09.11.16.16.79.65.8.63,1.59,1.28.06.05.07.07.15.07s.22.07.28,0,.09-.25.25-.43c0,.07,0,.19,0,.26a1.19,1.19,0,0,0,0,1c.31.58.43.51.74,1.08s.33.57.64,1.14.2.64.5,1.21a1.76,1.76,0,0,0,1.41,1c.05,0,.1,0,.16,0a1.79,1.79,0,0,0,.49,0c-.45.27-.43.3-.9.55a.33.33,0,0,0-.16.19c0,.08,0,.15.08.23.48.9.34,1,.82,1.88,0,.08.22,0,.3.05s0,.14.08.14l-.06-.13a1.88,1.88,0,0,0-.44,1.5,1.91,1.91,0,0,0,1,1.63l1.31.64c.66.31,1.52-.15,1.38.57s-.77-.07-1.49,0S53.92,32.38,53.2,32.43ZM7,32.06a5.84,5.84,0,0,0-.11,1.23,1.47,1.47,0,0,0,.66,1,2.4,2.4,0,0,0,.87.56,10.33,10.33,0,0,0,1.06,0c.36,0,.66.15.94.15a3.05,3.05,0,0,0,1.05-.16,1.63,1.63,0,0,0,1-.76c.11-.26,0-.67,0-1.11a1.58,1.58,0,0,1,.27-.83c.08-.16.29-.1.3-.1A.15.15,0,0,0,13.2,32c.07-.06.16-.05.17-.14.11-1,.23-1,.34-2a.47.47,0,0,0-.38-.43c-.16,0-.37.19-.4,0-.1-.43.16-.46.21-.9a4,4,0,0,0,0-1.1,1.7,1.7,0,0,0-.71-1.09,5.1,5.1,0,0,0-2-.48c-.31,0-.59-.13-.84-.13A2.93,2.93,0,0,0,8.39,26a1.53,1.53,0,0,0-.7,1,3.78,3.78,0,0,0-.35,1.17c0,.31.19.41,0,.68-.07.12-.36,0-.37,0s-.13,0-.19,0a.3.3,0,0,0-.14.2c-.11,1-.09,1-.2,2,0,.18.08.26.27.28s.2,0,.27.07C7.22,31.64,7,31.75,7,32.06Zm9.41,15.28A3.47,3.47,0,0,1,16,46.9c-.4-.52-.81-.37-.89-1,0-.38.3-.55.66-.42.63.22.56.35,1,.86a.67.67,0,0,1,.19.53.47.47,0,0,1-.19.27.54.54,0,0,1-.45.08S16.39,47.34,16.38,47.34Zm7.84-7.47c.43,0,.94-.05,1.38-.1s.86-.18,1.3-.23.89,0,1.32,0,.84-.3,1.28-.35.88,0,1.31-.1l1.3-.21c.43-.07.78-.06,1.21-.13a2.54,2.54,0,0,1,.44,1.17,2.57,2.57,0,0,1,.07,1.26c-.43.09-.77.3-1.19.4l-1.28.3c-.43.1-.87.12-1.3.23s-.88.1-1.3.22-.84.27-1.26.39-.81.37-1.23.49-.84.16-1.25.29c-.32-.52-.07-.6-.19-1.2a5.87,5.87,0,0,0-.21-1.23C24.41,40.45,24.12,40.48,24.22,39.87ZM36.74,38c.43-.09.93-.16,1.36-.26s.83-.28,1.26-.39.89-.06,1.31-.17.8-.4,1.22-.51.87-.15,1.29-.27l1.26-.37c.42-.12.76-.16,1.18-.29A2.3,2.3,0,0,1,46,36.89c.12.6-.05.64.07,1.24s.5.6.41,1.21c-.44,0-1,.17-1.4.22s-.88,0-1.31.05-.88,0-1.32,0-.86.15-1.3.21-.85.25-1.28.32-.88,0-1.31.09l-1.22.21c-.32-.55,0-.64-.21-1.24S36.65,38.65,36.74,38Zm-3.63-3.28c-.4,0-.83-.08-1.27-.08s-.85.09-1.28.08-.86-.15-1.28-.16-.88.17-1.28.16-.92-.12-1.29-.14c0-.23,0-.48.05-.72.05-.52.25-1,.29-1.67.06-.91-.15-.93-.09-1.84,0-.18,0-.4-.19-.42-.91-.09-.93.08-1.84,0a5,5,0,0,1-1.15-.25,4.8,4.8,0,0,1-1-.6,5.75,5.75,0,0,1-.8-.82,2.84,2.84,0,0,1-.71-1.13A3.66,3.66,0,0,1,21,25.77a4,4,0,0,1,.5-1.34,3.91,3.91,0,0,1,.85-1.11,3.81,3.81,0,0,1,.95-.61,4.59,4.59,0,0,1,1-.44,5.26,5.26,0,0,1,1.14,0,5,5,0,0,1,1.12.05c.62.14.65,0,1.27.13,0,0,0,.12.05.12s.12-.13.18-.22c.37-.52.38-.51.75-1a4.66,4.66,0,0,1,.87-.86,4.3,4.3,0,0,1,1-.61,5.07,5.07,0,0,1,1.15-.37,7,7,0,0,1,1.21-.15,7.09,7.09,0,0,1,1.21.12,5.29,5.29,0,0,1,1.18.31,4.35,4.35,0,0,1,.94.77,4.53,4.53,0,0,1,.91.8c.37.52.24.6.61,1.12.06.09.23.09.34.09l.07,0c.62-.14.62-.12,1.24-.25A5.45,5.45,0,0,1,40.74,22a5.37,5.37,0,0,1,1.13.31,4.57,4.57,0,0,1,1.06.4,4.13,4.13,0,0,1,1,.52,4.11,4.11,0,0,1,.78,1.19,3.83,3.83,0,0,1,.39,1.35,3.73,3.73,0,0,1-.1,1.38,3,3,0,0,1-.71,1.19,5.35,5.35,0,0,1-.91.7,4.59,4.59,0,0,1-1,.55,4.87,4.87,0,0,1-1.13.16c-.91.09-.9.19-1.81.29a.33.33,0,0,0-.33.33c.06.91.17.91.23,1.82,0,.71-.11,1.22-.06,1.67,0,.28.19.54.21.76L38,34.67c-.46,0-.95.08-1.46.08H35.12c-.49,0-1,0-1.46,0A4,4,0,0,1,33.11,34.74ZM10,32.27c-.07,0-.14-.09-.23-.1-.33,0-.48,0-.51,0s-.09-.19-.08-.4c.63,0,.7-.26,1.3,0a.74.74,0,0,1-.3.5A.64.64,0,0,1,10,32.27Zm49.24-.95a3,3,0,0,0-.34-.2c-.63-.3-.67-.21-1.3-.51s-1.3,0-1.16-.65.62-.17,1.32-.21a4.25,4.25,0,0,1,1.41,0,3.72,3.72,0,0,0,0,1A4.5,4.5,0,0,0,59.27,31.32ZM9.5,29.06a.79.79,0,0,1,.16-.39s.06-.14.29-.14c.08,0,.15.15.25.16s.38-.12.44-.09a.79.79,0,0,1,.15.55C10.24,29.49,10.11,29.21,9.5,29.06Zm42.69-6.82a1.1,1.1,0,0,0-.15-.42c-.26-.49-.6-1-.61-1s.22-.23.35-.1a2.57,2.57,0,0,1,.69.91.67.67,0,0,1,.11.42l0,0s-.08-.1-.15-.06-.07.25-.09.25S52.19,22.24,52.19,22.23ZM41.64,12.81a3.77,3.77,0,0,0-.42-.22c-.52-.2-1.1-.34-1.11-.35s0-.31.19-.3a2.58,2.58,0,0,1,1.12.23.68.68,0,0,1,.36.25.35.35,0,0,1,0,.15A1,1,0,0,1,41.64,12.81Z"/></g></g></g></svg>