<svg xmlns="http://www.w3.org/2000/svg" viewBox="0 0 66.02 65.78"><defs><style>.cls-1{fill:#41281b;}</style></defs><title>hit-logo</title><g id="Слой_2" data-name="Слой 2"><g id="Desktop"><g id="Каталог_Раздел" data-name="Каталог Раздел"><path class="cls-1" d="M42.89,26.88c-.18-.69-.69-.69-.44-1.37s.58-.42,1.17-.82a.71.71,0,0,0,.24-.47,1.42,1.42,0,0,0-.29-1.15,2.44,2.44,0,0,0-1.08-.45c-.37-.1-.78-.16-1.18-.23s-.29-.15-.6-.2l-.5-.12c-.28-.07-.65-.09-1-.2a7,7,0,0,1-1-.32,4.92,4.92,0,0,1-.81-.67,3.29,3.29,0,0,1-.69-.75,3,3,0,0,1-.49-.9,3.86,3.86,0,0,1-.14-1,6,6,0,0,1,.08-1,8,8,0,0,1,.31-1c.1-.33.25-.65.36-1s.21-.78.3-1.13a3.57,3.57,0,0,0,.07-1.15,5.47,5.47,0,0,0-.1-1.14,4.49,4.49,0,0,0-.4-1.09,2.7,2.7,0,0,0-.86-.76s0-.07-.07-.11a1,1,0,0,0-.6-.22A2.34,2.34,0,0,0,35,10.73c0,.26,0,.26,0,.51a9.3,9.3,0,0,1,0,1.05A7.78,7.78,0,0,1,35,13.34a7.13,7.13,0,0,1-.38,1,9.19,9.19,0,0,1-.38.92c-.14.3-.3.59-.46.87s-.36.56-.54.83-.41.53-.6.79-.38.56-.58.8-.26.21-.46.47-.39.62-.62.9-.53.5-.78.77-.49.53-.77.78a4.42,4.42,0,0,1-1,.61,5.83,5.83,0,0,1-1.11.37l-.24,0a1.91,1.91,0,0,1-.71.16c-.05,0,0,0,0,0a3.56,3.56,0,0,0-.37.59,4.22,4.22,0,0,0-.31,1.21c0,.31-.06.63-.09.95s-.11.63-.11.95.08.63.09,1,.05.63.09.95.07.6.14.9a3.52,3.52,0,0,0,.33.84c.14.29,0,.4.2.63s.16,0,.3,0,.1,0,.21.07a5.68,5.68,0,0,0,.55.16c.37,0,.7,0,1,0a2.94,2.94,0,0,1,1,.44,6.28,6.28,0,0,1,.87.72c.14.13.2.29.3.37s.36.22.55.36.41.34.62.48a4.85,4.85,0,0,0,.69.37,4.66,4.66,0,0,0,.92.19l.93.14c.45.05.86.13,1.27.21s.29,0,.57,0c.45.05.87.08,1.26.1a6,6,0,0,0,1.26,0,.81.81,0,0,0,.58-.72c0-.69-.41-.82,0-1.39s.64-.27,1.28-.52a1.24,1.24,0,0,0,.6-.57.74.74,0,0,0,.07-.56c-.14-.68-.51-.74-.24-1.38s.64-.32,1.21-.7a1.76,1.76,0,0,0,.48-.73C42.75,27.43,43,27.14,42.89,26.88ZM23.21,28.48c0-.37-.17-.72-.19-1.09s-.07-.74-.07-1.1.09-.73.11-1.1.05-.73.1-1.09a8.45,8.45,0,0,1,.23-1.2,1.69,1.69,0,0,0-.51.37,1.41,1.41,0,0,0-.49.8,6,6,0,0,0-.11,1c0,.35.06.7.06,1s0,.2,0,.39-.07.66-.05,1,.08.66.13,1a5.84,5.84,0,0,0,.26,1,3.44,3.44,0,0,0,.37.92c.08.11.2.13.45.16a6.87,6.87,0,0,1-.12-1C23.28,29.13,23.24,28.8,23.21,28.48Zm42.44,3.4a3.25,3.25,0,0,0-.88-.55,2.93,2.93,0,0,1-.91-.65,1.77,1.77,0,0,1-.19-2.1,2.81,2.81,0,0,1,.7-.86,2.94,2.94,0,0,0,.69-.74,1.28,1.28,0,0,0,.11-1,1.33,1.33,0,0,0-.45-.89,3,3,0,0,0-1-.43,2.79,2.79,0,0,1-1-.43,1.94,1.94,0,0,1-.73-.85,2,2,0,0,1,0-1.14,3,3,0,0,1,.61-.95,3,3,0,0,0,.52-.88,1.48,1.48,0,0,0-.77-1.7,3,3,0,0,0-1-.19,2.69,2.69,0,0,1-1-.33,1.62,1.62,0,0,1-1-1.74,2.8,2.8,0,0,1,.33-1,2.86,2.86,0,0,0,.25-1,1.46,1.46,0,0,0-.17-1,1.44,1.44,0,0,0-.92-.4,2.76,2.76,0,0,0-1,0,2.84,2.84,0,0,1-1.13-.11,1.89,1.89,0,0,1-1-.53,1.89,1.89,0,0,1-.38-1,2.78,2.78,0,0,1,0-1.1,2.76,2.76,0,0,0,.07-1,1.38,1.38,0,0,0-.38-.93,1.4,1.4,0,0,0-1-.27,2.88,2.88,0,0,0-1,.22A2.91,2.91,0,0,1,52,8.45a1.88,1.88,0,0,1-1-.38,1.84,1.84,0,0,1-.62-.9,2.84,2.84,0,0,1-.08-1.09,2.81,2.81,0,0,0-.19-1,1.44,1.44,0,0,0-.59-.83,1.42,1.42,0,0,0-1,0,2.72,2.72,0,0,0-.93.37,2.89,2.89,0,0,1-1,.42,1.91,1.91,0,0,1-1.11-.12,1.87,1.87,0,0,1-.81-.75,2.81,2.81,0,0,1-.39-1,2.76,2.76,0,0,0-.34-.94,1.33,1.33,0,0,0-.71-.67,1.32,1.32,0,0,0-1,.16,2.61,2.61,0,0,0-.85.53,2.66,2.66,0,0,1-1,.52,1.8,1.8,0,0,1-1.05.19,1.8,1.8,0,0,1-.9-.59,2.68,2.68,0,0,1-.65-.89,3.19,3.19,0,0,0-.45-.93A1.44,1.44,0,0,0,36.42,0a1.41,1.41,0,0,0-1,.29,2.92,2.92,0,0,0-.68.76,2.77,2.77,0,0,1-.77.79,1.79,1.79,0,0,1-1,.34,1.78,1.78,0,0,1-1-.35,2.76,2.76,0,0,1-.81-.76,2.77,2.77,0,0,0-.68-.74,1.29,1.29,0,0,0-.94-.27,1.32,1.32,0,0,0-.87.45,2.91,2.91,0,0,0-.51.88,2.87,2.87,0,0,1-.58,1,1.94,1.94,0,0,1-1,.58,1.92,1.92,0,0,1-1.1-.15,2.81,2.81,0,0,1-.93-.62,2.89,2.89,0,0,0-.81-.6,1.44,1.44,0,0,0-1-.14,1.42,1.42,0,0,0-.7.72,2.81,2.81,0,0,0-.34,1,3,3,0,0,1-.35,1.07,1.85,1.85,0,0,1-.88.66A1.78,1.78,0,0,1,19.42,5a2.79,2.79,0,0,1-1-.41,2.84,2.84,0,0,0-.94-.39,1.32,1.32,0,0,0-1.57.9,2.83,2.83,0,0,0-.12,1,2.88,2.88,0,0,1-.14,1.11,1.85,1.85,0,0,1-.67.88,1.82,1.82,0,0,1-1,.3,2.74,2.74,0,0,1-1.09-.17,3,3,0,0,0-1-.25,1.38,1.38,0,0,0-.93.39,1.32,1.32,0,0,0-.37.9,2.7,2.7,0,0,0,.05,1,2.87,2.87,0,0,1,.09,1.11,1.81,1.81,0,0,1-.5,1,1.76,1.76,0,0,1-.93.5,2.66,2.66,0,0,1-1.08.09,2.87,2.87,0,0,0-1,0,1.33,1.33,0,0,0-.83.53,1.3,1.3,0,0,0-.21,1,2.76,2.76,0,0,0,.28,1,2.91,2.91,0,0,1,.33,1.07,1.9,1.9,0,0,1-.21,1.09,1.87,1.87,0,0,1-.86.68,2.74,2.74,0,0,1-1.06.34,2.86,2.86,0,0,0-1,.22,1.33,1.33,0,0,0-.74.64,1.33,1.33,0,0,0,0,1,2.83,2.83,0,0,0,.48.9,3,3,0,0,1,.6.95,1.89,1.89,0,0,1-.08,1.11,1.81,1.81,0,0,1-.65.87,2.74,2.74,0,0,1-1,.46,3,3,0,0,0-.94.44A1.4,1.4,0,0,0,.67,26a1.36,1.36,0,0,0,.24,1,2.72,2.72,0,0,0,.59.84,2.82,2.82,0,0,1,.74.8,1.75,1.75,0,0,1,.18,1.05,1.81,1.81,0,0,1-.35,1,2.92,2.92,0,0,1-.9.65,3,3,0,0,0-.83.6,1.32,1.32,0,0,0-.34.93,1.3,1.3,0,0,0,.37.9,2.85,2.85,0,0,0,.81.62A2.71,2.71,0,0,1,2,35.1a1.83,1.83,0,0,1,.48,1,1.86,1.86,0,0,1-.2,1.08,2.88,2.88,0,0,1-.73.85,3,3,0,0,0-.72.73,1.36,1.36,0,0,0-.15,1,1.34,1.34,0,0,0,.56.81,2.88,2.88,0,0,0,.93.42,3,3,0,0,1,1,.44,1.88,1.88,0,0,1,.6.94,1.88,1.88,0,0,1,0,1.11,2.94,2.94,0,0,1-.56,1,3.05,3.05,0,0,0-.55.87,1.47,1.47,0,0,0,0,1,1.47,1.47,0,0,0,.81.62,2.81,2.81,0,0,0,1,.24,2.67,2.67,0,0,1,1,.33,1.83,1.83,0,0,1,.85.67,1.88,1.88,0,0,1,.24,1.08,2.88,2.88,0,0,1-.3,1.08,2.69,2.69,0,0,0-.28,1,1.26,1.26,0,0,0,.2.94,1.29,1.29,0,0,0,.82.52,2.84,2.84,0,0,0,1,0,2.79,2.79,0,0,1,1.11.05,1.89,1.89,0,0,1,1,.53,1.87,1.87,0,0,1,.37,1,2.74,2.74,0,0,1,0,1.12,3.3,3.3,0,0,0-.22,1,1.46,1.46,0,0,0,.46.92,1.42,1.42,0,0,0,1,.31,2.88,2.88,0,0,0,1-.2,2.71,2.71,0,0,1,1.09-.15,1.63,1.63,0,0,1,1.65,1.19,2.74,2.74,0,0,1,.21,1.08,2.65,2.65,0,0,0,.16,1,1.47,1.47,0,0,0,.51.88,1.49,1.49,0,0,0,1,0,2.68,2.68,0,0,0,1-.33,2.88,2.88,0,0,1,1-.46,1.69,1.69,0,0,1,1.88.9,2.76,2.76,0,0,1,.45,1,2.87,2.87,0,0,0,.29,1,1.35,1.35,0,0,0,.72.67,1.37,1.37,0,0,0,1-.1,2.89,2.89,0,0,0,.83-.59,2.77,2.77,0,0,1,.93-.6,1.83,1.83,0,0,1,1.08-.13,1.81,1.81,0,0,1,.93.56,2.74,2.74,0,0,1,.62.91,2.81,2.81,0,0,0,.53.86,1.27,1.27,0,0,0,.84.46,1.35,1.35,0,0,0,1-.19,3.14,3.14,0,0,0,.65-.8,2.77,2.77,0,0,1,.78-.79,1.86,1.86,0,0,1,1-.38,1.91,1.91,0,0,1,1,.38,2.83,2.83,0,0,1,.8.77,3.28,3.28,0,0,0,.61.83,1.15,1.15,0,0,0,1.84-.27,2.85,2.85,0,0,0,.52-.86,2.72,2.72,0,0,1,.63-.91,1.55,1.55,0,0,1,2-.4,2.69,2.69,0,0,1,.94.57,2.8,2.8,0,0,0,.85.55,1.28,1.28,0,0,0,1,.08,1.31,1.31,0,0,0,.78-.6,3.11,3.11,0,0,0,.23-1,2.86,2.86,0,0,1,.43-1,2.3,2.3,0,0,1,1.93-.86,2.88,2.88,0,0,1,1,.42,3,3,0,0,0,.92.45,1.37,1.37,0,0,0,1-.15,1.39,1.39,0,0,0,.65-.78,3.25,3.25,0,0,0,0-1,2.86,2.86,0,0,1,.2-1.11,1.77,1.77,0,0,1,.7-.83,1.72,1.72,0,0,1,1-.35,2.76,2.76,0,0,1,1.12.08,3.24,3.24,0,0,0,1,.33,1.38,1.38,0,0,0,.93-.38,1.32,1.32,0,0,0,.37-.9,2.7,2.7,0,0,0,0-1,3.18,3.18,0,0,1-.25-1.1,2,2,0,0,1,.5-1,2,2,0,0,1,1-.52,2.88,2.88,0,0,1,1.12-.08,3.36,3.36,0,0,0,1,.13,1.53,1.53,0,0,0,.91-.53,1.5,1.5,0,0,0,.12-1,2.76,2.76,0,0,0-.23-1,2.76,2.76,0,0,1-.32-1,2,2,0,0,1,.11-1.11,2,2,0,0,1,.91-.65,2.72,2.72,0,0,1,1.05-.37,3.09,3.09,0,0,0,1-.14,1.38,1.38,0,0,0,.74-.68,1.4,1.4,0,0,0,.07-1,3,3,0,0,0-.51-.91,2.83,2.83,0,0,1-.57-.94,1.81,1.81,0,0,1,0-1.09,1.79,1.79,0,0,1,.62-.88,2.76,2.76,0,0,1,1-.45,2.79,2.79,0,0,0,.91-.48A1.32,1.32,0,0,0,65,38.75a2.94,2.94,0,0,0-.7-.72,3,3,0,0,1-.75-.86,1.9,1.9,0,0,1-.14-1.11,1.81,1.81,0,0,1,.47-1,2.73,2.73,0,0,1,.85-.69,2.87,2.87,0,0,0,.81-.62,1.41,1.41,0,0,0,.44-.92A1.47,1.47,0,0,0,65.65,31.88ZM27.34,52.7a.28.28,0,0,1-.33.13c-.21,0-.45-.17-.84-.17s-.45,0-.6,0a3.92,3.92,0,0,1-.52,0c-.56,0-.56,0-1.12,0s-.63.23-1.13,0c-.22-.11-.33-.2-.37-.33a2.29,2.29,0,0,0-.17-.5c-.22-.34-.28-.4-.42-.64,0-.05,0-.13-.07-.2-.2-.31-.29-.36-.42-.55s-.1-.13-.16-.23,0-.18,0-.26c-.1-.31-.06-.51-.45-.51s-.21.37-.48.78a3.65,3.65,0,0,1-.36.44c-.06.08-.08.21-.18.37-.26.41-.36.35-.62.76s0,.65-.47.87-.57,0-1.13,0-.56,0-1.13,0-.56-.07-1.12-.07-.92.61-1.2.12a.34.34,0,0,1,.1-.48c.14-.12.47-.14.65-.38s.09-.24.14-.31a4.61,4.61,0,0,1,.37-.63,2.75,2.75,0,0,1,.4-.41,3.4,3.4,0,0,1,.25-.43c.19-.25.3-.33.4-.46a4.12,4.12,0,0,1,.26-.36l.62-.85c.31-.42.3-.43.62-.85s.7-.27.7-.8a.66.66,0,0,0-.1-.29c-.08-.21-.3-.22-.53-.53s-.33-.39-.64-.8-.29-.42-.6-.83a4.51,4.51,0,0,1-.31-.51,4.23,4.23,0,0,1-.27-.34,3,3,0,0,1-.23-.35,6,6,0,0,1-.4-.45c-.18-.24-.29-.31-.37-.44s-.14-.18-.27-.36c-.31-.41-.81-.39-.54-.83a.36.36,0,0,1,.17-.14c.24-.16.46.14.93.14s.56,0,1.13,0,.56,0,1.12,0,.62-.24,1.12,0,.27.37.52.76.22.41.47.8c.08.13.19.19.22.27s.11.25.27.51,0,.77.5.77.2-.42.45-.81.28-.37.53-.76c.08-.13.12-.22.17-.29s.16-.23.33-.49.15-.48.3-.64.12-.07.22-.11c.51-.24.56-.05,1.12-.06.31,0,.45,0,.6,0a3.47,3.47,0,0,1,.52,0,3.2,3.2,0,0,1,.72.12c.1,0,.22-.06.4-.06a3.72,3.72,0,0,0,.8-.15c.13,0,.2,0,.32.17s.11.24,0,.33-.39.22-.67.45-.3.44-.6.85-.24.46-.55.87-.38.35-.69.77-.26.44-.56.85-.34.39-.64.79-.56.33-.55.84.32.4.63.82.27.46.58.89c.05.07.12.09.16.14.2.25.21.35.48.71s.3.33.37.47.13.2.26.37a7.08,7.08,0,0,1,.38.61c.05.07.13.14.21.25l.16.23a6.32,6.32,0,0,1,.52.57c.2.27.54.33.65.48A.3.3,0,0,1,27.34,52.7Zm13.59,0c-.33.34-.5.08-1,.08s-.48-.07-1-.07c-.2,0-.32.06-.42.05s-.26,0-.53,0c-.48,0-.59.28-.92-.07,0,0-.07,0-.09-.06s0-.07,0-.1c-.12-.24,0-.39.06-.79s0-.5,0-.84c0,0,0-.09,0-.15s.08-.1.08-.14c0-.34,0-.41,0-.84s.06-.49.07-1,.05-.49.07-1,0-.49,0-1a3.36,3.36,0,0,1,0-.47,3.84,3.84,0,0,1,0-.51,2.11,2.11,0,0,0,0-.35s-.08,0-.13,0-.17,0-.28.21-.09.19-.16.3c-.28.47-.22.51-.49,1s-.35.43-.63.9l-.2.33a6.87,6.87,0,0,1-.35.62c-.18.3-.23.43-.33.58a2.21,2.21,0,0,1-.16.4l-.55.94c-.21.35-.24.45-.38.67s-.14.13-.21.25a2.23,2.23,0,0,1-.65.73,2.69,2.69,0,0,1-.89.43c-.08,0-.18,0-.26,0a5.13,5.13,0,0,1-.73.08,3.65,3.65,0,0,1-.6-.08,2.27,2.27,0,0,1-.6-.12,2,2,0,0,1-1-.67,2.67,2.67,0,0,1-.26-1,5.06,5.06,0,0,1-.14-1c0-.19,0-.3,0-.4a4.73,4.73,0,0,1,0-.6c0-.33,0-.45,0-.63a2,2,0,0,1-.08-.37c0-.5.13-.5.13-1s-.14-.5-.14-1,0-.5,0-1a2.31,2.31,0,0,1,.06-.37,2.91,2.91,0,0,1-.12-.63c0-.4,0-.49,0-.76,0-.07,0-.14,0-.23s0-.2,0-.41,0-.29,0-.59c0-.5-.35-.63,0-1,.17-.18.27-.2.43-.15a1.47,1.47,0,0,0,.53.17c.14,0,.23,0,.32,0a4.88,4.88,0,0,1,.64-.07c.48,0,.48.07,1,.07.31,0,.47-.19.63-.19s.23,0,.35.17a.44.44,0,0,1,.11.48c0,.17-.38.34-.39.66,0,.52-.32.57-.32,1,0,0,0,.06,0,.1,0,.56.29.56.28,1.12,0,.21.06.34,0,.45a3.24,3.24,0,0,1,.09.66c0,.4,0,.51,0,.76,0,.09.1.2.1.35,0,.56,0,.56,0,1.11,0,.09-.07.09-.07.18a.65.65,0,0,0,.08.25c0,.06.06.09.13.09a.23.23,0,0,0,.17-.07c0-.08.06-.19.13-.31.27-.47.34-.43.61-.9l.23-.4a2.9,2.9,0,0,1,.22-.59c.27-.47.33-.43.6-.9s.29-.47.48-.8c0,0,0-.09.05-.14.27-.47.24-.48.51-.94.17-.29.25-.39.34-.54a2.26,2.26,0,0,1,.15-.41,2.71,2.71,0,0,1,.73-.7,2.43,2.43,0,0,1,.85-.49,3.43,3.43,0,0,1,1-.14,4.2,4.2,0,0,1,1.16.06,1.44,1.44,0,0,1,.29.16,2.39,2.39,0,0,1,.67.5,1.7,1.7,0,0,1,.27.49,2,2,0,0,1,.24.54,4.57,4.57,0,0,1,.09,1c0,.05.06.1.06.15,0,.5,0,.5,0,1,0,.17,0,.27,0,.37s-.09.3-.09.63,0,.33,0,.44,0,.27,0,.56c0,.5,0,.5,0,1s.07.49.07,1,0,.49,0,1,0,.49,0,1,0,.5,0,1a1.31,1.31,0,0,0,0,.3C41,52.28,41.2,52.42,40.93,52.69Zm.53-17.87a3.2,3.2,0,0,1-.57.82,3.4,3.4,0,0,1-.78.61,3.81,3.81,0,0,1-.91.38,6.51,6.51,0,0,1-1.33.08c-.34,0-.68.1-1,.07s-.67-.08-1-.12-.33-.13-.68-.18-.81,0-1.2-.07-.57-.15-.86-.2-.59,0-.88-.09a6.06,6.06,0,0,1-.84-.28,6.65,6.65,0,0,1-.88-.57c-.3-.19-.65-.3-.92-.5s-.34-.29-.51-.41a6.07,6.07,0,0,1-.57-.51c-.25-.23-.48-.59-.66-.63a7.54,7.54,0,0,0-.76-.07,7.39,7.39,0,0,1-.86-.12s0,.07,0,.07c-.25,0-.52.06-.8.07-.45,0-.84,0-1.23,0A6.8,6.8,0,0,1,23,33.08a3.78,3.78,0,0,1-1.09-.41,2.92,2.92,0,0,1-.85-.77,4.37,4.37,0,0,1-.55-.78,5.71,5.71,0,0,1-.5-.84,8.22,8.22,0,0,1-.14-1c-.06-.31-.13-.63-.16-1s-.06-.64-.07-1,0-.65,0-1,0-.7.06-1.1.07-.72.12-1.09A7.4,7.4,0,0,1,20,23.17a4.54,4.54,0,0,1,.4-1,3.31,3.31,0,0,1,.62-.91,3.81,3.81,0,0,1,.89-.5,4.46,4.46,0,0,1,.94-.34,6.83,6.83,0,0,1,1-.35,8.92,8.92,0,0,1,1,0c.53,0,1,0,1.53,0a1.38,1.38,0,0,1,.47,0,2.18,2.18,0,0,0,.95-.45,9,9,0,0,0,.72-.6c.21-.23.32-.54.52-.79s.49-.41.68-.66.21-.3.44-.58.39-.55.61-.83.46-.51.65-.81.33-.61.49-.92a7.41,7.41,0,0,0,.42-.95,4.7,4.7,0,0,0,.27-1,6.77,6.77,0,0,0,0-1.08c0-.24,0-.24,0-.49a9,9,0,0,1,0-1,3.65,3.65,0,0,1,.11-1,2.63,2.63,0,0,1,.53-.93,2.31,2.31,0,0,1,.88-.57,2.62,2.62,0,0,1,1-.26,3.4,3.4,0,0,1,1.13.22,3.48,3.48,0,0,1,1,.59,4.44,4.44,0,0,1,.73.59,5.28,5.28,0,0,1,.6.73,6.17,6.17,0,0,1,.42.84,7.22,7.22,0,0,1,.33.88,7.64,7.64,0,0,1,.21.92,7.85,7.85,0,0,1,.16.93,5.63,5.63,0,0,1-.07,1.07,7.54,7.54,0,0,1-.26,1c-.1.35-.13.72-.24,1s-.44.69-.54,1a4.29,4.29,0,0,0-.09,1.17,1,1,0,0,0,.45.81,2.86,2.86,0,0,0,.89.38c.27.09.57.24.94.32.18,0,.34.1.47.14s.24.1.48.14.64.06,1,.13a8.35,8.35,0,0,1,.92.32,5.19,5.19,0,0,1,1,.26,4.2,4.2,0,0,1,.75.64,3.38,3.38,0,0,1,.73,1,4.06,4.06,0,0,1,.24,1.18,4,4,0,0,1,0,1.18,3.5,3.5,0,0,1-.36,1,3,3,0,0,1-.69.87,3.64,3.64,0,0,1,.06,1.08,3.88,3.88,0,0,1-.3,1,4.09,4.09,0,0,1-.58.89,3.93,3.93,0,0,1-.63.82,3,3,0,0,1-.07,1,4.05,4.05,0,0,1-.49.89,4.17,4.17,0,0,1-.58,1,3.49,3.49,0,0,1-.9.7A2.94,2.94,0,0,1,41.46,34.82ZM54.3,43.88a.64.64,0,0,1-.59.23s-.07-.06-.11-.07a2.16,2.16,0,0,0-.55-.14c-.52,0-.51,0-1,0s-.5.05-1,.05-.6-.4-1,0,0,.47,0,1,.21.49.21,1,0,.49,0,1-.11.49-.11,1c0,.31-.15.42-.22.59s0,.21,0,.38c0,.49.06.49.06,1s0,.49,0,1c0,.28,0,.4,0,.54s-.08.22-.08.43a1.88,1.88,0,0,0,.11.55c.06.15.12.26-.05.45a.34.34,0,0,1-.41.11,2.84,2.84,0,0,0-.55-.08,3,3,0,0,1-.54-.08,2.21,2.21,0,0,1-.4.06,3.31,3.31,0,0,1-.45-.06,4.21,4.21,0,0,1-.49,0c-.47,0-.64.35-1,0-.15-.15-.08-.28,0-.4s0-.32,0-.6c0-.49,0-.49,0-1s.1-.49.1-1,0-.49,0-1,0-.48,0-1,0-.49,0-1,0-.45,0-.65a2.61,2.61,0,0,1,0-.32c0-.17,0-.27,0-.37s0-.29,0-.61c0-.48.38-.62,0-1-.19-.18-.34-.23-.48-.21a1.5,1.5,0,0,1-.55.15l-.42,0a3.78,3.78,0,0,1-.62.07c-.52,0-.52,0-1,0a1,1,0,0,0-.35.09c-.26.09-.44.23-.72,0s-.15-.38-.08-.6,0-.23.08-.4a3.14,3.14,0,0,0,0-1c0-.27-.19-.42-.22-.58A.42.42,0,0,1,42,41a.38.38,0,0,1,.37-.1c.18,0,.36.09.69.09.51,0,.51,0,1,0s.51.06,1,.06.51-.1,1-.1c.13,0,.23.1.31.11s.33-.06.69-.06a3,3,0,0,1,.51.07,3,3,0,0,1,.5-.07,7,7,0,0,1,.7.09,2.31,2.31,0,0,1,.31-.07l1,0c.5,0,.52,0,1,0s.54,0,.9,0c0,0,0-.14.08-.14.42,0,.5-.09.81-.09.05,0,.13-.07.2-.07.43,0,.62-.12.9,0,.1,0,.17.14.29.25.35.33.32.49.32,1s0,.48,0,1S54.66,43.55,54.3,43.88Z"/></g></g></g></svg>