<svg xmlns="http://www.w3.org/2000/svg" viewBox="0 0 75.69 26.83"><defs><style>.cls-1{fill:#41281b;}</style></defs><title>hit-text-1</title><g id="Слой_2" data-name="Слой 2"><g id="Desktop"><g id="Каталог_Раздел" data-name="Каталог Раздел"><path class="cls-1" d="M46.37,23.71c-.21.78-.76.14-1.57.14H43.19c-.81,0-1,.4-1.67,0-.89-.57-.45-1-1-1.9s-.16-1.83-1.22-1.83-.47,1.06-1,1.94-.31,1.21-1.2,1.78c-.68.44-.85,0-1.66,0s-.81-.11-1.62-.11-1.29.79-1.5,0c-.26-1,.57-.69,1.16-1.49s.54-.84,1.14-1.64.57-.82,1.17-1.62,1.13-.61,1.14-1.61-.46-.83-1-1.61-.76-.64-1.34-1.42-.55-.8-1.13-1.58-1.49-.72-1.22-1.65c.23-.78.94.07,1.75.07s.81-.07,1.62-.07.87-.29,1.56.14c.85.53.51.8,1,1.64s.16,1.53,1.16,1.53.62-.69,1.16-1.53.18-1.15,1-1.68c.69-.43.77,0,1.58,0s.81-.22,1.62-.22,1.46-.66,1.69.11-.6.83-1.18,1.6-.74.66-1.31,1.43L42.7,15.7c-.58.78-1.08.67-1.07,1.64s.6.81,1.2,1.6L44,20.53A5.92,5.92,0,0,0,45.33,22C46.13,22.7,46.63,22.74,46.37,23.71Z"/><path class="cls-1" d="M61.1,23.68c-.76.71-1,.16-2,.16s-1.38.66-2.15,0,0-1,0-1.93.2-.92.23-1.84,0-.93.06-1.85-.21-.93-.18-1.86c0-.31.07-.38-.06-.38s-.17.15-.41.56c-.45.76-.54.71-1,1.47s-.52.72-1,1.49L53.74,21c-.45.77-.39.8-.84,1.57a2.33,2.33,0,0,1-1.14,1,4,4,0,0,1-1.54.32,2.54,2.54,0,0,1-2.26-1,3.41,3.41,0,0,1-.68-2c0-1,0-1,0-1.94s0-1,0-1.94.17-1,.17-1.94-.07-1-.07-1.95-.59-1.19.12-1.86,1,0,2,0,1.36-.86,2.13-.18-.19,1-.21,1.87,0,.9,0,1.8,0,.9-.06,1.81.19.91.17,1.81c0,.1-.06.1-.06.2,0,.29,0,.38.14.38a.56.56,0,0,0,.48-.32l.86-1.51c.43-.76.33-.82.76-1.58L54.57,14c.43-.76.43-.76.86-1.52A3,3,0,0,1,56.5,11.2a3.75,3.75,0,0,1,1.64-.12,3.77,3.77,0,0,1,1.62.19,2.17,2.17,0,0,1,1,1.25,3.8,3.8,0,0,1,.54,1.56c0,1-.2,1-.2,1.92s0,1,0,1.92.21,1,.21,1.92-.21,1,0,1.91S61.8,23,61.1,23.68Z"/><path class="cls-1" d="M75.33,14.22c-.52.54-.71.16-1.46.16h-1.5c-.75,0-1-.64-1.43-.05-.59.74-.16.89-.16,1.83s0,.94,0,1.89S71,19,71,19.93s0,.95,0,1.9.65,1.3,0,1.94-1.06-.09-2.08-.09-1.2.64-1.95-.05,0-.85,0-1.8-.07-.94-.07-1.89,0-.95,0-1.89-.05-.95-.05-1.9.7-1.21.12-2c-.46-.59-.83.19-1.58.19s-.75,0-1.5,0-1.08.54-1.6,0,.13-.88.13-1.66-.65-1.09-.05-1.6,1,.15,1.89.15H66c.93,0,.93-.2,1.87-.2s.93.2,1.86.2.93,0,1.87,0H73.5c.94,0,1.24-.78,2-.18s-.17.89,0,1.65S75.87,13.65,75.33,14.22Z"/><path class="cls-1" d="M21.56,22.84a3.17,3.17,0,0,0,.32-1.78,3.8,3.8,0,0,0,1.2-1.5,3.35,3.35,0,0,0,.24-1.9,2.93,2.93,0,0,0,.92-1.75,3.81,3.81,0,0,0,0-1.65,3.25,3.25,0,0,0-.94-1.33A4,4,0,0,0,21.82,12a10.63,10.63,0,0,0-1.73-.41c-.22,0-.25.13-.48.09s-.22-.32-.38-.35A10,10,0,0,1,17.92,11a1,1,0,0,1-.71-1,6.11,6.11,0,0,1,.46-2,12.54,12.54,0,0,0,.5-1.38,5.7,5.7,0,0,0,0-1.47A7.27,7.27,0,0,0,18,3.44a6.11,6.11,0,0,0-.7-1.59A4.74,4.74,0,0,0,16.11.55a3.26,3.26,0,0,0-2-.55,2.41,2.41,0,0,0-1.41.32A2.36,2.36,0,0,0,12,1.6a4.69,4.69,0,0,0-.31,1.8c0,.22,0,.22,0,.44a5.12,5.12,0,0,1-.09,2,8.07,8.07,0,0,1-.85,1.7A17.21,17.21,0,0,1,9.64,9c-.21.26-.41.1-.61.36a16.07,16.07,0,0,1-1.55,2,2.33,2.33,0,0,1-.94.26c-.17,0-.31,0-.41,0-.44,0-.91.14-1.39.13A6.56,6.56,0,0,0,2.91,12a3.79,3.79,0,0,0-1.66.83,3.36,3.36,0,0,0-.78,1.46,6.41,6.41,0,0,0-.37,1.61,16.56,16.56,0,0,0,0,1.66c0,.59-.12,1.19-.07,1.77A8.12,8.12,0,0,0,.54,21a4.31,4.31,0,0,0,.82,1.5,2.59,2.59,0,0,0,1.24.89,5.21,5.21,0,0,0,1.55.34c.35,0,.7-.17,1.11-.2.26,0,.51.06.74.06,0,0,0,.12,0,.12.26.06.55-.17.82-.15s.43.18.66.23a1.83,1.83,0,0,1,.68.43c.18.17.27.43.44.55s.28.25.45.39a9.28,9.28,0,0,0,1.67.92,8.59,8.59,0,0,0,2.35.4c.35,0,.69.19,1.06.27s.32,0,.63.06a16.88,16.88,0,0,0,1.82,0,6.1,6.1,0,0,0,1.21,0,3.08,3.08,0,0,0,1.44-1A2.7,2.7,0,0,0,20,24.26,3.57,3.57,0,0,0,21.56,22.84ZM3.22,20.93a3.68,3.68,0,0,1-.6-1.62,12.45,12.45,0,0,1-.28-1.79c0-.18.11-.18.11-.35,0-.79.05-2,.57-2.46a2.07,2.07,0,0,1,.53-.41c-.11.39-.38.78-.43,1.1a16,16,0,0,0-.11,2,17.53,17.53,0,0,0,.07,2,10.25,10.25,0,0,0,.61,1.78A.66.66,0,0,1,3.22,20.93Zm16.24.8c-.13.25-.25.61-.44.68-.58.23-.76-.11-1.12.41s0,.56,0,1.19c0,.29-.33.44-.64.54A8.89,8.89,0,0,1,15,24.45c-.26,0-.29.21-.54.17s-.75-.16-1.15-.21A7.08,7.08,0,0,1,11.62,24a8,8,0,0,1-1.14-.85c-.17-.13-.3-.33-.44-.42a3.5,3.5,0,0,1-.31-.27,3.75,3.75,0,0,0-1.8-1c-.29-.06-.59-.06-.92-.1-.18,0-.36,0-.52,0s-.08-.17-.18-.18S6,21.5,6,21.41s-.12-.31-.25-.58a5.43,5.43,0,0,1-.44-1.64,15,15,0,0,1,.08-1.74,13.63,13.63,0,0,1,.06-1.73,3.71,3.71,0,0,1,.42-1,3.16,3.16,0,0,1,.26-.57s0-.15,0-.15c.3,0,.55.12.67.08S6.87,14,7,14a4.44,4.44,0,0,0,2-.87,11.92,11.92,0,0,0,.89-1.22c.33-.38.68-.73,1-1.11.18-.23.2-.22.38-.45s.77-.63,1.08-1.07A13.54,13.54,0,0,0,13.11,8a9.27,9.27,0,0,0,.52-1.42A6.4,6.4,0,0,0,14,5.16,8.07,8.07,0,0,0,14,3.73c0-.23-.16-.23-.17-.46a1.69,1.69,0,0,1,.3-1,.68.68,0,0,1,.49.11s-.06.17,0,.2a2.65,2.65,0,0,1,1.12,1.06,5,5,0,0,1,.13,1.57,5.39,5.39,0,0,1-.49,2c-.15.43-.11.94-.22,1.41A5.56,5.56,0,0,0,15,10a3,3,0,0,0,.5,1.75,3.68,3.68,0,0,0,1.34,1.33,8.86,8.86,0,0,0,1.83.57c.13,0,.46-.11.49-.1.28,0,.26.19.54.24a4,4,0,0,1,2,.71,1.2,1.2,0,0,1,.37,1,.75.75,0,0,1-.23.46c-.54.37-.73.15-1,.76s0,.58.2,1.21a1.32,1.32,0,0,1-.71,1.29c-.53.34-.71.2-1,.78s.21.57.33,1.18C19.78,21.3,19.58,21.5,19.46,21.73Z"/></g></g></g></svg>