<svg xmlns="http://www.w3.org/2000/svg" xmlns:xlink="http://www.w3.org/1999/xlink" viewBox="0 0 26.75 29"><defs><style>.cls-3{fill:#7d6047;}</style></defs><rect class="cls-3" x="11" y="3" width="4" height="4"/><path class="cls-3" d="M1.38,0c2.48,2,6.92,5,12,5s9.52-3,12-5Z"/><path class="cls-3" d="M24.38,28a1,1,0,0,1-1,1H3.42a1,1,0,0,1-1-1h0a1,1,0,0,1,1-1h19.9a1,1,0,0,1,1,1Z"/><path class="cls-3" d="M24.88,9.09c0-.74-.6-1.09-1.34-1.09H3.21c-.74,0-1.34.35-1.34,1.09L0,24.54A1.56,1.56,0,0,0,1.56,26H25.19a1.56,1.56,0,0,0,1.56-1.46ZM13.38,23.25a6.44,6.44,0,1,1,6.44-6.44A6.44,6.44,0,0,1,13.38,23.25Z"/><polygon class="cls-3" points="12.62 18 13.38 13 14.13 18 12.62 18"/></svg>