<svg xmlns="http://www.w3.org/2000/svg" width="80" height="80" viewBox="0 0 80 80">
    <path d="M64 71.1c-0.8 0.1-1.7 0.3-2.5 0.4l-0.5 0.1c-1.2 0.2-2.3 0.4-3.4 0.9 -1.1 0.5-2.1 1.1-3 2 -0.8 0.9-2.1 2.1-1.4 3.4 0.4 0.9 1.9 1.7 2.9 1.8 2.1 0.2 3.7-2 4.8-3.5 0.5-0.7 0.8-1.4 1.3-2 0.8-0.8 2-1.3 2.9-2.2C65.9 71.2 64.6 71 64 71.1zM77.4 26.6c-0.9-1.7-1.8-3.4-2.8-5.4C71.8 15.2 68.9 10.9 63.5 6.7c-2.2-1.7-5.8-3.8-7.5-4.5 -3.1-1.2-6.1-2-9.6-2.2 -2.9-0.2-5.6 0.2-8.4 1.2 -2 0.7-9.6 4-11.6 4.5 -5.9 1.5-15.4 2.6-17.5 9.4 -0.8 2.7-0.8 5-3 7.2 -2.1 2.1-3.9 3.5-4.7 6.5 -0.6 2.5-1.1 5.1-1.2 7.6 -0.1 3.1 0.3 6.1 0.9 9.1 0.7 3.4 2 7.3 3.6 10.4 0.5 0.9 0.9 1.8 1.2 2.7 0.4 1 1.2 1.8 1.9 2.7 2.8 3.8 6.4 7.1 10.5 9.6 1.7 1.1 3.7 1.6 5.4 2.6 2.2 1.2 4.3 3.4 6.9 3.4 0.5 0 1-0.1 1.6-0.1 1.5 0 3.1-0.1 4.6 0.3 1.6 0.5 3.1 1.5 4.8 1.9 2 0.5 4.1 0.7 6.1 0.2 2-0.5 2.9-2.1 3.8-3.9 1.1-2.3 2.8-3.5 5.1-4.6 3.1-1.4 6.7-0.7 10-1.3 0.6-0.1 1.3-0.2 1.9-0.5 1.5-0.7 2.4-2.7 3.3-4 1.4-1.8 2.1-4.1 2.9-6.2 0.3-1 0.8-1.9 0.8-2.9 0.1-1.2 0.2-2.4 0.3-3.6 0.2-1.8 0-3.4 0.9-5.1 1.6-3.2 3.2-6.4 3.4-10C80.2 32.9 79 29.8 77.4 26.6zM42.9 57.4c-0.3 0.6-0.8 0.7-1.3 0.7C42.1 58.1 42.6 58 42.9 57.4 43.1 57 43 56.4 43 55.9v0c0 0 0 0 0 0C43 56.4 43.1 57 42.9 57.4z" fill="#E4C696"></path>
    <path d="M41.8 41c0-0.1-1.2-0.9-1.7-2.4 -0.8-3.3 0.2-5.9 0.5-6.5 0.2-0.5 0.6-1.3 2.1-2.5 -1.6 0.1-3.1 1.5-3.3 1.8 -0.1 0.2-0.2 0.4 0.1 0.6 0.3 0.2-0.3 0.2-0.4 0.1 -0.2-0.1-0.2-0.3-0.2-0.5 0-0.4 0.3-0.6 0.5-0.9 0.4-0.4 1-0.8 1.5-1 0.2-1.4-0.7-2.7-2-2.8 -0.5 0-1 0-1.3 0 -1.3 0-2.6 0.1-3.8-0.1 -0.6-0.1-1.1-0.4-1.6-0.7 -0.5-0.3-0.8-0.9-1.1-1.4 -0.3-0.6-0.4-1.9 0.2-2.4 0.6-0.5 1.5-0.8 1.9 0.1 0.1 0.4 0 0.9-0.5 1 -0.1 0-0.3 0-0.4 0 -0.6 0-0.4 0.7-0.2 0.8 0.2 0.1 0.4 0.2 0.6 0.2 0.4 0 1.9-0.2 1.8-2 0-0.9-0.9-1.5-1-1.6 -2.5-1.7-5.2 0.9-5 3.6 0.2 3.5 2 4.6 2.1 4.8 -0.4 0-0.9-0.2-0.9-0.1 0 0 0.1 0.1 0.4 0.3 1.7 1.3 5.1 4.2 5.7 5.8 0.3 0.6 1.2 2.5 1.3 2.7 0.1 0.2 0.2 0.1 0.3 0 0.1-0.1 0.7-0.8 0.8-1.1 0.3-0.5 0.3-1.2 0.3-1.8 0-0.2 0-0.3 0.3-0.4 0.1 0 0.3 0.2 0.3 0.2 0.1 0.3 0.1 1.6-0.6 2.7 -0.5 0.7-0.7 0.9-1 1 -0.1 0 0 0.7 0.1 0.9 0 0.1 0.8 2.3 0.8 2.5 0.2 1 0.4 2.1 0.4 3.2 0 0.5-0.2 0.8-0.4 1.3 -0.1 0.3 0 0.4 0.2 0.5 0.9 0 2.2 0 2.9 0 0.1 0 0.3 0 0.3-0.1 0.1-0.4-0.1-1.4-0.1-1.5 -0.2-0.7-0.2-1.4-0.3-2.1 0-0.5 0-1.2 0.3-1.7C41.6 41.1 41.8 41.1 41.8 41zM34.7 28.2c0-0.2-0.1-0.3 0.1-0.3 0.2 0 0.3 0 0.5 0.1 0.1 0 0.3 0.3 0.3 0.4C35.4 28.4 34.8 28.5 34.7 28.2zM40.8 55h-0.2l0 1.6h0.1c0.4 0 0.6-0.1 0.7-0.4 0-0.1 0.1-0.3 0.1-0.4 0-0.3 0-0.4-0.1-0.5C41.4 55.1 41.1 55 40.8 55zM38.7 55c-0.3 0-0.5 0.1-0.6 0.3 0 0.1-0.1 0.2-0.1 0.5 0 0.2 0 0.3 0.1 0.4 0.1 0.2 0.3 0.4 0.7 0.4h0.2l0-1.6L38.7 55 38.7 55zM46.5 54.7c0 0-0.1 0.1-0.1 0.1l-0.5 1.3h1.1l-0.5-1.3C46.6 54.8 46.5 54.7 46.5 54.7zM46.4 37.1c0 0-0.6 0.4-0.7 0.5 -0.4 0.3-1.5 0.8-2-0.3 0.3 0 0.8 0.1 1 0 1.2-0.3 2.1-1.3 2.4-2.5 0-0.2 0.1-0.7 0.2-1.1 0.1-0.8 0.1-1.6 0-2.3 0-0.4-0.1-0.8-0.5-1.1 -0.7-0.5-1.9-0.8-2.2-0.9 -0.4-0.1-0.8-0.1-1.2 0.1 -0.7 0.3-2.1 2-2.6 4.1 -0.4 1.8-0.5 3.8 0.2 5.5 0.6 1.5 2 2.1 3.4 1.1C45 40 46.1 38.2 46.4 37.1zM44.6 32.5c0.2 0 0.4 1.3 0 2.1 -0.1 0.2-0.5 0.9-0.9 1C44 34.8 44.7 32.5 44.6 32.5zM77.4 26.6c-0.9-1.7-1.8-3.4-2.8-5.4C71.8 15.2 68.9 10.9 63.5 6.7c-2.2-1.7-5.8-3.8-7.5-4.5 -3.1-1.2-6.1-2-9.6-2.2 -2.9-0.2-5.6 0.2-8.4 1.2 -2 0.7-9.6 4-11.6 4.5 -5.9 1.5-15.4 2.6-17.5 9.4 -0.8 2.7-0.8 5-3 7.2 -2.1 2.1-3.9 3.5-4.7 6.5 -0.6 2.5-1.1 5.1-1.2 7.6 -0.1 3.1 0.3 6.1 0.9 9.1 0.7 3.4 2 7.3 3.6 10.4 0.5 0.9 0.9 1.8 1.2 2.7 0.4 1 1.2 1.8 1.9 2.7 2.8 3.8 6.4 7.1 10.5 9.6 1.7 1.1 3.7 1.6 5.4 2.6 2.2 1.2 4.3 3.4 6.9 3.4 0.5 0 1-0.1 1.6-0.1 1.5 0 3.1-0.1 4.6 0.3 1.6 0.5 3.1 1.5 4.8 1.9 2 0.5 4.1 0.7 6.1 0.2 2-0.5 2.9-2.1 3.8-3.9 1.1-2.3 2.8-3.5 5.1-4.6 3.1-1.4 6.7-0.7 10-1.3 0.6-0.1 1.3-0.2 1.9-0.5 1.5-0.7 2.4-2.7 3.3-4 1.4-1.8 2.1-4.1 2.9-6.2 0.3-1 0.8-1.9 0.8-2.8 0.1-1.2 0.2-2.4 0.3-3.6 0.2-1.8 0-3.4 0.9-5.1 1.6-3.2 3.2-6.4 3.4-10C80.2 32.9 79 29.8 77.4 26.6zM8 48.3c-1.8-1.1 0-3.8 0.3-5.4 0-0.1 0-0.1 0-0.2 0-1-0.5-2.9 0.2-3.5 0.8 0.1 0.7 1 0.6 1.6 -0.1 1.4-0.2 3.1 0 4.4 0.2 0.9 0.8 2 0.4 2.9 0 0.1-0.1 0.1-0.1 0.2C9 48.8 8.2 49.2 8 48.3zM21.7 67.4c-0.8 0.3-1.9-1.2-2.5-1.6 -1.1-0.5-2.4-0.5-3.5-1 -1-0.5-1.8-1.1-2.5-2.1 -1.2-1.7-2.3-3.9-2.5-5.9 -1.4-0.2-3.2-6.3-1.4-6.1 1.3 0.1 1.9 3.9 2.4 4.8 1.8 3.1 4.1 6.3 6.9 8.6C18.9 64.5 23.2 66.9 21.7 67.4zM24.2 58c-0.4 0.4-1.1 0.4-1.5 0.4l-2.6 0 0-1.3 1.6 0c0.5 0 0.8-0.1 0.9-0.1 0.4-0.1 0.5-0.4 0.4-0.7l-2.7 0v-1.2l2.7 0c-0.1-0.3-0.3-0.4-0.4-0.5 -0.2-0.1-0.5-0.2-0.8-0.2h-1.6v-1.3l2.5 0c0.8 0 1.3 0.3 1.6 0.5 0.5 0.5 0.5 1.3 0.5 2C24.8 56.9 24.7 57.6 24.2 58zM51.6 58.4l-1.7 0 0-5.2h1.7l0 1.8 1.9 0 0-1.8 1.7 0 0 5.2 -1.7 0 0-2.1 -1.9 0L51.6 58.4zM40.5 50.6c-9.6 0-17.5-7.8-17.5-17.4 0-9.6 7.8-17.4 17.5-17.4 9.6 0 17.5 7.8 17.5 17.4C58 42.8 50.2 50.6 40.5 50.6zM49.6 58.4l-1.8 0 -0.4-1.1h-1.9l-0.4 1.1 -1.8 0 1.9-4.6c0.2-0.4 0.4-0.6 1.2-0.6 0.5 0 1 0.1 1.2 0.6L49.6 58.4zM40.6 58.4l-1.7 0v-0.5l-1 0c-0.5 0-1.1 0-1.4-0.6 -0.2-0.4-0.2-1.1-0.2-1.5 0-1 0.2-1.4 0.3-1.5 0.3-0.5 0.8-0.5 1.6-0.5l0.8 0v-0.5l1.7 0 0 0.5h0.8c0.7 0 1.3 0 1.6 0.5 0.1 0.1 0.3 0.5 0.3 1.5 0 0.5 0 1.1-0.2 1.5 -0.3 0.6-0.9 0.6-1.4 0.6h-1L40.6 58.4zM33 55.2h2.9l0 1.1 -2.9 0v0.6c0 0.1 0 0.2 0.1 0.2 0.1 0.1 0.2 0.1 0.3 0.1h0.1l2.6 0v1.3l-3.8 0c-0.2 0-0.4 0-0.6-0.2 -0.2-0.2-0.2-0.4-0.2-0.7l0-3.6c0-0.2 0-0.4 0.2-0.6 0.2-0.2 0.4-0.2 0.6-0.2l3.8 0v1.3l-2.6 0c-0.1 0-0.2 0-0.3 0.1 -0.1 0.1-0.1 0.2-0.1 0.3L33 55.2zM29.3 58.5l-1.3-3.4c0 0 0-0.1-0.1-0.1 0 0-0.1 0.1-0.1 0.1l-1.3 3.4 -1.8 0 2-4.7c0.2-0.5 0.8-0.5 1.1-0.5h0c0.3 0 0.9 0 1.1 0.5l2 4.7L29.3 58.5zM56.1 65.5c-0.7 0.5-1.6 0.8-2.4 1.2 -1.4 0.7-2.8 1.2-4.1 1.8 -1.1 0.5-1.7 1.4-2.7 2 -1.7 1.1-4.6 2.2-6.7 1.4 -1.1-0.4-1.9-1.4-2.9-1.8 -1.2-0.5-2.2-0.3-3.3 0.1 -0.6 0.2-1.9 0.7-2.4 0.1 -1.3-1.4 1.6-1.2 2.1-1.1 1 0.2 2 0.2 2.9 0.3 1.6 0.1 3.2 0.1 4.9 0 1.5-0.1 3-0.3 4.4-0.7 0.7-0.2 1.4-0.4 2-0.6 0.6-0.2 1.4-0.3 1.9-0.6 1.3-0.7 2.7-0.8 4-1.5 0.4-0.2 0.8-0.6 1.2-1 0.3-0.3 0.5-0.7 1-0.9 0.3-0.1 0.9-0.1 1 0.3C57 64.8 56.4 65.3 56.1 65.5zM59 58.4l-1.7 0 0-3.9 -1.9 0v-1.3l5.4 0 0 1.3 -1.9 0L59 58.4zM68.8 47.2c-0.2 0.8-0.3 2.4-1.2 2.8 -1.5 0.7 0.2-2.4 0.3-3 0.5-1.9 0.9-3.9 0.9-6 0-5.3-1.2-10.6-3.8-15.2 -0.8-1.5-1.7-3-3-4.2 -1-0.9-1.6-2-2.6-2.9 -2.4-2.3-5.8-4.4-8.9-5.7 -2.2-0.9-4.6-1.5-7-2 -1-0.2-2.2-0.2-3.2-0.1 -0.4 0-0.9 0-1.3 0.1 -2.2 0.1-4.5 0.3-6.6 0.7 -2.1 0.4-3.9 1.8-6 2 -0.6 1.2-3.2 1.9-4.4 2.7 -1.8 1.3-3.5 2.7-4.9 4.4 -1.5 1.7-4.8 7.3-4.8 6.1 -0.2-0.8 1.2-2.3 1.7-3 0.8-1.2 1.6-2.3 2.5-3.4 1.9-2.2 4.1-4.1 6.5-5.6C27.9 11.6 33.7 9.9 39.5 9.9c16.7 0 30.2 13.4 30.2 30C69.7 42.4 69.4 44.8 68.8 47.2zM70.7 20c-0.3 0.4-0.9-0.3-1.2-0.5 -0.9-0.9-3.5-5.1-7.6-8.3 -2-1.6-4.2-3-6.5-4.1 -0.7-0.3-1.4-0.6-2.2-0.9 -0.5-0.2-1.7-0.5-1.7-1.1 0-1.3 3.1 0.4 3.6 0.5 2.6 0.4 5.4 2.3 7.5 4 1.5 1.2 2.8 2.5 4.1 3.8 1.4 1.3 1.3 2.5 2.4 4C69.5 17.9 71.1 19.4 70.7 20zM76.4 38.9c-1.7-0.6 0.4-3.7 0.5-4.7 0.1-0.7-0.7-1.7-0.6-2.2 0.3-1.1 1.2 0.2 1.4 0.7 0.4 1.2 0.6 2.5 0.6 3.8C78.3 37.6 78 39.5 76.4 38.9zM51.7 35.3c-0.3-0.3-0.6-0.6-0.9-1.1 -0.5-0.8-0.9-1.6-1.5-2.2 -0.3-0.3-1-0.9-1.5-0.9 0.4 2.9-0.2 4.4-0.3 4.8 0.2-0.1 0.9 0 1.1 0 0.1 0 0.6 0.1 1 0.9 -0.3-0.2-0.5-0.3-1.2-0.2 -0.7 0.1-1.3 1-1.4 1.1 -0.1 0.1-1.4 2.6-2.4 3.2 0.1 0.1 1.1-0.1 1.3-0.2 0.4-0.1 0.6-0.3 0.7 0.2 0.1 0.5 0.2 1.1 0.2 1.6 0.1 0.8 0.2 1.6 0.2 2.4 0 0.3 0 0.5 0 0.8 0 0.3-0.4 0.6 0 1 0.1 0.1 0.3 0.1 0.4 0.1 0.5 0 1.7 0 2.3 0 0.1 0 0.2 0.1 0.4-0.1 0.1-0.1 0.1-0.2 0-0.3 -0.1-0.2-0.1-0.5-0.1-0.7 0-0.3 0-1.6 0-2 0-1.9 1.1-5.9 1.1-6.2 0.1-0.3 0.1-0.4 0.1-0.5 0-0.1-0.1-0.1-0.2-0.2 -0.1-0.1-0.3-0.2-0.4-0.3 0 0-0.8-0.7-0.8-1 0-0.2-0.1-0.5 0.2-0.2 0.2 0.2 0.4 0.4 0.5 0.6 0.6 0.6 2.7 0.6 2.6 0.4C52.1 35.8 51.9 35.6 51.7 35.3zM64 71.1c-0.8 0.1-1.7 0.3-2.5 0.4l-0.5 0.1c-1.2 0.2-2.3 0.4-3.4 0.9 -1.1 0.5-2.1 1.1-3 2 -0.8 0.9-2.1 2.1-1.4 3.4 0.4 0.9 1.9 1.7 2.9 1.8 2.1 0.2 3.7-2 4.8-3.5 0.5-0.7 0.8-1.4 1.3-2 0.8-0.8 2-1.3 2.9-2.2C65.9 71.2 64.6 71 64 71.1zM57.8 77.4c-1.2 1.3-2.7 0.3-1.6-1.1 0.6-0.7 2.1-1.2 3.2-1.2 0.1 0 0.3 0 0.4 0.1C59.3 76 58.5 76.6 57.8 77.4z" fill="#B3282D"></path>
	<linearGradient xmlns="http://www.w3.org/2000/svg" id="SVGID_1_" gradientUnits="userSpaceOnUse" x1="256.2969" y1="-226.4946" x2="200.5583" y2="-282.2332" gradientTransform="matrix(1 0 0 -1 -187.5996 -214.9902)">
		<stop offset="0" style="stop-color:#7C1721"/>
		<stop offset="0.2895" style="stop-color:#B3282D"/>
		<stop offset="0.5316" style="stop-color:#B3282D"/>
		<stop offset="1" style="stop-color:#7C1721"/>
	</linearGradient>
    <path d="M41.8 41c0-0.1-1.2-0.9-1.7-2.4 -0.8-3.3 0.2-5.9 0.5-6.5 0.2-0.5 0.6-1.3 2.1-2.5 -1.6 0.1-3.1 1.5-3.3 1.8 -0.1 0.2-0.2 0.4 0.1 0.6 0.3 0.2-0.3 0.2-0.4 0.1 -0.2-0.1-0.2-0.3-0.2-0.5 0-0.4 0.3-0.6 0.5-0.9 0.4-0.4 1-0.8 1.5-1 0.2-1.4-0.7-2.7-2-2.8 -0.5 0-1 0-1.3 0 -1.3 0-2.6 0.1-3.8-0.1 -0.6-0.1-1.1-0.4-1.6-0.7 -0.5-0.3-0.8-0.9-1.1-1.4 -0.3-0.6-0.4-1.9 0.2-2.4 0.6-0.5 1.5-0.8 1.9 0.1 0.1 0.4 0 0.9-0.5 1 -0.1 0-0.3 0-0.4 0 -0.6 0-0.4 0.7-0.2 0.8 0.2 0.1 0.4 0.2 0.6 0.2 0.4 0 1.9-0.2 1.8-2 0-0.9-0.9-1.5-1-1.6 -2.5-1.7-5.2 0.9-5 3.6 0.2 3.5 2 4.6 2.1 4.8 -0.4 0-0.9-0.2-0.9-0.1 0 0 0.1 0.1 0.4 0.3 1.7 1.3 5.1 4.2 5.7 5.8 0.3 0.6 1.2 2.5 1.3 2.7 0.1 0.2 0.2 0.1 0.3 0 0.1-0.1 0.7-0.8 0.8-1.1 0.3-0.5 0.3-1.2 0.3-1.8 0-0.2 0-0.3 0.3-0.4 0.1 0 0.3 0.2 0.3 0.2 0.1 0.3 0.1 1.6-0.6 2.7 -0.5 0.7-0.7 0.9-1 1 -0.1 0 0 0.7 0.1 0.9 0 0.1 0.8 2.3 0.8 2.5 0.2 1 0.4 2.1 0.4 3.2 0 0.5-0.2 0.8-0.4 1.3 -0.1 0.3 0 0.4 0.2 0.5 0.9 0 2.2 0 2.9 0 0.1 0 0.3 0 0.3-0.1 0.1-0.4-0.1-1.4-0.1-1.5 -0.2-0.7-0.2-1.4-0.3-2.1 0-0.5 0-1.2 0.3-1.7C41.6 41.1 41.8 41.1 41.8 41zM34.7 28.2c0-0.2-0.1-0.3 0.1-0.3 0.2 0 0.3 0 0.5 0.1 0.1 0 0.3 0.3 0.3 0.4C35.4 28.4 34.8 28.5 34.7 28.2zM40.8 55h-0.2l0 1.6h0.1c0.4 0 0.6-0.1 0.7-0.4 0-0.1 0.1-0.3 0.1-0.4 0-0.3 0-0.4-0.1-0.5C41.4 55.1 41.1 55 40.8 55zM38.7 55c-0.3 0-0.5 0.1-0.6 0.3 0 0.1-0.1 0.2-0.1 0.5 0 0.2 0 0.3 0.1 0.4 0.1 0.2 0.3 0.4 0.7 0.4h0.2l0-1.6L38.7 55 38.7 55zM46.5 54.7c0 0-0.1 0.1-0.1 0.1l-0.5 1.3h1.1l-0.5-1.3C46.6 54.8 46.5 54.7 46.5 54.7zM46.4 37.1c0 0-0.6 0.4-0.7 0.5 -0.4 0.3-1.5 0.8-2-0.3 0.3 0 0.8 0.1 1 0 1.2-0.3 2.1-1.3 2.4-2.5 0-0.2 0.1-0.7 0.2-1.1 0.1-0.8 0.1-1.6 0-2.3 0-0.4-0.1-0.8-0.5-1.1 -0.7-0.5-1.9-0.8-2.2-0.9 -0.4-0.1-0.8-0.1-1.2 0.1 -0.7 0.3-2.1 2-2.6 4.1 -0.4 1.8-0.5 3.8 0.2 5.5 0.6 1.5 2 2.1 3.4 1.1C45 40 46.1 38.2 46.4 37.1zM44.6 32.5c0.2 0 0.4 1.3 0 2.1 -0.1 0.2-0.5 0.9-0.9 1C44 34.8 44.7 32.5 44.6 32.5zM77.4 26.6c-0.9-1.7-1.8-3.4-2.8-5.4C71.8 15.2 68.9 10.9 63.5 6.7c-2.2-1.7-5.8-3.8-7.5-4.5 -3.1-1.2-6.1-2-9.6-2.2 -2.9-0.2-5.6 0.2-8.4 1.2 -2 0.7-9.6 4-11.6 4.5 -5.9 1.5-15.4 2.6-17.5 9.4 -0.8 2.7-0.8 5-3 7.2 -2.1 2.1-3.9 3.5-4.7 6.5 -0.6 2.5-1.1 5.1-1.2 7.6 -0.1 3.1 0.3 6.1 0.9 9.1 0.7 3.4 2 7.3 3.6 10.4 0.5 0.9 0.9 1.8 1.2 2.7 0.4 1 1.2 1.8 1.9 2.7 2.8 3.8 6.4 7.1 10.5 9.6 1.7 1.1 3.7 1.6 5.4 2.6 2.2 1.2 4.3 3.4 6.9 3.4 0.5 0 1-0.1 1.6-0.1 1.5 0 3.1-0.1 4.6 0.3 1.6 0.5 3.1 1.5 4.8 1.9 2 0.5 4.1 0.7 6.1 0.2 2-0.5 2.9-2.1 3.8-3.9 1.1-2.3 2.8-3.5 5.1-4.6 3.1-1.4 6.7-0.7 10-1.3 0.6-0.1 1.3-0.2 1.9-0.5 1.5-0.7 2.4-2.7 3.3-4 1.4-1.8 2.1-4.1 2.9-6.2 0.3-1 0.8-1.9 0.8-2.8 0.1-1.2 0.2-2.4 0.3-3.6 0.2-1.8 0-3.4 0.9-5.1 1.6-3.2 3.2-6.4 3.4-10C80.2 32.9 79 29.8 77.4 26.6zM8 48.3c-1.8-1.1 0-3.8 0.3-5.4 0-0.1 0-0.1 0-0.2 0-1-0.5-2.9 0.2-3.5 0.8 0.1 0.7 1 0.6 1.6 -0.1 1.4-0.2 3.1 0 4.4 0.2 0.9 0.8 2 0.4 2.9 0 0.1-0.1 0.1-0.1 0.2C9 48.8 8.2 49.2 8 48.3zM21.7 67.4c-0.8 0.3-1.9-1.2-2.5-1.6 -1.1-0.5-2.4-0.5-3.5-1 -1-0.5-1.8-1.1-2.5-2.1 -1.2-1.7-2.3-3.9-2.5-5.9 -1.4-0.2-3.2-6.3-1.4-6.1 1.3 0.1 1.9 3.9 2.4 4.8 1.8 3.1 4.1 6.3 6.9 8.6C18.9 64.5 23.2 66.9 21.7 67.4zM24.2 58c-0.4 0.4-1.1 0.4-1.5 0.4l-2.6 0 0-1.3 1.6 0c0.5 0 0.8-0.1 0.9-0.1 0.4-0.1 0.5-0.4 0.4-0.7l-2.7 0v-1.2l2.7 0c-0.1-0.3-0.3-0.4-0.4-0.5 -0.2-0.1-0.5-0.2-0.8-0.2h-1.6v-1.3l2.5 0c0.8 0 1.3 0.3 1.6 0.5 0.5 0.5 0.5 1.3 0.5 2C24.8 56.9 24.7 57.6 24.2 58zM51.6 58.4l-1.7 0 0-5.2h1.7l0 1.8 1.9 0 0-1.8 1.7 0 0 5.2 -1.7 0 0-2.1 -1.9 0L51.6 58.4zM40.5 50.6c-9.6 0-17.5-7.8-17.5-17.4 0-9.6 7.8-17.4 17.5-17.4 9.6 0 17.5 7.8 17.5 17.4C58 42.8 50.2 50.6 40.5 50.6zM49.6 58.4l-1.8 0 -0.4-1.1h-1.9l-0.4 1.1 -1.8 0 1.9-4.6c0.2-0.4 0.4-0.6 1.2-0.6 0.5 0 1 0.1 1.2 0.6L49.6 58.4zM40.6 58.4l-1.7 0v-0.5l-1 0c-0.5 0-1.1 0-1.4-0.6 -0.2-0.4-0.2-1.1-0.2-1.5 0-1 0.2-1.4 0.3-1.5 0.3-0.5 0.8-0.5 1.6-0.5l0.8 0v-0.5l1.7 0 0 0.5h0.8c0.7 0 1.3 0 1.6 0.5 0.1 0.1 0.3 0.5 0.3 1.5 0 0.5 0 1.1-0.2 1.5 -0.3 0.6-0.9 0.6-1.4 0.6h-1L40.6 58.4zM33 55.2h2.9l0 1.1 -2.9 0v0.6c0 0.1 0 0.2 0.1 0.2 0.1 0.1 0.2 0.1 0.3 0.1h0.1l2.6 0v1.3l-3.8 0c-0.2 0-0.4 0-0.6-0.2 -0.2-0.2-0.2-0.4-0.2-0.7l0-3.6c0-0.2 0-0.4 0.2-0.6 0.2-0.2 0.4-0.2 0.6-0.2l3.8 0v1.3l-2.6 0c-0.1 0-0.2 0-0.3 0.1 -0.1 0.1-0.1 0.2-0.1 0.3L33 55.2zM29.3 58.5l-1.3-3.4c0 0 0-0.1-0.1-0.1 0 0-0.1 0.1-0.1 0.1l-1.3 3.4 -1.8 0 2-4.7c0.2-0.5 0.8-0.5 1.1-0.5h0c0.3 0 0.9 0 1.1 0.5l2 4.7L29.3 58.5zM56.1 65.5c-0.7 0.5-1.6 0.8-2.4 1.2 -1.4 0.7-2.8 1.2-4.1 1.8 -1.1 0.5-1.7 1.4-2.7 2 -1.7 1.1-4.6 2.2-6.7 1.4 -1.1-0.4-1.9-1.4-2.9-1.8 -1.2-0.5-2.2-0.3-3.3 0.1 -0.6 0.2-1.9 0.7-2.4 0.1 -1.3-1.4 1.6-1.2 2.1-1.1 1 0.2 2 0.2 2.9 0.3 1.6 0.1 3.2 0.1 4.9 0 1.5-0.1 3-0.3 4.4-0.7 0.7-0.2 1.4-0.4 2-0.6 0.6-0.2 1.4-0.3 1.9-0.6 1.3-0.7 2.7-0.8 4-1.5 0.4-0.2 0.8-0.6 1.2-1 0.3-0.3 0.5-0.7 1-0.9 0.3-0.1 0.9-0.1 1 0.3C57 64.8 56.4 65.3 56.1 65.5zM59 58.4l-1.7 0 0-3.9 -1.9 0v-1.3l5.4 0 0 1.3 -1.9 0L59 58.4zM68.8 47.2c-0.2 0.8-0.3 2.4-1.2 2.8 -1.5 0.7 0.2-2.4 0.3-3 0.5-1.9 0.9-3.9 0.9-6 0-5.3-1.2-10.6-3.8-15.2 -0.8-1.5-1.7-3-3-4.2 -1-0.9-1.6-2-2.6-2.9 -2.4-2.3-5.8-4.4-8.9-5.7 -2.2-0.9-4.6-1.5-7-2 -1-0.2-2.2-0.2-3.2-0.1 -0.4 0-0.9 0-1.3 0.1 -2.2 0.1-4.5 0.3-6.6 0.7 -2.1 0.4-3.9 1.8-6 2 -0.6 1.2-3.2 1.9-4.4 2.7 -1.8 1.3-3.5 2.7-4.9 4.4 -1.5 1.7-4.8 7.3-4.8 6.1 -0.2-0.8 1.2-2.3 1.7-3 0.8-1.2 1.6-2.3 2.5-3.4 1.9-2.2 4.1-4.1 6.5-5.6C27.9 11.6 33.7 9.9 39.5 9.9c16.7 0 30.2 13.4 30.2 30C69.7 42.4 69.4 44.8 68.8 47.2zM70.7 20c-0.3 0.4-0.9-0.3-1.2-0.5 -0.9-0.9-3.5-5.1-7.6-8.3 -2-1.6-4.2-3-6.5-4.1 -0.7-0.3-1.4-0.6-2.2-0.9 -0.5-0.2-1.7-0.5-1.7-1.1 0-1.3 3.1 0.4 3.6 0.5 2.6 0.4 5.4 2.3 7.5 4 1.5 1.2 2.8 2.5 4.1 3.8 1.4 1.3 1.3 2.5 2.4 4C69.5 17.9 71.1 19.4 70.7 20zM76.4 38.9c-1.7-0.6 0.4-3.7 0.5-4.7 0.1-0.7-0.7-1.7-0.6-2.2 0.3-1.1 1.2 0.2 1.4 0.7 0.4 1.2 0.6 2.5 0.6 3.8C78.3 37.6 78 39.5 76.4 38.9zM51.7 35.3c-0.3-0.3-0.6-0.6-0.9-1.1 -0.5-0.8-0.9-1.6-1.5-2.2 -0.3-0.3-1-0.9-1.5-0.9 0.4 2.9-0.2 4.4-0.3 4.8 0.2-0.1 0.9 0 1.1 0 0.1 0 0.6 0.1 1 0.9 -0.3-0.2-0.5-0.3-1.2-0.2 -0.7 0.1-1.3 1-1.4 1.1 -0.1 0.1-1.4 2.6-2.4 3.2 0.1 0.1 1.1-0.1 1.3-0.2 0.4-0.1 0.6-0.3 0.7 0.2 0.1 0.5 0.2 1.1 0.2 1.6 0.1 0.8 0.2 1.6 0.2 2.4 0 0.3 0 0.5 0 0.8 0 0.3-0.4 0.6 0 1 0.1 0.1 0.3 0.1 0.4 0.1 0.5 0 1.7 0 2.3 0 0.1 0 0.2 0.1 0.4-0.1 0.1-0.1 0.1-0.2 0-0.3 -0.1-0.2-0.1-0.5-0.1-0.7 0-0.3 0-1.6 0-2 0-1.9 1.1-5.9 1.1-6.2 0.1-0.3 0.1-0.4 0.1-0.5 0-0.1-0.1-0.1-0.2-0.2 -0.1-0.1-0.3-0.2-0.4-0.3 0 0-0.8-0.7-0.8-1 0-0.2-0.1-0.5 0.2-0.2 0.2 0.2 0.4 0.4 0.5 0.6 0.6 0.6 2.7 0.6 2.6 0.4C52.1 35.8 51.9 35.6 51.7 35.3zM64 71.1c-0.8 0.1-1.7 0.3-2.5 0.4l-0.5 0.1c-1.2 0.2-2.3 0.4-3.4 0.9 -1.1 0.5-2.1 1.1-3 2 -0.8 0.9-2.1 2.1-1.4 3.4 0.4 0.9 1.9 1.7 2.9 1.8 2.1 0.2 3.7-2 4.8-3.5 0.5-0.7 0.8-1.4 1.3-2 0.8-0.8 2-1.3 2.9-2.2C65.9 71.2 64.6 71 64 71.1zM57.8 77.4c-1.2 1.3-2.7 0.3-1.6-1.1 0.6-0.7 2.1-1.2 3.2-1.2 0.1 0 0.3 0 0.4 0.1C59.3 76 58.5 76.6 57.8 77.4z" fill="url(#SVGID_1_)"></path>
        <path d="M39.4 32.2c-0.1 0-0.2 0-0.3-0.1 -0.1-0.1-0.2-0.2-0.2-0.4 0 0 0 0.1 0 0.1 0 0.2 0 0.4 0.2 0.5 0.2 0.1 0.7 0.1 0.4-0.1C39.5 32.3 39.4 32.2 39.4 32.2zM38.8 26.9c-0.5 0-1 0-1.3 0 -1.3 0-2.6 0.1-3.8-0.1 -0.6-0.1-1.1-0.4-1.6-0.7 -0.5-0.3-0.8-0.9-1.1-1.4 -0.1-0.3-0.2-0.6-0.2-1 0 0.5 0.1 1 0.2 1.3 0.3 0.5 0.6 1.1 1.1 1.4 0.5 0.3 1 0.6 1.6 0.7 1.3 0.2 2.6 0.2 3.8 0.1 0.3 0 0.8-0.1 1.3 0 1.2 0 2 1 2 2.2C40.9 28 40.1 26.9 38.8 26.9zM33.3 20.8c-2.4-1.7-5.1 0.8-5 3.4 0.2-2.5 2.7-4.7 5-3.1 0.2 0.1 0.9 0.8 1 1.6 0-0.1 0-0.1 0-0.2C34.3 21.6 33.4 20.9 33.3 20.8zM46.9 37.7c-0.1 0.1-1.4 2.6-2.4 3.2 0 0 0.2 0 0.4 0 1-0.8 2-2.8 2-2.9 0.1-0.1 0.7-1.1 1.4-1.1 0.7-0.1 1 0.1 1.2 0.2 -0.1-0.2-0.2-0.3-0.3-0.5 -0.2-0.1-0.5-0.1-0.9-0.1C47.6 36.7 47 37.6 46.9 37.7zM38.7 35.2c0 0.6-0.2 1.5-0.6 2.2 -0.5 0.7-0.7 0.9-1 1 -0.1 0 0 0.2 0 0.4 0 0 0-0.1 0-0.1 0.3-0.2 0.5-0.3 1-1C38.7 36.8 38.8 35.7 38.7 35.2zM44.7 34.9c0.1-0.4 0.2-0.9 0.2-1.3 0 0.3-0.1 0.7-0.2 1 -0.1 0.1-0.4 0.8-0.8 0.9 0 0.1-0.1 0.2-0.1 0.3C44.2 35.8 44.6 35.1 44.7 34.9zM46.7 46.4c0-0.2 0.1-0.3 0.2-0.5 0-0.3 0-0.5 0-0.8 0 0 0 0 0-0.1 0 0.2 0 0.4 0 0.5C46.8 45.9 46.6 46.1 46.7 46.4zM46.8 30.4c-0.7-0.5-1.9-0.8-2.2-0.9 -0.4-0.1-0.8-0.1-1.2 0.1 -0.7 0.3-2.1 2-2.6 4.1 -0.2 0.9-0.3 1.9-0.3 2.9 0-0.9 0.1-1.7 0.3-2.5 0.5-2.1 1.9-3.8 2.6-4.1 0.4-0.2 0.8-0.2 1.2-0.1 0.3 0 1.5 0.4 2.2 0.9 0.4 0.2 0.5 0.7 0.5 1.1 0 0.3 0 0.6 0 1 0-0.4 0-0.8 0-1.3C47.3 31.1 47.2 30.6 46.8 30.4zM45.7 37.9c0.1 0 0.4-0.3 0.6-0.4 0.1-0.1 0.1-0.3 0.1-0.4 0 0-0.6 0.4-0.7 0.5 -0.4 0.3-1.2 0.7-1.8 0.1 -0.1 0-0.1 0-0.2 0C44.2 38.8 45.3 38.2 45.7 37.9zM47.6 35.9c0.1-0.5 0.3-1.4 0.3-2.7 0 1.6-0.3 2.4-0.4 2.8C47.5 35.9 47.5 35.9 47.6 35.9zM34.7 28.2c-0.1 0 0 0.1 0 0.3 0.1 0.3 0.7 0.2 0.9 0.2 0-0.1-0.1-0.2-0.2-0.3C35.2 28.4 34.9 28.4 34.7 28.2zM32.1 23.7c0.2 0 0.3 0 0.4 0 0.4-0.1 0.6-0.5 0.5-0.8 -0.1 0.3-0.2 0.5-0.5 0.5 -0.1 0-0.3 0-0.4 0 -0.4 0-0.4 0.2-0.4 0.5C31.8 23.8 31.9 23.7 32.1 23.7zM39.4 31.4c-0.1 0.1-0.1 0.3-0.1 0.4 0 0 0-0.1 0.1-0.1 0.2-0.3 1.5-1.5 2.9-1.8 0.1-0.1 0.3-0.2 0.4-0.4C41.1 29.6 39.7 31.1 39.4 31.4zM65 26c2.5 4.6 3.7 9.8 3.8 15.1 0 0 0-0.1 0-0.1 0-5.3-1.2-10.6-3.8-15.2 -0.8-1.5-1.7-3-3-4.2 -1-0.9-1.6-2-2.6-2.9 -2.4-2.3-5.8-4.4-8.9-5.7 -2.2-0.9-4.6-1.5-7-2 -1-0.2-2.2-0.2-3.2-0.1 -0.4 0-0.9 0-1.3 0.1 -2.2 0.1-4.5 0.3-6.6 0.7 -2.1 0.4-3.9 1.8-6 2 -0.6 1.2-3.2 1.9-4.4 2.7 -1.8 1.3-3.5 2.7-4.9 4.4 -1.5 1.7-4.8 7.3-4.8 6.1 0 0 0 0 0-0.1 0 0.1 0 0.2 0 0.4 0 1.3 3.3-4.4 4.8-6.1 1.5-1.6 3.1-3.1 4.9-4.4 1.1-0.8 3.7-1.5 4.4-2.7 2.1-0.2 3.9-1.6 6-2 2.1-0.4 4.4-0.5 6.6-0.7 0.4 0 0.9-0.1 1.3-0.1 1.1-0.1 2.2-0.1 3.2 0.1 2.3 0.5 4.8 1.1 7 2 3.1 1.2 6.5 3.3 8.9 5.7 1 0.9 1.6 2.1 2.6 3C63.3 23 64.2 24.5 65 26zM60.9 54.5l-1.9 0v0.3l1.9 0V54.5zM68.8 47.2c-0.2 0.8-0.3 2.4-1.2 2.8 -0.4 0.2-0.6 0.1-0.6-0.1 -0.1 0.4 0.1 0.7 0.6 0.4 0.9-0.4 1-2 1.2-2.8 0.6-2.4 0.9-4.8 0.9-7.3 0-0.1 0-0.1 0-0.2C69.6 42.4 69.3 44.8 68.8 47.2zM80 36c0-3.7-1.1-6.5-2.6-9.4 -0.9-1.7-1.8-3.4-2.8-5.4C71.8 15.2 68.9 10.9 63.5 6.7c-2.2-1.7-5.8-3.8-7.5-4.5 -3.1-1.2-6.1-2-9.6-2.2 -2.9-0.2-5.6 0.2-8.4 1.2 -2 0.7-9.6 4-11.6 4.5 -5.9 1.5-15.4 2.6-17.5 9.4 -0.8 2.7-0.8 5-3 7.2 -2.1 2.1-3.9 3.5-4.7 6.5 -0.6 2.5-1.1 5.1-1.2 7.6 0 0.8 0 1.5 0 2.3 0-0.7 0-1.3 0-2 0.1-2.5 0.5-5.2 1.2-7.6 0.8-3 2.6-4.4 4.7-6.5 2.2-2.2 2.2-4.5 3-7.2 2.1-6.9 11.6-7.9 17.5-9.4 2-0.5 9.6-3.8 11.6-4.5 2.8-1 5.5-1.3 8.4-1.2 3.5 0.2 6.6 1 9.6 2.2 1.8 0.7 5.3 2.8 7.5 4.5 5.4 4.2 8.3 8.5 11.1 14.5 0.9 2 1.9 3.7 2.8 5.4C78.8 29.7 79.9 32.4 80 36zM70.7 20c-0.3 0.4-0.9-0.3-1.2-0.5 -0.9-0.9-3.5-5.1-7.6-8.3 -2-1.6-4.2-3-6.5-4.1 -0.7-0.3-1.4-0.6-2.2-0.9 -0.4-0.2-1.5-0.5-1.6-1 0 0.1 0 0.1 0 0.2 0 0.6 1.2 0.9 1.7 1.1C54 6.7 54.7 7 55.4 7.3c2.3 1.1 4.5 2.5 6.5 4.1 4 3.2 6.7 7.4 7.6 8.3 0.3 0.3 0.8 1 1.2 0.5 0.1-0.1 0.1-0.2 0-0.4C70.7 19.9 70.7 19.9 70.7 20zM57.3 58.7l1.7 0v-0.3l-1.7 0 0-3.9L55.4 54.5v0.3l1.9 0L57.3 58.7zM56.1 65.8c0.2-0.2 0.9-0.6 0.8-1 0 0 0-0.1 0-0.1 -0.1 0.3-0.6 0.6-0.8 0.8 -0.7 0.5-1.6 0.8-2.4 1.2 -1.4 0.7-2.8 1.2-4.1 1.8 -1.1 0.5-1.7 1.4-2.7 2 -1.7 1.2-4.6 2.2-6.7 1.4 -1.1-0.4-1.9-1.4-2.9-1.8 -1.2-0.5-2.2-0.3-3.3 0.1 -0.6 0.2-1.9 0.7-2.4 0.1 -0.2-0.2-0.3-0.3-0.3-0.4 -0.1 0.2 0 0.4 0.3 0.7 0.6 0.6 1.8 0.1 2.4-0.1 1.1-0.4 2.1-0.6 3.3-0.1 1 0.5 1.9 1.4 2.9 1.8 2.1 0.8 5-0.2 6.7-1.4 1-0.7 1.6-1.5 2.7-2 1.4-0.6 2.8-1.2 4.1-1.8C54.5 66.6 55.4 66.3 56.1 65.8zM24.2 58c-0.4 0.4-1.1 0.4-1.5 0.4l-2.6 0 0-1 0 0 0 1.3 2.6 0c0.4 0 1-0.1 1.5-0.4 0.5-0.4 0.6-1.1 0.6-2.2 0-0.1 0-0.1 0-0.2C24.8 56.9 24.7 57.6 24.2 58zM21.7 67.4c-0.8 0.3-1.9-1.2-2.5-1.6 -1.1-0.5-2.4-0.5-3.5-1 -1-0.5-1.8-1.1-2.5-2.1 -1.2-1.7-2.3-3.9-2.5-5.9 -1-0.1-2.1-2.9-2.1-4.6 -0.1 1.7 1.1 4.8 2.2 4.9 0.2 2 1.3 4.1 2.5 5.9 0.7 1 1.4 1.7 2.5 2.1 1.1 0.5 2.5 0.5 3.5 1 0.6 0.3 1.7 1.8 2.5 1.6 0.3-0.1 0.4-0.3 0.3-0.5C21.9 67.3 21.8 67.4 21.7 67.4zM23.1 56.7c0-0.1 0.1-0.2 0.1-0.3l-2.7 0v-0.9 1.2L23.1 56.7zM22.7 55c0.1 0 0.2 0.1 0.2 0.2h0.1c-0.1-0.3-0.3-0.4-0.4-0.5 -0.2-0.1-0.5-0.2-0.8-0.2h-1.6v0.3h1.6C22.2 54.9 22.5 54.9 22.7 55zM58 33.4c-0.1 9.5-7.9 17.2-17.5 17.2 -9.6 0-17.4-7.7-17.5-17.2 0 0.1 0 0.1 0 0.2 0 9.6 7.8 17.4 17.5 17.4 9.6 0 17.5-7.8 17.5-17.4C58 33.5 58 33.4 58 33.4zM29.3 58.5l-1.3-3.4c0 0 0-0.1-0.1-0.1 0 0-0.1 0.1-0.1 0.1l-1.3 3.4 -1.7 0 -0.1 0.3 1.8 0 1.3-3.4c0 0 0-0.1 0.1-0.1 0 0 0.1 0.1 0.1 0.1l1.3 3.4h1.8L31 58.5 29.3 58.5zM43.1 57.6c0.2-0.4 0.2-1.1 0.2-1.5 0 0 0-0.1 0-0.1 0 0.4-0.1 1-0.2 1.3 -0.3 0.6-0.9 0.6-1.4 0.6h-1l0 0.3h1C42.2 58.2 42.8 58.2 43.1 57.6zM33 56.7l2.9 0v-0.3l-2.9 0V56.7zM35.9 54.5l-2.6 0c-0.1 0-0.2 0-0.3 0.1 -0.1 0.1-0.1 0.2-0.1 0.3l0 0.3c0-0.1 0-0.2 0.1-0.2 0.1 0 0.2-0.1 0.3-0.1l2.6 0V54.5zM31.5 58.3c-0.2-0.2-0.2-0.4-0.2-0.7l0-3.3v0l0 3.6c0 0.2 0 0.5 0.2 0.7 0.2 0.2 0.4 0.2 0.6 0.2l3.8 0v-0.3l-3.8 0C31.9 58.5 31.7 58.4 31.5 58.3zM9.1 40.8c0 0.8-0.1 1.6-0.1 2.5 0-0.7 0.1-1.5 0.1-2.2 0-0.2 0-0.5 0-0.8C9.1 40.5 9.1 40.7 9.1 40.8zM40.6 58.4l-1.7 0v0.3l1.7 0L40.6 58.4zM36.5 57.3c-0.2-0.3-0.2-0.9-0.2-1.3 0 0 0 0.1 0 0.1 0 0.5 0 1.1 0.2 1.5 0.3 0.6 0.9 0.6 1.4 0.6l1 0v-0.3l-1 0C37.4 57.9 36.8 57.9 36.5 57.3zM29.4 29.1c0 0 0.1 0.1 0.4 0.3 0 0 0.1 0.1 0.1 0.1 0.1 0 0.3 0 0.4 0.1 0-0.1-0.2-0.2-0.3-0.3C29.7 29.1 29.4 29.1 29.4 29.1zM38.7 55.3h0.2l0 1.3h0l0-1.6h-0.2c-0.3 0-0.5 0.1-0.6 0.3 0 0.1-0.1 0.2-0.1 0.5 0 0.1 0 0.1 0 0.1 0-0.2 0-0.3 0.1-0.3C38.2 55.4 38.5 55.3 38.7 55.3zM76.4 38.9c-0.5-0.2-0.6-0.5-0.7-0.9 0 0.6 0.1 1 0.7 1.2 1.6 0.5 1.9-1.3 1.9-2.4 0-0.1 0-0.1 0-0.2C78.3 37.7 78 39.5 76.4 38.9zM8.3 42.7c0-0.6-0.1-1.4-0.1-2.2C8.1 41.2 8.3 42.1 8.3 42.7 8.3 42.7 8.3 42.7 8.3 42.7zM64 71.1c-0.8 0.1-1.7 0.3-2.5 0.4l-0.5 0.1c-1.2 0.2-2.3 0.4-3.4 0.9 -1.1 0.5-2.1 1.1-3 2 -0.7 0.7-1.7 1.7-1.6 2.7 0.1-0.9 1-1.8 1.6-2.4 0.8-0.9 1.8-1.5 3-2 1.1-0.5 2.3-0.7 3.4-0.9l0.5-0.1c0.8-0.1 1.6-0.4 2.5-0.4 0.4 0 1.1 0 1.2 0.3C65.5 71.1 64.5 71.1 64 71.1zM76.9 34.3c0 0 0 0 0-0.1 0-0.5-0.5-1.4-0.6-1.9 0 0 0 0 0 0C76.2 32.8 76.8 33.7 76.9 34.3zM9.3 48.6c0.1-0.1 0.1-0.1 0.1-0.2 0.1-0.3 0.1-0.5 0.1-0.8 0 0.2 0 0.4-0.1 0.5 0 0.1-0.1 0.1-0.1 0.2 -0.4 0.5-1.2 1-1.3 0 -0.5-0.3-0.8-0.8-0.8-1.4 0 0.7 0.2 1.3 0.8 1.7C8.2 49.5 9 49.1 9.3 48.6zM57.8 77.4c-0.8 0.9-1.9 0.7-2-0.1 -0.2 1 1 1.4 2 0.4 0.7-0.8 1.5-1.3 2-2.3 -0.1 0-0.1 0-0.2 0C59.2 76.1 58.5 76.7 57.8 77.4zM49.8 44.1c0 0.5 0 1.6 0 1.8 0 0.2 0.1 0.5 0.1 0.7 0-0.1 0-0.1 0-0.3 -0.1-0.2-0.1-0.5-0.1-0.7C49.8 45.4 49.8 44.6 49.8 44.1zM50.4 36.7c0.1 0.1 0.3 0.2 0.4 0.3 0.1 0.1 0.2 0.1 0.2 0.1 0-0.1 0-0.2 0-0.2 0-0.1-0.1-0.1-0.2-0.2 -0.1-0.1-0.3-0.2-0.4-0.3 0 0-0.8-0.7-0.8-1 0 0 0 0 0 0 -0.1 0 0 0.2 0 0.3C49.7 36 50.4 36.7 50.4 36.7zM41.8 41c0-0.1-1.2-0.9-1.7-2.4 -0.2-0.8-0.3-1.5-0.3-2.2 0 0.8 0.1 1.6 0.3 2.5 0.3 1.1 1.1 1.9 1.5 2.2C41.7 41.1 41.8 41 41.8 41zM38.1 46.6c0 0 0 0 0 0 0.1-0.4 0.4-0.8 0.4-1.3 0 0 0-0.1 0-0.1 0 0.4-0.2 0.7-0.3 1.1C38.1 46.4 38.1 46.5 38.1 46.6zM41.2 42.8c0 0.2 0 0.3 0 0.5 0 0.7 0.1 1.4 0.3 2.1 0 0.1 0.1 0.7 0.1 1.1 0-0.4-0.1-1.3-0.1-1.4 -0.2-0.7-0.2-1.4-0.3-2.1C41.2 42.9 41.2 42.9 41.2 42.8zM52.6 36.3c0.2 0 0.4-0.1 0.4-0.1 -0.8-0.3-1-0.5-1.3-0.8 -0.3-0.3-0.6-0.6-0.9-1.1 -0.5-0.8-0.9-1.6-1.5-2.2 -0.3-0.3-1-0.9-1.5-0.9 0 0.1 0 0.2 0 0.3 0.5 0 1.2 0.6 1.5 0.9 0.7 0.6 1.1 1.5 1.5 2.3 0.3 0.5 0.6 0.8 0.9 1.1C51.9 35.9 52.1 36.1 52.6 36.3zM41.5 55.6c0 0.1 0.1 0.2 0.1 0.4 0 0 0-0.1 0-0.2 0-0.3 0-0.4-0.1-0.5 -0.1-0.2-0.4-0.3-0.6-0.3h-0.2v0.3h0.2C41.1 55.3 41.4 55.4 41.5 55.6zM45.1 58.4l-1.7 0 -0.1 0.3 1.8 0 0.4-1.1h1.9l0.4 1.1 1.8 0 -0.1-0.3 -1.7 0 -0.4-1.1h-1.9L45.1 58.4zM46.5 55c0 0 0.1 0.1 0.1 0.1l0.4 1h0.1l-0.5-1.3c0 0 0-0.1-0.1-0.1s-0.1 0.1-0.1 0.1l-0.5 1.3h0.1l0.4-1C46.4 55.1 46.5 55 46.5 55zM53.4 58.7l1.7 0v-0.3l-1.7 0 0-2.1 -1.9 0v0.3l1.9 0L53.4 58.7zM53.4 53.5L53.4 53.5l0 1.5 0 0L53.4 53.5zM49.9 53.5L49.9 53.5l0 5.2 1.7 0v-0.3l-1.7 0L49.9 53.5z" fill="#E09086"></path>
</svg>