<?xml version="1.0" encoding="utf-8"?>
<!-- Generator: Adobe Illustrator 16.0.0, SVG Export Plug-In . SVG Version: 6.00 Build 0)  -->
<!DOCTYPE svg PUBLIC "-//W3C//DTD SVG 1.1//EN" "http://www.w3.org/Graphics/SVG/1.1/DTD/svg11.dtd">
<svg version="1.1" id="Слой_1" xmlns="http://www.w3.org/2000/svg" xmlns:xlink="http://www.w3.org/1999/xlink" x="0px" y="0px"
	 width="28.35px" height="28.35px" viewBox="0 0 28.35 28.35" enable-background="new 0 0 28.35 28.35" xml:space="preserve">
<g>
	
		<linearGradient id="SVGID_1_" gradientUnits="userSpaceOnUse" x1="-265.5298" y1="312.2305" x2="-265.5298" y2="303.9061" gradientTransform="matrix(0.9018 0.0982 -0.0982 1.0982 287.3867 -287.3867)">
		<stop  offset="0" style="stop-color:#726756"/>
		<stop  offset="1" style="stop-color:#726756;stop-opacity:0"/>
	</linearGradient>
	<path fill="url(#SVGID_1_)" d="M27.674,22.607c-0.7-0.759-2.576-1.369-5.143-1.679c-0.105-0.012-0.21-0.025-0.317-0.037
		c-5.065-0.552-11.146,0.154-13.552,1.574c-1.725,1.019-0.972,2.029-0.174,3.103c0.412,0.551,0.835,1.121,0.906,1.703
		c0.026,0.215,0.491,0.397,1.21,0.477l0,0c0.719,0.077,1.559,0.037,2.189-0.104c1.683-0.38,3.568-0.68,5.387-0.969
		c2.925-0.467,5.947-0.946,7.912-1.744C27.817,24.23,28.394,23.386,27.674,22.607z"/>
	<path fill="#F4ECD2" stroke="#9A2C31" stroke-width="0.5537" stroke-miterlimit="10" d="M18.494,4.294
		c-1.856-2.276-4.581-3.638-7.475-3.736c-0.119-0.004-0.237-0.005-0.354-0.005c-5.62,0-10.192,4.572-10.192,10.194
		c0,4.031,2.309,7.139,4.755,10.428c1.259,1.695,2.564,3.451,3.551,5.367c0.366,0.708,1.088,1.149,1.889,1.149l0,0
		c0.796,0,1.517-0.438,1.882-1.144c0.976-1.882,2.262-3.569,3.507-5.2c2-2.62,4.068-5.328,4.643-8.709
		C21.207,9.673,20.403,6.633,18.494,4.294z"/>
	<path fill="#9A2C31" d="M11.089,13.354c-0.004-0.019-0.396-0.289-0.542-0.778c-0.278-1.073,0.08-1.928,0.17-2.135
		c0.073-0.164,0.204-0.432,0.676-0.813c-0.533,0.018-1.015,0.481-1.09,0.598c-0.045,0.072-0.05,0.138,0.034,0.19
		c0.094,0.057-0.09,0.069-0.146,0.023c-0.058-0.047-0.073-0.11-0.07-0.181c0.003-0.115,0.105-0.209,0.177-0.292
		c0.114-0.132,0.318-0.25,0.477-0.32c0.057-0.47-0.225-0.893-0.666-0.904C9.95,8.738,9.788,8.751,9.677,8.756
		C9.259,8.77,8.836,8.795,8.422,8.718c-0.203-0.035-0.35-0.13-0.519-0.236C7.74,8.378,7.636,8.188,7.55,8.024
		C7.448,7.831,7.42,7.41,7.605,7.238c0.183-0.171,0.492-0.271,0.614,0.039c0.048,0.12-0.015,0.287-0.156,0.313
		C8.021,7.599,7.966,7.605,7.915,7.603c-0.211-0.01-0.121,0.224-0.053,0.26c0.06,0.03,0.126,0.062,0.191,0.065
		c0.132,0.011,0.608-0.055,0.576-0.646C8.614,7.002,8.35,6.782,8.296,6.745c-0.8-0.557-1.699,0.296-1.64,1.188
		c0.076,1.155,0.637,1.493,0.67,1.566C7.21,9.488,7.047,9.448,7.038,9.46c0,0,0.042,0.029,0.115,0.083
		c0.565,0.436,1.65,1.364,1.863,1.896c0.094,0.188,0.387,0.822,0.413,0.874c0.026,0.083,0.058,0.028,0.094-0.001
		c0.042-0.044,0.225-0.27,0.274-0.362c0.09-0.172,0.091-0.406,0.108-0.592c0.004-0.072,0.008-0.11,0.084-0.125
		c0.038-0.006,0.083,0.063,0.085,0.075c0.018,0.09,0.018,0.528-0.202,0.875c-0.153,0.243-0.234,0.278-0.326,0.339
		c-0.037,0.015,0.01,0.226,0.039,0.284c0.012,0.021,0.248,0.745,0.263,0.817c0.072,0.33,0.129,0.689,0.141,1.029
		c0.006,0.151-0.077,0.276-0.117,0.418c-0.025,0.096,0.009,0.143,0.072,0.164c0.309-0.008,0.713,0.009,0.959-0.001
		c0.03,0,0.092,0.006,0.1-0.048c0.023-0.117-0.031-0.448-0.043-0.502c-0.051-0.218-0.079-0.459-0.094-0.679
		c-0.011-0.177,0-0.393,0.091-0.544C11.004,13.383,11.089,13.37,11.089,13.354z M8.757,9.166c0-0.051-0.036-0.083,0.042-0.09
		C8.855,9.068,8.9,9.083,8.951,9.108c0.024,0.01,0.11,0.085,0.097,0.133C9,9.241,8.796,9.275,8.757,9.166z M12.583,12.091
		c-0.003-0.001-0.209,0.145-0.236,0.168c-0.13,0.097-0.487,0.271-0.646-0.083c0.09,0.015,0.249,0.032,0.338,0.006
		c0.381-0.109,0.672-0.437,0.775-0.816c0.014-0.054,0.04-0.216,0.049-0.352c0.018-0.254,0.019-0.51,0.008-0.765
		c-0.004-0.134-0.041-0.277-0.166-0.351c-0.22-0.152-0.629-0.271-0.716-0.286c-0.125-0.022-0.266-0.026-0.385,0.037
		c-0.222,0.097-0.679,0.655-0.841,1.336c-0.14,0.586-0.17,1.234,0.08,1.811c0.204,0.474,0.665,0.697,1.12,0.354
		C12.129,13.025,12.476,12.439,12.583,12.091z M12.003,10.573c0.056-0.01,0.116,0.423,0.008,0.69
		c-0.021,0.051-0.165,0.293-0.297,0.312C11.793,11.315,12.022,10.569,12.003,10.573z M10.96,2.282
		c-4.813-0.165-8.763,3.687-8.763,8.465c0,5.42,5.201,9.352,8.115,15.007c0.148,0.287,0.562,0.287,0.709,0.002
		c2.638-5.093,7.146-8.503,7.98-13.407C19.867,7.276,16.104,2.454,10.96,2.282z M10.662,16.484c-3.146,0-5.705-2.545-5.705-5.676
		c0-3.129,2.56-5.673,5.705-5.673c3.145,0,5.702,2.544,5.702,5.673C16.364,13.939,13.807,16.484,10.662,16.484z M14.015,11.148
		c-0.154-0.247-0.282-0.534-0.501-0.734c-0.104-0.095-0.326-0.292-0.492-0.292c0.126,0.947-0.053,1.435-0.087,1.581
		c0.073-0.027,0.308-0.009,0.351,0.008c0.023,0.011,0.208,0.042,0.327,0.279c-0.089-0.056-0.178-0.096-0.406-0.075
		c-0.229,0.019-0.422,0.328-0.449,0.366c-0.025,0.033-0.455,0.861-0.797,1.035c0.035,0.041,0.371-0.047,0.414-0.058
		c0.132-0.037,0.21-0.101,0.242,0.061c0.033,0.178,0.059,0.348,0.073,0.529c0.02,0.257,0.061,0.51,0.061,0.767
		c0,0.086,0,0.171-0.016,0.254c-0.014,0.094-0.127,0.207-0.012,0.32c0.034,0.035,0.095,0.039,0.143,0.037
		c0.158-0.01,0.543,0.001,0.74,0.001c0.029,0,0.079,0.028,0.132-0.03c0.021-0.028,0.021-0.059,0.015-0.114
		c-0.028-0.068-0.039-0.151-0.044-0.227c-0.008-0.092-0.015-0.517-0.01-0.649c0.016-0.629,0.351-1.93,0.373-2.023
		c0.021-0.092,0.031-0.129,0.037-0.173c0.004-0.023-0.039-0.041-0.08-0.067c-0.043-0.025-0.095-0.062-0.133-0.094
		c-0.017-0.013-0.249-0.217-0.268-0.34c-0.013-0.074-0.045-0.167,0.066-0.058c0.06,0.06,0.116,0.132,0.172,0.194
		c0.192,0.205,0.874,0.199,0.858,0.119c-0.272-0.094-0.333-0.171-0.419-0.256C14.217,11.422,14.113,11.301,14.015,11.148z"/>
</g>
</svg>
