<?xml version="1.0" encoding="utf-8"?>
<!-- Generator: Adobe Illustrator 15.0.0, SVG Export Plug-In . SVG Version: 6.00 Build 0)  -->
<!DOCTYPE svg PUBLIC "-//W3C//DTD SVG 1.0//EN" "http://www.w3.org/TR/2001/REC-SVG-20010904/DTD/svg10.dtd">
<svg version="1.0" id="Слой_1" xmlns="http://www.w3.org/2000/svg" xmlns:xlink="http://www.w3.org/1999/xlink" x="0px" y="0px"
	 width="128px" height="128px" viewBox="0 0 128 128" enable-background="new 0 0 128 128" xml:space="preserve">
<g>
	
		<image overflow="visible" enable-background="new    " width="201" height="71" xlink:href="A5BE488.png"  transform="matrix(0.4705 0 0 0.4665 34.4351 94.8613)">
	</image>
	<path fill="#F4ECD2" stroke="#9A2C31" stroke-width="2" stroke-miterlimit="10" d="M84.934,18.675
		C76.316,8.108,63.666,1.788,50.231,1.335c-0.549-0.021-1.097-0.028-1.642-0.028c-26.091,0-47.315,21.229-47.315,47.321
		c0,18.719,10.723,33.145,22.075,48.418c5.853,7.873,11.903,16.016,16.49,24.914c1.694,3.293,5.053,5.34,8.762,5.34c0,0,0,0,0.001,0
		c3.7,0,7.053-2.039,8.745-5.313c4.525-8.738,10.502-16.57,16.282-24.146c9.281-12.16,18.877-24.732,21.551-40.43
		C97.523,43.653,93.789,29.532,84.934,18.675z"/>
	<path fill="#9A2C31" d="M50.552,60.739c-0.021-0.086-1.835-1.343-2.521-3.612c-1.285-4.981,0.373-8.948,0.798-9.915
		c0.335-0.76,0.944-2.01,3.13-3.771c-2.473,0.078-4.705,2.231-5.059,2.775c-0.209,0.331-0.232,0.646,0.156,0.884
		c0.438,0.269-0.419,0.32-0.681,0.104c-0.267-0.211-0.338-0.511-0.321-0.834c0.016-0.534,0.485-0.976,0.815-1.354
		c0.536-0.616,1.478-1.156,2.22-1.483c0.259-2.183-1.046-4.146-3.087-4.2c-0.736-0.024-1.485,0.039-2.005,0.059
		c-1.943,0.068-3.906,0.186-5.824-0.169c-0.943-0.169-1.625-0.609-2.409-1.104c-0.762-0.479-1.239-1.358-1.64-2.119
		c-0.475-0.903-0.604-2.854,0.252-3.654c0.849-0.794,2.285-1.261,2.849,0.182c0.219,0.563-0.066,1.334-0.728,1.457
		c-0.192,0.033-0.444,0.063-0.681,0.056c-0.983-0.043-0.56,1.039-0.243,1.213c0.271,0.146,0.583,0.275,0.885,0.303
		c0.613,0.045,2.824-0.258,2.673-3.001c-0.068-1.296-1.3-2.319-1.55-2.493c-3.713-2.584-7.882,1.371-7.608,5.509
		c0.354,5.364,2.96,6.938,3.112,7.271c-0.54-0.051-1.297-0.232-1.344-0.177c0,0,0.201,0.132,0.536,0.384
		c2.627,2.023,7.664,6.334,8.653,8.797c0.431,0.871,1.795,3.818,1.912,4.063c0.125,0.377,0.273,0.125,0.44-0.011
		c0.198-0.207,1.041-1.25,1.271-1.683c0.42-0.797,0.425-1.879,0.496-2.743c0.027-0.338,0.043-0.513,0.396-0.577
		c0.175-0.031,0.384,0.291,0.396,0.344c0.084,0.42,0.084,2.453-0.938,4.063c-0.714,1.127-1.091,1.299-1.514,1.577
		c-0.174,0.066,0.041,1.05,0.179,1.316c0.052,0.096,1.146,3.456,1.222,3.793c0.334,1.529,0.597,3.204,0.654,4.774
		c0.031,0.703-0.357,1.283-0.539,1.939c-0.119,0.451,0.042,0.668,0.329,0.768c1.438-0.041,3.315,0.041,4.458-0.006
		c0.135,0,0.426,0.031,0.463-0.215c0.104-0.555-0.141-2.088-0.197-2.34c-0.237-1.014-0.37-2.13-0.438-3.157
		c-0.053-0.812-0.005-1.821,0.421-2.528C50.163,60.87,50.552,60.811,50.552,60.739z M39.729,41.292c0-0.237-0.16-0.39,0.195-0.423
		c0.262-0.026,0.471,0.041,0.703,0.153c0.107,0.052,0.514,0.396,0.455,0.615C40.862,41.639,39.911,41.801,39.729,41.292z
		 M57.489,54.875c-0.013-0.007-0.965,0.672-1.093,0.773c-0.604,0.453-2.258,1.263-3.001-0.389c0.422,0.07,1.157,0.152,1.573,0.031
		c1.767-0.515,3.12-2.029,3.594-3.791c0.071-0.252,0.189-1.007,0.232-1.634c0.078-1.183,0.083-2.362,0.043-3.554
		c-0.021-0.618-0.19-1.284-0.774-1.624c-1.024-0.71-2.925-1.261-3.328-1.333c-0.579-0.102-1.23-0.116-1.791,0.166
		c-1.025,0.455-3.148,3.045-3.9,6.213c-0.646,2.72-0.785,5.73,0.373,8.404c0.947,2.199,3.09,3.236,5.204,1.646
		C55.388,59.209,56.992,56.487,57.489,54.875z M54.799,47.823c0.255-0.043,0.535,1.97,0.04,3.207
		c-0.097,0.235-0.769,1.358-1.382,1.452C53.826,51.27,54.882,47.811,54.799,47.823z M49.959,9.331
		C27.615,8.571,9.272,26.454,9.272,48.628c0,25.161,24.147,43.418,37.68,69.67c0.687,1.334,2.606,1.334,3.292,0.01
		c12.244-23.637,33.172-39.475,37.047-62.238C91.305,32.513,73.842,10.134,49.959,9.331z M48.57,75.268
		c-14.601,0-26.477-11.815-26.477-26.347c0-14.523,11.876-26.344,26.477-26.344c14.604,0,26.475,11.816,26.475,26.344
		C75.045,63.45,63.173,75.268,48.57,75.268z M64.145,50.496c-0.726-1.15-1.31-2.48-2.333-3.41c-0.481-0.438-1.509-1.354-2.284-1.354
		c0.596,4.396-0.241,6.658-0.406,7.336c0.338-0.117,1.429-0.041,1.629,0.043c0.105,0.045,0.962,0.188,1.519,1.289
		c-0.413-0.258-0.825-0.445-1.891-0.348c-1.058,0.09-1.951,1.523-2.083,1.699c-0.115,0.16-2.109,3.997-3.696,4.805
		c0.164,0.195,1.725-0.211,1.922-0.266c0.611-0.172,0.976-0.469,1.117,0.283c0.156,0.827,0.274,1.612,0.342,2.451
		c0.091,1.188,0.281,2.373,0.279,3.566c0,0.4,0,0.791-0.067,1.178c-0.07,0.432-0.599,0.949-0.063,1.482
		c0.159,0.16,0.439,0.18,0.663,0.168c0.737-0.037,2.524,0.006,3.436,0.006c0.145,0,0.365,0.133,0.613-0.146
		c0.105-0.121,0.105-0.258,0.074-0.52c-0.131-0.318-0.188-0.697-0.207-1.055c-0.033-0.42-0.068-2.4-0.051-3.013
		c0.073-2.922,1.629-8.959,1.736-9.396c0.102-0.423,0.139-0.595,0.17-0.804c0.021-0.11-0.182-0.191-0.374-0.312
		c-0.201-0.121-0.439-0.291-0.623-0.438c-0.073-0.061-1.146-1.008-1.246-1.58c-0.059-0.338-0.205-0.771,0.305-0.268
		c0.285,0.279,0.539,0.607,0.809,0.902c0.885,0.953,4.06,0.928,3.982,0.545c-1.262-0.428-1.541-0.789-1.942-1.186
		C65.077,51.764,64.593,51.208,64.145,50.496z"/>
</g>
</svg>
