<?xml version="1.0" encoding="utf-8"?>
<!-- Generator: Adobe Illustrator 16.0.0, SVG Export Plug-In . SVG Version: 6.00 Build 0)  -->
<!DOCTYPE svg PUBLIC "-//W3C//DTD SVG 1.1//EN" "http://www.w3.org/Graphics/SVG/1.1/DTD/svg11.dtd">
<svg version="1.1" id="Слой_1" xmlns="http://www.w3.org/2000/svg" xmlns:xlink="http://www.w3.org/1999/xlink" x="0px" y="0px"
	 width="40px" height="25px" viewBox="-267 144.5 40 25" enable-background="new -267 144.5 40 25" xml:space="preserve">
<g>
	<g>
		<rect x="-267" y="144.5" fill="#41281B" width="39.999" height="2"/>
		<rect x="-267" y="147.5" fill="#41281B" width="39.999" height="1"/>
	</g>
	<g>
		<rect x="-267" y="167.5" fill="#41281B" width="39.999" height="2"/>
		<rect x="-267" y="165.5" fill="#41281B" width="39.999" height="1"/>
	</g>
	<path fill="#41281B" d="M-258.026,153.961c-0.372,0-0.669,0.051-0.891,0.152c-0.342,0.162-0.585,0.46-0.729,0.892l-1.018,3.06
		c-0.066,0.193-0.129,0.289-0.188,0.289c-0.061,0-0.123-0.096-0.189-0.289l-1.017-3.06c-0.145-0.432-0.388-0.729-0.729-0.892
		c-0.222-0.102-0.516-0.152-0.882-0.152c-1.032,0-1.548,0.369-1.548,1.107v5.265h2.043l-0.063-3.834
		c0-0.138,0.024-0.207,0.072-0.207c0.036,0,0.078,0.075,0.126,0.226l0.972,3.041c0.091,0.283,0.198,0.48,0.324,0.594
		c0.192,0.169,0.489,0.252,0.892,0.252c0.401,0,0.698-0.083,0.891-0.252c0.126-0.113,0.234-0.311,0.324-0.594l0.972-3.041
		c0.048-0.15,0.09-0.226,0.126-0.226c0.054,0,0.081,0.069,0.081,0.207l-0.072,3.834h2.053v-5.265
		C-256.478,154.33-256.994,153.961-258.026,153.961z M-252.554,158.723c-0.061-0.055-0.09-0.133-0.09-0.234v-0.684h3.438v-1.369
		h-3.438v-0.477c0-0.15,0.034-0.254,0.104-0.311c0.068-0.057,0.172-0.086,0.311-0.086h3.113v-1.529h-4.526
		c-0.33,0-0.585,0.084-0.766,0.252c-0.18,0.168-0.27,0.408-0.27,0.72v4.32c0,0.366,0.096,0.63,0.288,0.792
		c0.174,0.145,0.429,0.216,0.765,0.216h4.536v-1.53h-3.078C-252.365,158.803-252.494,158.775-252.554,158.723z M-243.239,156.266
		h-2.285v-2.232h-2.034v6.3h2.034v-2.502h2.285v2.502h2.034v-6.3h-2.034V156.266z M-229.703,155.814
		c-0.108-0.527-0.313-0.93-0.612-1.205c-0.3-0.276-0.723-0.463-1.269-0.559c-0.354-0.06-0.85-0.09-1.485-0.09
		s-1.128,0.03-1.477,0.09c-0.552,0.096-0.978,0.282-1.277,0.559c-0.45,0.414-0.682,1.014-0.693,1.8h-0.854v-2.376h-2.034v6.3h2.034
		v-2.528h0.837c0,0.371,0.06,0.729,0.18,1.07c0.126,0.378,0.303,0.672,0.531,0.882c0.294,0.276,0.72,0.462,1.277,0.558
		c0.349,0.061,0.841,0.09,1.477,0.09s1.128-0.029,1.476-0.09c0.559-0.096,0.985-0.283,1.283-0.563
		c0.297-0.278,0.499-0.682,0.607-1.21c0.065-0.33,0.099-0.783,0.099-1.358C-229.604,156.602-229.638,156.145-229.703,155.814z
		 M-231.927,158.38c-0.132,0.192-0.291,0.321-0.477,0.388c-0.145,0.047-0.366,0.071-0.666,0.071c-0.294,0-0.517-0.024-0.666-0.071
		c-0.192-0.066-0.352-0.195-0.478-0.388c-0.155-0.239-0.233-0.639-0.233-1.196c0-0.564,0.078-0.963,0.233-1.197
		c0.126-0.192,0.285-0.321,0.478-0.387c0.149-0.049,0.372-0.072,0.666-0.072c0.3,0,0.521,0.023,0.666,0.072
		c0.186,0.065,0.345,0.194,0.477,0.387c0.108,0.162,0.177,0.336,0.207,0.521c0.019,0.12,0.027,0.346,0.027,0.676
		C-231.692,157.753-231.771,158.152-231.927,158.38z"/>
</g>
</svg>
