<?xml version="1.0" encoding="utf-8"?>
<!-- Generator: Adobe Illustrator 16.0.0, SVG Export Plug-In . SVG Version: 6.00 Build 0)  -->
<!DOCTYPE svg PUBLIC "-//W3C//DTD SVG 1.1//EN" "http://www.w3.org/Graphics/SVG/1.1/DTD/svg11.dtd">
<svg version="1.1" id="Слой_1" xmlns="http://www.w3.org/2000/svg" xmlns:xlink="http://www.w3.org/1999/xlink" x="0px" y="0px"
	 width="23px" height="30px" viewBox="-267 144.5 23 30" enable-background="new -267 144.5 23 30" xml:space="preserve">
<path fill="#41281B" d="M-255.495,146.5c0.108,0,0.22,0.002,0.329,0.006c5.751,0.189,9.957,5.48,8.991,11.049
	c-0.934,5.38-5.973,9.123-8.922,14.711c-0.082,0.156-0.239,0.234-0.395,0.234c-0.158,0-0.315-0.078-0.398-0.236
	c-3.258-6.206-9.072-10.521-9.072-16.469C-264.962,150.66-260.728,146.5-255.495,146.5 M-255.5,163.178
	c4.13,0,7.487-3.28,7.487-7.313c0-4.032-3.357-7.313-7.487-7.313c-4.129,0-7.489,3.281-7.489,7.313
	C-262.989,159.897-259.629,163.178-255.5,163.178 M-255.495,144.5c-6.344,0-11.505,5.066-11.505,11.295
	c0,4.461,2.713,8.045,5.337,11.51c1.407,1.857,2.86,3.778,3.962,5.875c0.421,0.813,1.269,1.32,2.208,1.32
	c0.934,0,1.78-0.506,2.207-1.318c1.083-2.053,2.519-3.9,3.909-5.688c2.243-2.885,4.562-5.867,5.21-9.604
	c0.57-3.285-0.338-6.654-2.491-9.245c-2.095-2.522-5.171-4.03-8.439-4.14C-255.229,144.502-255.363,144.5-255.495,144.5
	L-255.495,144.5z M-255.5,162.289c-3.635,0-6.593-2.882-6.593-6.425c0-3.542,2.958-6.424,6.593-6.424s6.593,2.882,6.593,6.424
	C-248.907,159.407-251.865,162.289-255.5,162.289L-255.5,162.289z"/>
</svg>
