<svg xmlns="http://www.w3.org/2000/svg" viewBox="0 0 25.7 42.62"><defs><style>.cls-1{fill:none;stroke:#f2664b;stroke-linecap:round;stroke-linejoin:round;stroke-width:2.5px;}</style></defs><title>novelty</title><g id="Слой_2" data-name="Слой 2"><g id="Desktop"><g id="Каталог_Раздел" data-name="Каталог Раздел"><path class="cls-1" d="M22,28.67l1.34-5.15c1.09-4.18-.59-7.74-3.6-9A24.51,24.51,0,0,0,15,13.34c-1.61-.19-3,.49-4.64,1.47a8.55,8.55,0,0,0-2.87,4.6s-.76,3.11-1.3,5.15c-.62,2.39-4,2.12-4,2.12l-1,3.48,9.11,2.39,13.09,3.38,1-3.48S21.39,31,22,28.67Z"/><rect class="cls-1" x="11.1" y="19.85" width="3.59" height="22.93" transform="matrix(0.25, -0.97, 0.97, 0.25, -20.66, 35.91)"/><path class="cls-1" d="M11.32,35.25a3.07,3.07,0,0,0-.78-.1,3.11,3.11,0,1,0,.78.1Z"/><path class="cls-1" d="M19.75,14.56,22.43,4.27a2.41,2.41,0,0,0-4.67-1.21L15.08,13.34"/></g></g></g></svg>