<svg xmlns="http://www.w3.org/2000/svg" viewBox="0 0 138.87 41.53"><defs><style>.cls-1{fill:#e4511e;}</style></defs><title>novelty-text-2</title><g id="Слой_2" data-name="Слой 2"><g id="Desktop"><g id="Каталог_Раздел" data-name="Каталог Раздел"><path class="cls-1" d="M46.78,29.21c-.76.67-.95.1-2,.1s-1.15.51-1.94-.14-.22-.72-.22-1.55.2-.83.2-1.67.57-1.13,0-1.74-.84.18-1.6.18H39.73c-.76,0-.95-.6-1.46,0s-.17.78-.17,1.61,0,.83,0,1.67.82,1.23.17,1.76-1.09-.12-2.11-.12-1.2.63-2,0-.1-.82-.1-1.72,0-.9,0-1.8S34,24.8,34,23.9s.14-.9.14-1.8.09-.9.09-1.8-.14-.9-.14-1.8-.71-1.31,0-1.9,1.11.24,2.12.24,1.28-.83,2-.08.17,1.05.17,2.17-.74,1.32-.11,2.24c.43.63.77.12,1.53.12s.76-.23,1.52-.23,1.18.8,1.61.17c.63-.92,0-1.18,0-2.29s-.75-1.34,0-2.16.94-.21,2-.21,1.22-.47,2,.2,0,.84,0,1.73,0,.9,0,1.8,0,.9,0,1.8,0,.9,0,1.8-.09.9-.09,1.8a5.91,5.91,0,0,0,.16,1.79C47.1,28.38,47.45,28.61,46.78,29.21Z"/><path class="cls-1" d="M62.49,23c0,.5.11,1,.09,1.37a7.86,7.86,0,0,1-.33,1.32,7,7,0,0,1-.16,1.39,3.64,3.64,0,0,1-1,1,3.73,3.73,0,0,1-1.19.7,6,6,0,0,1-1.31.58,13.12,13.12,0,0,1-1.48.13c-.44,0-.94,0-1.49,0s-1-.2-1.48-.23a12.58,12.58,0,0,1-1.46-.14A7.71,7.71,0,0,1,51.3,29a3.84,3.84,0,0,1-1.13-.87A3.6,3.6,0,0,1,49.45,27a5.36,5.36,0,0,1-.55-1.26,10.27,10.27,0,0,1-.16-1.36c0-.41-.15-.87-.15-1.37s.15-1,.18-1.38A8.63,8.63,0,0,1,49,20.27a6.12,6.12,0,0,1,.29-1.35,3.86,3.86,0,0,1,.76-1.18c.32-.3.86-.31,1.33-.51a6.09,6.09,0,0,1,1.31-.42,9.5,9.5,0,0,1,1.46-.34c.44,0,.95.08,1.5.08s1,.13,1.49.15,1.1-.15,1.5-.09a6,6,0,0,1,1.29.59,3.84,3.84,0,0,1,1.18.69,3.45,3.45,0,0,1,.76,1.1,5.27,5.27,0,0,1,.66,1.23c.07.37-.09.86-.06,1.39S62.49,22.48,62.49,23Zm-4,0a6.41,6.41,0,0,0-.18-1.35,2.81,2.81,0,0,0-.27-1.13c-.26-.38-.75-.44-1.12-.57a3.4,3.4,0,0,0-1.29-.34,5.13,5.13,0,0,0-1.37.12c-.38.13-.58.55-.83.93A4.3,4.3,0,0,0,53,23a4.42,4.42,0,0,0,.45,2.35c.25.38.46.79.85.92a5,5,0,0,0,1.37.14A3.39,3.39,0,0,0,57,26a1.83,1.83,0,0,0,1-.65A4.41,4.41,0,0,0,58.52,23Z"/><path class="cls-1" d="M76.89,25.76a6.82,6.82,0,0,1,0,1.41,2.47,2.47,0,0,1-.74,1.14c-.36.4-.66.88-1.18,1a15.41,15.41,0,0,1-1.54-.09c-.82,0-.82,0-1.64,0s-.82.21-1.65.21h-3.3A2.24,2.24,0,0,1,65,28.62a1.87,1.87,0,0,1-.45-1.33c0-.86-.22-.86-.22-1.71s.14-.85.14-1.71.07-.86.07-1.71-.14-.86-.14-1.72,0-.86,0-1.72a2.36,2.36,0,0,1,.35-1.5,2,2,0,0,1,1.53-.54c.85,0,.85.09,1.71.09s.85-.14,1.71-.14.86-.08,1.71-.08.86.28,1.71.28a6.18,6.18,0,0,1,1.44.1,2.83,2.83,0,0,1,1.37.51,3,3,0,0,1,.56,1.34,6.57,6.57,0,0,1,0,1.43,3,3,0,0,1-.42,2,1.89,1.89,0,0,1-1.36.45s0,.24,0,.25a2.19,2.19,0,0,1,1.44.65A2.83,2.83,0,0,1,76.89,25.76Zm-4.11-5.15c0-.22-.19-.39-.34-.54a1.18,1.18,0,0,0-.88-.4c-1.16,0-1.16.27-2.32.27-.24,0-.46-.13-.57,0a.86.86,0,0,0-.22.6c0,.51-.26.65.17.94.63.42.7,0,1.45,0h1.51c.53,0,1,0,1.09-.24A1.45,1.45,0,0,0,72.78,20.61ZM73,25.17c0-.22-.18-.38-.28-.53a1.26,1.26,0,0,0-1-.52c-.79,0-.79.27-1.58.27s-.94-.6-1.62-.19c-.41.25-.07.54-.07,1a.93.93,0,0,0,.34.7c.1.11.27.15.67.15h2.16c.58,0,1,.07,1.17-.1A1.3,1.3,0,0,0,73,25.17Z"/><path class="cls-1" d="M92.53,29.21c-.76.71-1,.1-2,.1s-1.21.57-2-.13-.2-.82-.18-1.74.22-.92.25-1.84.06-.93.08-1.85-.19-.93-.17-1.86c0-.31.05-.37-.08-.37s-.15.16-.39.56c-.45.76-.61.67-1.06,1.43L86.12,25c-.45.77-.26.87-.71,1.64s-.57.69-1,1.46a2.28,2.28,0,0,1-1.19.93,3.77,3.77,0,0,1-1.51.4,2.71,2.71,0,0,1-2.37-1,3.69,3.69,0,0,1-.59-2.09c0-1,.14-1,.14-1.94s.09-1,.09-1.94-.14-1-.14-1.94-.08-1-.08-1.95-.48-1.18.23-1.84.94,0,2,0,1.36-.86,2.14-.17-.1,1-.12,1.87-.14.9-.16,1.8.21.91.19,1.81-.24.9-.26,1.8c0,.1,0,.1,0,.2,0,.29.15.54.29.54s.07-.32.24-.62c.43-.76.63-.65,1.06-1.4s.37-.79.81-1.55L86,19.55,86.91,18A2.79,2.79,0,0,1,88,16.9a3.37,3.37,0,0,1,1.57-.25,3.9,3.9,0,0,1,1.63.16A2.31,2.31,0,0,1,92.32,18a4.17,4.17,0,0,1,.26,1.62c0,1,.17,1,.17,1.92s-.25,1-.25,1.92.1,1,.1,1.92-.24,1-.05,1.94S93.24,28.56,92.53,29.21Z"/><path class="cls-1" d="M107.49,29.21c-.76.67-.95.1-2,.1s-1.15.51-1.94-.14-.22-.72-.22-1.55.2-.83.2-1.67.57-1.13,0-1.74-.84.18-1.6.18h-1.52c-.76,0-.95-.6-1.46,0s-.17.78-.17,1.61,0,.83,0,1.67.82,1.23.17,1.76-1.09-.12-2.11-.12-1.2.63-2,0-.1-.82-.1-1.72,0-.9,0-1.8-.11-.9-.11-1.8.14-.9.14-1.8.09-.9.09-1.8-.14-.9-.14-1.8-.71-1.31,0-1.9,1.11.24,2.12.24,1.28-.83,2-.08.17,1.05.17,2.17-.74,1.32-.11,2.24c.43.63.77.12,1.53.12S101.2,21,102,21s1.18.8,1.61.17c.63-.92,0-1.18,0-2.29s-.75-1.34,0-2.16.94-.21,2-.21,1.22-.47,2,.2,0,.84,0,1.73,0,.9,0,1.8,0,.9,0,1.8,0,.9,0,1.8-.09.9-.09,1.8a5.91,5.91,0,0,0,.16,1.79C107.81,28.38,108.17,28.61,107.49,29.21Z"/><path class="cls-1" d="M114.17,29.21c-.76.67-.95.1-2,.1s-1.17.54-1.94-.13-.22-.79-.22-1.68.2-.9.2-1.8,0-.9,0-1.8-.21-.9-.21-1.8,0-.9,0-1.8,0-.9,0-1.8-.52-1.12.16-1.72.94,0,2,0,1.35-.86,2.11-.19-.11,1-.11,1.88-.07.9-.07,1.8.14.9.14,1.8,0,.9,0,1.8.11.9.11,1.8-.32.92-.14,1.8S114.84,28.61,114.17,29.21Zm9.82,0c-.24.78-.72.05-1.53.05s-.82-.17-1.63-.17-1,.66-1.69.26c-.9-.5-.51-1-1.15-1.78s-.61-.83-1.25-1.65-.8-.68-1.44-1.5a3,3,0,0,1-.75-1.63,2.75,2.75,0,0,1,.6-1.45c.56-.79.72-.68,1.28-1.47l1.12-1.59c.56-.79.15-1.25,1-1.74s.86.13,1.66.13.8.07,1.61.07,1.34-.86,1.64-.12-.55.68-1.1,1.33-.46.72-1,1.37-.65.56-1.2,1.21-.62.59-1.17,1.24a1.51,1.51,0,0,0-.4,1c0,.28.27.56.71,1,.61.66.41.85,1,1.52s.65.63,1.26,1.3a5.17,5.17,0,0,0,1.35,1.19C123.7,28.41,124.25,28.39,124,29.26Z"/><path class="cls-1" d="M138.64,29.22c-.72.79-1,.09-2.06.09s-1.12.32-2.08-.15c-.62-.31-.43-.47-.68-1.12s.25-1-.34-1.4-.8,0-1.55,0-.76.21-1.51.21-.83-.44-1.46,0-.22.6-.46,1.25,0,.86-.62,1.17c-1,.47-1,0-2.09,0s-1.5,1-2.23.18c-.59-.64.44-.87.78-1.66s.4-.77.73-1.57.21-.85.54-1.65l.67-1.6c.33-.8.23-.84.56-1.65s.46-.75.8-1.55.42-.77.75-1.57a2.34,2.34,0,0,1,.75-1.2,3.92,3.92,0,0,1,2-.5,3.8,3.8,0,0,1,1.62.5,2,2,0,0,1,1.17,1.2c.33.8.51.72.84,1.52s.23.84.56,1.64.23.84.56,1.65.55.71.88,1.51.13.89.47,1.69.19.91.71,1.61S139.23,28.58,138.64,29.22Zm-6.1-5.32c.66-.52-.37-.87-.65-1.67s-.12-.85-.41-1.65c-.06-.18-.25-.09-.3-.09s-.17-.06-.23.12c-.28.8-.31.79-.6,1.58s-.7.81-.37,1.59C130.53,25.06,131.52,24.7,132.54,23.9Z"/><path class="cls-1" d="M25,31.36s0-.14,0-.15a3.13,3.13,0,0,1-1.35-.78,1.74,1.74,0,0,1-.51-1.51c.22-.86.27-.85.49-1.7s.35-.83.58-1.68.08-.9.3-1.76a11.66,11.66,0,0,0,.41-1.83,10.79,10.79,0,0,0,.14-1.88,9.2,9.2,0,0,0-.61-1.79,8.29,8.29,0,0,0-.61-1.76,7.45,7.45,0,0,0-1.17-1.45,6.67,6.67,0,0,0-1.35-1.2c0-1,.29-.9.53-1.83s.15-1,.39-1.89.12-1,.37-1.9.34-.91.58-1.84.24-.94.48-1.87a3.53,3.53,0,0,0-.13-1.86A3.58,3.58,0,0,0,22.68,1,3.55,3.55,0,0,0,21,.18,3.56,3.56,0,0,0,19.62,0a3.55,3.55,0,0,0-1.28.56,3.69,3.69,0,0,0-1.18.8,3.69,3.69,0,0,0-.49,1.34c-.24.93-.44.88-.68,1.82s-.19.95-.43,1.88-.29.92-.54,1.86-.23.94-.47,1.88.14,1.09-.32,1.94a7.77,7.77,0,0,0-1.69.1,10.19,10.19,0,0,0-1.47.65c-.48.24-.89.59-1.34.86,0,0-.06.1-.11.14a9.11,9.11,0,0,0-1.22,1,9.63,9.63,0,0,0-.83,1.35,10,10,0,0,0-.72,1.4,11,11,0,0,0-.66,1.45c-.21.85,0,.78-.22,1.76-.13.52-.41,1.09-.56,1.68S5.11,23.68,5,24.2a1.51,1.51,0,0,1-1,1,4.78,4.78,0,0,1-1.46.26.8.8,0,0,0-.21,0c-.05,0-.09-.15-.14-.15s-.1.05-.15.06-.33,0-.45,0h0l.08.13a1.33,1.33,0,0,0-.7.69c-.25.87-.08.91-.33,1.78s-.29.86-.53,1.73a1.34,1.34,0,0,0,0,1,1.44,1.44,0,0,0,.83.64c.85.22.86.18,1.72.41s.88.11,1.73.33.83.33,1.68.55S7,32.8,7.8,33s.82.33,1.68.55.88.11,1.74.33.8.41,1.66.63.91,0,1.77.21.83.33,1.68.55l1.71.43c.86.22.81.4,1.66.62s.93,0,1.78.18.8.44,1.66.67c.1,0,.23-.18.33-.18h0s0,.12,0,.12a1.34,1.34,0,0,0,1.33-.87c.23-.87.18-.88.4-1.75s.06-.91.28-1.78A1.1,1.1,0,0,0,25,31.36Zm-5.91-28a1,1,0,0,1,.52-.65c.27-.16.56-.38.86-.3a1.37,1.37,0,0,1,.93,1.54c-.23.9-.22.9-.45,1.8s-.48.83-.72,1.73,0,.95-.28,1.85-.34.87-.58,1.77,0,1-.54,1.73c-.71-.21-1.47-.33-2.21-.49-.13-.92.29-.91.53-1.81s.32-.88.55-1.77.1-.94.33-1.84.26-.9.51-1.79S18.82,4.24,19.05,3.34ZM7.43,24.84c.14-.53.4-1.09.55-1.69s.07-1.25.2-1.78c.25-1,.42-.81.64-1.66a8.33,8.33,0,0,1,.48-1.45A7,7,0,0,1,10.11,17a9,9,0,0,1,.9-1.29,11.56,11.56,0,0,1,1.91-.75,3.84,3.84,0,0,1,1.94-.38c.39,0,.93.15,1.5.28s1,.24,1.49.37,1.09.32,1.45.47a4.54,4.54,0,0,1,1.4,1A5.05,5.05,0,0,1,21.85,18a6.29,6.29,0,0,1,.49,1.69,7.5,7.5,0,0,1,.08,1.75,8.74,8.74,0,0,1-.11,1.77c-.22.86-.47.79-.69,1.65s-.12.89-.35,1.74-.27.85-.5,1.7a3.56,3.56,0,0,0,.05,1.85c-.92.06-.87-.3-1.76-.53s-.93-.07-1.83-.3-.86-.35-1.76-.58-.89-.27-1.78-.5-.88-.29-1.77-.52-.94-.07-1.83-.31-.87-.34-1.76-.58-1.11.23-1.88-.28A4.14,4.14,0,0,0,7.43,24.84Zm15.14,9.41c-.89.25-.87-.11-1.77-.34s-.85-.4-1.75-.63-1,0-1.85-.2-.84-.43-1.74-.66-.89-.26-1.78-.5-.95,0-1.84-.26l-1.79-.48-1.79-.47c-.9-.23-.85-.42-1.74-.65l-1.8-.46c-.9-.23-1.25.37-1.9-.29a.66.66,0,0,1,.36-1.11c.89-.25.86.3,1.76.54s.93.1,1.82.33l1.78.47c.9.23.92.12,1.82.36s.86.37,1.75.6.87.32,1.77.56.93.1,1.83.33.92.15,1.81.39.83.5,1.73.73.91.19,1.81.42,1.09-.2,1.87.29C23.41,33.52,23.09,34.11,22.57,34.26Zm-11.2.85a3.28,3.28,0,0,0-.81-.1v.22a3.06,3.06,0,0,0-1.92.51,3.22,3.22,0,0,0-1.19,1.67,3.22,3.22,0,0,0,.14,1.64,3.15,3.15,0,0,0,.8,1.4,2.91,2.91,0,0,0,1.42.7c.26.07.49.29.75.29v.09a3.1,3.1,0,0,0,1.87-.81,3,3,0,0,0,1-1.69,3.33,3.33,0,0,0,.26-1.63A3.45,3.45,0,0,0,12.81,36,3.24,3.24,0,0,0,11.37,35.11ZM11,38.35c-.08.31-.26.5-.48.5-.05,0-.07-.17-.12-.19s-.46,0-.51-.07.07-.3.12-.5a.45.45,0,0,1,.51-.37v-.21a.85.85,0,0,1,.18,0,.77.77,0,0,1,.42.32C11.21,38,11.1,38.14,11,38.35Z"/></g></g></g></svg>