<svg xmlns="http://www.w3.org/2000/svg" viewBox="0 0 138.85 41.15"><defs><style>.cls-1{fill:#b3282d;}</style></defs><title>novelty-text</title><g id="Слой_2" data-name="Слой 2"><g id="Desktop"><g id="Каталог_Раздел" data-name="Каталог Раздел"><path class="cls-1" d="M46.74,29.3c-.76.67-1,.16-2,.16s-1.32.61-2.1,0,0-.92,0-1.75.18-.83.18-1.67.55-1.12,0-1.74-.84.19-1.6.19-.76,0-1.52,0-1-.6-1.48,0-.09.79-.09,1.62-.08.83-.08,1.67.7,1,0,1.58-.94,0-2,0-1.26.71-2,0,0-.89,0-1.78.14-.9.14-1.8-.23-.9-.23-1.8,0-.9,0-1.8,0-.9,0-1.8.17-.9.17-1.8-.73-1.23-.06-1.83,1,.15,2.06.15,1.27-.8,2,0,.17,1,.17,2.16-.81,1.37-.18,2.29c.43.63.84,0,1.61,0h1.52c.76,0,1,.47,1.41-.16.63-.92,0-1,0-2.16s-.72-1.44,0-2.27,1.06.18,2.08.18,1.18-.71,1.94,0,.07.79.07,1.69,0,.9,0,1.8,0,.9,0,1.8.15.9.15,1.8-.25.9-.25,1.8a5.72,5.72,0,0,0,.13,1.8C47,28.46,47.41,28.7,46.74,29.3Z"/><path class="cls-1" d="M62.47,23c0,.5.16,1,.14,1.37a10.28,10.28,0,0,1-.17,1.37A5.88,5.88,0,0,1,62,27.11a3.6,3.6,0,0,1-.94,1,3.7,3.7,0,0,1-1.18.71,6,6,0,0,1-1.31.59,13.82,13.82,0,0,1-1.48.11c-.44,0-.94,0-1.49,0s-1-.12-1.48-.14a10.55,10.55,0,0,1-1.45-.23,6.3,6.3,0,0,1-1.34-.36,3.8,3.8,0,0,1-1.21-.67,3.57,3.57,0,0,1-.81-1.09,5.61,5.61,0,0,1-.47-1.29,13.64,13.64,0,0,1,0-1.36c0-.41-.27-.86-.27-1.36s0-1,.07-1.38a11.32,11.32,0,0,1,.12-1.38A5.4,5.4,0,0,1,49.31,19a3.66,3.66,0,0,1,.75-1.15,4.16,4.16,0,0,1,1.26-.6,6.21,6.21,0,0,1,1.32-.39,9.4,9.4,0,0,1,1.46-.34c.44,0,.95.16,1.5.16s1,0,1.49,0a12.61,12.61,0,0,1,1.47.16A7.68,7.68,0,0,1,60,17a4.12,4.12,0,0,1,1.18.81A3.74,3.74,0,0,1,62,19a6.33,6.33,0,0,1,.24,1.36,10,10,0,0,1,.16,1.34C62.37,22.09,62.47,22.54,62.47,23ZM58.4,23a5.44,5.44,0,0,0-.23-1.33,2.4,2.4,0,0,0-.39-1,1.77,1.77,0,0,0-.89-.75,3.52,3.52,0,0,0-1.3-.32,5,5,0,0,0-1.37.13c-.38.13-.57.56-.82.94A4.24,4.24,0,0,0,52.92,23a4.47,4.47,0,0,0,.44,2.36,1.88,1.88,0,0,0,.89.85,4.28,4.28,0,0,0,1.35.23A4.75,4.75,0,0,0,57,26.32a2.15,2.15,0,0,0,1-.86A4.54,4.54,0,0,0,58.4,23Z"/><path class="cls-1" d="M76.87,25.81a7.37,7.37,0,0,1,0,1.43,2.91,2.91,0,0,1-.65,1.29,2.7,2.7,0,0,1-1.38.79,13.86,13.86,0,0,1-1.53-.07l-1.64,0c-.82,0-.82.23-1.65.23s-.82,0-1.65,0l-1.65,0a2.35,2.35,0,0,1-1.84-.69,2,2,0,0,1-.37-1.38c0-.86,0-.86,0-1.71s-.07-.85-.07-1.71,0-.86,0-1.71-.05-.86-.05-1.72.14-.86.14-1.72c0-.6-.05-1.15.23-1.49a2,2,0,0,1,1.52-.64c.85,0,.85,0,1.71,0s.85.17,1.71.17.86-.07,1.71-.07.86.16,1.71.16a6,6,0,0,1,1.43.14,2.82,2.82,0,0,1,1.37.51,3,3,0,0,1,.47,1.36,5.79,5.79,0,0,1,.18,1.41,2.64,2.64,0,0,1-.62,1.91c-.35.38-.68.78-1.17.82,0,0,0-.14,0-.13a2.44,2.44,0,0,1,1.52.68A3.15,3.15,0,0,1,76.87,25.81Zm-4.21-5.15c0-.22-.22-.32-.36-.48s-.35-.2-.81-.2l-2.32,0c-.24,0-.47-.11-.58,0a.89.89,0,0,0-.21.61c0,.51-.25.64.17.93.63.42.69,0,1.45,0l1.51,0c.53,0,.89,0,1-.29A1.29,1.29,0,0,0,72.66,20.67Zm.25,4.55c0-.22-.21-.32-.31-.47s-.43-.32-.95-.32l-1.58,0c-.79,0-1-.58-1.63-.17-.41.25-.06.55-.06,1a.91.91,0,0,0,.35.69c.1.11.26.17.66.17l2.16,0c.58,0,1,0,1.12-.17A1.17,1.17,0,0,0,72.91,25.22Z"/><path class="cls-1" d="M92.49,29.3c-.76.71-1,.16-2,.16s-1.38.66-2.15,0,0-1,0-1.93.2-.92.23-1.84,0-.93.06-1.85-.21-.93-.18-1.86c0-.31.07-.38-.06-.38s-.17.15-.41.56c-.45.76-.54.71-1,1.47s-.52.72-1,1.49l-.89,1.54c-.45.77-.39.8-.84,1.57a2.33,2.33,0,0,1-1.14,1,4,4,0,0,1-1.54.32,2.54,2.54,0,0,1-2.26-1,3.41,3.41,0,0,1-.68-2c0-1,0-1,0-1.94s0-1,0-1.94.17-1,.17-1.94-.07-1-.07-1.95-.59-1.19.12-1.86,1,0,2,0S82.24,16,83,16.67s-.19,1-.21,1.87,0,.9,0,1.8,0,.9-.06,1.81.19.91.17,1.81c0,.1-.06.1-.06.2,0,.29,0,.38.14.38a.56.56,0,0,0,.48-.32l.86-1.51c.43-.76.33-.82.76-1.58L86,19.6c.43-.76.43-.76.86-1.52a3,3,0,0,1,1.07-1.26,3.75,3.75,0,0,1,1.64-.12,3.77,3.77,0,0,1,1.62.19,2.17,2.17,0,0,1,1,1.25,3.8,3.8,0,0,1,.54,1.56c0,1-.2,1-.2,1.92s0,1,0,1.92.21,1,.21,1.92-.21,1,0,1.91S93.2,28.65,92.49,29.3Z"/><path class="cls-1" d="M107.45,29.3c-.76.67-1,.16-2,.16s-1.32.61-2.1,0,0-.92,0-1.75.18-.83.18-1.67.55-1.12,0-1.74-.84.19-1.6.19-.76,0-1.52,0-1-.6-1.48,0-.09.79-.09,1.62-.08.83-.08,1.67.7,1,0,1.58-.94,0-2,0-1.26.71-2,0,0-.89,0-1.78.14-.9.14-1.8-.23-.9-.23-1.8,0-.9,0-1.8,0-.9,0-1.8.17-.9.17-1.8-.73-1.23-.06-1.83,1,.15,2.06.15,1.27-.8,2,0,.17,1,.17,2.16-.81,1.37-.18,2.29c.43.63.84,0,1.61,0h1.52c.76,0,1,.47,1.41-.16.63-.92,0-1,0-2.16s-.72-1.44,0-2.27,1.06.18,2.08.18,1.18-.71,1.94,0,.07.79.07,1.69,0,.9,0,1.8,0,.9,0,1.8.15.9.15,1.8-.25.9-.25,1.8a5.72,5.72,0,0,0,.13,1.8C107.71,28.46,108.13,28.7,107.45,29.3Z"/><path class="cls-1" d="M114.13,29.3c-.76.67-1,.16-2,.16s-1.35.63-2.11,0,0-1,0-1.88.18-.9.18-1.8,0-.9,0-1.8-.23-.9-.23-1.8,0-.9,0-1.8,0-.9,0-1.8-.58-1.17.09-1.77,1,.09,2,.09,1.19-.71,2,0,0,.81,0,1.71,0,.9,0,1.8.05.9.05,1.8-.14.9-.14,1.8.23.9.23,1.8-.23.9,0,1.78S114.8,28.7,114.13,29.3Zm9.83,0c-.24.78-.76.14-1.58.14h-1.63c-.82,0-1,.37-1.68,0-.9-.5-.52-.95-1.16-1.76s-.62-.83-1.26-1.64-.81-.67-1.45-1.49a2.92,2.92,0,0,1-.73-1.64,2.75,2.75,0,0,1,.61-1.44c.56-.79.65-.73,1.21-1.52s.63-.74,1.2-1.54.24-1.07,1.09-1.56.74-.06,1.55-.06.8,0,1.61,0,1.35-.78,1.64,0-.66.6-1.2,1.25-.37.8-.92,1.45-.57.63-1.12,1.28-.51.68-1.06,1.33c-.35.41-.66.63-.66.85s.28.63.72,1.11c.61.66.5.77,1.11,1.43l1.23,1.32a5.08,5.08,0,0,0,1.36,1.18C123.65,28.47,124.22,28.46,124,29.33Z"/><path class="cls-1" d="M138.61,29.31c-.72.79-1,.16-2.1.16s-1.23.45-2.19,0c-.62-.31-.29-.71-.53-1.36s.22-1-.36-1.4-.8,0-1.56,0-.76.23-1.51.23-.83-.46-1.47,0-.23.6-.48,1.25,0,.93-.57,1.24c-1,.47-1.05-.09-2.12-.09s-1.33.83-2.06,0c-.59-.64.29-.7.62-1.5s.3-.81.64-1.61.28-.82.62-1.62.46-.75.79-1.55.12-.89.46-1.69.37-.79.7-1.59.29-.82.63-1.62a2.22,2.22,0,0,1,1-1,3.77,3.77,0,0,1,2-.48,4,4,0,0,1,1.63.38,2.05,2.05,0,0,1,1.15,1.23c.33.8.52.72.85,1.52s.15.88.48,1.68.36.79.7,1.59.32.8.65,1.6.53.72.87,1.52.08.92.6,1.61S139.19,28.67,138.61,29.31Zm-6.17-5.39c.66-.52-.43-.8-.71-1.59s-.28-.8-.56-1.6c-.06-.18,0-.21-.06-.21a.2.2,0,0,0-.25.15c-.28.8-.3.79-.58,1.59s-.69.8-.36,1.58C130.46,25.1,131.41,24.72,132.43,23.91Z"/><path class="cls-1" d="M24.94,31.29s0,.05-.05,0a4.92,4.92,0,0,1-1.23-.93,1.51,1.51,0,0,1-.48-1.4c.22-.86.21-.86.44-1.72s.31-.84.54-1.69.07-.9.29-1.76A11.59,11.59,0,0,0,24.83,22a10.39,10.39,0,0,0,0-1.87,9,9,0,0,0-.51-1.79,8.59,8.59,0,0,0-.51-1.81,7.6,7.6,0,0,0-1.21-1.44,6.87,6.87,0,0,0-1.41-1.16c0-1,.22-.92.46-1.85s.31-.91.55-1.84.08-1,.33-1.91.36-.9.6-1.84.28-.93.52-1.86a3.89,3.89,0,0,0,0-2A3.86,3.86,0,0,0,22.6,1.08,3.7,3.7,0,0,0,21,0a3.7,3.7,0,0,0-1.43.12,3.65,3.65,0,0,0-1.39.31,3.81,3.81,0,0,0-1.11.94,3.78,3.78,0,0,0-.45,1.37c-.24.93-.22.94-.46,1.87s-.23.94-.47,1.87-.49.87-.74,1.8-.06,1-.3,1.92A5.44,5.44,0,0,1,14,12.08a6.59,6.59,0,0,0-1.56.19,10.24,10.24,0,0,0-1.4.78c-.48.24-1,.45-1.41.71,0,0-.15,0-.2,0a9.2,9.2,0,0,0-1,1.2,9.37,9.37,0,0,0-1,1.24,10.16,10.16,0,0,0-.69,1.42,11.06,11.06,0,0,0-.64,1.46c-.21.85,0,.77-.24,1.76-.13.52-.26,1.12-.42,1.72s-.35,1.18-.48,1.7-.63.72-1.1.89a5.58,5.58,0,0,1-1.41.37.34.34,0,0,1-.19-.09c-.05,0-.11-.12-.16-.12S2,25.6,2,25.61s-.3-.07-.42,0l0,.06-.07-.11a1.45,1.45,0,0,0-.68.77c-.25.87-.15.9-.4,1.77s-.13.9-.37,1.77a1.18,1.18,0,0,0,0,.94,1.25,1.25,0,0,0,.77.59c.85.22.88.11,1.74.33s.83.32,1.68.54.88.14,1.73.36.83.3,1.69.52.88.11,1.73.33.81.4,1.66.63.89.08,1.74.3.8.42,1.66.64.87.16,1.72.39.84.27,1.69.49l1.72.43c.86.22.9,0,1.76.27s.79.47,1.65.69a1.53,1.53,0,0,0,.35,0s0-.11,0-.11,0,0,.05,0a1.25,1.25,0,0,0,1.26-.86c.23-.87.1-.9.33-1.77l.46-1.74A1.25,1.25,0,0,0,24.94,31.29Zm-6-27.91a1.09,1.09,0,0,1,.58-.63,1.15,1.15,0,0,1,.85-.25A1.33,1.33,0,0,1,21.3,4c-.23.9-.5.83-.73,1.73s-.19.91-.42,1.81,0,.95-.28,1.85-.34.87-.58,1.77,0,1-.56,1.73c-.71-.21-1.52-.33-2.26-.49-.13-.92.45-.89.68-1.79s.2-.91.43-1.8.26-.89.5-1.79,0-1,.23-1.86S18.68,4.28,18.92,3.38ZM7.44,24.92c.14-.53.26-1.13.41-1.72s.31-1.19.44-1.72c.25-1,0-.91.22-1.77a8.31,8.31,0,0,1,.58-1.45,7.38,7.38,0,0,1,.82-1.32,5.66,5.66,0,0,1,1.19-1A13.38,13.38,0,0,1,12.87,15a3.82,3.82,0,0,1,1.92-.43c.39,0,.93.14,1.5.27s1,.23,1.49.37,1.14.19,1.5.34a4.76,4.76,0,0,1,1.34,1.15,5,5,0,0,1,1.12,1.32,6.27,6.27,0,0,1,.38,1.7,7.34,7.34,0,0,1,.37,1.73A9.47,9.47,0,0,1,22,23.2c-.22.86-.26.85-.48,1.71s0,.91-.24,1.77-.24.86-.46,1.71a4,4,0,0,0-.08,1.93c-.92.06-.87-.42-1.77-.66l-1.79-.46c-.89-.23-.95,0-1.84-.26s-.86-.37-1.75-.61-.87-.3-1.77-.53-.93-.1-1.83-.33L8.23,27c-.9-.23-1.1.14-1.87-.38A4.37,4.37,0,0,0,7.44,24.92Zm15.07,9.44c-.89.25-.91-.06-1.81-.3l-1.79-.48-1.78-.48c-.9-.23-.85-.41-1.74-.64L13.61,32c-.89-.23-1,0-1.85-.25s-.89-.27-1.78-.5L8.2,30.75c-.9-.23-.87-.34-1.77-.57s-.88-.31-1.78-.55-1.09.23-1.74-.43c-.39-.39-.32-.78.2-.93.89-.25.88.2,1.77.44s.91.18,1.8.41.86.37,1.75.6,1,0,1.85.25.89.27,1.78.5.91.19,1.8.42.85.4,1.75.63.91.17,1.81.4.86.38,1.76.62L21,33c.9.23,1.1-.22,1.88.29C23.35,33.59,23,34.21,22.51,34.36Zm-11.23.87a3.35,3.35,0,0,0-.79-.19h0a3.27,3.27,0,0,0-1.93.73,3.17,3.17,0,0,0-1.09,1.71,3,3,0,0,0,.06,1.58,3.1,3.1,0,0,0,.72,1.44,3.29,3.29,0,0,0,1.49.57,2.76,2.76,0,0,0,.75.06v0a3.14,3.14,0,0,0,1.91-.45A3,3,0,0,0,13.46,39a3.19,3.19,0,0,0,.14-1.61,3.23,3.23,0,0,0-.86-1.4A3.33,3.33,0,0,0,11.28,35.23ZM11,38.42c-.08.31-.31.59-.53.59a.9.9,0,0,1-.19,0,.8.8,0,0,1-.42-.34c-.06-.1,0-.28.1-.48a.45.45,0,0,1,.5-.37v-.23a1,1,0,0,1,.18.06.74.74,0,0,1,.41.33C11.13,38,11.08,38.21,11,38.42Z"/></g></g></g></svg>