<?xml version="1.0" encoding="utf-8"?>
<!-- Generator: Adobe Illustrator 15.0.0, SVG Export Plug-In . SVG Version: 6.00 Build 0)  -->
<!DOCTYPE svg PUBLIC "-//W3C//DTD SVG 1.0//EN" "http://www.w3.org/TR/2001/REC-SVG-20010904/DTD/svg10.dtd">
<svg version="1.0" id="Шар_1" xmlns="http://www.w3.org/2000/svg" xmlns:xlink="http://www.w3.org/1999/xlink" x="0px" y="0px"
	 width="47px" height="47px" viewBox="0 0 47 47" enable-background="new 0 0 47 47" xml:space="preserve">
<g>
	<defs>
		<rect id="SVGID_1_" x="-1498.078" y="-148.695" width="1920" height="1496"/>
	</defs>
	<clipPath id="SVGID_2_">
		<use xlink:href="#SVGID_1_"  overflow="visible"/>
	</clipPath>
	<g opacity="0.9" clip-path="url(#SVGID_2_)">
		<g>
			<defs>
				<rect id="SVGID_3_" x="-1138.078" y="-15.695" width="1200" height="303"/>
			</defs>
			<clipPath id="SVGID_4_">
				<use xlink:href="#SVGID_3_"  overflow="visible"/>
			</clipPath>
			<rect x="-1138.078" y="-15.695" clip-path="url(#SVGID_4_)" fill="#F9EDD2" width="1200" height="303"/>
		</g>
	</g>
	
		<path clip-path="url(#SVGID_2_)" fill="none" stroke="#A09078" stroke-width="3" stroke-linecap="round" stroke-linejoin="round" stroke-miterlimit="10" d="
		M45.422,41.805c0,2.2-1.8,4-4,4h-36c-2.2,0-4-1.8-4-4v-36c0-2.2,1.8-4,4-4h36c2.2,0,4,1.8,4,4V41.805z"/>
	
		<polyline clip-path="url(#SVGID_2_)" fill="none" stroke="#41281B" stroke-width="2" stroke-linecap="round" stroke-linejoin="round" stroke-miterlimit="10" points="
		17.922,39.305 17.922,29.305 7.922,29.305 	"/>
	
		<line clip-path="url(#SVGID_2_)" fill="none" stroke="#41281B" stroke-width="2" stroke-linecap="round" stroke-linejoin="round" stroke-miterlimit="10" x1="17.922" y1="29.45" x2="7.922" y2="39.45"/>
	
		<polyline clip-path="url(#SVGID_2_)" fill="none" stroke="#41281B" stroke-width="2" stroke-linecap="round" stroke-linejoin="round" stroke-miterlimit="10" points="
		29.922,7.305 29.922,17.305 39.922,17.305 	"/>
	
		<line clip-path="url(#SVGID_2_)" fill="none" stroke="#41281B" stroke-width="2" stroke-linecap="round" stroke-linejoin="round" stroke-miterlimit="10" x1="29.922" y1="17.451" x2="39.922" y2="7.451"/>
	<g opacity="0.9" clip-path="url(#SVGID_2_)">
		<g>
			<defs>
				<rect id="SVGID_5_" x="-1138.078" y="287.305" width="1200" height="708"/>
			</defs>
			<clipPath id="SVGID_6_">
				<use xlink:href="#SVGID_5_"  overflow="visible"/>
			</clipPath>
			<rect x="-1138.078" y="287.305" clip-path="url(#SVGID_6_)" fill="#FFFFFF" width="1200" height="708"/>
		</g>
	</g>
	<rect x="-755.078" y="311.305" clip-path="url(#SVGID_2_)" fill="#FFFFFF" width="788" height="620"/>
</g>
</svg>
