<?xml version="1.0" encoding="utf-8"?>
<!-- Generator: Adobe Illustrator 15.0.0, SVG Export Plug-In . SVG Version: 6.00 Build 0)  -->
<!DOCTYPE svg PUBLIC "-//W3C//DTD SVG 1.1//EN" "http://www.w3.org/Graphics/SVG/1.1/DTD/svg11.dtd">
<svg version="1.1" id="Слой_1" xmlns="http://www.w3.org/2000/svg" xmlns:xlink="http://www.w3.org/1999/xlink" x="0px" y="0px"
	 width="60px" height="80px" viewBox="0 0 60 80" enable-background="new 0 0 60 80" xml:space="preserve">
<g>
	<path fill="#F9EDD2" d="M31.666,14.336c0,0.729-0.6,1.328-1.326,1.328c-0.744,0-1.343-0.599-1.343-1.328
		c0-0.742,0.599-1.341,1.343-1.341C31.066,12.995,31.666,13.594,31.666,14.336L31.666,14.336z"/>
	<path fill="#F9EDD2" d="M50.338,18.334H47.67c0-2.931-2.41-5.339-5.34-5.339h-2.669C39.661,8.463,35.938,5,31.666,5h-2.669
		c-4.531,0-7.995,3.463-7.995,7.995h-2.669c-2.929,0-5.341,2.408-5.341,5.339H10.34c-2.944,0-5.34,2.395-5.34,5.338v45.99
		C5,72.604,7.396,75,10.34,75h39.998c2.93,0,5.326-2.396,5.326-5.338v-45.99C55.664,20.729,53.268,18.334,50.338,18.334
		L50.338,18.334z M15.664,18.334c0-1.602,1.068-2.67,2.669-2.67h5.341v-2.669c0-2.931,2.393-5.325,5.323-5.325h2.669
		c2.93,0,5.34,2.395,5.34,5.325v2.669h5.324c1.602,0,2.67,1.068,2.67,2.67v2.668c0,1.602-1.068,2.67-2.67,2.67H18.333
		c-1.601,0-2.669-1.068-2.669-2.67V18.334z M52.994,69.662c0,1.602-1.067,2.669-2.656,2.669H10.34c-1.343,0-2.671-1.067-2.671-2.669
		v-45.99c0-1.602,1.067-2.67,2.671-2.67h2.652c0,2.931,2.412,5.326,5.341,5.326H42.33c2.93,0,5.34-2.396,5.34-5.326h2.668
		c1.328,0,2.656,1.068,2.656,2.67V69.662z"/>
	<path fill="#F9EDD2" d="M31.666,56.328V37.009h-2.669v19.319l-8.526-8.529l-2.138,1.862L30.34,61.667l11.99-12.006l-2.135-1.862
		L31.666,56.328z"/>
</g>
</svg>
