<svg xmlns="http://www.w3.org/2000/svg" viewBox="0 0 201 102.02"><defs><style>.cls-1{fill:#a09078;}</style></defs><title>product-sousage</title><g id="Слой_2" data-name="Слой 2"><g id="Desktop"><g id="Каталог_Раздел" data-name="Каталог Раздел"><path class="cls-1" d="M6.92,96.62c.29,0,1.08-.59.7-.62-3.74-.25-5-7.22-5.58-10-.84-3.93-2-9.9-.07-13.7.18-.36-.77,0-.91.21C-.85,76.36.26,82,1,86,1.55,88.94,2.85,96.34,6.92,96.62Z"/><path class="cls-1" d="M76.17,79.93l-.29.14a25.27,25.27,0,0,1,1.11-6c1.13-3.62,3-7,4.23-10.56a15.27,15.27,0,0,1,6.45-8.68c.59-.38-.08-.67-.52-.4a17.35,17.35,0,0,0-2.61,2c.18-1.38.47-2.74.61-4.12a10,10,0,0,0-.24-2.95c.3,0,.76-.22.72-.54a31.49,31.49,0,0,0-2.17-8.16c-.17-.44-1.1,0-.93.48a36.7,36.7,0,0,1,1.64,5.19c-.27.08-.61.27-.61.43,0,1.79.64,3.46.69,5.24s-.56,3.64-.72,5.45c0,0,0,0,0,0a15.19,15.19,0,0,0-2.3,3.61c-.37.81-.68,1.65-1,2.5-.08-.45-.16-.9-.2-1.36A1.88,1.88,0,0,1,80.44,61a1.27,1.27,0,0,0,.39-.41c.07-.11.08-.19.06-.25a.31.31,0,0,0,.06-.15,41.4,41.4,0,0,0,.18-8.94.75.75,0,0,0,.44-.12,27.11,27.11,0,0,1,.31,2.91c.07,1.49.15,3.95-.58,5.3-.16.29.76,0,.88-.26.72-1.33.58-3.2.63-4.68A24.76,24.76,0,0,0,82,48.24c.16-.1.27-.23.25-.37a45.65,45.65,0,0,0-.93-4.6c-.1-.44-1,0-1,.33l.31,1.33c-.18-.52-.37-1-.57-1.55s-1.1,0-.93.48a24.42,24.42,0,0,1,1.56,5.52c-.25-.2-1,.15-.89.46A34.54,34.54,0,0,1,80,60.25l-.17.22c-.2-1.28-.57-2.55-.73-3.84-.05-.42-1,0-1,.34.1.79.26,1.58.41,2.36-.29,0-.6.28-.54.52.36,1.57.48,3.18.75,4.77-.08.36-.18.72-.28,1.09s.24.28.53.16c0,.19.08.38.14.56a.25.25,0,0,0,0,.09l-.09.25c-.9,2.21-1.94,4.36-2.78,6.6a23.35,23.35,0,0,0-1.44,7.16c-3,1.41-5.78,3.06-8.64,4.66a37.42,37.42,0,0,0-7.61,3.41.61.61,0,0,0-.21.2c-3.88,1.14-7.42,3.25-11.14,4.8-.62.26-1.27.49-1.92.69,3.23-2.75,6.88-5.55,8.71-9.34a.72.72,0,0,0,.85-.25c2.68-5.13,1.51-10.33,1.13-15.89a.24.24,0,0,0-.16-.23,7.62,7.62,0,0,1,.18-1.33A47.12,47.12,0,0,1,58,61.5c0,.13,0,.25,0,.38s.16.24.33.22l-.28.47c-.31.53.66.37.85,0a6.29,6.29,0,0,0,1-2.21,37.9,37.9,0,0,0-.12-4.14c0-.22-.23-.24-.47-.16,0-.4.06-.8.06-1.22a14.34,14.34,0,0,0-1-4.65c-.76-2.1-1.08-4.38-2.22-6.32s-3.88-5.12-6.49-5.25a8.71,8.71,0,0,0-3.37-1.34c-.36-.06-1.14.6-.66.68a8.41,8.41,0,0,1,3,1.16s0,.08.06.08h.08c5.21,3.33,7.74,12,8.1,17.42a14.59,14.59,0,0,1-1.22,6.6c-.65,1.58-1.52,2.94-1.67,4.67a12.34,12.34,0,0,0,0,1.94C54,70,54,70,54,70.1c0,1-.09,2.06-.15,3.1-.2.65-.45,1.29-.67,1.91-.73,2-1.35,3.89-.88,6,0,.2.25.23.46.17,0,.14-.08.29-.12.43-1.75,2.3-3.12,4.8-4.82,7.15-2.59,3.58-7.33,5.23-10.87,7.81a18.6,18.6,0,0,0-2.42,1.06c-.11.06-.65.51-.2.42l.33-.07c-4.24,2.16-10.37,3.18-14.6,2.13a20.2,20.2,0,0,0-4.29-.79c-1.83-.07-3.78.05-5.25-1.23-.24-.21-1,.38-.92.48A6.31,6.31,0,0,0,13.69,100,49.34,49.34,0,0,1,20,101c4.17.75,9.32-.41,13.26-1.82a14.57,14.57,0,0,0,3.42-1.87c1-.29,2-.62,3.06-.94.51-.16,1-.3,1.53-.44,0,.08,0,.11.24,0a126.15,126.15,0,0,0,17.2-6.62h0a.59.59,0,0,0,.22-.08l.14-.08.22-.1a25,25,0,0,0,5.54-2.38c.51-.28,1-.54,1.55-.8,2.51-.81,4.92-2.19,7.5-2.69,0,0,0,.09,0,.13h0c-.21.1-.41.26-.42.38s-.06.43-.09.64c0-.31-.09-.62-.13-.94s-.88.24-.93.43-.11.46-.15.68c-2.7,1.15-5.18,2.83-7.91,3.94-1.57.64-3.35.82-4.95,1.45s-3.26,1.32-4.91,1.94c-.49.19-.61.9,0,.68-2.54.84-5.08,1.66-7.66,2.34-.34.09-.93.78-.28.61,4.83-1.27,9.51-3,14.3-4.47.33-.1.92-.8.28-.61-2.21.66-4.4,1.38-6.59,2.11,3.26-1.22,6.46-2.41,9.82-3.37,2.48-.71,4.6-2.26,6.87-3.44a8.85,8.85,0,0,0-.24,1.63,2.51,2.51,0,0,0-.42-.18,1,1,0,0,0-.89.47c0,.07,0,.14-.06.21-.78-.74-1.51,0-2.2,1.06a.78.78,0,0,0-.69.05,39.16,39.16,0,0,1-6.28,2.28c-.21,0-1,.67-.54.56a29.09,29.09,0,0,0,4-1.11c.45-.17,2.57-1.47,3-.88.16.23.81-.22.9-.37.67-1.1.91-1.45,1.55-.13.11.23.9-.24.93-.43s.09-.53.13-.79a2.27,2.27,0,0,1,.55.62c.15.19.93-.21.93-.43,0-.39,0-.78,0-1.16h0c0,.2.84-.2.92-.41.06.3.13.6.21.89s.92-.21.93-.43a14.85,14.85,0,0,1,.19-1.74c.09.57.2,1.14.3,1.71a.24.24,0,0,0,0,.08l.1.46c.09.42.7.29.91,0,.46,2.69,1.22,5.54,2.88,7.61.27.34,1.17-.18.92-.48-1.93-2.41-2.52-5.74-3-8.7a26.12,26.12,0,0,1-.35-5.68l.2-.09C76.42,80.16,76.82,79.64,76.17,79.93Zm-5.68,3.62-1.1.45,1.2-.71A.44.44,0,0,0,70.49,83.55Zm4.37-1.34c0,.65,0,1.3.09,2A6.38,6.38,0,0,1,74.86,82.21ZM58.14,89.28c-2.83,1.29-5.69,2.51-8.6,3.62A59.24,59.24,0,0,1,58.14,89.28ZM54.73,73a8.4,8.4,0,0,0,.2-1.1c0,.36.07.72.11,1.08a9.06,9.06,0,0,1-.72,4.43C54.52,76,54.64,74.47,54.73,73Zm4.2-14.19-.08,0,.06-.25C58.92,58.66,58.92,58.73,58.93,58.81ZM57.4,61.26a14.61,14.61,0,0,0,.42-6.3c-.52-4.42-2.46-10.83-6.1-14.62a15.06,15.06,0,0,1,4.33,5.51c.68,1.51.92,3.3,1.47,4.87a15.85,15.85,0,0,1,.91,6.14c-.17,3.62-2.32,7.28-3.3,10.75,0,.13-.07.27-.09.4a10.81,10.81,0,0,1,.12-1.18C55.48,64.91,56.79,63.12,57.4,61.26ZM53.54,76.55c-.11,1.05-.26,2.09-.46,3.12A9.5,9.5,0,0,1,53.54,76.55Zm-1.83,7.65a.21.21,0,0,0,0-.12l.22-.35a19.4,19.4,0,0,1-.85,2A14.29,14.29,0,0,1,51.71,84.19ZM38.06,96.31h0c2.32-1.72,4.95-2.83,7.33-4.43l.41-.3a11.83,11.83,0,0,1-4.2,2.8c-.48.16-.66.83,0,.6a16.17,16.17,0,0,0,6.2-4.51,16.67,16.67,0,0,0,2.32-2.58l.12-.21a1.36,1.36,0,0,0,.59-.31,19.94,19.94,0,0,0,2.66-5.89c.27-.36.55-.72.84-1.06s-.25-.17-.57,0c.12-.52.23-1,.33-1.56a1,1,0,0,0,.55-.34,23.74,23.74,0,0,0,1-2.54,18.62,18.62,0,0,1-.65,6.3c.05-.25.11-.51.14-.77.08-.59-.91-.39-1,.08-.73,5.45-5.65,9-9.6,12.42-.27.23-.22.46,0,.58C42.38,95.18,40.17,95.65,38.06,96.31ZM74.86,81a.71.71,0,0,0-.37.1,26.7,26.7,0,0,1-2.81,1.54c1-.62,2.1-1.22,3.19-1.76C74.87,80.92,74.87,81,74.86,81Z"/><path class="cls-1" d="M108.72,94.75A21.43,21.43,0,0,1,93.4,101.3c-3.93-.07-9-1.25-11.79-4.24-.26-.29-1.14.26-.82.61,3.13,3.39,8.91,4.44,13.32,4.35,5.71-.11,11.38-3,15.31-7C109.91,94.49,109,94.44,108.72,94.75Z"/><path class="cls-1" d="M113.69,91.25c-.4.43.18.54.55.36A11.64,11.64,0,0,1,112.66,93c-.56.4.11.85.58.51,1.92-1.37,3.58-3.21,5.36-4.76,1.37-1.19,1-2.92,2.33-4.15,1.74-1.62,3.08-3.46,4.78-5.09a12,12,0,0,0,1.38-1.6l-.27.49C126,80,125,81.39,124,82.87c-.15.22,0,.33.14.34-.93,1-2.37,1.64-3.22,2.69-1,1.25-.93,3.55-2.56,4.25-.6.25-.26.86.32.62,1.67-.71,2-2.59,2.7-4.08.87-1.89,3.37-2.34,4.25-4.24.12-.25,0-.37-.17-.41.46-.69.93-1.37,1.38-2.07a4,4,0,0,0-.22.92c0,.33.91,0,.95-.35a6.07,6.07,0,0,1,1.3-2.6c.59-.84,1.24-1.63,1.8-2.48.31-.48-.64-.21-.81,0-.51.78-1.23,1.59-1.86,2.44A13.49,13.49,0,0,1,130,75c.48-.49-.41-.57-.72-.24s-.36.41-.53.61l.47-.72c.21-.08.44-.19.49-.32l.07-.18a1.2,1.2,0,0,0,.5-.28A22.91,22.91,0,0,0,134.22,66c.7-2.9.36-5.93.7-8.87,0-.25-.91.09-.94.38-.31,2.69-.15,5.39-.55,8.08a17.79,17.79,0,0,1-3.07,7.15,42.3,42.3,0,0,0,2.13-6.81,5.78,5.78,0,0,0,.42-4,14,14,0,0,0-.57-4c0-.06-.16,0-.32,0a.66.66,0,0,0-.23,0c-.41.09-.54.51-.32.68,0,.17.09.33.13.5-.12.08-.2.17-.19.26.19,1.23.47,2.44.55,3.6a19.28,19.28,0,0,1-.26,2.55,5.09,5.09,0,0,1-1.12,1.83,28.4,28.4,0,0,0,.69-2.82c.3-1.62-.08-3.32.1-5,.06-.59-.92-.36-1,.09,0,.18,0,.36,0,.53-.14-1.84-.08-3.7-.11-5.55,0-.46-1-.1-1,.31,0,1.71,0,3.41.09,5.11.07,1.88.56,3.69.31,5.58-.42,3.19-2.75,6.33-4.14,9.2a32.18,32.18,0,0,1-6.11,8.69C117.17,85.84,115.87,88.9,113.69,91.25Zm13.07-17.06c.25-.51.52-1,.78-1.54-.72,1.47-1.48,2.93-2.1,4.46-.25.59.71.55.89.12.54-1.33,1.19-2.61,1.82-3.9a1.18,1.18,0,0,0,.49-.29c1.13-1.76,1.59-3.66,2.61-5.41A53.15,53.15,0,0,1,129.07,74a.57.57,0,0,0-.57.23,48.69,48.69,0,0,1-8.16,9.88,3.54,3.54,0,0,0-1.57,2.78c-.1,1.32-2.27,2.56-3.21,3.39-.25.22-.48.45-.71.68,2.12-2.47,3.57-5.43,5.87-7.75A33.2,33.2,0,0,0,126.76,74.19Z"/><path class="cls-1" d="M173.82,59.55a35.3,35.3,0,0,0-6,4.94,12.25,12.25,0,0,1-5.11,3.27c-.8.28-1.66.54-2.46.9a5.13,5.13,0,0,0,.73-1.19c.25,0,.75-.23.8-.45A67.24,67.24,0,0,0,163,56.46c0-.06,0-.08-.11-.09a6.14,6.14,0,0,0,.26-1.18c.09,1,.23,2.08.27,3.11.08,2.21.36,4.28.27,6.5,0,.21.31.17.58,0a4.39,4.39,0,0,1-1.17,1.55c-.52.44.39.38.67.15a5.85,5.85,0,0,0,2-4.12.43.43,0,0,0,.21-.26c.19-2.12-.51-4.26-.06-6.35a3.73,3.73,0,0,0,.32-.79,8.59,8.59,0,0,0,.2-2,2,2,0,0,0,.38-.13,10.68,10.68,0,0,1-.06,1.11c0,.1.24,0,.49-.05l.05.31c-.16-.3-.87-.1-.94.29a8,8,0,0,0,.13,2.54c.08.53,1,.18,1-.29a7.32,7.32,0,0,1-.14-2.34s0,0,0,0c.06.37.1.73.14,1.1.06,1.65.39,3.17-.62,4.7-.09.14.21.07.49-.05a12.6,12.6,0,0,1-1.48,4.09c-.21.36.76.08.91-.19a12.73,12.73,0,0,0,1.42-3.77,1.51,1.51,0,0,0,.73-.34,8.36,8.36,0,0,0,1.29-4.57A11.81,11.81,0,0,0,172,50.5a14.27,14.27,0,0,1-.52,4.18c-.29.92-.7,1.82-1.05,2.72-.43,1.1-.45,2.73-1.26,3.63-.17.18.71-.11.87-.28a4.67,4.67,0,0,0,.86-2.33A26,26,0,0,1,172.17,55a11.18,11.18,0,0,0,.71-3.49c.21-.09.41-.25.43-.43a3.51,3.51,0,0,1,.41-1.17,34,34,0,0,1-1.62,8.81c-.19.51.82.27,1-.11a36.91,36.91,0,0,0,1.69-9.68s0,0,0,0a.56.56,0,0,0,.38-.37,8.33,8.33,0,0,0,.05-2.25c.26,0,.8-.27.79-.47a67,67,0,0,0-1-6.95c0-.16-1,.18-.92.48.24,1.64.59,3.26.81,4.9a27.59,27.59,0,0,1-.47-2.85c0-.48-1-.11-1,.31a30.26,30.26,0,0,0,.54,3.11c-.19-.27-1,.13-.89.53a5.78,5.78,0,0,1,.29,3.59,5.44,5.44,0,0,1-.41.91c0-.52,0-1.05,0-1.6,0-.12-.35,0-.62.1,0-.39,0-.79,0-1.17.23-.1.46-.25.46-.36a17.91,17.91,0,0,0-1.14-7.22c-.06-.16-1,.24-.93.48a22.88,22.88,0,0,1,1,4.09l-.15.08a1.62,1.62,0,0,0-.77.49l-.37.81a3.86,3.86,0,0,0-.32-.89c-.1-.2-.9.26-.93.44l-.06.38h0c-.11-.61-.3-1.21-.45-1.83s-1.07-.1-1,.31a8.57,8.57,0,0,1,.52,2.8.26.26,0,0,0,0,.07c-.14.88-.22,1.78-.38,2.66-.07.4-.17.8-.29,1.19a23.42,23.42,0,0,0-.48-2.63c0-.15-1,.22-.92.48a13.55,13.55,0,0,1,.19,3.42A17.62,17.62,0,0,0,165.6,47c-.07-.24-1,.18-.92.48a18.74,18.74,0,0,1,.78,5.33,14.38,14.38,0,0,1-.09,2.14,2.6,2.6,0,0,1-.18.66h0c-.22-.16-.91.17-.88.46.21,2.18.91,5.19.36,7.61a52.78,52.78,0,0,0-.28-5.71c-.19-2.09-.6-4.41-.2-6.48.06-.32-.88,0-1,.35a7.64,7.64,0,0,0-.12.85c-.13-1.08-.34-2.16-.46-3.17-.05-.49-1-.12-1,.31.27,2.38,1.2,5.29-.12,7.5a.28.28,0,0,0,0,.25c-.2.1-.37.27-.33.46a2.55,2.55,0,0,1,0,1.06c-.09.4.4.37.71.18-.11,1.51-.25,3-.45,4.5a22.48,22.48,0,0,0-.49-3l.15,0c.23-.05.7-.45.56-.54.16-.15.24-.27,0-.22a1.9,1.9,0,0,0-.66.46l-.1.1-.18-.79c-.06-.28-.47-.22-.74,0,0-.33.09-.65.15-1,2.5-1.85,1.6-6.65,1.34-9.24,0-.44-1-.05-1,.33.17,1.69.85,5.37-.05,7.45a7.9,7.9,0,0,0,.18-3.5c-.09-.41-1,0-1,.34a10.06,10.06,0,0,1-.4,4.47.45.45,0,0,0-.27.32c0-.06,0-.13,0-.2.14-1.92-.93-4.44-.09-6.2.28-.58-.69-.57-.9-.13-.62,1.3-.33,2.51-.07,3.88.38,2,.18,4.62-1.15,6.27l0,0c-.15.09-.25.2-.23.31.42,1.87,1.36,4.73-.22,6.3-.36.35.61,0,.76-.13,1.61-1.6,1-4.17.49-6.19A6.92,6.92,0,0,0,159,58.9a.22.22,0,0,0,.16.2,10.08,10.08,0,0,0-.19,1.46c0,.31.61.12.86-.15.58,2.53,1.41,5.93-.36,8.08-.26.32-.05.44.21.42a6.33,6.33,0,0,0-.6.36c-3,2.09-6,4.12-9.06,6l-.31-.48c-.08-.23-.46-.1-.6,0a13.88,13.88,0,0,0-3.85,3.19l-1,.51c-.05-.57,0-1.14-.07-1.72s-.79,0-.92.13c-.35.48-.7.95-1.06,1.41A4.27,4.27,0,0,0,142,77c-.07-.25-.3-.28-.53-.23a7.06,7.06,0,0,0-2.89,1.6c1.05-2.67.92-5.86.78-8.84.24,0,.8-.25.83-.46l.12-1a23.77,23.77,0,0,1,0,4.11c-.07,1,.18,3.68-.63,4.49-.37.37.61.08.78-.1,1-1,.62-2.79.73-4A22.11,22.11,0,0,0,141,66c0-.09-.23-.07-.44,0,0-.29,0-.58.06-.87a12.39,12.39,0,0,1,.39-1.59,29.57,29.57,0,0,0,.61,4.11c0,.13.28.06.5-.06,0,.7,0,1.39,0,2.09,0,1.5.24,3.77-.58,5.11-.15.25.75-.08.87-.28.66-1.08.57-2.59.62-3.81.07-1.73.11-3.51.09-5.25A1.16,1.16,0,0,0,144,65a19.45,19.45,0,0,0,.08-3.5,1.49,1.49,0,0,0,.41-.18,10.48,10.48,0,0,1,0,4.12c-.11.37.29.41.62.27,0,2.6-.15,5.5-1.85,7.34-.47.5.41.65.74.29,2.37-2.57,2.11-6.82,2-10.06,0-.2-.16-.26-.35-.24,0-.19,0-.37,0-.56.25-.18.46-.4.15-.33l-.18.08c-.06-.6-.14-1.19-.19-1.78,0-.38-.52-.32-.79-.09a3.62,3.62,0,0,0-.48-1.43c-.15-.23-.9.21-.93.43a17.74,17.74,0,0,0-.06,2.7l0-.1c-.1-.24-.91.22-.93.43a13.92,13.92,0,0,0,0,1.56,6.41,6.41,0,0,0-.44-1.9c-.11-.26-.83.23-.9.37s-.09.19-.14.28c0-.27-.06-.53-.1-.8s-1,.17-.92.48a14.35,14.35,0,0,1,.13,3.14,28,28,0,0,0-.36,3c0-.72-.05-1.42,0-2.1,0-.3-.94.08-.94.37,0,3.66.82,8.49-.72,12.08.09-.37.17-.74.25-1.12s-.42-.38-.65-.27c-1.13.5-2.77,2.52-4.21,2.77a13.79,13.79,0,0,0,2.72-3.93c.78-2,.86-4.16,1.48-6.18.08-.27-.14-.33-.39-.28a44.26,44.26,0,0,0,2.34-9.67c0-.29-.91.06-.94.37a50.8,50.8,0,0,1-3.09,11.79c-.09.26.3.18.6,0-.17.84-.33,1.69-.51,2.53-.49,2.2-1.68,3.59-3.09,5.25a.53.53,0,0,0-.35,0,17.26,17.26,0,0,1,1.32-2.81c.11-.17.08-.28,0-.33a25.44,25.44,0,0,1,1.46-2.87c.15-.23-.75.09-.86.29a25.06,25.06,0,0,0-1.43,2.79l0,0a11.73,11.73,0,0,0-1,2.12,17.41,17.41,0,0,1-1,1.75c-.07.11.09.09.29,0-.69,1.68-1.59,3.2-3.32,3.48-.47.08-.87.88-.19.77,2.53-.41,3.56-2.42,4.44-4.55l0,0c1.91.87,3.62-1.17,5.19-2.29a18.72,18.72,0,0,0-.54,3.21h0s0,.07,0,.1,0,0,0,.05c-1.3.56-2.6,1.13-3.88,1.76-3.13,1.55-6,3.64-9,5.25-5.54,2.88-11.76,5-16.62,9-.53.44.11.76.52.41,5-4.12,11.51-6.29,17.21-9.25,2.83-1.47,5.41-3.36,8.23-4.83,3.1-1.61,6.4-2.81,9.6-4.2.41-.18.8-.37,1.2-.56,0,.08,0,.17.05.25.08.28.6.06.73,0a14.36,14.36,0,0,0,1.41-1.28c1.32-.68,2.62-1.41,3.9-2.17h0c.21.19.61,0,.77-.19A9.13,9.13,0,0,1,151.68,75l.6-.38a28.25,28.25,0,0,1,5-2c.5-.17.63-.89,0-.66l-1.88.66,3.49-2.38c2.69-1.85,5.88-2.15,8.4-4.31A72.78,72.78,0,0,1,174.34,60C174.92,59.58,174.25,59.26,173.82,59.55Zm-5.57.23a15.34,15.34,0,0,0,.21-2.43,14.26,14.26,0,0,0-.06-1.84,15.32,15.32,0,0,1,.5-4.5,30.81,30.81,0,0,1,.33,4.38c-.11.16-.22.32-.34.47-.28.35,0,.52.3.49A8.12,8.12,0,0,1,168.25,59.78Zm1.91-6c-.07-1.31-.24-2.61-.39-3.75.24-.1.5-.25.52-.37a23.11,23.11,0,0,0,.33-2.51c.11-.35.22-.69.36-1A13.42,13.42,0,0,1,170.16,53.79ZM137.27,81.56a7.29,7.29,0,0,1,3.88-3.87,4.76,4.76,0,0,1,.08,1.2c0,.18.11.25.28.25l-.17.2c-.23.27-.11.41.1.44l-.38.17C139.81,80.5,138.54,81,137.27,81.56Zm4.89-2.11c.38-.45.75-.91,1.1-1.37,0,.28,0,.56.06.83Zm5-2.55a9.13,9.13,0,0,1,1.71-1.33,1.67,1.67,0,0,0,.12.29Z"/><path class="cls-1" d="M136.2,10.68a9.22,9.22,0,0,0-1,.64c-.17.11-.31.4-.12.56s.5,0,.68-.08a7.2,7.2,0,0,1,.78-.49c.18-.09.41-.34.3-.56S136.38,10.59,136.2,10.68Z"/><path class="cls-1" d="M44.64,95.8c-2.82.74-5.53,1.8-8.45,2.12-.25,0-1.06.65-.52.59,3-.32,5.77-1.4,8.66-2.16C44.63,96.27,45.29,95.63,44.64,95.8Z"/><path class="cls-1" d="M57.93,83.36a7.27,7.27,0,0,0,.82-4.74c-.23-3.36-.16-6.41-.89-9.73-.1-.47-1.05-.08-1,.31a31.52,31.52,0,0,1,.9,6.89c0,2.5.5,5-.72,7.22C56.77,83.85,57.74,83.71,57.93,83.36Z"/><path class="cls-1" d="M63.66,81.33c1.05-1.43,1.11-3,1.28-4.74a43.39,43.39,0,0,0,.1-7.84c0-.47-1-.1-1,.31a43.09,43.09,0,0,1,0,6.09c0-.88,0-1.77,0-2.65,0-.28-.3-.29-.56-.17.58-3.67.92-7.39-.36-11-.16-.45-1.09,0-.92.48,1.34,3.72.81,7.64.18,11.44,0-1.2.07-2.37.18-3.64.19-2.39-.14-4.64-.13-7,0-.32-.94.05-.95.36,0,2.09.31,4.09.18,6.21-.07,1.15-.17,2.25-.21,3.35-.12-1.33-.3-2.64-.47-3.89-.07-.54-1.05-.2-1,.28.4,3,.9,6.66.35,9.83,0-2.15-.32-4.38-.33-6.48,0-3-.2-6,0-9,0-.25-.92.1-.94.38-.16,3,0,6,0,9,0,2.83.59,5.9.19,8.7,0,.09.12.09.28.05l0,.12c-.28.59.69.58.9.14a14.25,14.25,0,0,0,1.18-5.9c.05.34,1-.08.94-.37a15.77,15.77,0,0,1-.15-1.6c.14.15.46.11.68,0,0,1.54.07,3.08.1,4.62,0,.3.35.29.63.15a6.24,6.24,0,0,1-1,2.71C62.44,81.76,63.43,81.65,63.66,81.33Z"/><path class="cls-1" d="M66.28,83.15c1.13-1.57.7-4.39,1-6.24s.59-3.45.81-5.19c.24-1.9-.24-4,.46-5.84.17-.44-.8-.13-.92.18a5.64,5.64,0,0,0-.35,1.65c-.14-1.67-.38-3.3-.6-4.79-.08-.51-1-.14-1,.3.63,4.1,1.39,9.64-.19,13.6-.23.58.69.51.87.11-.13.82-.26,1.63-.35,2.45-.13,1.21.2,2.72-.56,3.78C65.11,83.64,66.09,83.42,66.28,83.15Z"/><path class="cls-1" d="M69.89,67.12c0,.12,0,.23,0,.35a4.45,4.45,0,0,1,.1-1.31c.12-.48-.84-.15-.92.17a8,8,0,0,0,0,2.92A29.58,29.58,0,0,1,69,72.73c0,.26.41.19.69,0v.36c-.09,1.86-.35,4.86-1.62,6.34-.34.4.62.07.77-.11,1.11-1.31,1.4-3.47,1.64-5.11.37-2.46.17-5,.35-7.48C70.84,66.49,69.91,66.84,69.89,67.12Z"/><path class="cls-1" d="M76.72,70.35c-.05.38.91,0,1-.33A28.8,28.8,0,0,0,75.93,56c-.15-.35-1.08.12-.93.48.09.21.18.44.26.66-.3.06-.71.32-.64.56A21.87,21.87,0,0,1,75.11,64a17.19,17.19,0,0,0-1.57-4.55c-.22-.43-1.15,0-.93.48A16.58,16.58,0,0,1,74.07,64a.9.9,0,0,0-.36.08,10,10,0,0,0-.58-1.48c-.16-.32-1.08.16-.92.48a10.92,10.92,0,0,1,1,3.61c0,.42.06.84.1,1.25,0,.09,0,.19,0,.28a15.34,15.34,0,0,0,0,1.71c0,.26,0,.52-.07.77a.12.12,0,0,0,.1.13c0,.53,0,1.07.05,1.6A7.81,7.81,0,0,1,73,74.26c-.34,1-.93,1.91-1.25,2.93-.13.41.82.06.9-.21l.09-.27c.22,0,.73-.2.82-.4a9.63,9.63,0,0,0,.71-4.41,8.72,8.72,0,0,0,.08-1c0-.77,0-1.56-.08-2.36,0-.32,0-.63,0-.95,0-.14,0-.27,0-.4s0,0-.07,0c0-.39-.07-.79-.12-1.18s0-1,0-1.49a49.84,49.84,0,0,1,.6,7.43c0,.35.47.3.75.08a4.33,4.33,0,0,1-1.22,2.48c-.48.48.4.38.66.13,1.85-1.82,1.66-4.28,1.38-6.69-.32-2.81,0-5.75-.37-8.56A29.66,29.66,0,0,1,76.72,70.35Z"/><path class="cls-1" d="M42.72,87.23c.64-.31,1.28-.61,1.91-1s.3-.79-.26-.49c-.38.21-.77.4-1.17.59a8.93,8.93,0,0,0,.35-.93c.07-.29-.27-.3-.46-.22a8.74,8.74,0,0,0-1.14.58c0-.24.08-.47.1-.72,0-.4-.72,0-.83.07a5,5,0,0,1-.65.59l.1-.13c.15-.23.24-.5.38-.73s0-.34-.18-.34a.83.83,0,0,0-.65.34c-.11.18-.2.38-.29.57s-.12.29-.22.34-.44.28-.34.48.45.08.59,0l0,0c-.06.23.39.32.71.1l.25-.19c0,.13-.05.26-.08.39-.1.36.42.26.59.16s.64-.4,1-.58a5.58,5.58,0,0,0-.33,1C42.06,87.44,42.63,87.27,42.72,87.23Z"/><path class="cls-1" d="M2.39,78.61c0,.49,1,.14,1-.3,0-1-.15-1.91-.1-2.87,0-.48-1-.14-1,.3C2.24,76.7,2.35,77.65,2.39,78.61Z"/><path class="cls-1" d="M48.66,68.26c0,.3,0,.6-.07.91s.91,0,.95-.36,0-.6.07-.91S48.68,67.95,48.66,68.26Z"/><path class="cls-1" d="M91,42c0-.45-1-.07-1,.32a19.74,19.74,0,0,1-.28,4.43c0-1.64-.49-3.25-.46-5,0-.53-1-.2-1,.28,0,1.41.29,2.73.4,4.09-.2-.95-.44-1.89-.66-2.84-.38-1.61-.42-3.23-1.22-4.71-.12-.23-1,.26-.92.48A12.78,12.78,0,0,1,87,43.23c.08.46.17.91.28,1.36a1,1,0,0,0-.52.14,29.17,29.17,0,0,0-1-5c-.08-.25-1,.16-.92.48A28.42,28.42,0,0,1,86,46.57c0,.14.18.15.38.09a17.32,17.32,0,0,0,.46,4.52c0,.19.57,0,.81-.22-.72,1.28-1.66,2.49-2.42,3.65-.37.57.48.79.77.34a30.85,30.85,0,0,0,3.41-5.9c.06-.16.11-.33.16-.49-.19,1.86-.29,3.47-1.48,5.16-.35.5.64.34.85,0a8.79,8.79,0,0,0,1.56-4.48A41.94,41.94,0,0,0,91,42Zm-3.28,8.72a17.28,17.28,0,0,1-.35-5.77,25.16,25.16,0,0,1,.71,3.58c0,.14.26.1.5,0a8.54,8.54,0,0,1-.87,2.26A.17.17,0,0,0,87.72,50.71Z"/><path class="cls-1" d="M93.9,45.28c-.5.46.4.34.65.11a2.5,2.5,0,0,0,.83-1.67,1,1,0,0,0,.63-.31c1-1.55.55-3.13,0-4.77-.09-.31-1,.12-.92.48A5.64,5.64,0,0,1,95.39,43c-.15-1.86-1.42-4-1-5.71.07-.27-.86,0-.95.36C92.89,39.85,95.72,43.61,93.9,45.28Z"/><path class="cls-1" d="M99.88,42.37c2.22-1.71,2.34-4.41,1.87-7,0-.19-1,.17-.93.48.41,2.27.45,4.92-1.56,6.46C98.73,42.74,99.65,42.54,99.88,42.37Z"/><path class="cls-1" d="M62,60.5a6.44,6.44,0,0,0,.53-3.93c0-.39-.72-.18-.91.13-.08-.17-.81.1-.91.33-.71,1.57-.18,3.44-1.12,4.92-.2.32.75,0,.9-.22.92-1.47.43-3.27,1.07-4.82a5.85,5.85,0,0,1-.42,3.53C60.79,61,61.76,60.84,62,60.5Z"/><path class="cls-1" d="M62.66,53.9a25.21,25.21,0,0,0,0,2.94,4.17,4.17,0,0,1-.23,2.87c-.33.54.65.46.88.09a4,4,0,0,0,.42-2.63c-.05-.54-.17-1.07-.19-1.62a5.88,5.88,0,0,1,0-.85,15.83,15.83,0,0,1,.63,4.67c0,.49,1,.13,1-.3a16.2,16.2,0,0,0-.79-5.22c-.09-.27-.51-.17-.76,0,0-.1,0-.19,0-.28C63.62,53.1,62.64,53.46,62.66,53.9Z"/><path class="cls-1" d="M66.3,59.31a13,13,0,0,0-.73-5.54c-.18-.42-1.11,0-.92.48a12.68,12.68,0,0,1,.68,5.36C65.31,60.1,66.29,59.76,66.3,59.31Z"/><path class="cls-1" d="M66.38,53.95a18.25,18.25,0,0,1,.34,4.56c0,.45.95.09,1-.32a18.3,18.3,0,0,0-.34-4.56C67.25,53.16,66.3,53.57,66.38,53.95Z"/><path class="cls-1" d="M68.35,53.07A13.54,13.54,0,0,1,68.48,55c0,.49.79.1.92-.12a6.08,6.08,0,0,0,.3-.56A6.54,6.54,0,0,0,70,55.86c.1.24.82-.26.9-.37l0,0A.64.64,0,0,0,71.7,55a11.13,11.13,0,0,0,.16-1.37.3.3,0,0,0-.11-.29c.31-.08.77-.4.69-.51a3.23,3.23,0,0,1-.35-1.29c0-.15-1,.2-.93.48a3.49,3.49,0,0,0,.33,1.25.71.71,0,0,0-.51.23.76.76,0,0,0-.38.19,6.23,6.23,0,0,0-.3-1.32c-.08-.2-1,.23-.92.48a4.72,4.72,0,0,1,.21.76l-.17,0a5.77,5.77,0,0,0-.09-.89C69.22,52.27,68.27,52.66,68.35,53.07Z"/><path class="cls-1" d="M74.1,54.45c-.22-1.73-.53-3.44-.9-5.14,0-.13-1,.22-.93.48.37,1.7.68,3.41.9,5.14C73.19,55,74.13,54.73,74.1,54.45Z"/><path class="cls-1" d="M76.9,51.1a1.55,1.55,0,0,0,.26-.28c.32-.06.65-.36.5-.62a.51.51,0,0,0-.24-.24.61.61,0,0,0-.59.13c-.26-.16-.88.13-.86.5a1,1,0,0,0,.13.41L76,51h-.12c-.09-.37-.17-.73-.3-1.09s-.72-.15-.89.19a13.49,13.49,0,0,0-.35-1.45c-.09-.32-1,.11-.93.48a11,11,0,0,1,.46,2.65,2.86,2.86,0,0,0,.34,1.58c.24.31,1.13-.21.92-.48A3.37,3.37,0,0,1,74.85,51c0-.07,0-.14,0-.2.09.33.16.66.25,1s.53.28.78.11a1.55,1.55,0,0,0,.43-.48.27.27,0,0,0,0-.21A.63.63,0,0,0,76.9,51.1Z"/><path class="cls-1" d="M54.84,37.84c-.37-.31-1.21.3-.8.64,1.32,1.1,2.81,1.78,3.79,3.25A15.94,15.94,0,0,1,60,48.27c.09.54,1.06.19,1-.29a17.71,17.71,0,0,0-2.21-6.73C57.81,39.7,56.19,39,54.84,37.84Z"/><path class="cls-1" d="M51.71,32.61a11.48,11.48,0,0,0-5.85-.33c-.41,0-.92.76-.24.67a13.58,13.58,0,0,1,10.75,3.21c.28.24,1.15-.31.82-.59A18.49,18.49,0,0,0,51.71,32.61Z"/><path class="cls-1" d="M67,33.47a9.13,9.13,0,0,0,2,2.17c.14.08.48-.08.69-.26a2.94,2.94,0,0,0,.29.44c.22.27,1.1-.28.93-.48A8.67,8.67,0,0,1,69.92,33c-.11-.27-1.05.18-.93.48s.31.87.47,1.29A17.22,17.22,0,0,1,68,33C67.76,32.77,66.91,33.33,67,33.47Z"/><path class="cls-1" d="M72.77,34.64c0-.1,0-.18,0-.27s-.17-.1-.31-.05c-.33-.37-.58-.8-.93-1.14s-1,.36-.93.48c.44.44.73,1,1.21,1.42C72.05,35.26,72.71,34.89,72.77,34.64Z"/><path class="cls-1" d="M74.72,34.36c.09-.13,0-.21,0-.3.08-.3-.25-.31-.54-.19A5.16,5.16,0,0,1,73,32.41c-.21-.35-1.13.14-.93.48a5.43,5.43,0,0,0,1.46,1.7.73.73,0,0,0,.87.06A.87.87,0,0,0,74.72,34.36Z"/><path class="cls-1" d="M76.33,32a3.53,3.53,0,0,1-1.58-1.29c-.19-.28-1.09.24-.93.48a3.79,3.79,0,0,0,1.67,1.38.74.74,0,0,0,.64-.16C76.2,32.34,76.53,32.06,76.33,32Z"/><path class="cls-1" d="M81.92,40.58c-1.46-4.34-2.38-8.84-5.61-12.28-.28-.3-1.15.26-.81.62C78.67,32.3,79.56,36.8,81,41.06,81.13,41.46,82.06,41,81.92,40.58Z"/><path class="cls-1" d="M79.33,48.18a51,51,0,0,0-1.73-8.6c-.11-.49-1.07-.1-1,.31a51.42,51.42,0,0,1,1.73,8.61C78.39,49,79.36,48.61,79.33,48.18Z"/><path class="cls-1" d="M83.64,47.94c-.44-2.14-.47-4.67-2-6.42-.22-.26-1.09.28-.92.48,1.49,1.75,1.51,4.27,2,6.42C82.76,48.66,83.71,48.28,83.64,47.94Z"/><path class="cls-1" d="M87.35,32c.11.47,1.06.07,1-.32a16.14,16.14,0,0,0-5.34-9c-.32-.25-1.18.33-.81.61A15.71,15.71,0,0,1,87.35,32Z"/><path class="cls-1" d="M67.44,20c4.42-.52,8.94-.55,11.49,3.7.13.21,1-.3.93-.48-2.63-4.37-7.33-4.3-11.87-3.76C67.78,19.5,66.94,20.07,67.44,20Z"/><path class="cls-1" d="M88.12,21.77c.06.16,1-.25.93-.48-.83-2.33-2.74-3.23-5-3.72A9.67,9.67,0,0,1,80.8,16a8.31,8.31,0,0,0-3.39-.85c-.29,0-.92.52-.86.53a12.55,12.55,0,0,1,2.91.61c1.16.45,2,1.37,3.17,1.74C85,18.72,87.17,19.12,88.12,21.77Z"/><path class="cls-1" d="M96.56,30c-1.31-3.94-2.37-8-4.83-11.39-.24-.33-1.14.18-.92.48,2.46,3.41,3.53,7.45,4.83,11.39C95.75,30.78,96.69,30.34,96.56,30Z"/><path class="cls-1" d="M98.42,21.66c-.12,4.14,3.11,8.05,1.48,12.16-.14.37.8,0,.9-.23,1.66-4.21-1.55-8.07-1.43-12.29C99.37,21,98.43,21.36,98.42,21.66Z"/><path class="cls-1" d="M95,14.92c.35.33,1.19-.27.8-.64a19.25,19.25,0,0,0-4.07-2.38c-.41-.23-1.14.46-.62.75A18.47,18.47,0,0,1,95,14.92Z"/><path class="cls-1" d="M101.31,8.67c-3.47.4-7,.68-10.41,1.23-.46.07-.88.86-.21.75,3.45-.56,6.93-.83,10.41-1.23C101.57,9.36,102,8.59,101.31,8.67Z"/><path class="cls-1" d="M107.43,8.83c-.23-.12-1,.46-.86.53,1.17.58,2.23,1.32,3.37,2a29.22,29.22,0,0,1,3.78,2.06c1.52,1.16,2.33,3,4.11,3.82.24.11,1-.47.86-.53-1.92-.91-2.72-3-4.46-4.08A73.37,73.37,0,0,0,107.43,8.83Z"/><path class="cls-1" d="M108.81,32.16c-.13,2.33.75,5.08-1.15,6.91-.49.47.4.43.68.16,1.46-1.41,1.51-3.13,1.46-4.92.16-.08.29-.19.29-.28a22.32,22.32,0,0,0-.35-5.26c0-.13-1,.2-.93.48.14.84.26,1.69.33,2.54C109,31.89,108.82,32,108.81,32.16Z"/><path class="cls-1" d="M114.87,33a4.13,4.13,0,0,1-.86,3.09c-.13.12-.22.37,0,.44a.77.77,0,0,0,.68-.24,4.47,4.47,0,0,0,1.13-2.71.42.42,0,0,0,.14-.2c.88-3.4-.1-6.72-.86-10-.11-.48-1.06-.07-1,.31a36.25,36.25,0,0,1,1.2,6.69c-.18-1.18-.42-2.35-.5-3.54,0-.34-1,.06-.95.36.11,1.79.61,3.53.69,5.32,0,.21.37.14.64,0l0,.11C115,32.69,114.85,32.85,114.87,33Z"/><path class="cls-1" d="M118.49,35.54a9.51,9.51,0,0,0,1.31-7c-.07-.53-1-.18-1,.29.3,2.26.24,4.42-1.08,6.37C117.35,35.78,118.2,36,118.49,35.54Z"/><path class="cls-1" d="M84.43,7c1.05-.06,2.1-.19,3.15-.25.28,0,1.07-.64.51-.61-1.05.06-2.1.19-3.15.25C84.66,6.44,83.87,7.07,84.43,7Z"/><path class="cls-1" d="M86.72,5.71c-.07.23.17.34.37.3a6,6,0,0,1,3.19.12c.37.13,1.16-.53.65-.7a6.9,6.9,0,0,0-3.63-.15A.72.72,0,0,0,86.72,5.71Z"/><path class="cls-1" d="M92.8,4.16a13.73,13.73,0,0,0-3.37.09.94.94,0,0,0-.65.34c-.12.16,0,.32.16.31a13.05,13.05,0,0,1,3.17-.11C92.43,4.86,93.23,4.24,92.8,4.16Z"/><path class="cls-1" d="M72,15.24c-.1.09-.26.33,0,.37a5.38,5.38,0,0,0,.82.07,1,1,0,0,0,.65-.34c.13-.17,0-.29-.15-.29a3.91,3.91,0,0,1-.63-.06A.91.91,0,0,0,72,15.24Z"/><path class="cls-1" d="M73.05,14.71l.78.1c.34,0,1.08-.61.48-.68L73.53,14C73.19,14,72.45,14.65,73.05,14.71Z"/><path class="cls-1" d="M73.65,13.57s-.41.31-.24.32c.71.08,1.41.17,2.11.29a1,1,0,0,0,.62-.21s.41-.3.24-.32c-.71-.11-1.41-.21-2.11-.29A1.05,1.05,0,0,0,73.65,13.57Z"/><path class="cls-1" d="M74.7,12.63a3.73,3.73,0,0,0,2,.72.78.78,0,0,0,.6-.27c0,.08.07.13.2.12.57,0,1.13-.12,1.69-.2a1.05,1.05,0,0,0,.65-.34c.12-.15.07-.3-.14-.27-.56.08-1.13.16-1.69.2a1,1,0,0,0-.61.29.23.23,0,0,0-.25-.26,3.07,3.07,0,0,1-1.65-.6C75.18,11.79,74.33,12.38,74.7,12.63Z"/><path class="cls-1" d="M76.75,11.48a14,14,0,0,0,3.71.41,1.1,1.1,0,0,0,.66-.27c.06,0,.2-.21.14-.28l.5.14c.36.11,1.16-.53.66-.69A6.29,6.29,0,0,0,80,10.47c-.44,0-.91.76-.23.71a4.23,4.23,0,0,1,1.33.13,13.35,13.35,0,0,1-3.51-.38C77.3,10.84,76.56,11.42,76.75,11.48Z"/><path class="cls-1" d="M107.58,34.58c.12.53,1.08.17,1-.29a10.2,10.2,0,0,1,.22-3.21,9.43,9.43,0,0,0-.57-3.21c-.13-.53-1.1-.17-1,.29a9.14,9.14,0,0,1,.49,3.76A7.17,7.17,0,0,0,107.58,34.58Z"/><path class="cls-1" d="M118.4,26.51a10.49,10.49,0,0,0-.88-4.22c-.09-.21-1,.24-.92.48a10.26,10.26,0,0,1,.87,4.12C117.47,27.14,118.4,26.77,118.4,26.51Z"/><path class="cls-1" d="M119.85,24.36c-.4-1.94-1-3.85-1.37-5.79-.11-.51-1.07-.14-1,.3.4,1.94,1,3.85,1.37,5.79C119,25.17,119.94,24.8,119.85,24.36Z"/><path class="cls-1" d="M116.5,12.85c-.31-.11-1.08.48-.84.57A4.13,4.13,0,0,1,118.09,15c.24.38.4.79.64,1.16s.41.58.58.88c-.31,0-.81.31-.71.61s.25.78.35,1.18,1,0,1-.33-.19-.71-.3-1.05c.29,0,.89-.31.79-.56a6.08,6.08,0,0,0-.74-1.21c-.31-.43-.5-.94-.79-1.39A4.25,4.25,0,0,0,116.5,12.85Z"/><path class="cls-1" d="M118.08,12.27c2.05,1.67,2.51,4.16,3.57,6.45.14.29,1.07-.17.92-.48-1.09-2.34-1.57-4.84-3.66-6.54C118.67,11.49,117.8,12,118.08,12.27Z"/><path class="cls-1" d="M124.25,12.76c-.1-.09-.18-.2-.28-.3s-.84.26-.93.44a1.66,1.66,0,0,0-.16.67,1.34,1.34,0,0,0-.78.44l-.35-.7c-.22-.43-1.15.05-.92.48A25.93,25.93,0,0,0,122.56,17c.25.35,1,0,1-.39s-.15-.88-.25-1.32v0c.27-.08.64-.29.65-.45a10.86,10.86,0,0,0-.08-1.25,1.26,1.26,0,0,0,.72-.2c.07,0,.46-.24.39-.37s-.46.07-.53.11C124.65,12.92,124.4,12.9,124.25,12.76ZM122.71,15l-.07,0-.24-.46A2.07,2.07,0,0,0,122.71,15Z"/><path class="cls-1" d="M56.83,79.28c.35,2.35-1,4.14-2.09,6.13a25,25,0,0,1-4.54,6.23c-.49.47.4.56.72.25a26.37,26.37,0,0,0,4.67-6.42c1.2-2.15,2.58-4,2.2-6.5C57.73,78.49,56.77,78.88,56.83,79.28Z"/><path class="cls-1" d="M51.11,25.28c-.34-.3-1.2.29-.8.63a1,1,0,0,0,1.16.1c.18-.08.41-.34.3-.56s-.44-.16-.62-.07C51.26,25.33,51.22,25.38,51.11,25.28Z"/><path class="cls-1" d="M72.5,71.79c.65-.93.36-2.17.26-3.23-.18-1.9-.57-3.76-.77-5.66,0-.32-1,.09-.94.37.15,1.47.39,2.93.6,4.4.18,1.22.73,3.25-.05,4.36C71.4,72.31,72.34,72,72.5,71.79Z"/><path class="cls-1" d="M92.06,98.54a2.93,2.93,0,0,1-1.06-1c-.15-.22-1.14-.35-.92,0,.9,1.34,3.17,2.46,4.29.73.42-.65-.44-1.1-.94-1.25a3.21,3.21,0,0,0-2.3.13c-.35.17.58.54.82.42.44-.22,1.88-.49,1.41.44A1.09,1.09,0,0,1,92.06,98.54Z"/><path class="cls-1" d="M99,47.55a2.79,2.79,0,0,0-1.68,1.94c0,.15.2.14.43.06-.17,1,1,.65,1.59.39.8-.39,1.62-1.07,1.46-2.06S99.51,47.29,99,47.55Zm.34,1.89c-.38.25-.75.22-.62-.31,0-.14-.19-.13-.43,0A1.61,1.61,0,0,1,99,48c.28-.18.64-.19.8.13A1.05,1.05,0,0,1,99.3,49.44Z"/><path class="cls-1" d="M106.31,91.5a3.05,3.05,0,0,1-.91,2.43c-.12.15-.07.28.13.26a1.06,1.06,0,0,0,.65-.34,3.48,3.48,0,0,0,1.07-2.72C107.2,90.81,106.27,91.23,106.31,91.5Z"/><path class="cls-1" d="M109.11,94a8.17,8.17,0,0,0,1.35-1.48c.45-.52-.42-.56-.71-.22-.15.17-.28.35-.42.53a8.35,8.35,0,0,0,0-1.24,3.84,3.84,0,0,0,.24-1.07c0-.6-.95-.4-1,.07-.08,1.26-.93,2.25-1.42,3.38-.26.6.71.59.9.14.09-.2.19-.4.29-.6,0,.15,0,.31,0,.46C108.39,94.37,109,94.15,109.11,94Z"/><path class="cls-1" d="M136.34,58.74a18.2,18.2,0,0,1-1.09,7.3c-.33,1.05-.7,2.09-1,3.14-.07.21-.13.46-.2.73-.2.09-.39.22-.41.36a12.58,12.58,0,0,1-.71,2.57,1.73,1.73,0,0,1-.26.23c-.39.27-.23.39,0,.37-.86,2-2.09,4-3.09,5.82-1.24,2.29-3.34,4.15-4.18,6.64-.07.21.84-.07.95-.37a15.43,15.43,0,0,1,2.73-4.22,27.77,27.77,0,0,0,2.3-4c.84-1.59,1.76-3.12,2.42-4.75a11.78,11.78,0,0,0,1.38-3.78c1.07-3.45,2.49-6.75,2.13-10.44C137.26,58.05,136.32,58.46,136.34,58.74Z"/><path class="cls-1" d="M151.86,56.15a22.14,22.14,0,0,0,1,4.68c.18.45,1.11,0,.93-.48a21.34,21.34,0,0,1-1-4.49C152.76,55.33,151.79,55.69,151.86,56.15Z"/><path class="cls-1" d="M157.89,47.17c.21.91.48,1.79.69,2.7.12.51,1.08.14,1-.3-.21-.9-.48-1.79-.69-2.69C158.75,46.36,157.79,46.73,157.89,47.17Z"/><path class="cls-1" d="M160.38,46.72c.13.32,1.07-.14.92-.48-.79-1.86-1.7-3.64-2.38-5.55a34.88,34.88,0,0,0-2.5-6c-.19-.32-1.1.17-.93.48a28.91,28.91,0,0,1,2.23,5.23C158.48,42.58,159.48,44.6,160.38,46.72Z"/><path class="cls-1" d="M154.75,45.83c.12.39,1.06-.05.92-.48-.47-1.55-.75-3.15-1.19-4.71-.49-1.72-1.77-2.4-2.48-3.9a8.31,8.31,0,0,0-2.43-3.11c-1-.8-2.53-.43-3.67-.54-.4,0-1.07.68-.45.74,2.15.2,3.41.22,5,2.1.55.66.68,2.27,1.44,2.7C154.1,39.9,154.06,43.59,154.75,45.83Z"/><path class="cls-1" d="M144.86,40c2.25,2.17,3.82,4.2,4.26,7.37.06.41,1,0,1-.34-.45-3.26-2.08-5.39-4.39-7.62C145.45,39.16,144.56,39.7,144.86,40Z"/><path class="cls-1" d="M146.34,49.82c-.59-1.39-1.37-2.7-1.89-4.12-.16-.45-1.1,0-.92.48.52,1.42,1.29,2.73,1.89,4.12C145.61,50.74,146.54,50.27,146.34,49.82Z"/><path class="cls-1" d="M140.39,49.72a8.05,8.05,0,0,1,.22,1.39c0,.39,1,0,1-.34a8.7,8.7,0,0,0-.25-1.53C141.25,48.93,140.31,49.34,140.39,49.72Z"/><path class="cls-1" d="M136.48,50.94l.52,2.38c0,.17,1-.19.93-.48-.17-.79-.35-1.58-.53-2.37C137.37,50.29,136.42,50.65,136.48,50.94Z"/><path class="cls-1" d="M119.56,38.59c-.35-.13-1.15.5-.66.68A11.05,11.05,0,0,1,122,40.73c.31.24,1.17-.33.82-.6A11.71,11.71,0,0,0,119.56,38.59Z"/><path class="cls-1" d="M125.76,38.19a28.13,28.13,0,0,0-3.36-.72,1,1,0,0,0-.62.2s-.41.3-.24.33a28.8,28.8,0,0,1,3.36.72C125.18,38.8,125.88,38.22,125.76,38.19Z"/><path class="cls-1" d="M127.57,37.35a4.67,4.67,0,0,0-2-.57.87.87,0,0,0-.65.34c-.13.18,0,.32.17.33a3.93,3.93,0,0,1,1.68.48C127.06,38.11,127.89,37.52,127.57,37.35Z"/><path class="cls-1" d="M127.07,36c-.08.06-.39.37-.17.46a6.15,6.15,0,0,0,.94.31.8.8,0,0,0,.68-.24c.12-.11.23-.35,0-.41a5.09,5.09,0,0,1-.79-.25A.69.69,0,0,0,127.07,36Z"/><path class="cls-1" d="M127.76,35.45a1,1,0,0,0,.67.44.82.82,0,0,0,.68-.24c.11-.1.24-.37,0-.42a.61.61,0,0,1-.42-.26C128.46,34.65,127.56,35.16,127.76,35.45Z"/><path class="cls-1" d="M129.6,34.3c-.27-.37-1.18.13-.92.48a1,1,0,0,0,1,.52.7.7,0,0,0,.58-.44c.06-.23-.18-.35-.38-.32S129.68,34.4,129.6,34.3Z"/><path class="cls-1" d="M131.09,33.72c-.07,0-.1,0-.16-.05-.25-.34-1.15.18-.92.48a.79.79,0,0,0,.85.26.75.75,0,0,0,.58-.42C131.52,33.76,131.26,33.69,131.09,33.72Z"/><path class="cls-1" d="M132.53,32.62l0,0a.48.48,0,0,0-.62-.07c-.15.08-.45.35-.3.55a.84.84,0,0,0,1.12.22c.18-.08.42-.33.3-.55S132.7,32.58,132.53,32.62Z"/><path class="cls-1" d="M133.81,32.11a.76.76,0,0,0-.68.24c-.12.12-.22.37,0,.44a1.33,1.33,0,0,0,.56.06.75.75,0,0,0,.58-.42c.08-.24-.18-.28-.35-.26C134,32.15,133.79,32.1,133.81,32.11Z"/><path class="cls-1" d="M135.92,30.93l0,0c-.18-.13-.46,0-.63.1h0a.78.78,0,0,0-.59.42c-.08.22.17.3.34.26a2,2,0,0,0,.74-.31A.54.54,0,0,0,136,31a.3.3,0,0,0,.18,0c1.56-.05,4.26-.51,5.34.93.25.33,1.15-.18.93-.48-1.22-1.64-4-1.21-5.8-1.15A1,1,0,0,0,135.92,30.93Z"/><path class="cls-1" d="M139.34,28.73c-.47.14-.7.76,0,.56,1.85-.56,4.54-1.5,6.28-.27.28.2,1.14-.36.83-.58C144.46,27,141.41,28.11,139.34,28.73Z"/><path class="cls-1" d="M145.55,26.14a.84.84,0,0,0-.65.34c-.11.17,0,.38.19.36a10.32,10.32,0,0,0,3.62-.48c.58-.26.3-.76-.26-.51A8.63,8.63,0,0,1,145.55,26.14Z"/><path class="cls-1" d="M148.66,25.09c-.29,0-1.07.66-.5.63,1.25-.06,2.64.27,3.74-.5.58-.41-.07-.54-.45-.27a2.56,2.56,0,0,1-1.36.16C149.61,25.11,149.14,25.07,148.66,25.09Z"/><path class="cls-1" d="M153,23.34c-.57.22-1.24,0-1.83.19a1,1,0,0,0-.6.4c-.11.21.18.2.3.17a20.57,20.57,0,0,0,2.07-.27c.17-.06.48-.22.5-.43S153.12,23.31,153,23.34Z"/><path class="cls-1" d="M176.07,40.84a3.81,3.81,0,0,1-.1,2.94c-.13.2.18.15.28.13a1.11,1.11,0,0,0,.6-.38,4.05,4.05,0,0,0,.15-3.16C177,40.18,176,40.55,176.07,40.84Z"/><path class="cls-1" d="M128.56,40.61a1.9,1.9,0,0,0-.67-.3.85.85,0,0,0-.68.25c-.1.1-.24.36,0,.4a1.44,1.44,0,0,1,.52.24C128,41.38,128.88,40.81,128.56,40.61Z"/><path class="cls-1" d="M133.71,53.66c.39-.09.91-.82.24-.67C133.56,53.07,133,53.81,133.71,53.66Z"/><path class="cls-1" d="M129.56,44.19c.23.38,1.14-.12.92-.48a9.29,9.29,0,0,0-.7-1,.48.48,0,0,0-.61,0c-.13.07-.46.33-.32.52A9.38,9.38,0,0,1,129.56,44.19Z"/><path class="cls-1" d="M132.51,51c.36-.08.93-.79.26-.64C132.41,50.41,131.84,51.12,132.51,51Z"/><path class="cls-1" d="M131.72,45.38a.74.74,0,0,1-.13-.3c-.05-.23-1,.16-.92.48a.72.72,0,0,0,.13.3C131,46.11,131.87,45.58,131.72,45.38Z"/><path class="cls-1" d="M131.84,48.24c.22,0,1-.67.54-.56C132.17,47.73,131.35,48.35,131.84,48.24Z"/><path class="cls-1" d="M131.17,38.88c-.21,0-1,.65-.55.55C130.83,39.38,131.66,38.77,131.17,38.88Z"/><path class="cls-1" d="M136.73,46.27c-.42.09-.89.86-.22.72C136.93,46.9,137.4,46.13,136.73,46.27Z"/><path class="cls-1" d="M137.08,47.69c.55-.12.61-.86-.06-.71S136.41,47.84,137.08,47.69Z"/><path class="cls-1" d="M134.43,40.92c-.33.07-.95.73-.29.59C134.47,41.43,135.09,40.77,134.43,40.92Z"/><path class="cls-1" d="M175.84,34.18a4.9,4.9,0,0,1,.71,2.41c0,.29.93-.08.94-.37a5.09,5.09,0,0,0-.73-2.52C176.63,33.44,175.71,33.93,175.84,34.18Z"/><path class="cls-1" d="M176.56,32.81a5.58,5.58,0,0,1,.95,2.06c0,.17,1-.22.92-.48a5.56,5.56,0,0,0-.95-2.06C177.32,32.12,176.45,32.67,176.56,32.81Z"/><path class="cls-1" d="M179.86,33.19a34.17,34.17,0,0,0-2.48-4.39c-.24-.3-1.13.23-.92.48a34.49,34.49,0,0,1,2.48,4.39C179.12,34,180,33.49,179.86,33.19Z"/><path class="cls-1" d="M158.58,26c-.52,0-.84.89-.16.83a4.76,4.76,0,0,1,5.24,2.65,20.27,20.27,0,0,1,2.12,5.64c.13.54,1.1.19,1-.28a19.47,19.47,0,0,0-3.25-7.47C162.38,25.84,160.26,25.81,158.58,26Z"/><path class="cls-1" d="M170.41,28.82c.18.42,1.12,0,.93-.48a10.3,10.3,0,0,0-3.54-4A23.3,23.3,0,0,0,162.72,21c-.4-.16-1.16.52-.64.73a23.3,23.3,0,0,1,4.46,2.86A10.37,10.37,0,0,1,170.41,28.82Z"/><path class="cls-1" d="M193.57,27.3c.07-.24-.18-.34-.37-.31-.34.05-.78.2-1.09,0s-1.19.32-.81.62a2.12,2.12,0,0,0,1.69.15A.7.7,0,0,0,193.57,27.3Z"/><path class="cls-1" d="M194.91,26.29c-.42.09-.89.87-.22.72C195.12,26.92,195.58,26.14,194.91,26.29Z"/><path class="cls-1" d="M196.13,26.06c-.55.12-.61.86.06.71S196.79,25.92,196.13,26.06Z"/><path class="cls-1" d="M193.54,30.35c.56-.12.59-.89-.07-.74S192.87,30.49,193.54,30.35Z"/><path class="cls-1" d="M195,30.33c.39-.09.91-.83.24-.68C194.8,29.74,194.29,30.48,195,30.33Z"/><path class="cls-1" d="M200.79,30.36c.15-.11.32-.39.13-.54a6.75,6.75,0,0,0-2-1.22.77.77,0,0,0-.75.28c-.08-.1-.28-.08-.47,0a2.78,2.78,0,0,1-.18-.69.33.33,0,0,0,0-.07l-.06-.28a2.09,2.09,0,0,0-.06-.26.15.15,0,0,0-.08-.09,1.73,1.73,0,0,0,.66-2.39c-.38-.75-1.63-.26-2.18-.06l-.56.23a.37.37,0,0,0,.07-.26c-.06-.37-.07-.46-.21-.62A3.58,3.58,0,0,0,193.79,21c-.49-.33-.44-1.1-1.16-1.15a4.5,4.5,0,0,0-1.59.22c-.2-1.22.19-2.38-1.58-2.34a2,2,0,0,0-1,.29,2.09,2.09,0,0,0-.45-.84c-.71-.83-2-.58-2.41-1.77-.15-.44-1.09,0-.92.48h0a.41.41,0,0,0-.13.14,8,8,0,0,0-.64,3.72c.11,1.4,1.27,2.33,1.33,3.75a1.06,1.06,0,0,0-1,1.42c.07.38,1,0,1-.35-.12-.64-.24-.49.24-.2a3.15,3.15,0,0,1,1.07,1.18c.05.09.1.19.14.29a10.48,10.48,0,0,0-1.19-.69c-.16-.08-.49.08-.7.25l-.05-.1c0-.1-.17-.12-.31-.1s-.06-.17-.2-.21a13.81,13.81,0,0,1-1.7-.64,3.14,3.14,0,0,1-.45-.73c-.14-.27-.59-.14-.81.1-3.51-1.91-6.46-4.82-10.51-5.79a14.73,14.73,0,0,0-3.61-.36,22.2,22.2,0,0,0-12.19,1.54l-.55,0a.59.59,0,0,0-.51.37.43.43,0,0,0-.48,0c-3.21,2-7,2.73-10.26,4.6-4,2.26-7.69,4.68-11.88,6.56-2.31,1-4.65,2-7,2.87,0-.24,0-.47-.07-.69a20.48,20.48,0,0,1,.09-2.44.83.83,0,0,0,.55-.11,3.64,3.64,0,0,0,.52-.33,2.42,2.42,0,0,0-.68,2.35l-.17.12c-.55.31-.27.86.29.55l.2-.13a1.24,1.24,0,0,0,.73-.45l.08-.18,0-.05c.28,0,.73-.28.75-.51l0-.5a28.68,28.68,0,0,0,1.66-3.79,26,26,0,0,0,2.61-10.88h0a1.37,1.37,0,0,0,1-.89.47.47,0,0,0,.54.37.74.74,0,0,0,.43-.21,3.31,3.31,0,0,0,1.33,0h0a.46.46,0,0,0,.39,0l0,0,.11,0,0,0s0,0,0,0h0l.08,0,.19.06h.08a3.82,3.82,0,0,0,1.62.26.93.93,0,0,0,.33-.09l.18,0c.6-.12,4.46-.37,4-1.61,0-.08-.13-.08-.25-.06-.12-1.32-1.1-.61-2.13-.87-.29-.07-1.38-1.14-.16-1.26a4.54,4.54,0,0,0,1-.12,3.1,3.1,0,0,0,1.15-.62c.51-.43-.39-.22-.61,0-.6.5-2.82,0-3,1.25-.2,1.45,1.15,1.27,2.05,1.46l-.27,0-.08,0a1.09,1.09,0,0,0-.84-.11,2.72,2.72,0,0,1-1.23,0h0l-.29-.12-.14-.07a5.19,5.19,0,0,0-3-.59l-.16-.35c-.26-.58-.53-1.17-.77-1.76l.14-.07a.22.22,0,0,0,0,.09c.12.22.44.15.62.06a13.4,13.4,0,0,1,1.92-.81.61.61,0,0,0,.26-.16,12.6,12.6,0,0,0,1.36.07c.44.14.53.79,1,.92a14.52,14.52,0,0,0,1.87.16c.29,0,1.09-.56.7-.61-.79-.11-1.67.16-2.24-.54a1.19,1.19,0,0,0-1-.6c-.28,0-1.22.32-.89-.53a3,3,0,0,1,1.12-1.18,4.21,4.21,0,0,0,1.18-1.16.13.13,0,0,0,0-.18c-1.25-.88-2.85.09-4.17.25a.59.59,0,0,0-.19.07l0-.05a3.33,3.33,0,0,0,1.14-1.32c.17-.38.48-1.22,0-1.45-.3-.13-.56-.09-.84-.3a2.75,2.75,0,0,0-.73-.4,2.57,2.57,0,0,0-2,.49c.06-.57,0-1.17.07-1.72a1.51,1.51,0,0,0-.2-1A2.52,2.52,0,0,1,131,.32a.16.16,0,0,0,0-.18c-.06-.29-.68-.08-.88.19-.58.27-1.31.69-1.18.74a.72.72,0,0,0-.81.5c-.09.53-.43,1-.5,1.48a5.52,5.52,0,0,0,.1,1.91,13.81,13.81,0,0,1,.61,4c0,.39.92,0,1-.33a9.89,9.89,0,0,0-.51-3.58,4.26,4.26,0,0,1-.09-2.6c.09-.23.17-.44.24-.64.46-.12.67-.66,1.15-.91a2.93,2.93,0,0,0,.09.44c.13.46.49.71.53,1.2a4.37,4.37,0,0,1,0,.72c-.1-.21-.74,0-.89.21a4.59,4.59,0,0,0-.36,2.87c.09.9.16,1.8.23,2.7-.23.09-.43.27-.42.48a2.68,2.68,0,0,0,.24,1,9.12,9.12,0,0,0-.62-.79c-1-1.06-2.22-.9-3.52-.63a.85.85,0,0,0-.51.44c-2.36-1.4-4.76-2.7-7.13-4.14-3.31-2-6.37-4.49-10.41-4.8-4.56-.35-9.49.81-14,1.6C89,2.94,86,4.7,82.39,7a.49.49,0,0,0-.23.24A8.19,8.19,0,0,0,79.33,9a.7.7,0,0,0-.23,0,14.19,14.19,0,0,0-5.2,2.86c-2.26,1.72-4.86,2.7-7.3,4.13-2.29,1.34-4.39,3-6.7,4.28s-5.16,2-7.64,3.2c-2.3,1.12-4.36,2.73-6.53,4.05A42.33,42.33,0,0,1,37.25,31C32,32.81,26.69,34.41,21.77,37c-.41.22-.35.6-.07.67.07.11.22.18.45.12l0,0a.51.51,0,0,0,.46-.07q1.94-1,4-1.83l-.66.32c-.33.18-.35.48-.2.64a26.67,26.67,0,0,0-8.25,3.94c-3.51,2.56-5.17,7.32-7.38,10.88C7.6,55.8,4.35,59.39,3,64.14c-.15.54.84.31,1-.1,1.08-3.87,3.47-7,5.74-10.29,2.43-3.48,4.05-7.48,6.72-10.8,2.79-3.48,7.57-4.89,11.75-5.85a47.93,47.93,0,0,1,12.65-1c.44,0,1.06-.75.43-.78a50.18,50.18,0,0,0-14.08,1.22,17.47,17.47,0,0,1,8.39-1.61c.48,0,1-.75.41-.82a16,16,0,0,0-4.35.25,28.69,28.69,0,0,1,9-.75c.29,0,1.09-.59.69-.62a28.92,28.92,0,0,0-5.74.12l.11,0c2-1,4.88-.69,7.09-.78a1.09,1.09,0,0,0,.67-.48A21.49,21.49,0,0,1,53.18,33c.31.14,1.12-.45.83-.58a22,22,0,0,0-10.67-1.27,1.33,1.33,0,0,0-.6.4c-2.39.05-5.16-.11-7.31,1-.4.2-.38.49-.15.55a33.29,33.29,0,0,0-5.55,1.21c2.8-1,5.65-1.93,8.48-2.89a48.28,48.28,0,0,0,7.07-2.87l.32-.18a.26.26,0,0,0,0,.12c-.4,0-1,.43-.63.69l.13.08-.23.08a2.23,2.23,0,0,1-.66,0,.82.82,0,0,0-.65.34.2.2,0,0,0,0,0l-.1,0c-.41-.08-.87.48-.61.72a8.2,8.2,0,0,0-1.52.12.56.56,0,0,0-.45.53c0,.27.33.29.54.25a7.46,7.46,0,0,1,1.35-.07c.39,0,.65-.44.51-.68l.3.07A.63.63,0,0,0,44.3,30a1.93,1.93,0,0,0,.88-.18l0,0,.15,0c6.34-1.33,12.35-.79,17.8,2.9.3.21,1.16-.37.83-.59-5.45-3.69-11.53-4.3-17.84-3.07a.36.36,0,0,0,.08-.37,2,2,0,0,0,.7-.06.61.61,0,0,0,.44-.45,1.9,1.9,0,0,0,1.4-.46.5.5,0,0,0,.1-.15.86.86,0,0,0,.47-.14c.18-.11.42-.33.29-.57a.29.29,0,0,0-.16-.13,1.59,1.59,0,0,0,.5-.06,1,1,0,0,0,.6-.39c.11-.2-.18-.19-.29-.16a1.15,1.15,0,0,1-.47,0,1,1,0,0,0-.66.27c-.09.08-.27.3,0,.33h.07l-.08,0-.1-.06a.53.53,0,0,0-.52,0c1.12-.74,2.22-1.49,3.37-2.15a28.37,28.37,0,0,1,4.59-2,.68.68,0,0,0-.25.24.25.25,0,0,0,0,.08l-.09,0a.79.79,0,0,0-.58.24.52.52,0,0,0-.1.19.75.75,0,0,0-.59.15.89.89,0,0,0-.2.2l-.1-.09c-.31-.27-1.06.22-.85.56a.64.64,0,0,0-.22,0,.49.49,0,0,1-.14-.07c-.37-.26-1.21.34-.8.63l.05,0a3.18,3.18,0,0,1-.54-.1c-.27-.08-1.1.49-.7.6a3.31,3.31,0,0,0,.79.12,1,1,0,0,0,.67-.26.58.58,0,0,0,.14-.2,1.09,1.09,0,0,0,.89-.17.46.46,0,0,0,.21-.37,1.07,1.07,0,0,0,.87,0,.57.57,0,0,0,.33-.39h0a.85.85,0,0,0,.56-.36,1.19,1.19,0,0,0,.69-.25.67.67,0,0,0,.17-.19,3.87,3.87,0,0,0,1-.21.68.68,0,0,0,.45-.41l.2,0a1.06,1.06,0,0,0,.46-.23h0a2.7,2.7,0,0,0,.52-.22c.09-.06.46-.25.37-.42s-.46,0-.56.06-.11.06-.08,0a1.28,1.28,0,0,0-.42.22h0a1,1,0,0,0-.67.26l0,0a.65.65,0,0,0-.28,0,2,2,0,0,1-.72.15l-.16,0c.63-.23,1.26-.47,1.87-.72a39.32,39.32,0,0,0,6.38-3.82c2.38-1.58,5-2.64,7.42-4,2.16-1.23,3.79-3.09,6.15-3.91-.2.24-.24.54.2.46A6.24,6.24,0,0,0,81.1,9.3h0A7.48,7.48,0,0,1,83,9.89a.65.65,0,0,0,.66-.12c.1-.07.38-.38.16-.48a7.87,7.87,0,0,0-2-.64,2.15,2.15,0,0,1,.65-.37l.23-.1a16,16,0,0,1,2.84.49c.35.09,1.15-.55.67-.67a18.19,18.19,0,0,0-2.69-.48c.05-.13.05-.29-.12-.34l-.26-.05c1.4-.88,2.75-1.85,4.21-2.62a14.55,14.55,0,0,1,3.67-1.27c-.26.23-.3.66.19.66,2.83,0,5.48-.83,8.25-1.33,3.24-.58,6.62.06,9.85.41.47.05,1.05-.73.41-.8a64.46,64.46,0,0,0-8.26-.6c-.36,0-.71,0-1.06.06a23,23,0,0,1,8-.06c3.65.77,6.57,3.37,9.72,5.19,2.81,1.61,5.58,3.12,8.27,4.88l-.15,0-.24-.24c-.29-.26-1.16.3-.82.61a9.22,9.22,0,0,1,2.83,7.27c-.34-1.56-.85-3.15-2-4-.21-.15-1,.4-.85.54a5.36,5.36,0,0,1,1.49,2.59,16,16,0,0,1,.73,2.69q-.12.56-.21,1.12c-.19-1.24-.32-2.5-.59-3.73,0-.14-.92.23-.92.44,0,0,0,0,0,0h0c0,.54,0,1.07.07,1.6a1,1,0,0,0-.35.29c-.1.29-.19.57-.27.86l-.3.13A7.54,7.54,0,0,0,124,19c-.1-.19-.9.26-.93.44a36.38,36.38,0,0,1-1.42,5.6,29,29,0,0,0-.81-5c0-.13-1,.23-.92.48a24.11,24.11,0,0,1,.81,6.94,8.07,8.07,0,0,0-.65,3.39h0s0,0,0,0,.87-.27.93-.44a11.68,11.68,0,0,0,.37-1.36,17.2,17.2,0,0,1-.2,2.73c-.06.33.89,0,1-.35a27.48,27.48,0,0,0,.21-4.13c0,.82,0,1.67,0,2.49,0,.63.08,1.27.12,1.92-.77,1-1.83,1.78-2.7,2.76-.45.51.42.46.68.16.65-.74,1.39-1.33,2.05-2,0,.08,0,.16,0,.24a3.34,3.34,0,0,0-.31,1.42c-2,.72-3.94,1.42-5.92,2.12,2-1.37.87-3.88,1.38-5.86.14-.54-.85-.3-1,.11-.43,1.62.63,4.26-1,5.33-.44.28-.16.57.2.56-1.76.62-3.51,1.24-5.26,1.87a5,5,0,0,0,1.18-2.51c.18-1.07-.09-2.31.16-3.36,0,.25.08.49.13.74s.26.26.49.2c.13,1.24.4,2.42-.48,3.46-.45.52.43.74.77.34a3.69,3.69,0,0,0,.85-2.78c0-.56-.13-1.12-.19-1.68a8.92,8.92,0,0,1,.26-2.61c.11-.59-.89-.4-1,.07,0,.17-.06.34-.09.51-.07-.51-.14-1-.23-1.54.26-.08.53-.27.53-.45a36.08,36.08,0,0,0-1.58-10c-.08-.28-1,.13-.92.48A40.8,40.8,0,0,1,112,27.21c-.07-.24-.16-.48-.26-.71-.17-.41-1.1.06-.92.48a19.07,19.07,0,0,1,1,4.77.72.72,0,0,0-.37.07,17.37,17.37,0,0,0-.32-1.76c-.2-1-.14-2-.34-3-.08-.44-1,0-1,.33a22.12,22.12,0,0,1,.29,2.7,21.78,21.78,0,0,1,.4,2.8c0,.19.19.21.42.14-.33,1.81.27,3.64-1.16,5.26-.22.25-.12.42.08.49q-1.69.62-3.37,1.26a.5.5,0,0,0,.19-.17c1.1-2.22.95-5,.6-7.41,0-.34-1,.09-.94.37a18.58,18.58,0,0,1,.18,4.56l-.05,0-.57.34a11.5,11.5,0,0,0-.32-3.3c-.06-.22-1,.16-.93.48a10.54,10.54,0,0,1,.23,2.73c0,.15,0,.34,0,.56l-.07-.06c-.2-.21-.61,0-.79.19s-.29.25-.43.39a22.32,22.32,0,0,1-.61-2.17c-.08-.28-1,.15-.94.42.08.94.3,2.17-.37,3-.36.42.62.16.8-.06a2.26,2.26,0,0,0,.29-.43c0,.05,0,.11.07.16.12.25.67-.09.79-.19s.36-.34.54-.51a1.57,1.57,0,0,1,.16.17c.1.13.31.09.5,0a2,2,0,0,1-.54,1.32c-.57.42.06.48.42.21a3.34,3.34,0,0,0,1.15-2.29l.6-.36a7.66,7.66,0,0,1-.66,2.14c-.07.14,0,.17.2.14l-1.32.52c-.35.14-.47.55-.33.73A33.91,33.91,0,0,0,99,43.62l-.78.41c1.55-1.87.18-5.84.55-7.93.1-.56-.88-.31-1,.11a13.7,13.7,0,0,0,0,3.3c.07,1,.55,4-.68,4.54-.38.16-.52.64-.28.74a14.66,14.66,0,0,0-4.75,4.33,8,8,0,0,0,.25-1.1c.18,0,.82-.19.89-.43.67-2.46,0-4.91-.21-7.4a26.59,26.59,0,0,0-.48-4.52c.29,0,.66-.27.64-.54a54.08,54.08,0,0,0-1.47-7.86c-.11-.49-1.07-.1-1,.31a66.65,66.65,0,0,1,1.37,6.79c-.07-.16-.14-.33-.22-.48s-1,.26-.93.48c1.13,2.08,1,4.52,1.18,6.83.15,2.09.66,4.11.29,6.17a21.47,21.47,0,0,0-.34-5c0-.17-1,.17-.92.48.37,2.39.76,5.41-.4,7.65-.11.21.29.12.59,0l0,.05c-.26.6.71.59.9.14,1.41-3.28,4.66-5.16,7.71-6.71a31.55,31.55,0,0,1,12.38-3.21,14.76,14.76,0,0,1,11.38,3.69c3,2.57,2.91,7,5.15,10.07.3.42,1.22-.08.92-.48-2.5-3.45-2.42-7.81-5.84-10.72a15.06,15.06,0,0,0-11.45-3.39,39.34,39.34,0,0,0-6.31,1c7.82-3.05,15.84-5.55,23.59-8.77a81.24,81.24,0,0,0,12.08-6.37c3.44-2.16,7.37-3.11,10.88-5a3,3,0,0,0-.52.8c-.1.23.2.32.36.29a6.51,6.51,0,0,0,1.44-.46c-.27.29-.39.56-.2.74a10.22,10.22,0,0,0-1.81,0c-.52.08-.83.93-.16.83,1.85-.27,3.81.28,5.55-.58.58-.29.23-1-.36-.68a4.36,4.36,0,0,1-1.71.39c.33-.11.64-.23.91-.31a70.39,70.39,0,0,1,7.12-1.64.84.84,0,0,0,.52-.42A19.67,19.67,0,0,1,167,20.93c1.36.56,3,1.13,3.86,2.38.3.42,1.21-.07.92-.48a7.83,7.83,0,0,0-3.47-2.37A27.51,27.51,0,0,0,165,19.15c2.43-.15,4.43.58,6.84.88.34,0,.78-.39.68-.63A16.32,16.32,0,0,1,175,20.67a7.84,7.84,0,0,1-2-.53c-.37-.18-1.15.47-.64.71,1.58.76,3.39.6,4.88,1.59,1.21.81,1.84,2.28,3,3.28l-1.12-.05c-.18,0-1.05.47-.78.57a37.29,37.29,0,0,0,3.84.78l0,0c-.37,0-.74.1-1,.13a16.34,16.34,0,0,1-2.93.35l-.44-.07c-.24,0-1.09.5-.71.59a3.59,3.59,0,0,0,.59.09,16.53,16.53,0,0,0,2.1.14.38.38,0,0,0-.09.14c-.29,0-.73.3-.72.47a.33.33,0,0,1,0,0h0a1.38,1.38,0,0,0,.05.29c-.2.14-.43.35-.16.39a3.68,3.68,0,0,0,.47,0l.11.09h.06c.29.65.42,1.37.76,2,.11.21,1-.28.92-.48a5,5,0,0,1-.33-.78c.26-.08.57-.26.59-.42s0-.26,0-.4a1.6,1.6,0,0,0,.57-.39,1.73,1.73,0,0,0,.09-.19l.36-.13a.9.9,0,0,0,.32-.11l.51-.17c-.09.11,0,.2.13.16l.13,0a1.41,1.41,0,0,0,.61-.31,3.37,3.37,0,0,0,.4.74.34.34,0,0,0-.15.22c0,.32,0,.63,0,.94-.27-.09-.88.29-.83.55.09.47.21.93.32,1.39-.29,0-.73.34-.69.56.25,1.35,1.94,5.37.48,6.35a.59.59,0,0,0-.23.22c-.07-.16-.31-.16-.53-.06a27,27,0,0,1-.5-5.42c0-.18-.91.15-.93.4a39.29,39.29,0,0,0,.63,6.49s.19,0,.39-.06c0,.69-.06,1.39-.14,2.1a.76.76,0,0,0-.55.33,16.6,16.6,0,0,1-1.12,1.77c-.14.15-.18.42.05.5a.68.68,0,0,0,.69-.22,5.84,5.84,0,0,0,.77-1.16,24.71,24.71,0,0,1-2.13,6.91c-.28.57.68.46.87.08.28-.58.54-1.18.77-1.79.3-.18.64-.53.17-.44a26.19,26.19,0,0,0,1.17-4.29.58.58,0,0,0,.21,0,.91.91,0,0,0,.6-.4c0-.09,0-.19.07-.28s-.17-.22-.31-.18a1.18,1.18,0,0,0-.46.22,24.7,24.7,0,0,0,.31-4.37.69.69,0,0,0,.63-.1l.11-.09c0,.29-.08.59-.13.89-.1.58.89.37,1-.09s.13-1,.21-1.45c0-.25-.12-.35-.33-.35a3.3,3.3,0,0,0,.18-.92,1.2,1.2,0,0,0,.11.21.25.25,0,0,0,.25.14v.26c0,.45,1,.05,1-.33a5.89,5.89,0,0,1,.07-1.35,10.91,10.91,0,0,0,.38-1.76,6.8,6.8,0,0,0,.21-2.37.22.22,0,0,0-.25-.2c.06-.16.11-.32.18-.49s.34-.23.37-.35a1.3,1.3,0,0,0,.29-.12,33.93,33.93,0,0,1-.55,4.23c-.47,2.6-.65,5.32-1.2,7.91a11.76,11.76,0,0,1-3,3.3c-.55.42.09.69.51.37a13.53,13.53,0,0,0,2-1.9,24.26,24.26,0,0,1-3.86,6.43,32.26,32.26,0,0,1-6.12,6.89c-.56.42.09.64.49.33a37.45,37.45,0,0,0,9.76-12.22,12.83,12.83,0,0,0,1.09-3.28L187,43c1-1.62.94-3,1-4.83,0-.19-.2-.22-.42-.15,0-.16,0-.32.08-.48.36-2.14.8-4.22,1-6.32,1.54-.78.59-2.9-.18-4.43v-.08a.19.19,0,0,0-.09-.13c-.14-.28-.28-.54-.38-.76,0-.06-.11-.07-.22,0a4.29,4.29,0,0,0-1.3-1.86,2,2,0,0,0-.47-.28c.11-.07.19-.16.2-.23a6.23,6.23,0,0,0-1.06-3.2,5,5,0,0,1,0-3.59,3.54,3.54,0,0,0,1.19.69c.68.28,1.2.61,1.29,1.42a9.55,9.55,0,0,1-.21,1.67c0,.2.15.26.34.23h0a13.15,13.15,0,0,0,0,2.7c.05.29.45.24.71.08,0,.11,0,.22,0,.33.09.47,1,.07,1-.32-.16-.88-.08-1.78-.19-2.66,0-.24-.27-.26-.5-.16,0-.07,0-.14,0-.21a9.11,9.11,0,0,1,1-.24c0,.91.25,1.5,1.34,1.36l.29-.05a10.58,10.58,0,0,0-.87,2.17,13.66,13.66,0,0,0-1.11,2.81c-.07.57.91.31,1-.11a3.17,3.17,0,0,1,.09-.44l.14,0a3.81,3.81,0,0,0,1.41-.8c0,.84.11,1.5,1.38,1.25l.35-.1a1.32,1.32,0,0,0,.29.07.8.8,0,0,0,.65-.34.27.27,0,0,0,.05-.17c.87-.38,1.83-.75,2.27-.22a1.69,1.69,0,0,1,.16,1.22.43.43,0,0,1-.07.21.72.72,0,0,0-.35.06.6.6,0,0,0-.24,0,1.66,1.66,0,0,0-1.08.7c-.33.56.12,1.29.43,1.74a1.56,1.56,0,0,0,.76.55s0,0,0,.06c0,.26.33.25.52.21l.16,0,.09,0c.27,0,.55.09.79.16a.7.7,0,0,0,.44-.13l.09.21a4.84,4.84,0,0,1-2.43-.18.45.45,0,0,0-.24,0h0a.41.41,0,0,0-.25,0,.49.49,0,0,0-.37,0c-.57.13-.58.91.08.76l.08,0h.12a.37.37,0,0,0,.2.1,5.43,5.43,0,0,0,3.07,0h0a2.51,2.51,0,0,1-2,.8c-1.71-.2-5.5-.05-6.58-1.51-.22-.29-1.11.23-.93.48.69.92,2,1.05,3,1.19a40.25,40.25,0,0,0,4.44.54,2.59,2.59,0,0,0,2.39-.94c.31-.56,1.11-.39,1.62-1,.2-.21,0-.25-.21-.21a.33.33,0,0,0,0-.15C200.68,30.47,200.72,30.46,200.79,30.36ZM46.55,27.83v0h0Zm1.63-.54.12.08-.15.1h0a1.2,1.2,0,0,1-.26,0,2.1,2.1,0,0,1-.54-.09h-.07l1-.63C48.12,26.88,48,27.15,48.18,27.29Zm5-3,.11-.06ZM80.94,8.48a3.94,3.94,0,0,1-.86.7C80.34,8.95,80.63,8.7,80.94,8.48ZM91.86,3.06c1-.2,2-.35,3-.5s1.74-.29,2.63-.45A32.6,32.6,0,0,1,91.86,3.06Zm32,21.85c-.27.08-.55.29-.51.48s.09.47.13.71a1.13,1.13,0,0,0-.26.19,4.87,4.87,0,0,0-.57-1.81l0,0a28.47,28.47,0,0,0,1-3.54A13.6,13.6,0,0,1,123.91,24.92Zm.59,3.94q.06-.35.09-.7c.26-.07.73-.28.75-.44a27.84,27.84,0,0,0,.19-4c.07-.43.15-.87.25-1.3.1.49.18,1,.27,1.47,0,.05.2,0,.4-.07q.08.39.17.77c-.26.09-.55.32-.55.49s0,.28,0,.42l-.11.2a7.38,7.38,0,0,0-.56,3.23l-.29.43C124.77,29.79,124.6,29.38,124.5,28.86Zm1.8-18.45a5.84,5.84,0,0,1,.65.22,1,1,0,0,1,.47.5Zm2.83,9.33c-.1.76-.19,1.52-.37,2.27l-.08,0a16.79,16.79,0,0,0,.29-2Zm-1.2,4.47c-.09.31-.19.61-.29.89l-.13-.1c.11-.07.19-.15.2-.2s0-.35.06-.52Zm1.46-8.69c0-.19-.09-.37-.15-.56.07.17.14.34.2.51Zm-2.64,13.67c.11-.15.22-.3.31-.46-.11.26-.22.51-.34.76C126.74,29.37,126.75,29.27,126.76,29.17Zm.72-1.47a4.15,4.15,0,0,0,0-1.31,1.09,1.09,0,0,0,.52-.25C127.86,26.63,127.68,27.16,127.47,27.7Zm3.41-15.32a4.55,4.55,0,0,1,.84,1.32c0,.17.07.34.11.51l0,.05,0,.06a8.09,8.09,0,0,0-.73-1.7C131,12.55,130.94,12.47,130.89,12.38Zm-.18-2.63h.14a2,2,0,0,0,0,.36c0,.14.1.22.23.25.07.33.14.65.21,1-.14-.17-.27-.33-.4-.51C130.8,10.47,130.75,10.11,130.71,9.75Zm7.81,5.76h.14Zm-.72.11h0Zm-5.94-.9.23-.06h0l0,0a.81.81,0,0,0-.21.15S131.87,14.76,131.86,14.72Zm5.47,1h.07l-.05,0ZM135,15.31a.18.18,0,0,0-.05-.06l-.08-.07.21.11Zm3.57-.4.4,0a.88.88,0,0,0,.25-.06.26.26,0,0,0,.11.11l-.34,0c-.76.08-2,.5-2.66.07.58.09,1.34-.34,1.76,0C138.2,15,138.4,15,138.58,14.9Zm-3.88-.57a8.43,8.43,0,0,0-1-.1l0-.14A4.38,4.38,0,0,1,134.7,14.33Zm2.44-7.15c.89.14-.7,1.12-1,1.38a3.36,3.36,0,0,0-.89,1.3s0,.07,0,.1h0a15.1,15.1,0,0,0-2.18.91h0c.38-1,.93-1.89,1.29-2.88.15-.41-.8-.07-.91.21-.31.84-.75,1.63-1.11,2.45a11.57,11.57,0,0,1-.37-1.21,3.63,3.63,0,0,1,1.28-1.31.49.49,0,0,0,.2-.41.47.47,0,0,0,.37,0h.09C134.92,7.61,136,7,137.14,7.19Zm-3.83-2.65a4.8,4.8,0,0,0,.83.5,1.47,1.47,0,0,0,.39,0,2.58,2.58,0,0,1-.11.6,2.05,2.05,0,0,1-.83,1.08c-.21.17-.24.31-.18.41a.42.42,0,0,0-.16.36.58.58,0,0,0-.67.07,8.25,8.25,0,0,0-1.07.93A14,14,0,0,1,131.7,5c0-.07,0-.1-.14-.1l0-.06h0C132.19,4.59,132.69,4.16,133.31,4.53Zm-2.66-1,0,0c0,.06,0,.12,0,.18A6.64,6.64,0,0,1,130.57,5c0,.13,0,.18.12.22l.13.05h0a.29.29,0,0,0-.08.13,11.29,11.29,0,0,0-.21,2.52c0-.25,0-.51,0-.77C130.47,6,130,4.63,130.65,3.5Zm-.88,9.09c.34.34,1.73,3.06,1.06,3.28h0c0-.18-.24-.2-.44-.14,0-.07,0-.14,0-.21a.29.29,0,0,0,.12-.27,12.43,12.43,0,0,0-1.29-2.72.18.18,0,0,0,0-.25L129,12.2a8,8,0,0,1-.39-.88,3.73,3.73,0,0,0-.17-.39A9.81,9.81,0,0,0,129.78,12.59ZM128,10.38a3.8,3.8,0,0,0-1.68-.75A2,2,0,0,1,128,10.38Zm-2.17-.71a1.57,1.57,0,0,0-.38.25l-.24-.14Zm61,17.62a.27.27,0,0,0,.25.05,11.35,11.35,0,0,1,.17,2.09,9,9,0,0,0-.82-1.56,10.93,10.93,0,0,0-1.21-1.42l-.26-.5A7.51,7.51,0,0,1,186.88,27.29Zm-2.93.58h0a.24.24,0,0,0,0,.09l0,.08-.31.09A1.36,1.36,0,0,0,183.95,27.87Zm-.17-2.11h0a.92.92,0,0,0-.26.23c-.1-.11-.19-.23-.28-.35l.33.11A.42.42,0,0,0,183.77,25.76Zm-2.39-.9c0,.13.09.26.12.39s-1.22-.74-1.25-.77a6.6,6.6,0,0,1-.52-.57C180.27,24.25,180.82,24.57,181.39,24.86Zm-24.91-5a.57.57,0,0,0-.29,0,10.48,10.48,0,0,0-1.92.77c-.88.43,0-.24.62-.7q.81,0,1.62-.12Zm6.81-1.95c-2.33.35-4.66.87-7,1.1A20.46,20.46,0,0,1,163.28,17.92ZM155,21.38a4.29,4.29,0,0,1,.39-.27c1.18-.24,2.38-.39,3.56-.58L157,21C156.88,21,155,21.33,155,21.38ZM161,20c.18-.14.33-.35.3-.47l1.28-.17c0,.12.08.21.29.23h.05Q161.95,19.83,161,20Zm9.44-1.13.14-.09a10.55,10.55,0,0,1,1.46.4C171.49,19.14,171,19,170.44,18.91ZM182.22,26v0l0,.07-.08,0Zm-1.48,2.23,0,0,0,0Zm4,6.5a.68.68,0,0,0,.27-.31,5.86,5.86,0,0,0-.18-2.52.81.81,0,0,0,.35-.36c0-.16.07-.32.09-.48l0,0c.15.16.44.06.66-.11l.15.19a.29.29,0,0,0,.18.08l.08.16a.56.56,0,0,0-.22.21,11.62,11.62,0,0,0-.7,4.95.94.94,0,0,0-.33.23A11.84,11.84,0,0,0,184.76,34.77Zm9.67-9.18a.36.36,0,0,1-.17-.17l0,0h0a.33.33,0,0,0,.21.16Zm-2.82-4.71a1.23,1.23,0,0,1-.45,0A1.94,1.94,0,0,1,191.61,20.87Zm-.25,3a12.29,12.29,0,0,1,1-2.4.56.56,0,0,1,.23.29,2.4,2.4,0,0,1,.09,1,2.86,2.86,0,0,0-.29.26c-.3.29-.08.34.19.28a1.22,1.22,0,0,1-.08.18c-.06.12,0,.17.1.18l-.21.07v0c.09-.24-.2-.36-.39-.34a.69.69,0,0,0-.57.44c-.06.18-.16.34-.22.52a.22.22,0,0,0,0,.11l-.06.07a.39.39,0,0,0-.1.19l-.11.12C191.06,24.51,191.22,24.2,191.36,23.87Zm1.53.4a2.53,2.53,0,0,0,.85-1.59,4.22,4.22,0,0,1,.23.72c-.25,0-.51.23-.52.44s0,.17,0,.25a.76.76,0,0,0-.32.33l-.07.15c-.08.15,0,.23.17.26a.29.29,0,0,0-.06.24c.05.19.06.47.12.69C192.85,25.59,192.89,24.88,192.89,24.27Zm6.92,6.06a.23.23,0,0,0-.14-.21v0l.21.16Zm-3.5-2.63c0,.08,0,.17,0,.27C196.24,27.83,196.25,27.73,196.31,27.7Zm1.84,2a.34.34,0,0,0,.09-.17l.1.22Z"/><path class="cls-1" d="M165.42,38.53c.22.67.49,1.32.77,2,.11.27,1-.19.92-.48-.27-.65-.55-1.29-.77-2C166.26,37.79,165.31,38.21,165.42,38.53Z"/><path class="cls-1" d="M167.6,40.25l.32.53c.24.4,1.16-.09.93-.48l-.32-.53C168.28,39.37,167.37,39.86,167.6,40.25Z"/><path class="cls-1" d="M179.89,49.73c-.2,0-1,.64-.56.53C179.54,50.22,180.37,49.63,179.89,49.73Z"/><path class="cls-1" d="M180.41,49.12v-.06c-.11-.51-1.08-.14-1,.3v.06C179.54,49.93,180.5,49.55,180.41,49.12Z"/><path class="cls-1" d="M181.26,46.09c0-.32-.94.06-.95.36a4.78,4.78,0,0,1-.54,1.92c-.09.21.17.21.3.18a.93.93,0,0,0,.6-.4A5.23,5.23,0,0,0,181.26,46.09Z"/><path class="cls-1" d="M184.51,42.36a6.53,6.53,0,0,0,.42-1.43c0-.27-.92.07-.94.37a6.72,6.72,0,0,1-.42,1.43c-.07.2.39.07.43,0A.82.82,0,0,0,184.51,42.36Z"/><path class="cls-1" d="M137.55,70.61a36.23,36.23,0,0,1-1,5.82c0,.13.84-.11.93-.39a36.25,36.25,0,0,0,1-5.82C138.51,70,137.59,70.34,137.55,70.61Z"/><path class="cls-1" d="M146.49,62.24a27.46,27.46,0,0,1,0,5.08c-.1,2.18-.05,4.46-1.21,6.39-.33.55.66.53.9.13a10.36,10.36,0,0,0,1.22-5,37.52,37.52,0,0,0,0-6.94C147.4,61.41,146.43,61.77,146.49,62.24Z"/><path class="cls-1" d="M144.36,70.33a18.53,18.53,0,0,0,.17-3.27c0-.46-.94-.11-1,.31a17.53,17.53,0,0,1-.16,3.08C143.27,71,144.26,70.72,144.36,70.33Z"/><path class="cls-1" d="M149.23,73.64c-.52.43.39.25.62.06a2.72,2.72,0,0,0,.87-1.92c.26-1.57.7-3.1,1-4.67,0,0,0-.06-.06-.08a7.74,7.74,0,0,0,.28-3.4c-.17-2.44-.29-4.93-.56-7.36,0-.16-1,.16-.93.48.09.81.13,1.62.16,2.43-.14-.88-.31-1.74-.49-2.54-.11-.5-1.06-.11-1,.31.66,3.08,1.46,7.25,0,10.29-.2-2.25-.16-4.48-.43-6.73,0-.13-1,.18-.92.48.23,1.85.16,3.69.31,5.54.06.69.13,1.38.18,2.06l0,0c-.21.25-.12.4.06.46a8.07,8.07,0,0,1-.48,3.53c0,.12.82-.11.93-.39a8.27,8.27,0,0,0,.49-3.66,9.14,9.14,0,0,0,1.66-5.4c.22,1.6.5,3.94-.68,5-.39.34.06.29.38.16-.14.75-.3,1.51-.47,2.26S149.91,73.09,149.23,73.64Z"/><path class="cls-1" d="M154.32,71.24c1.18-2.06,1-4.32.59-6.55a1.36,1.36,0,0,0,.78-.3c2.18-2.75,1.13-6.68.52-9.81,0-.2-1,.16-.92.48.56,2.91,1.67,6.85-.38,9.43l0,0-.09-.41a20.38,20.38,0,0,0-.34-7.82c-.05-.25-1,.13-.92.48a26,26,0,0,1,.57,4.69c-.29-.21-.95.09-.86.47.19.83.41,1.69.6,2.56a7.74,7.74,0,0,1-.74,2.09l-.11-.5c0-.16-1,.2-.92.48s.16.72.25,1.13h0c-.14.15-.09.21,0,.21.33,1.67.51,3.67-.8,4.71-.52.41.39.17.6,0,1.58-1.25,1.47-3.32,1.12-5.18a6.46,6.46,0,0,0,.86-1.34,7.65,7.65,0,0,1-.72,5C153.1,71.68,154.08,71.65,154.32,71.24Z"/><path class="cls-1" d="M159.39,65.2c0-1.25,0-2.5-.16-3.75,0-.15-1,.16-.93.48.13,1.21.13,2.43.15,3.65C158.46,65.84,159.4,65.47,159.39,65.2Z"/><path class="cls-1" d="M158.31,67.33a.27.27,0,0,1,0,.21c-.13.21.2.23.32.2a.94.94,0,0,0,.59-.4.55.55,0,0,0,.09-.36C159.22,66.61,158.27,67,158.31,67.33Z"/><path class="cls-1" d="M166.72,58.52a.9.9,0,0,0,.51-.4.38.38,0,0,0,0-.25c0-.16-1,.18-.93.48a.17.17,0,0,1,0,.16C166.23,58.68,166.69,58.53,166.72,58.52Z"/><path class="cls-1" d="M176.68,51.84c.09-.24.17-.48.26-.72s-.09-.22-.28-.18c0-.11,0-.22,0-.34a.6.6,0,0,0,.33-.35c.15-1,.14-2.06.35-3.07.1-.49-.86-.16-.93.17a13.09,13.09,0,0,0-.18,1.3c-.2.09-.39.24-.41.38a16,16,0,0,0-.06,3.06l-.14.39c0,.09,0,.13,0,.17-.14.15-.17.29.13.24a6.84,6.84,0,0,1-1.16,4.75c-.36.44.62.21.82,0C176.8,55.91,176.75,53.88,176.68,51.84Z"/><path class="cls-1" d="M177.87,45.08c0,1.27.19,2.71.3,4.12a5.81,5.81,0,0,0-.57,2.45s.3,0,.56-.14a5.31,5.31,0,0,1-1.07,2.8c-.43.54.44.74.76.34,1.37-1.72,1.4-3.82,1.24-5.93.16-.38.32-.77.47-1.18a15.8,15.8,0,0,0,.51-3.82,1,1,0,0,0,.66-.37c1.07-2.34.31-5.21-.22-7.59-.09-.41-1,0-1,.34.48,2.16,1.2,4.81.43,7-.25,0-.76.25-.78.44,0,.38-.08.76-.11,1.15l-.07,0h0c.51-2.55,0-5.15.23-7.74.06-.59-.92-.39-1,.08-.28,2.57.27,5.17-.23,7.71A.48.48,0,0,0,177.87,45.08Zm1,1.41c0-.36,0-.73-.06-1.08l.18,0C179,45.76,179,46.13,178.91,46.49Z"/><path class="cls-1" d="M127.84,80.58c-2.12,2.48-3.71,5.66-6.57,7.4-.53.32-.29.83.26.49,3.07-1.87,4.73-5,7-7.71C129,80.24,128.1,80.26,127.84,80.58Z"/><path class="cls-1" d="M144,87.1l-.44.15c.13-.17.13-.32-.22-.24-6.79,1.59-13.61,3.1-20.42,4.61-.34.08-.94.75-.28.6,6.24-1.38,12.48-2.77,18.7-4.21a205.6,205.6,0,0,1-21,6.2c-.57.13-.58.91.09.77a223.56,223.56,0,0,0,23.7-7.11C144.6,87.68,144.62,86.88,144,87.1Z"/><path class="cls-1" d="M154.19,78.55c-3.12,1-6.28,1.88-9.41,2.84.35-.19.51-.51,0-.29-2,.83-4.09,1.6-6.14,2.38l-.87.35-.43.17-.43.17a.9.9,0,0,0-.86.37l-.84.36a1.08,1.08,0,0,0-.45.38c-1,.42-2,.88-2.94,1.38-.11.06-.66.46-.22.38,5.31-.92,10.36-2.82,15.62-3.93q1.44-.52-1,.49c-.77.3-1.54.58-2.33.83-1.06.35-2.14.67-3.21,1-2.47.79-4.87,1.87-7.31,2.77-.11,0-.68.43-.6.5l-1.35.28c-.19,0-1,.62-.56.52,4.71-1,9.43-1.89,13.94-3.64.07,0,.73-.49.42-.45a50.84,50.84,0,0,0-6.9,1.46l-2,.54c4-1.5,8.38-2.55,12.17-4.63.11-.06.66-.46.21-.38-5,.93-9.71,2.66-14.63,3.75-2.81.62-.08-.3,1-.78,1.39-.6,2.82-1.11,4.23-1.65,1.13-.43,2.24-.88,3.34-1.38,3.69-1.19,7.44-2.19,11.13-3.36C154.07,78.94,154.82,78.35,154.19,78.55Zm-10.9,7.57a73.63,73.63,0,0,1-10,2.5c1.5-.39,3-.8,4.48-1.22C139.55,86.9,141.57,86.74,143.29,86.12Z"/></g></g></g></svg>