<svg xmlns="http://www.w3.org/2000/svg" xmlns:xlink="http://www.w3.org/1999/xlink" viewBox="0 0 44 24"><g fill="#7d6047"><path d="M42.61,17.45C40.43,12.8,36.13,8,32.43,8H16a10,10,0,0,0-.74,20,1.34,1.34,0,0,0,.31,0H40.71a3.18,3.18,0,0,0,2.83-1.44C44.75,24.65,44.4,21.29,42.61,17.45Zm-1.9,9.26c-1.48,0-3.37-1.21-5.15-3.11l-.19-.2-.24-.27A23,23,0,0,1,33,20.21l0,0c-.17-.27-.33-.55-.49-.83l-.24-.43-.15-.29c-.13-.25-.26-.51-.38-.77s-.25-.54-.36-.81l-.08-.19c-.1-.25-.2-.5-.28-.75l0,0q-.15-.42-.27-.82v0a8.14,8.14,0,0,1-.27-4.68v0a3,3,0,0,1,.16-.37l.06-.1a2,2,0,0,1,1.79-1c2.69,0,6.72,4,9,8.86S43.39,26.71,40.71,26.71ZM3,15.58c-1,0-1,4.54,0,4.54a2.45,2.45,0,0,0,2.27-2.27A2.45,2.45,0,0,0,3,15.58Z" transform="translate(-0.25 -6)"/><path d="M41.43,29.5a.5.5,0,0,0-.5-.5H15.61a2.22,2.22,0,0,1-.45,0A11,11,0,0,1,5.06,20.3,3.3,3.3,0,0,1,3,21.12c-1.11,0-1.75-1.19-1.75-3.27S1.89,14.58,3,14.58a3.32,3.32,0,0,1,2.12.87A11.2,11.2,0,0,1,16,7H31.93a.5.5,0,0,0,0-1H16a12.18,12.18,0,0,0-11.5,7.91A3.94,3.94,0,0,0,3,13.58c-.65,0-2.75.31-2.75,4.27S2.35,22.12,3,22.12a3.89,3.89,0,0,0,1.44-.29A12.06,12.06,0,0,0,15,30a3.31,3.31,0,0,0,.59.05H40.94A.5.5,0,0,0,41.43,29.5Z" transform="translate(-0.25 -6)"/></g></svg>