<?xml version="1.0" encoding="utf-8"?>
<!-- Generator: Adobe Illustrator 16.0.0, SVG Export Plug-In . SVG Version: 6.00 Build 0)  -->
<!DOCTYPE svg PUBLIC "-//W3C//DTD SVG 1.1//EN" "http://www.w3.org/Graphics/SVG/1.1/DTD/svg11.dtd">
<svg version="1.1" id="Слой_1" xmlns="http://www.w3.org/2000/svg" xmlns:xlink="http://www.w3.org/1999/xlink" x="0px" y="0px"
	 width="107px" height="62px" viewBox="-267 144.5 107 62" enable-background="new -267 144.5 107 62" xml:space="preserve">
<g>
	<path fill="#E4C696" d="M-260.356,145.5c-2.841,0-5.644,1.803-5.644,4.643v49.715c0,2.84,2.803,5.643,5.644,5.643h59.69v-60
		H-260.356z M-218.079,192.58c-1.17,1.17-3.063,1.17-4.231,0l-8.608-8.605c-0.736-0.734-1.007-1.762-0.815-2.711l-2.002-2.006
		c-4.522,3.389-10.979,3.027-15.087-1.08c-4.507-4.506-4.507-11.836,0-16.342c4.504-4.504,11.834-4.504,16.338,0
		c4.11,4.107,4.469,10.566,1.084,15.088l2.002,2.004c0.951-0.191,1.975,0.078,2.713,0.814l8.607,8.607
		C-216.911,189.52-216.911,191.412-218.079,192.58z M-246.49,164.172c-3.219,3.219-3.219,8.451,0,11.672
		c3.217,3.217,8.454,3.217,11.672,0c3.217-3.221,3.217-8.453,0-11.672C-238.036,160.953-243.273,160.951-246.49,164.172z"/>
	<path fill="#E4C696" d="M-165.286,145.5H-198v60h32.714c2.841,0,4.286-1.303,4.286-4.143v-51.715
		C-161,146.803-162.445,145.5-165.286,145.5z M-164,201.357c0,1.141-0.234,1.143-1.452,1.143H-195v-25.557h20.729l-9.222,9.217
		l2.015,2.313l12.979-12.982l-12.979-12.963l-2.015,2.309l9.222,9.221H-195V148.5h29.548c1.218,0,1.452,0,1.452,1.143V201.357z"/>
</g>
</svg>
