<?xml version="1.0" encoding="utf-8"?>
<!-- Generator: Adobe Illustrator 15.0.0, SVG Export Plug-In . SVG Version: 6.00 Build 0)  -->
<!DOCTYPE svg PUBLIC "-//W3C//DTD SVG 1.0//EN" "http://www.w3.org/TR/2001/REC-SVG-20010904/DTD/svg10.dtd">
<svg version="1.0" id="Слой_1" xmlns="http://www.w3.org/2000/svg" xmlns:xlink="http://www.w3.org/1999/xlink" x="0px" y="0px"
	 width="37px" height="62px" viewBox="35 0 37 62" enable-background="new 35 0 37 62" xml:space="preserve">
<g>
	<path fill="#E4C696" d="M-27.355,1c-2.841,0-5.644,1.803-5.644,4.643v49.715c0,2.84,2.803,5.643,5.644,5.643h59.689V1L-27.355,1
		L-27.355,1z M14.922,48.08c-1.17,1.17-3.063,1.17-4.231,0l-8.608-8.605c-0.735-0.734-1.006-1.762-0.814-2.711l-2.002-2.006
		c-4.521,3.389-10.979,3.027-15.087-1.08c-4.507-4.506-4.507-11.836,0-16.342c4.504-4.504,11.834-4.504,16.338,0
		c4.11,4.107,4.469,10.566,1.084,15.088l2.002,2.004c0.951-0.191,1.976,0.078,2.713,0.814l8.606,8.607
		C16.09,45.02,16.09,46.912,14.922,48.08z M-13.49,19.671c-3.219,3.219-3.219,8.451,0,11.672c3.218,3.217,8.455,3.217,11.673,0
		c3.217-3.221,3.217-8.453,0-11.672C-5.035,16.453-10.272,16.451-13.49,19.671z"/>
	<path fill="#E4C696" d="M67.715,1H35v60h32.714C70.555,61,72,59.697,72,56.857V5.142C72,2.302,70.555,1,67.715,1z M69,56.857
		C69,57.998,68.766,58,67.549,58H38V32.443h20.728l-9.22,9.217l2.014,2.313l12.98-12.982l-12.98-12.964l-2.014,2.31l9.22,9.222H38V4
		h29.548C68.766,4,69,4,69,5.142V56.857z"/>
</g>
</svg>
