<?xml version="1.0" encoding="utf-8"?>
<!-- Generator: Adobe Illustrator 15.0.0, SVG Export Plug-In . SVG Version: 6.00 Build 0)  -->
<!DOCTYPE svg PUBLIC "-//W3C//DTD SVG 1.0//EN" "http://www.w3.org/TR/2001/REC-SVG-20010904/DTD/svg10.dtd">
<svg version="1.0" id="Слой_1" xmlns="http://www.w3.org/2000/svg" xmlns:xlink="http://www.w3.org/1999/xlink" x="0px" y="0px"
	 width="70px" height="62px" viewBox="18.5 0 70 62" enable-background="new 18.5 0 70 62" xml:space="preserve">
<g>
	<path fill="#E4C696" d="M26.245,1c-2.841,0-5.644,1.803-5.644,4.643v49.715c0,2.84,2.803,5.643,5.644,5.643h59.689V1L26.245,1
		L26.245,1z M68.522,48.08c-1.17,1.17-3.063,1.17-4.231,0l-8.608-8.605c-0.735-0.734-1.006-1.762-0.814-2.711l-2.002-2.006
		c-4.521,3.389-10.979,3.027-15.087-1.08c-4.507-4.506-4.507-11.836,0-16.342c4.504-4.504,11.834-4.504,16.338,0
		c4.11,4.107,4.469,10.566,1.084,15.088l2.002,2.004c0.951-0.191,1.976,0.078,2.713,0.814l8.606,8.607
		C69.69,45.02,69.69,46.912,68.522,48.08z M40.11,19.671c-3.219,3.219-3.219,8.451,0,11.672c3.218,3.217,8.455,3.217,11.673,0
		c3.217-3.221,3.217-8.453,0-11.672C48.565,16.453,43.328,16.451,40.11,19.671z"/>
	<path fill="#E4C696" d="M121.315,1H88.601v60h32.715c2.84,0,4.285-1.303,4.285-4.143V5.142C125.601,2.302,124.155,1,121.315,1z
		 M122.601,56.857c0,1.141-0.234,1.143-1.451,1.143H91.601V32.443h20.729l-9.221,9.217l2.014,2.313l12.98-12.982l-12.98-12.964
		l-2.014,2.31l9.221,9.222H91.601V4h29.549c1.217,0,1.451,0,1.451,1.143V56.857z"/>
</g>
</svg>
