<svg xmlns="http://www.w3.org/2000/svg" width="140" height="104" viewBox="29.5 0 140 104"><style>.a{fill:#A09078;}</style><defs><rect x="29.5" width="140" height="104"></rect></defs><clipPath><use xmlns:xlink="http://www.w3.org/1999/xlink" xlink:href="#SVGID_1_"></use></clipPath><g clip-path="url(#SVGID_2_)"><path d="M62.9 45.2c1.5-2.2 3.2-4 5.4-4.5 -1.6 1.7-3.6 2.2-4.8 5C63.2 45.6 63.3 45.3 62.9 45.2z" class="a"></path><path d="M64.3 45.7c1.5-1.6 2.9-3.2 5.1-3.1 -1.2 0.8-3.4 1.7-4.6 3.5C64.5 46 64.5 45.8 64.3 45.7z" class="a"></path><path d="M65.1 46.6c1.1-1.5 2.9-2.6 4.4-2.2 -1.3 0.8-2.8 1-3.8 2.4C65.3 47 65.5 46.8 65.1 46.6z" class="a"></path><path d="M65.5 49.8c1.2-1 2.9-2 4.4-1.4 -1.3 0.6-2.7 0.8-3.8 1.6C65.8 49.9 65.7 49.8 65.5 49.8z" class="a"></path><path d="M65.8 51.5c1.2-0.7 2.4-1.4 4-1.2C68.6 50.8 67.5 51.8 65.8 51.5z" class="a"></path><path d="M72.1 48.2c-0.7 0.6-0.2 2-0.8 2.6 -0.8-0.7-0.3-1.8 0-3 0.7 0.3 1.1-0.3 1.5-0.6 0.3 0.5-0.3 1.3-0.2 1.9 0.1 0.4 0.4 0 0.6 0.4 -0.1 0.3-0.3 0.6-0.5 0.7 -0.2-0.1-0.4-0.2-0.7-0.3C72.2 49.4 71.7 49 72.1 48.2z" class="a"></path><path d="M74 45.9c0.7 1.1-0.8 3 0.5 3.8C72.7 50.8 73.2 47 74 45.9z" class="a"></path><path d="M73.5 59.1c0.1-0.2 0.2-0.2 0.3-0.3 2 0.6 4.1-1.3 5.8 0.3C77.4 58.6 75.5 60.1 73.5 59.1z" class="a"></path><path d="M74.3 60.6c1.5-0.4 4.6-1.8 5.6 0.1C78 59.5 76 61.3 74.3 60.6z" class="a"></path><path d="M88.1 36.4c-1.5 1.8-3.4 2.3-4.8 4.5 -0.1-0.1-0.3-0.1-0.4-0.2C83.9 38.5 86.2 37.2 88.1 36.4z" class="a"></path><path d="M87.9 35c-0.9 1-2.3 0.9-2.9 2.5 -0.1 0-0.3-0.1-0.4-0.2C84.9 35.6 86.7 35.2 87.9 35z" class="a"></path><path d="M72.3 68.4c0.7-0.3 1.8 0.3 2.7 0.4 -0.1-0.3-0.4-0.6 0-0.8 1.1 0.7 2.9 0 4 0.8 -0.8 0.4-2 0-3 0.1 1.4 1 3 1.3 4.8 2.2 -0.5 0.5-1.2 0.1-1.8-0.1C76.9 70.2 74.4 69.2 72.3 68.4z" class="a"></path><path d="M75 62c0.1-0.1 0.1-0.3 0.2-0.4 1.9 0.5 3.1-0.8 5.1-0.1 -0.6 0.7-1.6 0.4-2.4 0.5 -0.7 0.2-1.5 0.6-2.4 0.4C75.2 62.3 75.2 62.1 75 62z" class="a"></path><path d="M83.4 42.5c1.6-2.5 3.9-3.5 6-4.9 -1.2 2.2-4 2.5-5.3 5.2C83.9 42.7 83.6 42.6 83.4 42.5z" class="a"></path><path d="M89.8 38.9c-1.5 2.2-4.4 3.3-6.1 5.8 -0.2-0.1-0.7-0.1-0.6-0.4C84.9 42.3 87.5 40.2 89.8 38.9z" class="a"></path><path d="M75.4 63.7c0.1-0.1 0.1-0.3 0.2-0.4 1.4 0.4 3.3-0.9 4.4 0.3C78.4 63.4 76.8 64.3 75.4 63.7z" class="a"></path><path d="M87.9 44.1c2.6-1 4.9-1.4 7.9-1.6 -2.2 1.2-5 0.8-7.1 2.4 2.4-0.5 5.4-2 8.6-1.5 -1 0.6-2.1 0.5-3.1 0.7 -1 0.2-2 0.3-3 0.8 -2 0.9-3.5 2.9-5.8 3.6 0-1.1 2-1.6 2.9-2.3 -0.7-0.1-1.8 1.2-3 1.1 -0.7-0.6-0.8-1.2-1.7-1.5 1.4-2 3.9-3.4 5.9-4.6 -1 2.1-3.8 2.3-5 4.9 2.1-1.2 3.7-3.5 6.1-4C89.7 42.9 88.7 43.4 87.9 44.1zM87 45c-0.4 0-1.2 0.5-1 1C86.3 45.6 86.8 45.7 87 45z" class="a"></path><path d="M76 64.9c1.2 0.1 2.7-0.8 3.8 0.1C78.6 64.9 76.9 66 76 64.9z" class="a"></path><path d="M75.7 66.5c0.1-0.1 0.1-0.3 0.2-0.4 1.4 0.4 2.3-0.4 3.7 0.4C78.6 66.8 77 67.3 75.7 66.5z" class="a"></path><path d="M75.6 67.8c0.1-0.1 0.1-0.3 0.2-0.4 1.1 0.3 2.8-0.6 3.6 0.4C78.1 67.9 77.1 68.4 75.6 67.8z" class="a"></path><path d="M91.7 32.5c0.2-0.6 2.2-0.6 2.8-0.4C93.5 32.3 92.6 32.3 91.7 32.5z" class="a"></path><path d="M86.2 53.7c0.1-0.1 0.1-0.3 0.2-0.4 3.1-0.5 5.7-2.6 9.1-2.3C92.4 51.7 89.2 53.6 86.2 53.7z" class="a"></path><path d="M86.2 54.6c2.4-0.7 5.6-1.8 8.2-0.2 -0.5 0.4-1.1-0.2-1.6-0.2 -2-0.2-4.3 0.6-6.1 0.8C86.3 54.9 86.3 54.7 86.2 54.6z" class="a"></path><path d="M87.8 55.3c0.1-0.1 0.1-0.3 0.2-0.4 2.2 0.2 4.6-0.4 6.8 0.8 -1 0.3-2.2 0-3.3 0 -1.1-0.1-2.2-0.2-3.3 0C88 55.6 88 55.4 87.8 55.3z" class="a"></path><path d="M98 32.7c0.8 1 1.6 2.1 1.7 3.4C99.1 35.4 97.6 34.1 98 32.7z" class="a"></path><path d="M88.5 58.3c0-0.2 0.2-0.2 0.3-0.3 2.3 1 4.4 0.2 6.4 1.2 -1.6 0.3-3.5-0.2-5.2-0.2 0.8 1.6 3.8 0.5 5.1 1.6 -1.8 0.2-4.2 0.2-6.1-0.9 -0.1-0.4 0.2-0.5 0.3-0.8C88.9 58.6 88.6 58.5 88.5 58.3z" class="a"></path><path d="M99.2 33.9c0.1-0.5 0.4-0.4 0.5-0.9 0.5 0.4 0.2 1.3 1.2 1.3C100.5 35.5 99.4 34.2 99.2 33.9z" class="a"></path><path d="M88.7 60.7c0.1-0.1 0.1-0.3 0.2-0.4 1.5 0.5 5.3-0.1 6.3 1.8C92.8 60.9 90.7 61.7 88.7 60.7z" class="a"></path><path d="M89.3 61.9c0.1-0.1 0.3-0.1 0.4-0.3 1.7 1.2 3.9 0.1 5.7 1.4 -1.7 0-3.5-0.1-5.3-0.4 1.2 1.4 3.7 0.8 5.3 1.4 0.3 0.1 1.2 0.2 1 0.9 -1.8-0.6-3.4-0.5-5.1-0.8 1.5 0.9 3.4 0.4 5.1 1.1 -0.4 0.7-1.4 0.3-2.1 0.2 -1.2-0.1-2.4-0.1-3.9-0.7 -0.4-0.5-0.4-1.2-1.1-1.5C90.1 62.6 89.4 62.3 89.3 61.9z" class="a"></path><path d="M88.7 66c0.1-0.1 0.1-0.3 0.2-0.4 2.5 0.4 4.5-0.1 7.2 0.9 -1.6 0.4-3.7-0.3-5.4-0.1 1.8 1.1 4.2 0 6 1.2 -2.2 0-4.3 0.1-6.8-0.6 -0.1-0.3 0-0.4 0.2-0.5C89.8 66.4 89.3 66.3 88.7 66z" class="a"></path><path d="M90.4 68c2.7 0.8 4.7 0.1 7.2 0.6 -0.8 0.5-2.1 0.4-3.4 0.4 -1.4 0-3.3 0.3-3.9-0.6C90.3 68.2 90.3 68.1 90.4 68z" class="a"></path><path d="M108.9 31.9c-0.5 1.1-1.5 1.1-2 2.1 -0.1-0.1-0.3-0.1-0.4-0.2C106.7 32.7 107.9 32 108.9 31.9z" class="a"></path><path d="M111.1 32.6c-0.7 1.3-2.6 1.6-3.5 3.2 -0.2 0-0.2-0.1-0.2-0.2C107.5 33.9 109.8 33.1 111.1 32.6z" class="a"></path><path d="M107.6 36.7c1.4-1.8 3.1-2.5 5-3 -1 1.3-3.3 1.6-4.6 3.3C107.8 37 107.9 36.8 107.6 36.7z" class="a"></path><path d="M113.9 34.4c-1.6 1.5-3.7 2-5.3 3.5 -0.2 0.1-0.2 0-0.4-0.2C109.3 35.9 112.2 34.7 113.9 34.4z" class="a"></path><path d="M114.8 35.6c-2 1.4-4 2.6-6.1 3.8 -0.1-0.2 0.1-0.4-0.1-0.5C110.5 37.6 112.8 35.8 114.8 35.6z" class="a"></path><path d="M111.5 39.3c0.6 0.3 1.6-0.9 2.6-0.6 -1.3 1.4-3.3 1.2-4.4 3.1 -0.7-0.2-0.6-0.7-1-1 1.7-1.8 3.7-2.7 5.7-3.5C113.6 38.5 112.4 38.6 111.5 39.3z" class="a"></path><path d="M112.1 41.4c1.5-0.1 2.6-1.2 4.3-0.9 -1.3 1.1-3 1.1-4.4 1.9 1-0.1 2.1-0.3 3.3 0 -0.5 0.8-1.5 0.4-2.2 0.4 -1.1 0.1-2.2 1.2-3.2 0.5 0.7-0.4-0.1-0.7 0.4-1.6 1.5-1 3.6-2.1 5.1-2.2C114.4 40.5 113.2 40.8 112.1 41.4z" class="a"></path><path d="M109.5 48.6c1.3-0.8 3.4-1.2 4.9-0.5C112.8 48.1 111 49.2 109.5 48.6z" class="a"></path><path d="M110 49.9c0-0.1 0.1-0.2 0.1-0.3 1.4-0.5 3.3-1.1 4.8-0.6C113.3 49.4 111.8 50.1 110 49.9z" class="a"></path><path d="M110.2 51.4c1.6-0.8 3.4-1.2 5.4-1 -1 0.8-3.4 0.7-4.9 1.2C110.4 51.7 110.3 51.6 110.2 51.4z" class="a"></path><path d="M118.9 31.8c0.7-0.9 2.2 0.7 1.8 1.6C120.1 32.9 119.8 32.2 118.9 31.8z" class="a"></path><path d="M111.1 52.7c1.3-1 3-0.8 4.6-0.6C114.9 52.8 112.8 52.8 111.1 52.7z" class="a"></path><path d="M120.9 30.8c0.1-0.4 0.4-0.2 0.5-0.4 0.4 0.9 1.6 1.4 1.2 2.6C121.9 32.3 121.5 31.5 120.9 30.8z" class="a"></path><path d="M111.1 54.4c1.2-0.8 2.8-0.6 4.3-0.6C114.6 54.5 112.6 54.6 111.1 54.4z" class="a"></path><path d="M111.9 55.7c1-0.7 2.4-0.6 3.7-0.7C115 55.6 113.3 56.1 111.9 55.7z" class="a"></path><path d="M112.1 57.4c0-0.1 0.1-0.2 0.1-0.3 1.3-0.2 3.1-0.8 4.3-0.5C115.2 57.2 113.8 57.7 112.1 57.4z" class="a"></path><path d="M113 58.3c1.3-0.5 3.2-1 4.5-0.6C116.1 58.2 114.4 59.1 113 58.3z" class="a"></path><path d="M112.7 60c1.4-0.6 3.4-0.9 4.8-0.6C116.1 59.8 114.2 60.5 112.7 60z" class="a"></path><path d="M113.1 61.4c1.5-0.4 3-0.7 4.7-0.4 -1 0.6-2.2 0.6-3.4 0.7 1.1 0.7 2.9-0.4 4.1 0.3C116.9 62.2 113.8 63.4 113.1 61.4z" class="a"></path><path d="M126.5 30.5c1.2-0.8 2.5-1.6 4.1-1.5C129.4 29.7 127.8 30.9 126.5 30.5z" class="a"></path><path d="M131.4 29.6c-0.2 0.9-2.5 1.7-3.6 2.2 -0.1 0-0.3-0.1-0.4-0.2C128.2 30.7 130.1 30.3 131.4 29.6z" class="a"></path><path d="M127.5 33c1.6-0.9 3.1-2.2 5.1-2C130.9 31.5 129.2 33.3 127.5 33z" class="a"></path><path d="M128.4 34c1.9-1 3.8-1.9 6-2.3 -1.2 1.2-3.6 1.7-5.3 2.6C128.9 34.2 128.7 34.1 128.4 34z" class="a"></path><path d="M124.2 46.8c0.5 1.4 0.2 3 0.2 4.6 -0.8-1.2-0.3-2.9-0.6-4.3C123.8 46.8 124 47 124.2 46.8z" class="a"></path><path d="M129.1 35.2c0.1-0.1 0.1-0.3 0.2-0.4 2.7-0.2 4.7-2.3 7.6-2.2 -2.5 1-4.8 2.2-7.3 2.9C129.3 35.5 129.3 35.3 129.1 35.2z" class="a"></path><path d="M124.9 48.8c0.1-0.6 0.6-0.4 0.7-0.9 0.6 0.6 0 1.6 0.4 2.2C125.3 50.5 125 49.3 124.9 48.8z" class="a"></path><path d="M130 36.8c0-0.1 0.1-0.2 0.1-0.3 2.3-0.8 4.2-2.3 6.9-2.2 -2.1 1.2-4.4 1.7-6.5 2.7C130.3 37.1 130.1 37.1 130 36.8z" class="a"></path><path d="M130.4 38.4c0-0.1 0.1-0.2 0.1-0.3 1-0.8 2.5-1.1 3.8-1.5 1.2-0.4 2.5-1.3 3.8-0.7C135.5 36.7 133.1 38.1 130.4 38.4z" class="a"></path><path d="M123.1 60.4c-0.5 1.1-1.9 2.2-3 2.9C120.3 62.3 122.1 60.9 123.1 60.4z" class="a"></path><path d="M126.7 47.9c0.5 0.5 0 1.5-0.2 2.3C126 49.7 126.1 48.4 126.7 47.9z" class="a"></path><path d="M130.9 39.4c0.9-0.9 2.4-1.2 3.6-1.5 1.2-0.3 2.7-1.3 3.7-0.3 -2.4 0.4-4.6 1-6.7 2.1C131.3 39.8 131 39.7 130.9 39.4z" class="a"></path><path d="M125 60c-0.9 0.8-1.6 2-2.3 3.2 -0.1 0-0.3 0-0.4 0C122.8 62 123.6 59.6 125 60z" class="a"></path><path d="M130.7 46.5c1.9-1.9 4-3 6.5-3.5 -1.9 1.5-4.2 2-5.9 3.7C130.8 46.8 131 46.6 130.7 46.5z" class="a"></path><path d="M128.2 58.5c-0.8 1.3-2.4 1.8-2.6 3.5 -0.2 0.1-0.5 0.1-0.7 0.2C125 60.7 126.7 58.5 128.2 58.5z" class="a"></path><path d="M131.6 47.2c2-1.2 3.9-2.5 6.4-2.2 -0.2 0.6-1 0.5-1.5 0.6 -1.5 0.4-3 1.4-4.4 1.8C132 47.4 131.8 47.3 131.6 47.2z" class="a"></path><path d="M131.7 49.1c1.9-0.9 4.5-1.9 6.6-1.5 -0.4 0.5-1.3 0.4-2.1 0.7C134.7 48.6 133 49.7 131.7 49.1z" class="a"></path><path d="M137.4 50c-0.4 0.4-1.4 0.3-2.2 0.5 -0.8 0.1-1.6 0.3-2.3 0.6 -0.1 0-0.3 0.1-0.4 0C133.3 50 135.9 49.3 137.4 50z" class="a"></path><path d="M135.3 51.4c0.6 0.4 1.5-0.7 2.4-0.2 -1.3 0.8-3 1.8-4.6 0.8 0.5-1.1 1.5-0.9 2.3-1C135.3 51.2 135.5 51.5 135.3 51.4z" class="a"></path><path d="M133.3 53.9c1.6-0.4 3.1-1.2 4.9-1.2C136.8 53.4 134.6 54.8 133.3 53.9z" class="a"></path><path d="M134.1 55.2c0.9-0.7 2-0.9 3.2-0.8C136.5 55 135.2 55.9 134.1 55.2z" class="a"></path><path d="M136.8 58.5c0.8-0.3 0.2-1 1.2-0.6C137.6 58.2 137.3 58.6 136.8 58.5z" class="a"></path><path d="M143.2 49.6c0.5-0.5 0.3-1.4 1.2-1C144.2 49.2 143.9 49.9 143.2 49.6z" class="a"></path><path d="M55.5 45.8c0.2 2.6 1.1 4.8 2.6 6.9 0.5-1.2-0.6-3.5 0.2-5.1 0.4 0.5 0.1 1.2 0.2 1.8 0.6-2 2.1-4.5 3.2-6.6 0.5-1.1 1.6-3.2 2.2-3.6 0.2-0.1 0.9-0.1 1.2-0.3 0.2-0.2 0.1-0.6 0.3-0.7 0.5-0.3 1.2-0.3 1.8-0.5 2.2-0.8 4-2.4 6.4-2.2 -0.1 0.1-0.2 0.1-0.3 0.2 2.4 0.9 4 0 6.5 1.2 0.5-1.3-0.4-2.5-0.1-3.3 0.6 0.4 0.4 2 0.6 2.9 0.4 0.2 0.6 0 1 0.3 3.2-4.3 7-5.7 11.5-6.8 0.6 0.9 2.7-0.3 4.6 0.1 1.5 0.3 2.3 0.9 3.6 1.4 -0.9 0.8-2-0.2-2.9-0.5 -3.7-0.9-8.6 0.8-11.6 2 1.5-0.4 3.1-0.6 4.6-1 -0.8 0.8-2.3 0.5-3.5 0.8 -1.9 0.6-3.5 2-4.9 3.5 0 0.2 0.3 0.2 0.5 0.4 -0.5 0.5-0.9 1.1-1.5 1.6 0.1 0 0.3 0 0.5 0 -0.2 0.1-0.3 0.1-0.5 0.1 0.1 4.5 1.4 8.6 2.8 12.6 3.3-1.7 6.3-3.6 9.8-4.7 3.6-1.1 7.3-1.5 11.4-1.5 0.5 0.1 0.5 0.2 1.1 0.3 -1.3-4.2-2-8.7-4.6-12.5 -0.2-0.1-0.4 0-0.5 0.1 0.4-0.5-0.4-1.2-0.7-1.7 1.6-0.8 2.6-2.4 4.1-3 1.6-0.7 3.5-0.9 5.9-1.4 2.4-0.5 3.7-0.8 6.1-0.5 1.7 0.2 3.3 0.1 5.1 0.5 0.2 0.3 0.8 0.5 0.9 0.9 2.1-1.5 4.6-1.6 6.9-2 3.1-0.6 4.9-1.6 8.1-0.1 1.3 0.6 3.4 1.4 4.6 2.3 -1.1 0.6-2.2 0.2-2.7-0.9 -2.5-0.8-5.3-2.5-7.9-1.2 0 0.2 0.2 0 0.4 0.2 -0.3 0-0.5 0.2-0.6 0.7 -3-0.3-5.5 0-7.7 1.3 0.7 2.8 3.2 5.1 4.2 8 0.7 2.1 1.1 4.2 1.5 6.6 0.6 0 0.8-0.7 0.3-1.1 0.4-0.3 0.7-0.6 1.1-0.8 -0.1-0.3-0.2-0.7 0.2-0.8 4.9-1.5 8.7-2.8 14.8-1 0.2-0.5-0.1-0.7 0.4-0.3 0.5-3.4-0.9-7.1-5.2-7.8 0.9-0.7 3.4 1.2 4.2 2.1 0.2 0.2 0.3 0 0.4-0.1 0.6 1 1.4 2 1.8 3.1 -0.2 0.3-0.3-0.3-0.5-0.3 0.2 1.2 0.2 2.4 0.2 3.6 0.5 0.3 0.7 0 1.2 0.4 0.6-3.4-2.1-5.5-3.3-8.3 -0.2-0.1-0.4-0.2-0.7-0.3 0.1-1.4-2-1.6-1.9-2.8 1.8 0.3 2.4 2.6 3.6 3.1 0.8 3 3.7 5.1 2.8 8.7 -0.8-0.4-0.5 0.4-1.3 0.4 0.4 0.4 0.7 0.2 1.3 0.6 -0.4 0.5 0.4 0.6 0.2 1 0.3 0.1 0.3-0.4 0.6-0.4 -0.1-0.2-0.4-0.4-0.4-0.6 0.8-1.1 1.7-4.2 3.8-2.4 -0.2 0.7-1 0.1-1.5 0.2 -0.8 0-1.3 1.7-1 2.2 -0.3-0.7-0.5 0.3-0.8 0.4 0.5 0.4 0.5-0.7 1-0.2 -1 1.6-0.1 2.7-1.9 3.1 -0.2 1.3 0.4 2.2-0.4 3.7 -0.6-2.3-0.1-5-1.7-6.8 -0.7 0.7-0.7 1.3-0.6 2.9 -0.1 0.2-0.1-0.1-0.4-0.2 0.7 2.7-0.6 3.7-1.3 6.2 0.4 0 0.2-0.1 0.4-0.5 0.5 0.2 0.4 0.6 0.1 1.2 1.1-0.7 0.7-2.3 0.8-3.3 1-0.1 0.8-2.3 1.6-3.7 0.9 2-1.2 4.4-1.7 6.4 -0.5 2-2.1 4.7-3.5 6 -1.3 0.2-2.1 1.9-3.6 1.7 0-1.6 2.2-2.4 3.4-3.5 -0.3 0.9-1.6 1.6-2.3 2.1 0.9 0.1 2.1-1.2 3-2.1 0-0.2-0.2-0.1-0.3 0 0-0.6 0.9-1.1 1.2-1.8 -0.1 0-0.6 0.4-0.4-0.2 -0.2-0.1-0.3 0.4-0.5 0.4 -0.3-0.2 0.2-0.6 0.3-0.7 -1.8 1.4-3.8 2.6-5.5 4.4 -0.5-0.8 0.4-0.8 0.8-1.8 -1.7 1-3.3 2.2-5.3 2.5 2.1-1.4 4.4-2.4 6.5-4.1 0.8-0.9 1.6-2.3 2.9-2.8 -0.5 1.6-2.2 2.4-3.2 3.8 1.8-1.1 4.1-2.6 4.9-5.5 0.9 0.1 0.9-2 1.5-2 -0.3-2.2 0.9-4.9 0.1-6.7 -1.7 0-3.4 0.2-5.1 0.2 -0.3 0.5 0 0.7 0.2 1 -2-1.7-5.7 0.1-7.8 1.5 -0.4-0.5-0.7 0.8-1.3 0.4 0.1 1-1.5 1.3-1.7 2.4 -0.4-1.3 1.6-2.5 3.2-3.5 -1.2-0.2-2.8 1.1-4.1 1.7 1 4.8 3 9.3 2.2 14.8 -1.1-1.3-0.5-3.8-0.7-5.7 -0.2-2.5-1.3-4.5-1.7-6.8 0.8 3.6 1.5 8.2 1.3 12.6 -0.2 0.2-0.3-0.1-0.4-0.2 -0.4 0.4 0.5 0.3 0.4 0.6 -0.2 0.4-0.8-0.1-1.2 0.1 0.4-0.3 0.7-0.7 0.9-1.3 -0.1-0.2-0.2-0.5-0.5-0.7 0.3-4.3-0.1-8.4-2-11.9 -7.3-1.4-13.6 0-19.4 2.4 0.9 4.6 1.3 9.4 1.5 14.3 -0.4 0.2-0.2 0.3-0.8 0.3 -0.4 1.9 1.8 2.6 3.7 3 0.4 0.1 0.5-0.7 0.9-0.6 1.9 1.7 4.1 0.1 6 0.1 -2.5-1.3-5.4 0.1-8-1.4 0.2-0.6 0.7-0.4 0.9-0.7 0.4 0.2 0.2 0.6 0.8 0.7 2.8 0 5.8 0.8 8.6 0.7 -0.1 0.5-0.5 0.2-0.7 0.5 1.5 0.1 2.3-1.6 3.8-1.6 0-0.4 0.6-0.9 1.1-0.8 -1 1.2-2.7 1.5-4.2 2.9 -0.5-0.1-0.4-0.1-1-0.3 -0.2 0.1-0.1 0.3-0.5 0.4 -0.2-0.2 0.1-0.2 0.2-0.4 -0.9-0.1-2 0.6-2.2 0.6 -0.9 0.4-1.6 0.5-3 0.6 1.8 1.3 3.8 0.5 5.2-0.4 0.4 0.3-0.3 0.2-0.3 0.3 1.9-0.1 4.6-1.8 5.9-3.5 1.4-0.4 3.1-1.9 4.7-2.8 0-0.2-0.2-0.2-0.4-0.3 0.8-0.3 1.6-0.1 2.2-0.1 0.2 0.1-0.1 0.2-0.2 0.4 0.9 0.2 1.8 0.2 2.5 0 0.3 0.5-0.7 0.1-0.7 0.6 1.4-0.1 3.1 0.3 4.3-0.5 1.2 1 2.3-1 3.4-1.8 -1.4 0.4-2.7 1.2-4.3 1.3 3.2-1 6.7-2.3 8.8-6 0.8-1.3 0.8-3.3 1.9-4.5 0.3 0.6-0.1 1.8-0.4 2.8 -1.3 4-4.8 6.1-6.9 8.1 -0.1 0.6-0.5 0.6-0.6 1.1 -0.5 0.3-1.3 0-1.9 0.1 -0.4 0 0.2 0.3-0.1 0.6 -2.3-0.4-4.9-0.2-7.1-1.2 -3.9 1.9-7 5.7-11.2 6.7 -0.3 0.4-0.6 0.6-1 0.8 -1.8-0.3-2.3-0.3-4.3-0.9 -0.4-0.1 0.1 0.3-0.2 0.5 -1.6-1.8-3.5-1.5-5.9-2.5 -1.8 2.8-6.1 6.1-9.1 7.1 -1.2 0.4-2.9 0.7-4.1 0.1 -2.2-0.3-4.1 0.3-6 0.9 0.3-0.6 1.8-0.4 2.4-1 -0.9-0.6-2.6-0.8-3.8-1 -1.5 0.7-2.9 1.6-4.3 2.7 0.2 0.1 0.4 0.2 0.4 0 -2.6 0.4-8.4 4.2-11.6 1.7 -2.5-0.5-5.1 0-7.2-1.9 -3.1-2.7-6.1-7.4-6.2-10.9 0.8-1.1-0.1-2.2-0.2-3.2 -1.7 0.6-3.7 1.7-4.6 3.5 -0.3-0.1-0.5 0.1-0.8-0.2 0.8-1.8-1.1-2.1-0.3-3.7 -0.9-0.6-1.6-1.7-0.9-2.6 -0.8-0.4-1.3 0-2.1-0.5 1.1-2.3 3.3-1.8 5-2.7 0.3-0.6-0.7-0.7 0.1-0.9 -0.2-0.9-1.2-1.6-1.6-2.4 -0.5 0-0.8 0.5-1.2 0.7 -1.2-2-2.5-3.6-5.7-4.6 -0.4-0.1-0.5 0.6-0.9 0.6 -0.8-0.9-0.1-2.8 0.4-3.4 0 0.4 0.7 1 0.4 1.9 1.5 0.9 3.6 1.6 4.6 2.7 0.4-0.2 0.8-1 1.5-1.2 0.3-1.6 0-3.2-0.7-4 0.1-0.2 0.3 0 0.4 0 -0.1-0.7-0.4-1.4-1-1.5 -0.1-0.2 0-0.2 0.2-0.4 -0.9-0.2-2.2-3.8-4.7-3.1 -0.1-0.4-0.5-0.7-0.4-1.1 -0.6-0.1-0.3 1.3-1.2 0.9 -0.3-2 2.5-2.5 2.5-0.7 4.2 1.2 6.1 6.3 5.8 9.2C54.8 46 54.9 45.4 55.5 45.8zM52.8 47.4c0.4 0.4 0.9-0.6 0.5-0.7C53.1 46.9 52.6 47 52.8 47.4zM54.1 48.1c0.1-0.5 0.5-0.1 0.6-0.7 0-0.4-0.2-0.7-0.6-0.9C54.2 47.2 53.6 47.6 54.1 48.1zM55.7 55.5c0.1-0.6 0-1.1 0.1-1.7 -1.4 0-2.6 0.4-3.7 1.3 0.9 0.4 1.9 0.2 2.2 0C54.4 55.3 55.3 55.4 55.7 55.5zM53.4 57.5c0.3-0.6 0.1-0.9-0.1-1.3 -0.1 0.2-0.2 0.3-0.3 0.3C53.4 56.8 53.1 57.3 53.4 57.5zM57.1 58.3c-0.1-0.1-0.3-0.1-0.2-0.3 -0.7-0.3-0.8 0.9-1.6 0.4 0.2-0.6 0.6-0.8 1-1.1 0-0.9-0.7-1-1.7-1.4 -0.1 0.7 1.3 0.9 1.2 1.6 -0.7 0.7-1.3 1.6-1 2.2 0.3-0.2 0.9-0.4 0.5-0.9C56.1 58.8 56.4 58.8 57.1 58.3zM57.9 54.1c-0.4-0.6-1.2-0.5-1.7-0.4 0 1.2-0.1 2.5 0.7 3.4 0.8-0.3 0.6-1.3 1.3-1.1 0.1-0.9-0.3-1.7-0.9-1.5C57.4 54.4 57.7 54.4 57.9 54.1zM60.3 55.8c0.6-0.2 0.4-0.7 0.9-1 -0.9-0.6 0.2-1.9 0.5-3 -0.4-0.3-0.5 0.5-1 0 0.6-1.2 1.1-2.8 2.2-2.6 0.2 1.5-1.3 3-1.2 4.5 1-2.1 2.4-3.7 3.3-5.5 1.5-0.5 2.7-2 4.4-2 -1 1.1-2.5 1.2-3.7 2.3 -0.9 1-1.3 2.6-2.1 3.9 -0.8 1.3-2.1 2-2.4 3.7 6.3-2.8 13-4.6 20.5-4.2 -1.6-4.1-3-8.4-2.5-13.4 -0.3-0.3-1 0.1-1-0.3 0.2-0.3 0.8 0.3 1-0.2 -0.9-1.2-3.5-0.9-4.3-0.9 0.9 0.5 2.3 0.8 2.7 1.2 -0.8-0.2-0.1 0.3-0.5 0.4 -1.7-1.1-3.2 0-5.1-0.8 0.4-0.3 1-0.2 1.4-0.7 -1.2 0-2.5-0.1-3.6 0.3 0.2 0.3 0.5 0.6 0.1 1.2 0-0.4-0.4-0.6-0.1-1.2 -2.2 0.7-5.2 1.1-6.8 3.5 -0.6 0.9-0.7 1.9-1.3 2.9 -0.8 1.3-1.9 2.6-2.5 4.2 -0.8 2.6-1.1 5.4 0.1 6.9 -0.2-0.3-0.4-0.6-0.6-0.9 0 0.8 0 1.5 1.1 1.9 -0.2 0.3-0.5 0.2-0.6 0.7C60.2 56.8 60.7 55.7 60.3 55.8zM73.2 37.8c1.1 0.2 2 0.3 2.9 0.1C74.8 37.3 73.8 37.1 73.2 37.8zM58.1 58.7c-1 0.8-2.2 1-3.2 1.7 0.2 0.2-0.1 0.6 0.4 0.6C56 60.1 57.5 59.5 58.1 58.7zM58.1 56.7c-0.3 0.4-0.8 0.5-1.1 1.1C57.6 58.9 59.2 57.3 58.1 56.7zM59.5 57.9c-0.6-0.2-0.8 0.3-1.2 0.6C58.9 58.7 59.3 58.6 59.5 57.9zM62.7 56.4c-0.8-0.1-1.3 0.5-1.8 0.9C61.6 57.4 62.1 56.8 62.7 56.4zM73.9 36.8c-1.5-0.9-2.9-0.3-3.4 0.3C71.5 36.8 72.8 37.1 73.9 36.8zM61.8 60.6c-0.1 0.1-0.2 0.1-0.3 0 -0.4 0.4-0.1 1.1-0.7 1.9 0.3 0.5 0.7 1 0.9 1.5 0 0.5-0.5-0.1-0.5 0.4 0.1 0.4 0.2 0.8 0.1 1.3 1.7 2.3 4.5 8.5 8.6 7.9 -2.8-0.9-4.9-2.8-5.3-4.3 0.1 0.6 1-1.1 1.8-0.3 -0.3 0.4-0.6 0.7-0.5 1.2 1.2 1.1 2.6 2.3 4.4 2.4 -1.8-1.1-3.5-2.2-3.6-3.9 0.3-0.3 0.7-0.1 1.1 0 -0.5 1.7 3.3 4.1 4.9 4.1 -1.5-1.3-4-2.2-4.2-4 1.9 1 3.2 3.1 6 4.1 0.3 0.1 1-0.3 1 0.1 -0.1 0.2-0.3 0-0.4 0.1 1.1 0.7 1.6 0.6 2.4 1.2 -1.8 0.9-4.3-0.7-6.3-1 2.8 2 5.6 2.1 8 0.9 -1-0.6-3-0.9-3.7-1.3 0 0-0.3-0.6-0.2-0.6 -1.7-1.3-5.6-1.8-5.1-3.7 2.2 2 7 2 10.3 3.6 -1.9 0.3-4.5-1.1-6.6-1.3 1.9 1.2 4.6 2 6 3.2 0.7-0.5 2.1-0.6 2.4-1.2 0 0.2-0.8-0.1-0.7-0.3 0.7 0.2-0.4-0.3-0.1-0.5 0.5-0.2 0.6 0.4 1 0.6 2-0.2 3.4-2 5.2-2.6 -0.3-0.2-0.1-0.5 0.1-0.9 -1-0.8-1.4-1.5-2.1-2.1 -0.2-0.5 0.3 0 0.4-0.5 -0.4-0.4-0.6-1.1-0.9-1.2 -0.7-3.6-2.7-8.1-2.3-12.1 -0.3 0.8-0.2-0.2-0.8-0.2 -3 0.4-5.8 0.4-8.3 1.2 -0.7-0.2-0.8 0-1.3-0.2 -0.5 0.3-1 0.7-1.5 0.9 -0.2-0.2 0.2-0.5 0-0.6 -2.7 1.4-6.1 1.1-8.6 3.2 2 0.8 4.5 1.7 4.7 3.4 -1.3-0.3-2.5-1.9-4.1-2.1 0.1 0.6 0.2 1 1 1 -0.1 0.3-0.3 0.2-0.4 0.5 1.6 2.1 5.9 3.3 7.9 5.6 -3.1-1.4-6.9-2.8-9.1-4.9 -0.8 2.6 3.9 3 4 5.3C64.4 65 60.5 63.4 61.8 60.6zM61.7 60.3c0.1-0.2 0.3-0.1 0.4 0 0.3-0.5-0.1-0.6-0.2-0.9C61.7 59.6 61.4 60.2 61.7 60.3zM68 55.2c2.2-0.6 3.8-0.6 5.3-1.8 0.5-0.1 1.2 0.2 1.4-0.5 -3.5 0.3-8.1 1.6-11 3.2C65.1 56.3 66.4 55.6 68 55.2zM80.5 42c-0.4-0.6 0.1-1.5-0.5-2.1 -0.1 2.5 0.1 4.8 0.9 6.9 0.4-0.4-0.3-1 0.1-1 0.4 1.5 0.4 3.2 1.2 4.6 0.2-0.4 0.6-0.4 0.8-0.9 -1.2-3.8-2.5-7.6-2-12.1 -0.3-0.1-0.6-0.1-0.8 0.1C80.4 39 80.7 40.9 80.5 42zM77.3 52.7c-1.1-0.3-1.7 0.4-1.9 0.9C76.1 53.3 76.9 53.4 77.3 52.7zM73.6 73.2c-0.3 0-0.8-0.6-0.9-0.1C73.1 73.3 73.4 73.4 73.6 73.2zM83.7 52.8c-0.5-0.3-0.4 0.4 0 0.5 0.5-0.9 0-1.9-0.4-3 -0.5 0.4-0.4 0.7-1 1.1 0.2 0.5 0.5 0.2 0.4 0.8C83.1 52.6 83.8 52.2 83.7 52.8zM74.7 73.7c-0.3 0-0.8-0.6-0.9-0.1C74.3 73.7 74.3 74 74.7 73.7zM84.6 56.1c0-0.4-0.2-1.4-0.9-1.2C83.9 55.3 83.7 56.4 84.6 56.1zM108.2 61.3c-0.2 0.3-0.2 0.6 0.2 0.7 0.2-0.1 0-1-0.6-0.9 0.2-0.2 0.5-0.1 0.6-0.5 -0.8-4-1.1-8.2-1.9-12.2 -0.9-1-2.1-1.2-3.2-0.6 -0.2-0.1-0.2-0.3-0.5-0.4 -2 0.7-4.4 0.3-6.2 1.4 -0.7-0.4-2.5 0.3-4.2 0.8 -2.8 0.8-5.5 0.9-7.2 3.3 -0.2-0.1-0.4 0-0.4 0.3 -0.2 0.3 0.7 0.2 0.4 0.5 -0.2 4.8 2.1 8.5 2.9 12.9 0.4 1.6 2.3 3.3 3.8 3.5 0.4-0.1-0.2-1.1 0.6-1 1.5 1 3.1 0 4.8 0.5 -0.2 0.4-1 0.3-0.5 0.9 -0.4-0.1-0.8 0.4-1-0.1 0-0.1 0.7 0 0.3-0.4 -0.2 0.3-1.3-0.1-1 0.5 0.2-0.6 0.3 0.2 0.6 0 -0.2 0.4-0.7 0-0.8 0.4 2 0.7 3.2-0.5 4.9-0.5 0.1 0.4-0.5 0.5-0.8 0.8 3.7-1.1 7.1-3.3 9.7-7 -0.3-0.3-0.7-0.6-1-0.3C108.2 62.9 107.5 61.9 108.2 61.3zM84 57.6c0.3 0.1 0.6 0 0.8-0.1 -0.1-0.3-0.3-0.5-0.8-0.7C83.7 57.2 84.2 57.2 84 57.6zM84.2 58.9c1.1 3.3 1.6 6.8 3.7 9.2 -0.9-3.1-1.8-6.3-3-9.4C84.7 58.9 84.2 58.4 84.2 58.9zM99.6 46.2c-3.6 0.4-6.8 1.5-9.9 3.1C93 48.2 96.8 48.4 99.6 46.2zM103.2 30c-0.3 0.4-1.7 1.5-0.9 1.6C102 30.8 103.4 30.6 103.2 30zM102.7 32.6c2.1 2.8 2.7 6.2 3.7 9.4 0.2-0.5 0.7-0.2 0.9-0.4 -1.2-3.3-2.1-6.8-4.4-9.7C102.9 32.4 103 32.2 102.7 32.6zM108.3 28.1c-0.6 0.2-2.4 1.5-3.3 1.1 -0.8 0.5-0.9 1.2-1.6 1.8 2.9 4.6 4.2 9.8 6.1 14.8 2.3-1.4 5.1-2.2 8.1-2.9 2.9-0.7 7-1.6 10.3-0.3 0.2-3.2-1.1-5.7-2.4-8.2 -0.7-1.4-1-3.3-2.5-4 0.1-0.2 0.1-0.4 0.1-0.6 -1.1-0.2-1.1-1.7-1.9-2.4 -3.3 0.1-6.9-1.5-9.8 0 1.2 0.3 2.8 0.1 3.8 0.9C112.8 27.6 109.6 27.5 108.3 28.1zM101.7 46c-1-0.3-1.5 0.6-2.2 1.1C100.4 47.1 101 46.4 101.7 46zM91.5 70.2c0 0.1-0.1 0.2-0.1 0.3 -0.1-0.3-1-0.8-1.2-0.4C90.3 70.4 91.7 70.8 91.5 70.2zM103.3 45.9c-0.7-0.2-1.6 0.5-1.7 1C102.2 46.6 102.7 46.2 103.3 45.9zM94.2 70.7c-0.6-0.2-1.2-0.1-1.6 0.1 0.7 0.2 1.5 0.5 1.9-0.1 -0.2-0.5-0.7-0.4-0.5-0.4C94.2 70.4 94.2 70.6 94.2 70.7zM105.1 45.9c-0.7-0.2-1.6 0.7-1.8 0.9C103.9 46.7 104.5 46.3 105.1 45.9zM107 43.8c0.3-0.3 0.8-0.1 0.9-0.7 -0.1-0.4-0.8-0.8-1.3-0.7C106.5 43 106.8 43.4 107 43.8zM107.1 46.5c0.2-0.5-0.5-0.6-0.3-1.1 -0.6 0.3-0.1 0.8-1 1C106.3 46.5 106.6 46.3 107.1 46.5zM107.5 46.3c0.5 0.1 1.2 0.4 1.5-0.2 -0.3-0.6-0.4-1.2-0.6-1.8 -0.5-0.1-0.8 0.1-1.1 0.4C107.6 45.2 108.1 46 107.5 46.3zM107.6 50.6c0.2-0.3 0.7-0.1 0.9-0.6 0.1-1.1-1.2-1.3-0.6-2.2C106.5 48.4 107.3 49.7 107.6 50.6zM107.8 51.9c0.1-0.3 0.5-0.1 0.8 0 0.3-0.4-0.1-0.6 0.1-1 -0.5-0.1-0.9 0.1-1.1 0.5C107.9 51.4 107.5 51.8 107.8 51.9zM107.9 53c0.5 2.8 0.6 5.8 1.3 8.5 0.4-2.8-0.2-6.1-0.3-9C108.5 52.5 108.1 52.5 107.9 53zM122.7 28.1c0.3-0.3-0.3-0.8-0.6-0.6C122.6 27.6 122.1 28.1 122.7 28.1zM118 44c-0.4 0.2-1.8 0.3-1.6 0.4C117 44.5 118 44.4 118 44zM126.6 42.9c-2.1-0.5-3.9-0.2-5.7 0.2C122.9 43.2 124.6 42.7 126.6 42.9zM128.3 38.9c-0.4-2.3-1.4-4.9-2.9-6.4C126.5 34.5 127.9 37.5 128.3 38.9zM128.9 43.4c0.9-1.1-0.6-3.3-0.4-3.7C128.7 40.9 128.6 42.2 128.9 43.4zM127.6 43.9c0.1-0.2 0.2-0.3 0.3-0.3 -0.4-0.2-0.7-0.2-1 0.1C127.1 43.7 127.4 43.8 127.6 43.9zM129 44.3c0.3-0.4-0.3-0.3-0.4-0.6 -0.1 0.5-0.7-0.1-0.9 0.3C128.2 44.3 128.7 43.9 129 44.3zM139.7 39.4c-2.1 0.3-5.2 0.7-7.2 1.4 -0.2 0.1-1.9 0.7-1.3 1.1C133.5 40.9 136.9 40.2 139.7 39.4zM149.3 43.1c0.2-0.7-0.5-2.2-1.1-1.9C149 41.7 148.6 42.6 149.3 43.1z" class="a"></path><path d="M51.7 52.9c-0.2-0.1-0.4-0.2-0.5-0.2 0.2-0.5 0.6-0.2 0.9-0.4C52.4 52.5 51.6 52.3 51.7 52.9z" class="a"></path><path d="M70.9 57.4c0-0.1 0.1-0.2 0.1-0.3 1.6-0.9 3.8-0.6 5.8-0.5 0.1 0.4-0.1 0.2-0.2 0.5 0.9 0.2 1.5-0.5 2.6 0 -1.7 0.9-3.9 0.4-5.7 1C72.9 57.1 71.6 58 70.9 57.4z" class="a"></path><path d="M81.1 72.9c-0.1 0.1 0.1 0.2 0.2 0.2 -0.7 0-1.5 0.6-2.1 0.1 0.7-0.1 1.4-0.2 2-0.4C81.6 72.5 81.4 73.1 81.1 72.9z" class="a"></path><path d="M97.9 32.1c-0.2-0.3 1.3 0.4 0.9 0.9C98.3 32.7 98.5 32.2 97.9 32.1z" class="a"></path><path d="M84.6 71.4c-0.2-0.3 0.6-0.4 0.7-0.8C85.7 71 84.8 71.1 84.6 71.4z" class="a"></path><path d="M102 68.9c-0.1-0.5 0.8-0.5 1-1C103.2 68.4 102.2 68.5 102 68.9z" class="a"></path><path d="M128.3 60.6c-0.1-0.5 0.8-0.9 1.1-1.4C129.6 59.9 128.6 60.1 128.3 60.6z" class="a"></path><path d="M136.3 59.5c0-0.7 0.9-0.4 1.2-0.6C137.6 59.2 136.8 59.6 136.3 59.5z" class="a"></path><path d="M137.5 56.8c-0.3-0.6 0.4 0.1 0.4-0.2 0.2 0.1-0.3 0.4 0 0.6 -0.1 0.1-0.2 0-0.1-0.1 -0.2 0-0.3 0.2-0.1 0.3 -0.1 0.1-0.3 0-0.4 0.1C136.9 57.3 138 56.5 137.5 56.8z" class="a"></path><path d="M89.5 57.1c1.8 0.3 3.8-0.6 5.5 0.5 -0.9 0.4-1.9-0.1-3.3 0 -1.5 0.1-3.3 0.8-3.8-0.9 2-0.6 4.8-0.6 6.8-0.2C93.1 57.2 91.1 56.7 89.5 57.1z" class="a"></path></g></svg>