<svg xmlns="http://www.w3.org/2000/svg" width="140" height="104" viewBox="29.5 0 140 104"><style>.a{fill:#A09078;}</style><defs><rect x="29.5" width="140" height="104"></rect></defs><clipPath><use xmlns:xlink="http://www.w3.org/1999/xlink" xlink:href="#SVGID_1_"></use></clipPath><g clip-path="url(#SVGID_2_)"><path d="M73.8 65.9c0.9 1.6 3 3.3 4.7 4.7 1.4 1.2 2.8 2.7 4.1 3.4 4 2.3 9.3 3.8 14.6 4.4 3.1 0.3 5.6-0.1 8.4-0.1 2.7 0 6.1-0.8 9-1.4 1.4-0.3 2.8-1.1 4.2-1.6 0.6-0.2 1.3-0.1 1.8-0.4 2.5-1.1 3.5-4.2 5.9-5.5 -0.1 1.2-1.3 2.3-2.3 3.3 -0.9 0.9-2.1 2.6-3.3 3 -5.2 1.8-12.9 3.5-19.5 3.6 -1.3 0-2.9 0-4.2-0.2 -7.7-0.9-14.1-3.5-18.9-7.7C76.5 70.1 73.6 68.2 73.8 65.9z" class="a"></path><path d="M74.2 31.4c0.1 2.4-1.7 6-0.2 8.7 0.3-2.4 0.9-5 1.5-7.4 0.6-2.2 0.7-5.1 2.9-6 -2.1 4-3.4 8.8-3.6 14.6 -0.9-0.1-0.4 1-1.3 0.9C72 40 73 33.4 74.2 31.4z" class="a"></path><path d="M78.7 41.6c-0.6 0.8-2.2 0.8-2 2.3 0 0.1 0.2 0.2 0.2 0.3 0.8 0.1 1.1-0.6 1.6-0.2 0.1 0.8-0.6 1-1.2 1.2 1 1 1.2-1 2.2-1 0 1.5-1.3 2.4-2.7 2 0.4-1.2-0.8-0.8-1.2-1.3C75.6 43 76.8 41.2 78.7 41.6z" class="a"></path><path d="M76.1 42.3c-0.5-3.5 0.5-8.3 2.9-10.1 -1.1 2.3-2.9 5.3-2.3 9.7C76.5 42 76.6 42.4 76.1 42.3z" class="a"></path><path d="M81.4 49.6c0.5 0.7-0.8 1-0.4 2.1 0.2 0.4 0.5-0.5 1.1-0.3 0 0.8-1.2 1.5-0.4 2.7 -0.5 0.1-0.5 0.7-1.1 0.3C80.7 52.6 79.4 50.4 81.4 49.6z" class="a"></path><path d="M81 47.9c1-0.4 2-0.1 2.9 0.1 -0.1 0.7 0.9 1 0.5 1.4 0.1 0.5-0.7 0.3-0.9 0.5 -0.2-0.7-0.4-1.4-1.2-1.6 -0.7 0-0.9 0.4-1.3 0.7C80.3 48.9 81 48.4 81 47.9z" class="a"></path><path d="M82.9 52.7c0.1-0.2 0.3-0.2 0.5-0.3 1.1 0.1 1.4 2.9-0.1 2.4C83.2 54.1 83.2 53.3 82.9 52.7z" class="a"></path><path d="M83 24.7c0-0.4 0.2-0.5 0.5-0.7 0.4 0 0.5 0.2 0.7 0.5 0.3 0 0.1-0.5 0.3-0.7 0.6-0.1 0.7 0.4 1.1 0.5 -0.4 0.6-1.1 0.7-0.9 1.5C83.8 25.8 83.9 24.8 83 24.7z" class="a"></path><path d="M83.1 23.1c0-0.2 0-0.3 0-0.5 1-0.2 2.6 0.2 3.4 0.7C85.7 24.1 84.2 23.1 83.1 23.1z" class="a"></path><path d="M88 72.7c-1.1-0.4-1-0.8-2.1-0.6 -0.5-1.9-1.5-6-0.2-8.1 0.3 1.5-0.4 6 1.4 7 -0.3-2.8-0.7-6.8 0.2-9 0.7 1.8-0.2 5.4 0.4 7.9C87.8 71 88.9 71.8 88 72.7z" class="a"></path><path d="M86.4 55.5c0.6 0.3 0.2 1.7 0.7 2.2 0.9 0.2 0.7-0.7 1.4-0.7C88.2 60.8 84 56.4 86.4 55.5z" class="a"></path><path d="M91.3 52.3c-0.2 0.3-0.5 0.4-0.9 0.5 -1.8-1.6-2.8-4.8-3.3-7.1C88.7 47.6 88.9 51.1 91.3 52.3z" class="a"></path><path d="M88.3 55.3c0.2 0.5 0.6 0.9 1.2 1.1 0.3-0.2-0.7-1.5 0.1-1.8 0.7 0.5 1.2 2.1 1.1 3 -0.6 0-0.7-0.6-0.8-1.1C89.2 58 86.5 55.8 88.3 55.3z" class="a"></path><path d="M89.9 29.2c0.8 0.8 1.3 1.9 2 2.9C90.6 32.5 89.2 30.4 89.9 29.2z" class="a"></path><path d="M89.8 19.8c-0.2-0.5 0.3-0.4 0.3-0.6 1.1 0.6 1.6-0.1 2.8 0.6 0.1 0.6-0.3 0.8-0.6 1C91.3 20.6 90.6 20.1 89.8 19.8z" class="a"></path><path d="M92.5 30.5c0-0.5-1.4-1.8-0.7-3 0.8 0.9 1.2 2.3 1.9 3.5 -0.9-0.3-0.8-0.3-1.3 0.4 -0.9-0.3-2.4-2.5-1.1-3C91.6 29.2 91.9 30 92.5 30.5z" class="a"></path><path d="M90.3 16.6c1.1-0.8 2.6-1.3 4.5-1.4 0.3 0.6 1.3 0.5 1.8 0.9C95.2 16.3 92.1 16.7 90.3 16.6z" class="a"></path><path d="M93.4 60.6c0.2-0.2 0.1-0.6 0.5-0.7 1.1 0.2 1.2 1.2 2.1 1.2 0 0.5-0.2 0.8-0.6 1C94.3 62.1 94.4 60.8 93.4 60.6z" class="a"></path><path d="M94.7 65.9c0.8 2.4 0.4 6.1 1.9 7.8 -0.5 0.1-0.5 0.6-1.1 0.5 0.3-1.4-1.9-3.3-0.8-4.5C94.6 68.6 94.1 66.7 94.7 65.9z" class="a"></path><path d="M97.9 64.5c0.5 0.6 0.3 1.6 0.4 2.7 0.3 2 1.3 4.2 1 5.6 -1-0.1-0.7-1.2-0.9-1.9C98 69 97.2 66.3 97.9 64.5z" class="a"></path><path d="M96.7 24.2c0.9 0.7 0.7 2.1 1.1 3.2 0.3 1.1 0.9 2.1 1.2 3 0.4 0.5 1.5 1 0.7 1.7C97.4 31 96.6 26.6 96.7 24.2z" class="a"></path><path d="M97.9 60.6c1.3-0.1 1.1 1.5 2.6 1.2 0.1 0.4-0.3 0.4-0.6 0.5 0.2 0.7 1-0.1 1.3 0.3C100.2 64.4 97.2 62.4 97.9 60.6z" class="a"></path><path d="M100.2 59.9c0.5-0.1 0.5 0.3 0.5 0.8 0.8 0.1 0.6-0.7 1.3-0.7 0.4 0.4 1.3 1.5 0.5 2.1 -0.6 0.1-0.4-0.7-0.8-0.9 -0.4 0.2-0.8 0.4-1.4 0.4C99.7 61.1 99.5 60.4 100.2 59.9z" class="a"></path><path d="M104.3 58.7c1.9 1 5.5 0.2 7.3 1.2 -2.5 0.2-6 0.1-8.2-0.6 0-0.4 0-0.6 0.1-0.8 -1-0.1-2.2 0-2.4-0.9 3.9 0.5 9.5 0.3 12.8 1.7C111 59.4 107.5 58.7 104.3 58.7z" class="a"></path><path d="M101.9 14c0.8 0.1 1 0.8 1.5 1.1 1.1-0.5 2.3 1.5 3.1 2.3 -1 0.5-1.6-0.7-2.1-1.2C103.2 15.9 101.8 15 101.9 14z" class="a"></path><path d="M105.6 14.5c0.9 0.1 0.7 1.2 1.3 1.6 1.1 0 1.5 0.7 1.6 1.7C107.4 17.1 105.1 16.5 105.6 14.5z" class="a"></path><path d="M116.5 63c0.1 2-1.2 5.5-0.9 8.3 -0.3 0-0.4-0.1-0.5-0.3C114.9 67.9 114.7 64.4 116.5 63z" class="a"></path><path d="M121.2 34.7c-0.5 0.7-0.4 3.1 0.1 4.4 0.5-0.6 0.9 0.3 1.9 0.3 0 0.4 0 0.8 0.3 0.8 -3.2 2.8-4.1-3.8-2.9-6.2 0.8-0.2 0.6 0.6 1.3 0.4 0-2-2.5-3.5-2.1-5.9 2 1.7 2.3 5.3 3.8 7.6 -0.7 0.7 0.3 1.7-0.1 2.2 -0.8-0.7-1.2-1.8-1.5-2.8 -0.6 0.1-0.5 0.5-1 0C120.9 35.1 121.3 35.1 121.2 34.7z" class="a"></path><path d="M125.3 33.6c-0.2 0.4-0.2 0.8-0.8 0.8 0.2 1.4 1 2 1.4 3.2 -2.5-1.7-2.4-6-4.6-8.1 0-0.9-0.9-1.8-0.2-2.4 1.4 1 1.6 3.3 2.4 4.9 1.3-1.9-1.2-3.2-0.6-5.3 1.3 1.2 1.1 4 2.9 4.7 0.2-1-1.6-2.7-0.8-3.8 1.1 1.7 1.6 4 2.4 6 -0.6 0.1-0.4-0.6-0.8-0.6 -0.4 1.4-0.3 1.6 0.3 2.9C126.1 35 125 35.1 125.3 33.6zM125.9 33.1c0.2-0.9-0.8-1.4-1-1.3C125.6 31.9 125.2 33.1 125.9 33.1z" class="a"></path><path d="M130.6 33.1c-0.6 1.1 0.6 4-1.3 3.9C127.1 36.8 127.9 29.3 130.6 33.1zM129.3 36.2c1.1-0.4 0.4-2.7-0.2-3.2C128.9 34 128.6 35.2 129.3 36.2z" class="a"></path><path d="M137 41.1c1.1-0.3 1.3 1.6 1.2 2.1C137.2 43.1 137.5 41.6 137 41.1z" class="a"></path><path d="M141 59c-0.1 1-0.7 1.7-0.6 2.4C139.5 61.1 139.9 59.1 141 59z" class="a"></path><path d="M140.2 64.5c0.2-1.1 0.3-1.4 0.2-2.7 0.5 0 0.7 0.4 0.7 0.9 0.5 0.1 0.1-0.7 0.5-0.8 0.4 2.3 2.4 1 3.4 0.4 0.3 1.7-2.9 2.3-3.7 1.1C141 63.8 141.2 64.8 140.2 64.5z" class="a"></path><path d="M141.2 59.7c0.3-1.7 2-3 3.3-3.3 -0.1 0.9-1 0.9-1.2 1.6 0.9 0.2 1-0.4 1.8-0.4 -0.5 1.2 0 2.8-1.2 3.1 -0.4-0.5 0.1-1.3 0.1-1.9 -0.6 0.3-1.6 0.2-1.4 1.2C141.8 60.1 141.6 59.8 141.2 59.7z" class="a"></path><path d="M146.5 52.1c0.1 0.8-1 0.6-1.1 1.3 1.1 0.8 0.8-1.2 1.9-1 -0.1 1.4-0.2 3-1 3.7 -0.5-0.1-0.6-0.6-0.4-1.1 -0.4 0.1-0.7 0.2-1.3 0.2C143.9 53.7 145.2 51.3 146.5 52.1z" class="a"></path><path d="M147.1 61.3c0.2-2.7 0.3-4.4 0.9-6.6 0.8 0 0.2 0.5 0.4 1.1 0.4-0.2 0.2-1 0.9-0.8 -0.4 2-1.8 3.9-1.4 6.2 1.7-1.1 0.8-4.6 2.6-5.7 0.2 1.2-0.8 2.7-0.7 4.4 0.9-1 0.8-2.9 2-3.6 0.3 0.9-0.5 2-0.9 2.9 -0.4 0.9-0.3 2.3-1.4 2.6 -0.4-0.6 0.1-1.3 0.3-1.8 -1 0.5-0.4 2.5-2 2.5C147.4 61.9 148 61.3 147.1 61.3z" class="a"></path><path d="M151 51.2c-0.2 0.7-0.4 1 0 1.6 -0.4 0.1-0.4 0.7-0.9 0.6 0-0.1-0.2-0.1-0.3-0.1C149.4 52.3 149.8 50.7 151 51.2z" class="a"></path><path d="M137.6 64.3c-0.7-0.6-1.4-1.4-0.4-2.1 -0.6-1.2 0.2-3.6 1.3-4.1 -0.3 0-0.4-0.2-0.3-0.6 1.9-2.1 3.4-4.6 5.8-6.1 0.9-1.6 2.1-3 4.1-3.5 0-1.1 1.4-1.3 2.1-1.3 0.2-0.9-0.6-0.9-1-1.1 -0.4-4-1-8.2-4-9.9 0.2-0.2 0.4-0.4 0.6-0.6 -0.3-0.1-0.6-0.3-0.9-0.4 -0.2 0.2-0.3 0.5-0.5 0.8 -0.3-0.2-0.9-0.7-1.3-0.3 0 0.6 0.7 0.6 0.8 1.1 -0.2 0.9-0.7 1.4-0.9 2.3 -0.8 0-0.8-0.9-1.6-0.9 -0.2 0.2-0.5 0.3-0.5 0.7 0.4 0.4 1.2 0.5 1.5 1.1 -0.2 1.5-1.4 2.1-2.2 3.1 -0.7-0.2-0.5-1.5-0.4-2.2 -0.6 0-0.8 0.3-0.9 0.8 -1.1-1.4-1.2-5 0-6.4 0.6 0.3 1.7 0.1 2.6 0.1 0.1 0.5-0.4 0.3-0.3 0.8 0.5 0.3 1.1-0.2 0.5 0.6 0.6-0.7 1.3-1.3 2-1.9 -0.3-0.1-0.6-0.2-0.9-0.2 -0.2 0.2-0.4 0.4-0.7 0.6 -1.2-0.5-1.8-0.5-3.3-0.7 0-0.1 0-0.1 0.1-0.3 -0.1 0-0.2 0-0.3-0.1 -0.1 0.2-0.3 0.3-0.6 0.2 0-0.1 0.1-0.2 0.1-0.3 -0.2-0.1-0.4-0.1-0.6-0.2 -0.3 1.1-1.6 1-2.3 1.4 -0.5-3-1.3-5.1-3.3-6.4 -1.1-1.8-2-3.9-4.3-4.4 0-0.4 0.3-0.3 0-0.6 -0.5 0.1-0.5-0.2-0.8-0.3 -2-2.8-5-4.7-8.2-6.2 -0.3 0 0.3 0.6-0.3 0.6 -2-0.7-4.1-1.9-6.5-2.5 -1.1-0.3-2.3-0.3-3.4-0.7 -0.3-0.1-0.5-0.6-0.8-0.6 -0.8-0.2-1.6 0.2-2.6 0.1 -0.7-0.1-1.2-0.5-1.9-0.6 -0.9-0.1-1.9 0.2-2.9 0.1 -0.6 0-1.2-0.4-1.8-0.4 -0.7 0-1.3 0.3-2.1 0.4 -1 0.1-2-0.2-2.7-0.1 -1 0.1-1.8 0.8-2.7 0.9 -1.2 0.1-2.6 0.3-3.7 0.4 -1.6 0.2-3.6 0.3-5 0.8 -2.2 0.8-3.3 3.6-6 4.2 -0.4 0.6-0.7 1.3-1.2 1.8 -1.4 0.1-1.8 1.4-2.8 2.2 -0.6 0.4-1.4 0.4-2.1 0.9 -0.5 0.4-0.7 1.3-1.2 2 -0.4 0.5-1.1 0.7-1.6 1.3 -2.7 3.7-4.1 10.1-3.6 16 0.2 2.3 0.5 4.7 1.5 6.7 0.1 4.2 3.2 6.8 4.3 10.5 1.4 1.6 1.8 4.3 3.6 5.5 0.8-2-2-3-2.1-5.2 0.5 0.4 1.3 0 1.4-0.5 -1.9-1.3-2.9-3.5-3.3-6.3 0.3 0.2 0.6 0.4 1.1 0.3 1.5 2.7 2.8 5.6 4 8.7 0.5 0.1 0.6-0.2 1-0.2 0.2 1.4 1.8 1.7 2 3.5 1.1 0.2 2.2 2.5 3.1 0.9 -1.3-0.5-0.8-2.4-1.2-3.5 0.5 0.3 0.5 1 1.3 0.9 0.8 0 1-0.6 1.4-1 -0.2 2.4 0 3.9 0.5 5.9 0.4 0.1 0.6 0.2 1.1 0.1 0.2-0.4 0-0.5 0.3-0.8 -1.5-1.9 0.4-4.8 0.5-6.3 -1.1 0.6-1.2 2-1.7 3.1 -0.2-1.7 0.2-3 0.4-4.4 -1.1 0.1-1.4 1.8-2.4 1.2 0.3-0.4 1.2-0.2 0.9-1.1 -0.5-0.1-0.6 0.2-1 0.3 -0.6-1-1-1.5-0.9-3 0.3 0.1 0.5 0.4 1 0.3 0.1-0.7-0.9-0.4-0.8-1.1 0.3-0.5 0.4-1 0.3-1.8 -0.9 0.3-0.4 2.1-1.5 2.3 0.1-0.1 0.4-1.3-0.2-1.1 -0.4 0.3-0.2 1.3-0.6 1.6 -1.6-1.7-0.3-4.4 0-6.6 -1.2 0.6-0.8 2.7-1.5 3.8 -1.2-1.8 0.8-4.3 0.3-6.3 -1.1 2.2-1.3 5.3-2 7.8 -1.2-1.5-0.5-3.4-0.3-5.5 0.9 0 1.2-0.4 1.1-1.3 -0.6-0.3-0.5 0.8-0.8 0.3 0.1-1 0.6-1.3 0.3-2.1 -0.8 2-3 1.7-2.3-0.7 0.3-0.9 1.8-1.5 1.7-2.6 -1.5 0.4-1.6 2.8-3.1 2.7 0.7-1.5 1.8-2.5 2.5-3.9 -2.3 1.1-3 3.8-4.5 5.8 -0.7-3.5 2.5-5.4 3.1-8.6 -1.7 0.5-1.5 2.7-3.1 3.2 -0.4-1.5 0.9-1.5 1.4-2.3 -0.3-0.6-1.3-0.5-2-0.8 0.7-2.4-0.1-5.5 1.6-6.8 0.4 0.5 0.2 0.9 0.5 1.6 0.6 0.2 1.2 0.3 1.9 0.3 0.4-0.3 0.7-1.3 0.3-1.9 -0.7-0.1-0.3 0.9-0.8 1.1 -0.7-1.1 0.1-1.5 0.2-2.6 -0.9-0.1-0.7 1-1.4 1 -0.8-0.8 0-2.1 0.6-2.6 -0.4-0.5-0.9 0.5-1.1 0 0.2-1.1 0.8 0 1.6-0.5 -0.4-4 4.1-4.7 6.2-6.8 -2.1 0.3-4 2-5.7 3.2 4.5-4.6 9.9-7.7 14.8-11.6 -1.3-0.2-2.7 1.5-3.6 1.6 0.2-0.7 0.9-0.8 1.1-1.5 -2 0.6-4.4 0.8-4.4 3.4 0.5 0.2 0.8-0.1 1.1 0.4 -3.2 1.5-6.2 4.2-8.7 5.9 1-2.1 3.7-2.6 4.7-4.7 -2.5 1.3-4.6 3.1-6.1 5.3 -0.1 0.5 0.4 0.3 0.5 0.6 -0.5 0.3-0.6 1-1.1 1.3 -0.8 3.7-2.6 7.5-3.1 11.4 -0.2 1.4 0.2 2.8-0.5 3.7 -0.5-5.1 1.5-9.2 2.5-13.5 -1.5 1.2-1.4 3.9-2.4 5.4 0.3-1.1 0.6-2.1 0.9-3.2 0-0.3-0.4-0.1-0.5-0.3 0.2-0.6 0.5-1.1 0.6-1.8 -0.9 0.3-0.6 1.7-1.6 1.5 -1.1 2.4-1.6 5.4-1.8 8.6 -0.4-1.7 0.4-3.1 0.2-5 0.3-0.3 0.3-0.8 0.6-1 0-2.9 1.7-4.2 2.4-6.5 1.8-1.2 2.3-3.6 4.9-4 0.3-0.7 0.9-1.1 1.4-1.7 0.6-0.1 0.9-0.4 1.4-0.5 0.4-0.6 0.8-1.2 1.2-1.8 2.3-1 3.7-2.7 5.7-4 2.7-0.6 4.7-0.9 7.2-1.7 2.2 1.2 4.2-1.5 6.4-0.4 1.8-1 3.1 0.1 5.3 0 2.2-0.1 3.9-0.8 4.7 0.3 0 0.3 0.7-0.2 1.1 0 1.5 1 3.2 1 5 1.5 1.1 0.3 2.3 1 3.4 1.5 1.2 0.5 2.2 1.2 3.3 1.8 2.7 1.4 5.7 1.6 6.9 4 -0.6 0.1-1.4-0.1-1.8 0.2 -1.3-1.2-3.2-1.9-4.9-2.8 -0.9-0.4-2.3-1.8-3.1-0.5 1.7 1.8 4.5 2.4 6.2 4.2 -2.6-0.5-3.8-2.4-6.2-3 0.4 1.8 3.6 2 4.8 3.6 -0.4 0.1-0.6 0.4-1.1 0.5 -1.3-0.5-2.5-2-3.9-2 0.3 1.5 2.3 1.3 3 2.5 -0.4 0.2-0.5 0.7-0.9 0.8 -0.7-0.7-1.2-1.7-2-2.2 -0.9 1.5 1.5 1.9 1.9 3.2 -0.6 1.8-1.5 2.9-2.3 4.3 -0.1-0.5 0.2-1.5-0.4-1.6 -1.3 3.1 0.6 6.1 0 9.4 -0.9-2.4-1.1-7.7-0.5-10.1 -1.5 1.1-1 4.1-1.4 6.2 -0.7-1.4 0.5-4.7-0.2-6.6 -0.9 1.5-0.3 4.3-0.9 6 -0.3-2.5-0.5-4.4 0.5-6.3 -0.2-0.4-0.6 0.2-0.7-0.1 0.1-1.2 0.7-2 0.9-3.1 -1.7-1-3.8-1.5-5.8-2.1 0.7 2 3.9 1.2 5.2 2.6 -0.3 1.2-1.4 1.5-2.2 1.7 0.2-0.4 0.1-1.1 0.4-1.3 0.4-0.1 0.4 0.3 0.8 0.1 -0.8-2.1-4.4-1.2-6.7-1.7 0.2-0.7 0.5-1.2 0.6-2 -1.9 1.3-2.1 5.6-1.8 9.1 0.9 0.2 1.2-0.2 1.4-0.7 -0.1 0.8-0.2 1.7 0.1 2.4 -0.2-0.2-0.6-0.2-0.6 0.2 0.3 0.3 0 1.2 0 1.3 -0.6-0.8 0-1.6 0.1-2.6 -1.9-0.3-0.2 2.6-1.9 2.5 0.6-0.7 0-1.6 0.4-2.4 -1.5-0.2-0.7 2.1-1 2.4 -0.5 0-0.8 0-1-0.3 -0.2-1.3 0.5-2.4 0.4-3.1 -1.5 0-0.6 2.4-1.3 3.1 -0.6 0-0.4-1.5-0.2-1.8 -2-2.1-3.2-4.1-3.6-7.9 -1.2 0-0.3 1.7-0.6 2.1 -0.1-0.6-0.6-1.4-1-1.1 0.5 2.8 2.2 5.7 4.5 7.1 -0.5 0.3 0.1 1.5-0.6 1.6 -0.9-0.1-0.1-0.8-0.5-1.1 -0.8 0-0.3 1.4-1.1 1.5 -0.3-0.3 0.1-1.2-0.5-1.1 -0.6 0.4 0.2 1.2-0.4 1.5 -1.2 0.3-0.4-1.3-1.3-1.2 -0.6 0.2-0.1 1.1-0.1 1.6 -2 0.5-3.1 1.8-4.4 2.9 0.3-1.4 1.6-2.7 1.5-4.1 1.3-0.6 1.8-2 3.1-2.5 -4.4 1.2-7.5 5.7-6.6 11.5 0.2 0.4 0.6 0.4 0.8 0.8 -0.2 0.9 0.4 1.9 0.2 2.2 -0.2-0.5-0.5-1.2-1-1.4 0.3 1.7 1.1 3.4 1.9 4.9 0.7 1.4 1.6 3.3 3.2 3.3 0.5-0.5-0.9-0.9-0.5-1.1 2.7 1.5 5.3 3 9.1 3.3 0 0.4-0.3 0.5 0 0.8 1.5 0.3 3.2 0.3 4.5 0.8 -0.4 0.1-0.8 0.2-0.8 0.7 3.5 0.5 6.4-0.5 9.8-0.5 -1.7-1.2-4.5-0.3-6.8-0.6 -1.8-0.2-3.5-0.7-4.9-1 3.5 0.1 11-1.4 15.8 0.2 -0.8-0.1-0.2 1-0.5 1 -0.9-0.3-2-0.9-3.1-0.7 -0.2 0.9 0.4 0.9 0.8 1.1 0.2 2.8 0.4 5.4 1.7 7 -0.2-2.6-1.5-4.6-0.9-7.1 1.1 2.2 1.3 5.3 1.8 8 -0.9 1.4 0.8 3.8 0.5 5.1 -0.7-1.6-0.7-3.4-1.9-4.6 0.1 2.1 1.2 4 1.1 5.8 -0.8-0.9-0.5-3-1.6-3.5 0.5 1.6 0.3 3.8 1.6 4.6 1.2-0.7 1.7-1.2 2.5-2.3 -0.2-1.9-0.7-3.8-0.8-5.5 -0.2 0-0.6 0.1-0.7-0.1 -0.4-1.9-1.2-4-1.1-6.1 0.4 0.9 0.6 2.4 1.1 3.8 0.4 1.2 0.7 3.1 1.7 3.2 -0.2-1.4-1.5-3.9-1.5-5.6 2 2.4 1.5 6.4 2.2 10.1 0.9-1.7-0.7-4.1 0.5-5.5 -0.3-0.6-0.6-1.3-0.9-2.1 0.2 0 0.3 0.2 0.7 0.1 -0.5-1.2-1.3-2.1-1.9-3.2 1.7 0.9 2.1 3.1 2.9 4.9 -0.8 1.3-0.6 4.5-0.6 6 1.5-0.5 0.5-3.3 0.8-4.9 1.2-2.7-1.4-5.1-2.1-7.3 1.2 0.4 1.4 1.9 1.7 2.9 0.5 1.6 1.8 3.8 2.1 5.2 0.2 1.2-0.3 2.4 0.7 3.2 2-1.1 3.2 0.9 4.8 0.3 -0.8-0.4-1.7-0.6-2.5-1.1 1 0 1.6 0.4 2.4 0.4 0.1 0.5 0.4 0.8 0.5 1.3 0.7 0.1 1.1-0.5 1.6-0.1 0-0.6 0.4-0.9 0.6-1.3 0.4 0.2 0.4 0.6 1 0.3 0.3-1-1.1-2.4-1.1-4.2 -0.4 0.1-0.3-0.3-0.8-0.2 -0.5 0.5 0 2-0.4 2.6 -0.2-0.7-0.7-1.2-0.6-2.2 0.5-0.4 1.3-0.5 1.9-0.7 -0.3-0.8-0.2-1.1-0.4-1.8 -1.2 0.1-0.9 1.4-1.9 1.7 -0.8-0.8-2.8 1-3.4-0.4 0.4-0.8 0.7-1.4 1.6-1.5 0.8-0.1 2.4 1.1 2.4-0.2 -1.6-0.9-3.5-0.5-4.5 0.6 -1.2-3.3-3.6-5.3-5.7-7.7 -0.3 0-0.3 0.2-0.6 0.2 -4.6-2.4-11.6-0.9-16.6-0.8 -5.7 0.1-11.8-1.9-14-6.3 0.1-0.3 0.4-0.3 0.3-0.8 -2.2-1.3-2.1-5-1.3-7.9 0.2 0.2 0.3 0.5 0.8 0.3 0.2-0.8 0.3-1.4 0.7-1.9 0.2-0.2 0.6 0 0.8-0.2 0.7-0.5 1.1-1.7 2.2-1.5 0.5-0.1 0.3 0.7 1 0.5 0.4 0 0.1-0.8 0.4-1 2.7-0.9 4.8-0.5 7.9-0.6 1.7 1.2 5.1 0.7 6.2 2.6 0.1-0.2 0.3-0.3 0.7-0.4 2.3 0.7 3.3 2.7 5.7 3.2 0.9 1.3 2 2.5 3.2 3.6 0 0.2-0.2 0.3-0.1 0.6 1.4 1 2.3 3.4 4.4 3.1 1.3 1.3 3.7 2.3 6 2.1 0.3 0.1 0.1 0.6 0.7 0.5 0.3-0.3 0.2-1 0.9-0.8 0.8 2.3 0.8 4.2 2.1 5.7 0.8 1 2.5 1.6 2.5 3.3 0.2 0.3 1 0 1 0.5 -1.6 3.5-0.3 10.1 3.4 10.4 0.8 0.1 2.2-0.3 3-0.4 3-0.6 5.9-2.5 8.3-3.1 1.3-0.3 2.1-0.2 2.9-0.7 4-3 3.1-9.7 2.6-15.2 -1-1.2-0.9-3.6-3.3-3.3 0-1.5-4.1-1.6-2.4 0.1 0.3-0.2 0.3-0.7 0.8-0.7 0.3 0.3 0.8 0.5 1.3 0.6 0.7 1.4 2.2 2.1 2.5 4 0.6 3.4-0.8 6.8-1.5 9.4 1.8-0.7 1.4-3.4 2.3-5.1 -0.6 3.6-1.3 8.6-5.5 8.7 -0.8 0.8-2.8 1.1-4 0.9 -1.6 0.7-4.8 2.8-7.2 2.6 -1.4-0.1-2.3-1.4-2.8-2.8C137.3 64.4 137.7 65 137.6 64.3zM73.6 57.7c0.6 0.3 0.9 1.6 0.5 2.4C73.3 59.6 73.8 58.5 73.6 57.7zM74.8 59.9c0.9 0.4 0.8 1.2 0.7 2.1C74.7 61.6 74.6 60.8 74.8 59.9zM78.1 65.7c-0.2-0.2-0.2-0.8-0.2-1.3C78.4 64.4 78.8 65.7 78.1 65.7zM77.3 64.5c-0.8-0.4-1.1-1.3-1.2-2.5C76.9 62.4 77.3 63.2 77.3 64.5zM78.6 63.3c-0.9 0-0.7-1-0.5-1.6C78.4 62 78.6 62.5 78.6 63.3zM77.4 62.1c-1.2-0.8-1.3-2.2-0.9-3.7C77.4 59.1 77.6 60.5 77.4 62.1zM75.4 56c0.9 0.8 0.3 2.3 0.3 3.6C74.5 58.7 75.2 57.4 75.4 56zM73.4 52c0.1 1-0.3 1.5-0.2 2.4 -0.4-0.4-0.6-1.1-0.9-1.7 -0.5 1.4 1.4 3.3 0.6 5.4 -0.8-2.2-3.6-4.5-2.1-7.2C71.5 51.7 72.5 52.4 73.4 52zM70.2 49.1c0.3 0.4 0 1.5-0.3 1.9C69.6 50.5 70.1 49.6 70.2 49.1zM66.9 44.5c1.3 1.1 0.8 3.7 1 6.1 0.2 3 1 5.6 1.8 7.8 -1.2-0.9-1.8-3.9-3.1-5.4 0.3-0.3 1-0.2 1.3-0.5 -0.1-1-1.1-1.1-1.4-2 0.6-1.4-0.8-4.2-0.6-6.1C66.3 44.3 66.6 45.1 66.9 44.5zM81.7 17.8c-0.2 0.1-0.1 0.8 0.4 0.8 -0.5 0.4-0.9 0.1-1.4 0.5C80.6 18.4 81 18 81.7 17.8zM66 38.4c0.7 0.9-0.3 2.8 0 4.3C65.6 41.9 65.9 39.6 66 38.4zM120.9 22.3c0.6-0.1 2.7 0.6 2.3 1.5C122.4 23.5 121.9 22.6 120.9 22.3zM120.4 69c-0.6-0.7-0.4-2.3-1-3 0.1-0.2 0.5-0.2 0.8-0.3C120.2 66.8 120.5 67.7 120.4 69zM132.8 69.1c-0.1 0.4-0.8 0.3-1.1 0.5 -0.1-0.3 0.1-0.4 0.1-0.6C132.3 68.8 132.3 69.2 132.8 69.1zM126.3 66.2c0.6 0.3 0.2 1.1 0.1 1.6C125.9 67.6 126.2 66.6 126.3 66.2zM133.4 68.1c-0.4 0.1-0.3-0.3-0.7-0.3 0-0.2 0.3-0.1 0.3-0.3C133.4 67.5 133.5 67.7 133.4 68.1zM131.3 65.8c-0.1 1 0.3 1.5 0.2 2.4 -1.2 0-2.6-0.2-3.4-1C128 65.3 130 65.6 131.3 65.8zM128.5 65.5c-0.2 0.4-0.7 1-1.1 0.7C127.3 65.5 127.9 65.6 128.5 65.5zM126.1 61.6c-0.1 0.7 0.3 0.8 0.2 1.5 0.2 0.4 0.4 0.7 0.7 0.9 0 0.8-0.6 1.1-1.4 1.2 -0.9-2.4-1-4.9-2.3-6.5C124.1 58.4 125.2 60.8 126.1 61.6zM88.6 42.7c-0.9-1.8 0-4.3 0.9-6.3C89.3 38 88.3 40.2 88.6 42.7zM110.8 34.3c-0.5-0.6-0.2-1.5-0.1-2.2C111.1 32.5 111.1 33.9 110.8 34.3zM109.6 31.8l0 1.4c-0.2 0-0.5 0-0.5 0.2 -0.3-0.3-0.3-0.8-0.4-1.4C109.3 32.1 109.2 31.8 109.6 31.8zM110.7 29.2c-0.3 0.3-0.5-0.1-0.8-0.1 -0.4 0.7-0.2 1.8-0.9 2.1 -0.3-1.5 0.4-3.3 2-3.6C110.8 28.1 110.9 28.8 110.7 29.2zM107 30.4c0-1.4 0.8-2.1 1.5-2.8C108.9 28.8 107.6 29.7 107 30.4zM109.5 25.7c-0.1 1.2-1.3 1.2-1.9 2 -0.5-0.7 0.3-1.5 0.3-2.2C108.6 25.3 109 25.5 109.5 25.7zM104 25.7c0.4-0.1 0.8-0.2 1.3-0.4 -0.4 2.1-0.5 3.6-1.6 5C103.4 29.5 103.8 27.1 104 25.7zM106.5 28c-0.1-0.1-0.2-0.3-0.2-0.5 -0.2-0.5-0.5 0.1-0.8 0 0-0.9 0.4-1.5 0.6-2.3l1.1 0c-0.5 2.2-0.7 3.8-1.6 5.5C104.9 30.1 105.4 28.1 106.5 28zM105.6 31.4c0.1-0.2 0.3-0.3 0.6-0.3 0 0.4 0 0.8-0.1 1C105.8 32 105.9 31.5 105.6 31.4zM104.7 35c0.4-0.7 0.5-1.9 0.9-2.6 0.3 0.6-0.1 1.9-0.1 2.7C105.1 35.3 105.1 34.9 104.7 35zM107 31.3c0.8 0.2-0.6 2.3 0.4 2.9 -0.7 0.2-0.1 0.7-0.4 1.3C105.7 34.6 107 32.5 107 31.3zM108 35.7c-0.2-1.5-0.2-2.3-0.1-3.9 0.4 1.6 1.2 2.7 1.2 4.1C108.5 36.1 108.5 35.7 108 35.7zM109.9 35.5c0.6 0 0.7 0.5 0.7 1.1C110 36.6 109.9 36.1 109.9 35.5zM112 35.4c-0.1 0.7 0.1 1.2 0.2 1.8C111.3 37.3 110.7 35.2 112 35.4zM112.8 36.5c-0.1-0.7 0.5-0.1 0.8-0.2 -0.1 0.7 0.3 1.5 0.1 1.8C113.1 38 113.3 36.9 112.8 36.5zM142.7 40.1c-1.5 3.1 3.6 6.4 3.1 2.5 -0.1-0.6-0.3-1.1-1.2-1.2 -0.7 0.3 0.1 1.4 0.4 1.8 -1 0.6-1.2-1.4-0.7-1.9 0-0.3-0.4-0.3-0.8-0.3 -0.5-1.8-0.3-3 0.7-4 1.2 2.2 2.2 4.7 2.6 7.8 1.5-1.1-0.3-4.5-1.1-6.4 -0.3-0.6-0.1-1.1-0.5-1.4 2.2 1.1 3 5.2 3 9.1 -2 0.6-3.3 1.8-4.6 3.2 -0.4 0 0.2-0.4 0.1-0.6 -0.6-0.4-0.8 0.6-1.4 0.7 0.7-0.8 1.6-1.4 2.3-2.2 -0.7-0.6-1.7 0.7-2.4 1.2 -0.5-0.7-0.5-1.5-0.2-2.3 -1.5 0.7-2.6 1.7-3.9 2.5 -0.3-0.6 0.6-1.4 1.2-1.6 -0.2-1.5 1-1.6 1.5-2.5C140.4 43.1 142 41.3 142.7 40.1zM140.1 49.4c-0.2-1.2 0.4-1.6 0.9-2.1 0.4 0.3 0 1.4 0.5 1.4C141.3 49.5 140.8 49.2 140.1 49.4zM134.7 35.1c-0.5-0.4-0.7-1.2-0.9-1.9C134.2 33.7 134.5 34.3 134.7 35.1zM115.9 31.8c0.7 0.4 0.5-1.1 0.7-1.6 0.1 1.4-0.1 4.7-0.3 6C115.9 35.2 115.8 34 115.9 31.8zM115.3 39.5c0.3-0.4 0.8-0.6 0.6-1.5 1.5 1.5 2.2 3.8 3.9 5.5C117.8 43.4 117.4 40.2 115.3 39.5zM125.4 48.4c-0.1-0.8-1.3-1.5-2.3-1.8 -1-1.2-2-2.7-3-3.9 -0.6-0.7-0.9-1.7-1.5-2.4 0.1-0.7-0.3-1.7-0.7-1.3 -0.6-0.2 0-0.8-0.3-0.9 0.2-0.5 0.5 0.1 0.3 0.5 0.7-0.4-0.3-1.5 0.4-2.4 -0.6-1.4-0.6-4.4-0.3-6.1 0-0.2-0.1-0.5 0.5-0.5 -0.4-0.5-0.3-0.5-0.2-1.3 0.8 0.5 0.1-1.1 1.3-1 0.2-0.4-0.6-0.7-0.6-0.3 -0.5-0.3 0.4-0.6 0.5-0.8 0.7-0.3 0.4 0.6 1 0.4 0.3-0.1 0.1-0.9-0.2-0.8 0.3-0.4 1-0.4 1.3-0.9 0.6 0.2 0.8 0.7 1.5 0.8 0.4 0 0.1-0.7-0.2-0.6 1.3-0.8 3.3-0.2 4.5-0.5 0.4 0.1 0.7 0.4 0.8 0.8 0.5 0.1 0.3-0.5 0.8-0.3 2.6 2.9 3.5 6.6 5.2 10.5 -1-0.1-1.3 1.4-1.9 2.2 -0.3-0.1 0.4-1.9 0.6-2.6 -1 0.6-1.4 2.2-1.7 3.4 -0.3 1.3-0.7 2.7-0.8 4.1 -0.3-1.3-0.5-3.1-0.1-4.2 -1.4 1.2-1.7 3.6-2.2 5.6 -0.3 1.2-0.9 2.2-1 3.4 0.1 0.1 0.2 0.2 0.2 0.5 0.8 0.1 0.8-0.5 0.8-1.3 0.3 0 0.3 1.9 0.6 2.6C127 49.2 126.6 48 125.4 48.4zM129.3 48.9c-1 0-0.6-1.4-0.7-1.9 -0.2-1.8-0.3-4.2 0.5-5.8C129.2 43.6 129.3 46.9 129.3 48.9zM131.2 47.4c-0.4 0-0.3-0.5-0.3-0.9C131.4 46.3 131.1 47.1 131.2 47.4zM133.8 54.6c-0.2-0.7-1-0.8-0.5-1.7 -0.1 0.1-0.2 0.2-0.5 0.2 -0.3-2.3-1.3-3.1 0-4.7 -0.4-0.4-0.1 0.4-0.8 0.2 -0.2-1.4 1.1-1.5 1.4-2.5 -0.7 0.2-0.7 1-1.4 1.2 0.1-4.5 0.5-8.3 2.7-11 0.3 0.6 0.4 1.4 0.9 1.9 0.5-0.9-0.7-1.5-0.7-2.4 0.2 0 0.3 0.1 0.5 0.1 0.4-1.2 1.6-1.4 2.9-1.2 -0.2 1.6-1.1 2.5-1.3 4.1 -0.6 0.2-0.7-0.2-1-0.5 0.7 1.3-0.1 2.5-0.7 3.9 -0.4 0-0.1-0.6-0.2-0.8 -2.4 0.4-1.1 3-1.6 4.4 0.2 0 1.3-0.5 2.1-0.5 -0.2-0.7 0-0.5 0.3-1 -0.7-0.9-0.1-2.2 1.2-2.1 -0.2-0.7-0.6-0.8-1.1-0.5 0.2-0.5 0.5-0.9 1.3-0.8 -0.1-0.4-0.3-0.6-0.2-1.1 0.2-0.2 0.7-0.2 1.1-0.2 0.1 1.8 1.1 2.2 0.6 3 0.1 0.6 0.8-0.3 0.8 0.6 0.1-0.3 0.6-0.4 1.1-0.3 0.1 1.2-1.3 1.1-1.7 1.8 -0.5-0.2-0.6-1.2-0.2-1.4 -0.2 0.2-0.6 0.1-0.6 0.5 0.1 0.5 0.8 1.2 0.1 1.4 -0.6 0.1-0.1-0.1-0.2-0.5 -1.5 1.1-1.2 3-2.6 4.1 0.7 0.9-0.3 1.2-0.4 2.1 0 0.3 0.6 0.5 0.7 0.1 0.5 0.5-0.6 0.7-0.4 1.5 0.1 0.1 0.1 0.3 0.3 0.3 1.3-1.2 2.6-2.3 3.8-3.7 0.4 0 0.1 0.7 0.2 1 -1.7 1.4-2.9 3.2-4.7 4.5C134.6 53.9 133.8 54 133.8 54.6zM137 49.3c0.4 0.2 0 1-0.6 0.8C136.4 49.6 136.9 49.7 137 49.3zM139.4 52.3c-0.7 1.3-2 2.1-2.8 3.3C136.7 54.4 138.4 53.3 139.4 52.3zM136.8 56.6c0.3-1.4 1.3-0.9 1.9-1.2 0.2 0.6-0.8 1.4-1.7 1.5C137 56.7 136.9 56.6 136.8 56.6zM156.1 60.2c0.3 0.6-0.6 3.4-2 3.8C154.6 62.6 155.7 61.8 156.1 60.2zM151.4 65.2c-0.2 0-0.2-0.3-0.2-0.5 0.3 0 0.6-0.1 0.7 0.1l0 0.3C151.6 65.2 151.4 64.9 151.4 65.2zM152.8 64.2c0.2 0 0.4 0 0.5-0.2 0.5 0.4-0.1 1.1-0.6 1.1C152.6 64.7 152.6 64.3 152.8 64.2zM149 65.4c0.2 0.6-0.2 0.7-0.5 1 -0.3-0.1-0.4-0.5-0.3-1L149 65.4zM147.5 65.6c0.6 1.6-1.4 1.5-2.4 1.9 -1.4 0.5-3.4 1.4-5.8 0.8 0.7-0.6 1.2 0 1.9 0C143.6 68 145.4 66.2 147.5 65.6z" class="a"></path><path d="M88.7 31.6c0.2-0.1-0.3-1.5 0.1-1.8 1.1 0.5 1 2.2 2.2 2.5 -0.1 0.7-1 0.6-1.3 1.2 -1-0.4-2.4-1.2-1.8-2.7C88.4 30.8 88.5 31.3 88.7 31.6z" class="a"></path><path d="M139.4 58.6c0.1-0.3 0.3 0.1 0.3-0.2 0.4 0-0.2 0.3 0 0.7 -0.4 0-0.6-0.2-0.7-0.6C139.2 58.6 139.8 58.9 139.4 58.6z" class="a"></path><path d="M150.5 63.3c-0.5-1.3 1-4.3 2.6-5.2 -0.4 0.9 0 1 0.2 1.9 -0.5-0.1-0.5 0.3-0.8 0 0.1 0.4-0.1 0.4-0.1 0.7C153.4 60.9 151.3 62.8 150.5 63.3z" class="a"></path><path d="M89.1 33.4c0.1 0.8-0.9 0.6-0.8 1.5 -0.4 0-0.8 0-1-0.1 0.2 0.5 1.2 0.8 0.7 1.6 -0.8-0.3-1.6-0.5-1.8-1.4 1.3 0.1 0.4-1 1.4-1.2 -0.2-0.3-0.5-0.7-0.2-1.1C88.4 32.5 88.4 33.3 89.1 33.4z" class="a"></path><path d="M88.8 62c0.3 1.3-0.7 3.1 0.8 3.8 0.1-1.1-0.2-2.6 0.7-2.9 0.1 1.1-0.2 1.8-0.1 2.9 1.5 0.2 0.4-2 1.4-2.3 0.4 1.3 0.1 2.1 0.3 3.9 1.4-0.1 0.6-2.1 1-3.1 0.6 2.3 0.7 5.9 1.4 8.7 0 0.5 0.8 0.1 0.8 0.6 0 0.7-0.9 0.8-1.1 0.2 -0.4 0.1-0.3 0.7-0.8 0.8 -0.6-0.1-0.9-0.5-1-1.1 -0.2 0.9-1.3 0.5-1.9 0.7 0.3-1-1.4-2.4-0.3-3.4 0.1-0.9-0.8-0.7-1.2-1.1 -0.2 1.2 0.7 2 0.3 2.9C87.6 70.3 87.1 64.1 88.8 62zM88.8 67.2c-0.2-0.5 0.2-0.4 0.3-0.6 -0.2 0-0.3-0.3-0.5-0.3C88.4 66.5 88.6 67.5 88.8 67.2zM91.1 67.3c0-0.3 0-0.6 0-1 -0.4 0-0.3 0.3-0.8 0.2C90.3 67 90.6 67.3 91.1 67.3zM92.1 73.4c-1.2-1.6 0-3.6-1.1-5.1 -0.1 0-0.2 0-0.3 0C90.8 69.5 90.1 73.3 92.1 73.4zM92.2 72.1c0.5 0.3 0.3 1.4 1 1.6 0.2-1.7-0.4-3.5-0.3-5.8C90.7 68.1 93.4 71.4 92.2 72.1z" class="a"></path><path d="M98.3 24.3c0.1 2.4 1.5 3.4 2.2 5.1 0.5-1.9 0-4.7 1.8-5.4 0.2-0.6 0-1.5 0.8-1.6 -0.1 2.9-0.9 6.3-0.5 9.5 -0.6 0-0.9-0.3-0.8-1.1 -0.5-0.1-0.5 0.3-1 0.2 0.2-0.7-0.4-0.6-0.5-0.9 -0.2 0-0.3 0.8-0.5 0.3C98.7 29.1 97.1 25.8 98.3 24.3zM101.6 28.7c0.1-0.4 0.4-1.6 0-1.8C101.4 27.7 101.3 31.3 101.6 28.7z" class="a"></path><path d="M114.2 70.1c-0.5 0.2-0.7 0.1-0.5 0.8 0.6-0.1 0.3-0.9 0.8-1 0.7 0.5-0.1 1.2 0.1 1.9 0.2 1 1.3 1.1 1.2 1.9 -0.9 0.1-0.9 0.3-1.6 0.7 -0.7-0.8-1.3-1.7-1.9-2.7 -0.5 0-0.2 0.8-0.4 1 0.3 0.9 2.3 1.7 1 2.7 -0.9-0.1-0.8-2-2-1.4 0.1 0.7 0.9 0.6 0.7 1.6 -0.2 0-0.3 0-0.3 0.2 -1.2-0.6-2-1.7-3.1-2.3 0.4-0.8-0.3-1.6 0.3-2.1 -2.3 1.4 1.2 3.2 0.5 4.3 -1.7-0.7-2.7-3.6-3.7-5.5 -0.5 1.4 0.2 3.7 1.4 3.3 0 1.1 1.4 1.5 1 2.5 -1.6-0.1-1.7-1.8-2.7-2.5 -0.4 0.2 0.1 1.2-0.3 1.4 -0.8-0.3-0.6-0.2-1.4 0.1 -0.1-0.1-0.2-0.4-0.2-0.7 -0.1 0.1-0.4 0.2-0.6 0.2 -0.2 1.7-2.4 2.9-4.1 1.7 -0.3-1.4-1.2-2.1-1.4-4.3 -0.2-1.9-1.4-4.4-0.3-5.8 0.1 2.4 0.7 4.2 1 6.4 0.1 0.6 0.9 0.3 1.3 0.6 0.1 0.6-0.6 0.3-0.6 0.7 0.5 0.4 0.7 1.3 2 1.2 0.1-0.7-1.5-0.6-1-1.3 0-0.7 0.6-0.1 0.8 0 0.2-0.4 0.4-0.8 0.8-1.1 -0.9-2-0.6-4.4-0.9-7.6 0.9 0.6 0.6 2 0.7 3 0.2 1.6 0.6 3.2 0.8 4.7 0.2 0.3 0.4 0.5 0.7 0.6 0-3.6-0.5-6.8-1.4-9.9 0.5 0.3 0.7 1 0.8 1.6 0.3-0.2 0.2-0.7 0.8-0.5 -0.6 2.5 1.1 3.9 1.8 5.6 1-2.9-1.8-4.4-2.1-7 1.1 0.9 1.7 2.3 2.2 3.8 0.7 0.1 0-1.1 0.8-1 -0.1 2 0.4 4.4 2.1 5.1 0.4-1.1-0.5-2.1-1.5-2.2 0-0.6 0.7-0.5 0.9-0.8 -0.8-1.4-1.4-3-2.1-4.4 1.8 0.9 1.9 5 4.4 5.8 -0.8-1.9-2-3.4-2.4-5.7 1.7 1.6 2.1 4.6 3.7 6.3 1.1-2.4-1.8-4.4-1.8-7.2 1.6 1.8 2.1 4.8 3.6 6.6 0.3-2.6-2.4-4.9-2.3-8.3 1.5 2.6 2.4 5.9 3.8 8.6 0.2-2.1 0.2-5.7 2-6.8C114.9 64.7 113.2 67.7 114.2 70.1zM101.4 75c-0.9 0-0.9 0.8-1.4 1.2C100.8 76.1 101.2 75.7 101.4 75zM104.1 72.4c0.1-1.2-1-2.5-1.7-3.3C102.5 70.4 102.9 71.8 104.1 72.4zM111.3 72c0.2-1 0.4-1.8-0.4-2.2C110.6 70.3 110.3 72 111.3 72zM113.6 72.3c-0.2-0.9-0.6-1.6-1.2-2.1C112.5 71.2 113 71.8 113.6 72.3z" class="a"></path><path d="M125.1 38.7c1 0.1 0.6-0.7 1.7-0.7 1 0.3 1.3 1.4 1.2 2.8 -0.3 0.1-0.3-0.1-0.5-0.1 -0.6 2.1-1.1 3.8-1.4 5.8 -0.3 0-0.5 0-0.8 0 -0.1-0.4 0-0.6 0.1-0.8 -0.7-0.3-1-1.1-1.3-1.7C125.2 42.8 126.1 40.6 125.1 38.7zM126.2 41.3c-0.2 1.1-1 2.4-0.5 3.6C125.9 43.9 127 42.2 126.2 41.3zM126.7 40.8c0.6-0.2 1-1.5 0.3-1.6C126.7 39.8 126.4 40.1 126.7 40.8z" class="a"></path></g></svg>