<svg xmlns="http://www.w3.org/2000/svg" width="140" height="104" viewBox="29.5 0 140 104"><style>.a{fill:#A09078;}</style><defs><rect x="29.5" width="140" height="104"></rect></defs><clipPath><use xmlns:xlink="http://www.w3.org/1999/xlink" xlink:href="#SVGID_1_"></use></clipPath><g clip-path="url(#SVGID_2_)"><path d="M60.3 34.5c-0.3-0.3 0.1-0.9 0.5-1C60.7 34 60.3 34.1 60.3 34.5z" class="a"></path><path d="M62.3 42.3c0.2 1.5 0.2 3.2 0.9 4.2C61.6 46.6 61.7 42.9 62.3 42.3z" class="a"></path><path d="M65.8 31.3c0 0.3 0.1 0.5 0.1 0.8 -2.3-0.9-2.5 2.6-3.8 3.7C62.3 34 63.3 31.3 65.8 31.3z" class="a"></path><path d="M64.8 41.8c0.1 1.9 0 3.9 0.4 5.3 -0.3 0.2-0.3-0.1-0.6 0C64.3 45.2 64 43.1 64.8 41.8z" class="a"></path><path d="M63.4 35.5c1.5 0.8 2.4-1.3 3.4-1.9 -0.4 1.4-1.8 3.1-3.5 2.7C63.2 35.9 63.4 35.7 63.4 35.5z" class="a"></path><path d="M66 43c0.5 1.6-0.4 4.9 0.5 6.5 -0.2 0.2-0.7 0.3-0.8 0C65.2 47.3 65.4 44.7 66 43z" class="a"></path><path d="M67.4 43.1c0.4 2.1-0.5 5 0.4 6.8 -0.7 0.3-0.9-0.4-1-0.8C66.3 47.5 67.1 44.3 67.4 43.1z" class="a"></path><path d="M68.5 44c0.3 1.9-0.5 4 0.4 5.6 0.7-1 0.2-3 0.7-4.2 0.6 1.4 0 3.4 0.3 4.8 0.1 0.6 0.6 1 0.3 1.5 -1 0.3-0.8-1-1-1.8 -0.3 0.3-0.2 0.8-0.8 0.9 -0.1-0.1-0.1-0.2-0.3-0.2C67.9 48.6 67.7 45.6 68.5 44z" class="a"></path><path d="M70.7 44.8c0.7 1.9-0.7 4.6 0.7 6 -0.2 0.2-0.6 0.7-1 0.4C69.8 48.9 70.3 46.6 70.7 44.8z" class="a"></path><path d="M69.3 34.4c0.4 0.3-0.3 1.6-0.5 2.2C68.3 36.2 69 34.9 69.3 34.4z" class="a"></path><path d="M71.8 45.4c0.7 1.5 0.1 4.4 0.4 6.5 0.1 0.6 0.7 1.2-0.1 1.6 -0.5-0.3-0.5-1.5-0.5-2.2C71.4 49.3 71.6 47 71.8 45.4z" class="a"></path><path d="M72.9 46c0.5 1.8-0.1 4.5 0.5 5.7 0.1-1.8 0-3.7 0.4-5.3 0.7 1.6-0.2 3.6 0.5 5.2 0.4-1.1 0-2.9 0.4-4 0.3 0 0.1 0.6 0.2 0.9 0.2-0.1 0.2-0.3 0.2-0.5 0.5 0.8 0.1 2.9 0.5 4.4 -1.1 0.6-1.8 0.2-2.8-0.1C72.6 50 72.3 47.7 72.9 46z" class="a"></path><path d="M74.2 43.4c0.6 0.3 1.2 0.7 1.4 1.4C75 45.2 74 44.2 74.2 43.4z" class="a"></path><path d="M74.2 42.4c0-0.2 0.1-0.3 0.2-0.4 0.5 0.5 1.8 0.7 1.6 1.6C75.4 43.4 74.8 42.9 74.2 42.4z" class="a"></path><path d="M73 30.5c0-0.2 0.1-0.3 0.4-0.3 2.6 0.7 5 1.9 6.6 3.9C77.5 33.1 75.8 31.1 73 30.5z" class="a"></path><path d="M74.7 40.7c0.8 0.4 0.7 1.8 2 1.6C76.2 43.6 74.4 41.7 74.7 40.7z" class="a"></path><path d="M75 39.1c0.5 0.6 0.8 1.5 1.4 2 0.1-0.1 0.1-0.3 0.3-0.3 0.3 0.2 0.3 0.5 0.2 0.9C75.8 41.7 74.7 40.2 75 39.1z" class="a"></path><path d="M74 32.3c2.5-0.2 4.3 1.9 6 3.2C77.9 35.2 76.3 32.9 74 32.3z" class="a"></path><path d="M75.3 38.2c0.9 0 0.9 1.1 1.9 1C76.9 40.3 75.3 39.3 75.3 38.2z" class="a"></path><path d="M79.8 47.9c0.4 1.7-0.6 3.7 0 5.5 -0.2 0-0.4 0.1-0.6 0.1C78.7 51.7 79.3 49.6 79.8 47.9z" class="a"></path><path d="M80.4 54.5c-0.2-0.6 0.2-0.6 0.1-1.2 -0.1-0.2-0.5 0.3-0.6 0 0-0.4 0.1-0.7 0.4-1 0.1 0.1 0.2 0.2 0.3 0.4 0.4-1.3 0.4-3 1.1-4.1 0.3 1.8-0.6 3.6-0.5 5.6C80.9 54.4 80.8 54.6 80.4 54.5z" class="a"></path><path d="M82.6 49.5c0.7 0.5 0 1.4-0.2 2.3 -0.3 1.3 0 2.9-1.1 3.4C81.2 53.4 82.1 51.3 82.6 49.5z" class="a"></path><path d="M86 49.3c-0.4 2.3-1 5.5-1.7 7.6 -0.1 0-0.2 0-0.4 0C84.2 54.6 84.6 51.3 86 49.3z" class="a"></path><path d="M86.3 56.5c-0.6-0.5-0.7 0-1.3-0.1 0.9-3 1-6.6 2.8-8.9 -0.5 2.4-1.6 5.2-1.9 8.2 1.2-1.9 0.9-5.1 2.6-6.7C87.6 51.3 87.6 54.4 86.3 56.5z" class="a"></path><path d="M89.6 48.7c-0.2 2-1.5 4.4-1.9 6.6 -0.2 1 0 2.3-1.1 2.7 0-1.6 0.7-3.3 1.1-4.9C88.1 51.6 88.7 49.9 89.6 48.7z" class="a"></path><path d="M85.3 36.7c1-0.6 2.9-0.2 3.8 0.6C88 36.8 86.2 37.3 85.3 36.7z" class="a"></path><path d="M88.5 37.7c0.2-0.4 0.8-0.1 1 0C89.3 38.2 88.8 37.6 88.5 37.7z" class="a"></path><path d="M89.7 45.9c-0.1-0.3 0.1-0.3 0.1-0.5 0.9 0 1.4 0.5 2.1 0.7C91.5 47.1 90.4 45.9 89.7 45.9z" class="a"></path><path d="M92.5 53.6c0.5 1.1-0.3 2.8-0.3 4.5 0 1 0.5 2 0.2 2.8 -0.2-0.1-0.7 0.1-0.7-0.3C91.6 58.4 91.7 55.4 92.5 53.6z" class="a"></path><path d="M91.8 44.5c0.1 0.1 0.2 0.3 0.2 0.6 -0.8 0.7-1.5-0.5-1.7-1.3 0.1 0 0.2-0.1 0.2-0.2C91 43.9 91.1 45.1 91.8 44.5z" class="a"></path><path d="M90.9 43.5c0.5-0.4 0.9 0.3 1-0.5 0.4 0.4 1 0.2 1.5 0.2 -0.2 0.6-0.6 1-1 1.4C91.6 44.5 91.2 44.1 90.9 43.5z" class="a"></path><path d="M89.7 29.5c0.3-0.3 1.2-1 1.8-0.5C91 28.8 90.3 29.4 89.7 29.5z" class="a"></path><path d="M91.2 37.8c0-0.2 0.3-0.1 0.5-0.2 -0.1-0.4-0.6-0.1-0.6-0.6 2.6 0.4 4.6 2.4 7.8 1.7 0.1 0.5-0.2 0.6-0.3 0.9C95.6 39.6 93.8 38.2 91.2 37.8z" class="a"></path><path d="M92.1 41.7c0.6-1.1 3.1-0.4 3.5 0.5C94.6 41.8 93.4 41.7 92.1 41.7z" class="a"></path><path d="M93.5 38.9c1 0.8 2.2 1.3 3.4 1.8C95.5 41.1 93.5 40.2 93.5 38.9z" class="a"></path><path d="M93.3 30.7c2.4 0.6 5.4 1.2 8 1.8 0.6 0.1 1.3 0.1 1.7 0.6 -3.2-0.2-6.7-1.1-9.7-2C93.3 31 93.3 30.9 93.3 30.7z" class="a"></path><path d="M99.7 54c-0.1-0.6-0.6-0.5-1-0.5 -0.3 0.4 0 0.5-0.1 1C99.3 54.6 99.2 54.1 99.7 54z" class="a"></path><path d="M100 56.4c0-0.5 0.6-0.6 0.8-1C101.1 55.8 100.6 56.4 100 56.4z" class="a"></path><path d="M105.7 65c-0.1-0.6 0.5-0.8 0.8-1.1C107 64.4 106.4 65 105.7 65z" class="a"></path><path d="M104.6 47.8c0-0.1 0-0.3 0-0.4 0.6-0.1 1.1-0.1 1.1 0.5C105.2 48 105.1 47.8 104.6 47.8z" class="a"></path><path d="M109.2 52.8c0.1 0.7-0.5 2.1 0.6 2 0 0.4-0.2 0.7-0.7 0.7C108.7 55 108 52.9 109.2 52.8z" class="a"></path><path d="M113.6 44.1c-0.2-0.6 0.2-0.9 0.8-0.9 0.1 0.2 0.3 0.5 0.3 0.7C114.4 44.2 114.1 43.7 113.6 44.1z" class="a"></path><path d="M123.6 81.2c0.4-0.3 1 0.3 1.7 0.2C125.2 81.8 123.9 81.5 123.6 81.2z" class="a"></path><path d="M130.5 73.8c-0.3-0.2 0.2-0.8 0.7-0.8C131 73.3 130.6 73.4 130.5 73.8z" class="a"></path><path d="M136.5 34.4c0.2-0.7 0.4 0.3 0.8 0.3 -0.1 0.2 0.1 0.7-0.3 0.7C137.2 35 136.8 34.5 136.5 34.4z" class="a"></path><path d="M142.3 59.2c-0.1-0.3 0-0.6 0.3-0.6 -0.2-0.6-0.7-0.8-0.9-1.3 -0.2 0.1-0.8-0.1-0.7 0.2C141.4 58.1 141.6 59.1 142.3 59.2z" class="a"></path><path d="M144 53c0-0.2 0-0.3-0.1-0.5 0.3-0.1 0.5 0 0.6 0C144.5 52.8 144.4 53 144 53z" class="a"></path><path d="M97.6 76.1c-1-0.6-2.4-1-3.4-1.7 -0.7-0.5-1.1-1.3-1.8-1.8 -0.8-0.7-1.6-0.7-2.7-0.8 -0.3-0.1-0.5-0.3-0.8-0.4 -0.4-0.1-0.9 0.1-1.3 0 -0.7-0.2-1.6-0.8-2.4-1.1 -3.2-1.4-7.3-3.1-8.9-6.2 -4.1 0.2-6.6-1.7-9.8-2.7 -0.3-0.7-1.2-1.3-0.9-1.6 -2-1.7-4.3-4.8-5.7-8.6 -1.1-3.1-2.9-6.4-3.1-9.3 -0.1-1.1 0-2.4 1.2-2.7 -0.2-0.7 0.4-1.1-0.2-1.5 -2 0.3-3.5 0.2-4.9-0.2 -0.4 0 0 0.8-0.4 0.8 -0.8-0.7-1.8-1.8-2.4-2.3 0-0.6 0.6 0.1 0.5-0.4 0.3 0 0.4 0.3 0.6 0.6 0.2-0.9-0.4-1.9-0.8-2.9 0.4-0.5 0.9 0 1.2-0.6 0.6 2.3 3.2 3 5.3 4 -0.6-2.5-2.8-2.8-3.1-5.7 1.1 1.1 1.7 2.8 3 3.8 0.3-0.1 0.2-0.6 0.3-0.8 -1.4-1.4-2.7-3.7-3.8-5 -0.2-0.4-0.1-1.3-0.3-1.9 -1.6 1.1-2.1 3-1.9 5.5 -0.9-0.3-0.7-1.8-0.6-2.5 0.3-1.6 1.7-3.9 3-3.7 0.2 0.5-0.3 0.4-0.4 0.7 1.3 2.1 2.4 4.5 4.3 5.8 -0.7-1.2-1-2-1.8-3.4 0.9 0.5 1.2 2.1 2.1 2.8 0.7-0.2 0.8 0.4 1.3 0.4 0.2 0.9-0.8 0.3-1.1 0.6 0.6 0.6-0.5 0.3-0.4 1.2 2.3-1.4 3.4-3.8 5.4-5.5 0.3 0.5 1.1-0.2 1.5-0.3 -0.5-0.8 0.1-1.4 0.4-1.9 4.2-0.6 6.6-4.3 12.1-4.5 2.1-0.1 4.6 0.6 6.5 1.4 1.9 0.8 4.2 1.4 5 3.2 -0.1 0.2-0.4 0.2-0.7 0.2 0.2 0.4 0.5 0.6 0.9 0.8 6.1-2.7 13.7 1.5 20.1 2.8 1.1 0.2 2.1 0.5 3.3 0.8 0.8 0.2 1.9 0.8 2.4 0.7 0.1 0 0.2-0.4 0.1-0.4 0.4 0.1 0.7 1.1 1.2 0.6 0.1 0.5 0.9 1.3 1.9 1.1 0.7 0.5 1.2 1.4 1.9 2 0.2 0-0.1-0.5-0.2-0.5 1 0.5 1.9 1.9 2.6 3.3 0.7 1.4 1.2 3 1.9 4.3 2.3-2.7 4.6-5.5 6.3-8.7 -0.5-0.1-0.7 0.8-1.4 0.8 6.5-7.7 11.9-16.2 18.7-23.6 0.9-2.4 1.8-3.1 4.8-2.7 0.5 0.1 2.4 1.4 2.8 2.2 0.3 0.6 0.1 1.4 0.2 2 0.3 1.9 0.6 3.8 0 5.5 0.6-0.2 0.9-0.2 1.1-0.8 0.3 0.6-0.3 0.7-0.9 0.9 -0.6 0.5-0.5 1.4-0.8 2.1 -1 0.1-2.3 1.1-3.9 1.4 -0.7 2.5-1.1 4.6-2 6.8 0.6-0.3 0.9-0.9 1.2-1.4 -0.3 1.5-1.8 2.8-2.6 4.3 -2.2 4-5 8-7.8 11.7 -0.7 0.2-1.1 1.2-1.8 1.1 0.3-0.5 1.3-0.8 0.7-1.6 -1.2 0.5-1.5 1.6-3 1.9 0.6-1 2.2-1.2 2.4-2.5 -2.8 0.8-2.9 4.2-4.1 6.8 -0.3 0-0.2-0.1-0.2-0.2 -0.2 0.8-0.2 1.1-0.5 2.5 1.1-0.2 2.7-1.4 4.1-2 0.1-0.7-0.3-0.6-0.4-1.1 3.1 0.1 7 0.2 9.9 0 1.5 0.9 3.1 1 4.3 1.8 -0.2 0.7 0.4 1.5 1.4 1.4 -0.7 0.9 0.3 1.9 0.4 2.4 -0.7-0.5-0.9-1.7-1.8-2 -0.1 1.1 0.8 1.3 1.1 2.2 -0.3 0.4-0.3-0.3-0.7-0.3 0.3 1.9 0.6 4.7-0.3 6.1 -0.5 0-0.5 0-0.8 0.6 -0.3 0.1-0.3-0.2-0.3-0.3 -1.1 2.1-2.2 4.3-3.9 5.8 -0.3 1-1 1.7-1.5 1.9 -0.2 0.2 0.1 0.2-0.1 0.5 -0.1 0-0.3 0-0.4 0 -2.1 1.9-3.7 4.1-5 6.5 -0.3 0.1-0.4-0.2-0.7-0.2 -0.4 0.6-1.3 1-1.1 1.8 -3.4 1.1-6.1 5.2-10.2 3.9 -0.5-1.2-1.9-2.4-0.9-3.7 0.5 0 1.9-0.2 2.6 0.1 0.3-0.7 1-1.7 1.4-2.6 0.2 0.5-0.5 1.2-0.7 1.8 0 0.3 0.5 0 0.6 0 0 0.5-0.9 0.3-0.8 0.9 1.4-0.9 2.8-2.8 4-4.2 -0.2-0.5-0.4-0.6 0-1 -0.8 0.1-0.9 0.7-0.7 1.6 -0.6 0 0-0.5-0.2-0.9 -0.9 1-1.2 2.9-2.2 3.5 0.1-0.7 1.2-1.7 1.5-2.6 -0.1-0.5-0.4 0.3-0.4-0.1 0.5-0.7 0.9-1.4 1-2.4 0 0.4 0.2 0.7 0.5 0.8 0.2 0 0-0.4 0.2-0.4 -1-0.1-0.7-1.7-0.4-2.6 -0.5 0.3-0.3-0.6-0.4-1.5 -1.7 0.3-3.6 1.5-5.4 2.2 1.5 0 3.4-1.3 5.1-1.2 -0.9 1.3-2.7 1.6-4.2 2.3 -1.5 0.7-3.1 1.4-4.4 2.2 1.6-0.1 3.9-1.3 6-1.1 -1 2.3-4.6 2.6-5.7 4.8 -0.4 0.1-0.4-0.3-0.5-0.7 1.3-1.3 3.3-2.2 4.9-3.4 -1.8 0.3-3.8 0.4-4.9 1.3 -0.6 0.5-0.7 1.6-1.1 2.6 -0.6 1.4-1.4 1.9-1.8 3.2 -1 0.2-2.2 0.2-2.5 0.9 0.1 0.2 0.3 0.2 0.5 0.2 -0.8 0.3-1.4-0.3-2.6 0.2 0.5 0.5 1.2 0.7 1.9 1 -1.1 0.1-2.3-0.8-3.4-0.8 -5 2-12.5 3.9-18.3 2.3 0-0.3 0-0.7 0.1-0.9 -0.4-0.3-1.4-0.3-1.3-0.9 0.2 0 0.2 0.4 0.5 0.2 1.4-1.2 2.3-2.9 3.5-4.3 0-0.4-0.4-0.3-0.6-0.4 -1.2 0.6-1.4 1.9-2.8 2.4C96.2 77.8 97 77 97.6 76.1zM127.9 37.7c0.4-0.3 0.6-0.7 0.9-1.1 0.2-0.3-0.6 0.6-0.7 0.8 -0.7 0.6-1.2 1.6-1.8 2.4 -0.8 1.2-2.1 2.2-2.3 3.5C125.3 41.4 126.8 39.7 127.9 37.7zM133.7 71.9c-0.1-0.7 0.2-1 0.1-1.4 -0.6 0.2-0.4 1-0.6 1.5C133.4 71.9 133.6 71.9 133.7 71.9zM95.6 81c0.4-0.2 0.5-0.1 0.3 0.2 1.4-1.4 2.5-3.1 3.4-4.9C97.9 77.8 96.7 79.3 95.6 81zM56.3 37c-1.6-0.7-3.2-1.5-4.7-2.3C51.4 37.6 54.4 37.2 56.3 37zM74.4 54.9c-1-0.2-2.6-0.1-3.3-0.8 1.4 0.3 2.7 0.6 4.3 0.6 0.7-1.1 0.6-2.1 0.6-3.5 0.2-7.2 3.7-12.3 6.1-17.9 -3.4-3.5-8-5.5-12.9-7.1 -0.8 0.8-1.5 2.2-2.9 1.9 0 0.3-0.1 0.5-0.3 0.7 -3.3 0.6-5.7 3-6.5 6 0.2 0 0.3-0.2 0.4 0 -0.9 0.7-1.3 2.7-0.7 3.8 0.5-0.5 0.1-0.8 0.4-1.1 0.4 0 0.1 1.5-0.4 1.2 -0.1 0.4 0.4 0.1 0.3 0.5 -0.3 0-0.7-0.2-0.9 0.1 0.2 1.1-0.2 1.8-0.6 2.4 -1.3-0.5-0.4 3.9 0.8 3.6 -0.2-0.5-0.3-1.1-0.1-1.5 0.4 0.7 0.5 1.8 1 2.2 -0.1-0.6-0.1-1.2 0.2-1.4 0.8 6.7 6.1 7.9 10.9 9.7 -2.4 0-5.5-1.9-7.5-2.9C66.3 53.3 69.8 56 74.4 54.9zM57.6 40.1c-0.2 0.2 0.2 0.6 0.3 0.9 0-0.4 0.3-0.5 0.2-1.1C57.6 40 58.2 40.3 57.6 40.1zM57.3 41.4c0.5 0 0.3-1.2 0-0.8C57.6 40.7 57.2 41.2 57.3 41.4zM59 34c-0.5 0.2-0.7 0.6-1.3 0.7 0.1 0.6 0.9 0.7 0.6 1.5 0.7-0.1 0.4-1.2 0.1-1.5 0.2-0.1 0.3 0.1 0.4 0.2C58.8 34.6 59.2 34.1 59 34zM73.1 61.2c0.5 0.5-0.4-2-0.4-2.8 0.3-0.1 0-0.6 0.4-0.6 0.4 1.4 0.4 3.3 1.4 4 0-1-0.4-2.3-0.2-3.1 0.7 0.1 0.4 1.1 0.6 1.7 0.3 1.3 0.5 2.2-0.3 2.9 0.3-0.1 1 0 1.1-0.3 -0.2-0.1-0.3-0.2-0.4-0.3 0.3 0 0.3 0 0.4-0.3 0.2-2.1-0.5-4.7 0-6.8 -1.4 0.2-2.6 0.2-3.7 0 -0.2 0.1 0.2 0.5-0.2 0.7 -2.1 0.2-3.3-0.5-4.8-1.3 -3.5-1.8-5.6-5-7.5-8.5 0.3 3.2 2.3 6.2 3.8 8.2 0.2 1.6 1.6 3.6 3.1 4.4 0.4 0 1-0.3 1 0.1 0.2 0.6-0.1 0.8-0.1 1.3 0.4 0.4 0.9 0.6 1.3 0.5 0 0.2-0.1 0.2-0.1 0.4 1.1 0.3 2 0.9 3.2 1.2 -0.4-1-0.7-2.1-1.2-2.9 -0.2 0.5 0.4 1.8-0.6 1.7 -0.5-0.6-1-1.9-1-2.7 0.5 0.2 0.4 1.3 1.2 1.3 0.5-0.5 0-1 0.2-1.6 1.1 0.8 1.1 3.1 2.4 3.7 -0.1 0.3-0.3 0.4-0.3 0.8 0.4-0.2 0.8 0.4 1 0 -0.7-1.3-1.5-3.2-1.4-5C72.6 58.7 72.7 60.2 73.1 61.2zM71.4 55.6c-2.8-0.4-5.1-1.5-7-3 -0.2 0-0.3-0.2-0.2 0.2C66.1 54 68.6 56.3 71.4 55.6zM66.4 27.7c-0.7 0.1-1.6-0.5-1.5 0.6C65.4 28.1 66.2 28.1 66.4 27.7zM70.2 25.4c3 2.2 6.6 1.8 9.4 4 1.4 1.1 2.4 3 3.8 3.7 0 0.2 0 0.3-0.1 0.4 1.5-0.9 1.8-2.8 2.9-4.2 -0.5-0.5-1.4-0.7-2.2-1.1 0.2 0 0.3 0 0.4 0.1 -0.5-0.5-0.2-1-0.8-1.3 1 0.4 1.5 1.4 2.7 1.5 -0.2 0-0.6-0.1-0.5 0.3 0.1 0.3 0.6 0.3 0.8 0.4 0.2-0.3 0.7-0.3 0.7-0.7 -0.3 0-0.8 0.3-0.7-0.2 0.1 0.1 0.8 0.2 0.9-0.1 -0.4-0.3-0.8-0.5-0.9-1.2 0.1 0 0.2-0.1 0.2-0.2 0.2-0.1 0.4 0.5 0.4 0.1 -0.3-1-1.7-1.5-2.4-1.5 0.7 0.4 1.3 0.8 1.8 1.3 -1.4-0.1-3.1-1-3.8-2.5 -2.3-0.4-4.6-1.7-7.4-0.9 0.7 0.2 1.1-0.3 1.9 0.2 -0.4 0-0.6 0.1-0.7 0.3 0-0.2-0.1-0.3-0.3-0.4 -0.1 0.5-2.2 0.1-2.9 0.5 0.1-0.1 0.4 0 0.4-0.2 -0.2 0.1-0.8-0.1-0.7 0.2 0.1 0 0.2 0 0.3 0.1 -0.3 0.2-1 0.3-0.5-0.1 -0.8 0.4-2.3 0.7-2.6 1.6C70.4 25.5 70.3 25.4 70.2 25.4zM79.4 65.7c2.6 3 6.5 4.2 10.8 4.9 -0.5-1.6-2.3-1-3.2-1.9 -0.1 0.4 0 0.9-0.5 1 -0.4-0.3-0.5-1.1-0.7-1.6 -0.8-0.2-1.4 0-1.9-0.7 -0.2-0.6-0.3-2-0.8-2.7 -0.1-0.1-0.5 0-0.5-0.2 -0.3-0.6-0.6-1.3 0-1.8 1.3 1.3 1.3 5 3.1 5 -0.5-1.3-1.7-3.3-1.3-4.7 1 1.4 1.2 4.7 2.5 5.2 -0.2-1.3-1.6-3.8-1.1-5.4 1 1.9 1 4.9 2.6 6 -0.5-1.7-1.4-3.6-1.4-5.4 0.8 0.7 0.8 2.5 1.4 3.5 -0.6-2.2-0.3-3.2 0.4-4.8 -4.1-1.7-8.8-2.7-11.2-6.6 -1 1.8-1.2 4.2-1.4 6.7 0.2 0.3 0.5 0.5 0.7 0.7 0.5 1.7 2.2 2 3.3 3C79.9 66.1 79.6 65.3 79.4 65.7zM76.8 55.7c-0.4 0.1-0.5-0.1-0.8 0 0.1 1.2-0.3 2.7 0.1 3.9C76.1 58.1 76.6 57 76.8 55.7zM78.3 65.3c-0.1-0.4-0.8-1-1.4-1.3C77.1 64.7 77.8 65.5 78.3 65.3zM77 53.3c0.1-0.5 0.1-2.2-0.4-2.4C77.1 51.4 76.3 52.9 77 53.3zM79 66c-0.2-0.2-0.3-0.5-0.6-0.6C78.3 66 79.4 66.1 79 66zM78.3 54.2c0 0.2-0.2 0.3-0.1 0.5 2.7 2.6 5.9 4.5 9.6 5.7 1.1-9.7 7.8-15 12.9-21.5 0-0.5-0.5-0.1-0.5-0.6 1.1 0 1.2-1.3 1.2-1.7 -5.2-1.2-11.1-1.9-16.8-1.3 0.2 0.3 1.1-0.2 1.2 0.3 -0.3 0.1-0.3 0.4-0.1 0.5 -0.3-0.1-0.7-0.3-1.1-0.4 -0.1 0.5 0 0.5-0.3 0.8 0.1-0.9-0.6-0.7-1.1-1.4 -2.8 2.4-5.6 7.6-5.4 11.8 -0.7 1.1-0.6 3.4-0.3 5.7 0.3 0.3 0.7 0.3 1.1 0.5 -0.2 0.4-1.1 0.6-1.3 0.7C77.7 53.9 78.2 53.9 78.3 54.2zM84.2 59.6c-1.8-0.9-3.4-2.1-5-3.1C80.3 58.2 82.6 59.1 84.2 59.6zM82.2 34.6c-0.1 0.6-0.9 1.3-0.7 1.8C81.6 35.7 83 35.1 82.2 34.6zM91.6 28.4c1.6-0.1 3.1 0 4.6-0.3 -1.8-0.1-4.3-0.8-6.2 0.1 0.3-0.1 0.5 0 0.5 0.2 -0.8 0.2-1.6 1-2.3 0.3 -0.4 0.4-1.1 0.6-1.1 1.3 -0.7 0-1.7 1.1-1.2 2.1 -1.4 0.2-0.7 2.1-1.1 2.6 2.7-0.2 5.5-0.8 8.1-0.8 2.7 0 5.3 0.8 7.5 1.3 0.6 0.1 1.7 0.7 2.2 0 -3.4-0.9-7.2-1.7-10.9-2.2 -0.6-0.1-1.4 0.3-1.7-0.5 1 0 0.7-0.2 0.8-0.7 3.9 0.4 7.7 1.3 11.4 1.8 0.3 0 1.2-0.5 1.2 0.4 -1.9 0.3-4.3-0.6-6-0.5 1.8-0.1 3.8 1.6 5.4 1.3 1.1-0.2 1.4-1.4 2.5-1.9 0-0.4-0.5-0.3-0.2-0.6 0.7 0.4 1.5-0.1 1.9-0.6 -0.9-0.4-1.8-1-3.1-0.9 0-0.1 0.2-0.1 0.2-0.3 -2.6-0.7-6.4-1.9-8.8-1.6 0.5 0.2 1.6 0.3 1.6 0.6C95.3 28.4 92.4 29 91.6 28.4zM89.8 69.7c0.2-0.3-0.1-0.9-0.3-1.1C89.3 68.8 89.3 69.6 89.8 69.7zM89.5 67.1c-0.2-1 0-2.4-0.7-2.7C89 65.4 89.2 66.4 89.5 67.1zM88.4 60.6c0.2-0.1 0.3 0.1 0.4 0.2 0.2-2 0.8-4.3 0.8-6.1C89.1 56.6 88.4 58.3 88.4 60.6zM91 69.8c0.8-0.1 1.2 0.2 1.7 0.5 0.5 1.7 2.2 2.6 3.5 2.8 -0.1-0.5-0.4-0.6-0.6-0.8 0.6-0.8-0.2-1.8-0.3-2.7 0-0.3 0.2-0.6 0.2-0.9 0-2.5-0.6-5.6-1.2-8.3 -0.2 1.1-1 1-1.6 1.7 0.1-1.9 0-5 0.8-6.8 0.4 1-0.3 1.9 0.3 2.9 -0.5 0.3-0.5 1.7-0.3 2.2 1.2-1.7 0.1-5.3 0.7-7.5 1.2-0.4 1.5-2.3 2.2-3.5 0.3-0.5 0.7-0.8 0.8-1.2 0-0.6-0.6-1.2-0.2-1.9 0.2 0 0.3-0.1 0.4-0.2 0.3 0.5 0 1 0.4 1.5 0.5-0.9 1.2-1.7 1.8-2.5 -0.2-1.2 0.1-2.5-0.3-3.4 -2.4 2.6-4.3 5.7-6.7 8.4 -0.1 0.4 0.1 0.3-0.1 0.6 -1 0.1-0.9 1-1.2 1.7 0.5-0.1 0.3 0 0.3 0.3 -0.6 0.2 0.2-0.4-0.4-0.2 -0.5 2.8-1.6 5.1-1.3 8.5 0.4 0.2 0.7 0.6 1.1 0.8 1.2 1.9 2.2 3.4 3.6 4.8 0.1 0.4 0.8 1.1 0.3 1.4 -0.4 0-0.2-0.6-0.6-0.6 0 0.3 0.2 0.8-0.2 0.8 -0.6-0.2-0.6 0-1 0 -0.6-2-1.7-3.5-3-4.6C89.8 65.6 90.2 67.9 91 69.8zM92.7 65.8c0-0.5 0.1-0.7-0.4-0.9C92.2 65.3 92.4 65.8 92.7 65.8zM98.2 75.5c-1.5-0.7-3.3-1.8-4.5-2.3C95 74.2 96.5 75 98.2 75.5zM97.2 74.1c-0.2-0.7-1.5-0.8-1.9-0.8C95.9 73.4 96.6 74.3 97.2 74.1zM102 36.2c-3.2-1-6.8-2.2-10.8-1.6C95 34.8 98.7 35.2 102 36.2zM108.2 66.3c0.6-0.6 1.1-1.9 1.9-2 -2.3 3-4.6 6-6.8 9 0 0.3-0.2 0.3 0.1 0.5 -0.9 0.5-1.3 1.5-1.8 2.4 3.5 1.1 6.8-1.5 10.1-1.8 -0.4 0-0.8 0.1-0.9 0.3 0.3-0.1 0.5 0 0.5 0.3 -3.3-0.2-6.2 2.5-10.2 1.6 0 0.4-0.7 0.6-0.2 0.8 -1.6 1.1-1.9 3.2-3.5 4.2 0.7 0 1.6 0 2.3 0.5 -0.9-0.1-1.7-0.4-2.7-0.3 3.4 1.1 6 1.2 9.2 0 -0.8-0.3-2 0.5-2.5 0.4 0-0.1 0-0.2 0-0.4 0.4-0.2 0.6 0.2 0.9-0.1 0.4-0.1-0.5-0.3-0.1-0.5 1.5 0.2 2.4-0.2 3.4-0.4 -0.6 0.1 0.5 0.2 0.4 0.5 0.2-0.5 1.3-0.4 1.6-0.8 -1.4-0.3-3.3-0.6-5-1 1.5-0.6 3.6 0.5 5.5 0.3 0 0.2 0.1 0.4 0.2 0.5 0.6-0.3 1.5-0.3 1.7-0.8 -0.5 0-0.8 0.1-1.1 0.3 0-0.8-2.1-0.2-2.6-1 1.9-0.2 3.1 0.6 4.7 0.1 0-0.4-0.4-0.2-0.3-0.6 -1.3 0.3-3.1-0.2-4.1-0.8 1.3-0.2 2.5 0.6 3.5 0.2 -0.6-0.8-1.4-0.6-2.2-1.2 0.6-0.1 0.9 0 1.3 0.1 0.3-0.5 0.1-1-0.1-1.7 0.2 0 0.4-0.1 0.5-0.2 -0.2-0.7 0-0.5 0-1 1.2-1.3 2.1-2 2.3-3.2 0.3-0.1 0.6-0.2 0.9-0.4 0.2-0.4-0.1-1 0.7-0.8 0.2-0.5-0.6 0-0.6-0.3 0.7-1.6 0.9-2.4 2.5-3.7 -0.2 0.3 0.1 0.3 0.3 0.1 -0.8 1-1.9 1.8-2.2 3.2 0.8 0.1 0.8-1 1.2-0.8 -0.1 0.4-0.6 0.5-0.5 1 0.7 0.1 1.3 0.4 2.1 0.4 -0.3-0.7 0.5-0.6 0.4-1.2 -0.7-0.1-1.3-0.3-1.9-0.6 0-0.2 0-0.3-0.1-0.5 1.7-1 1.8-2.5 2.8-3.9 -0.4-0.1-0.4 0.7-0.7 0.3 0.3-0.1 0.4-0.8 0.8-0.5 0-1.1 1-2.1 1.4-3 0.5 0.2 0.8-0.2 1.1 0.3 -0.1-0.3-0.3-0.4 0.1-0.5 0.8 0.1 1.5-1.4 2.2-1.9 0-0.4-0.3-1.9-0.3-2.4 0.6 0 0.4 0.9 0.9 1.1 0-0.4 0.6-0.3 0.5-0.8 -0.1-0.3-0.6-0.8-0.3-1.3 0.4 0.1 0.4 0.8 0.6 1.1 0.4 0 0.4-0.2 0.7-0.2 0.2-0.7-0.9-0.6-0.4-1.1 0.6 0 0.7 0.8 1.2 0.6 0.4-0.6 0.1-0.9 0.2-1.4 0.3 0.2 0.6 0.4 0.9 0.7 0-1.2 1.1-1.7 1.9-1.5 -0.3-1.2 0.7-2.2 0.3-3.2 0.2 0 0.2 0.2 0.4 0.2 0.4-1.7 0.9-2.5 1.6-4 -0.1-0.2-0.6 0.1-0.7-0.3 1.1-0.4 1.5-2.1 1.3-3.1 -1.8 3-3.3 6.3-5.1 9.3 0.5-0.8 0.6-2.1 1.1-3 0.4-1 1-1.9 1.5-2.8 0.8-1.5 3.4-4.2 2.9-5.9 -1.1 0.5-1.5 1.9-2.2 2.8 -0.9 1.3-1.8 2.4-3 3.4 -2.6 2.2-4.4 5.5-6.3 8.3 -2.1 3-4.1 6.2-6.6 8.9 -0.2 0.2-0.4 0.6-0.7 0.5 3.3-4.7 6.8-9.2 9.9-14 -0.1-0.7-0.4-1.3-0.5-1.9 -2.1 1.5-2.8 4.1-4.9 5.6 -1.4 2.3-3.2 4.4-5.3 6.1 -1.2 1.8-3 3.8-4.4 5 0.1-0.5 0.8-0.5 0.9-1 -0.5 0-0.1-0.5-0.3-0.5C110 63.8 108.5 65.1 108.2 66.3zM114 72c1 0.3 2.2 0.4 3.5 0.3 0 0.7-0.7 0.4-1.1 0.6 0.2 0.5 0.3 1 0.8 1.2 0.7-0.7 0.6-1.9 0.8-2.9 -1.5 0.2-2.1-0.6-3.5-0.4C114.3 71.3 114.1 71.6 114 72zM117.9 66.7c0.3 0.5 0.9 0.5 1.4 0.6 0.1-0.5 0.2-1.2-0.2-1.5C118.2 65.8 118.1 66.5 117.9 66.7zM117.5 55.4c0.5-0.6 1.8-1.1 1.4-2.1 -1.6 2.4-4.4 4.5-5.5 6.9C114.8 58.9 116.2 56.9 117.5 55.4zM96.9 72.9c-0.1-0.5-0.3-0.8-0.5-1.1C96.4 72 96.4 73.1 96.9 72.9zM94.9 55.3c-0.3 0.3-0.1 0.9 0 1.2C94.9 56.2 95.2 55.5 94.9 55.3zM97.5 73c0.7-0.3 0.6 0.4 1.1 0.4 -0.4-1.1-0.6-2.5-1.7-2.7C97 71.3 97.2 72.2 97.5 73zM122 44.2c0.1-0.6 0-1.2-0.4-2 -0.7-1.3-1.5-2.6-1.8-4.1 -1.9-1.2-3.7-4-6.6-3 0.4-0.1 0.7 0 0.7 0.4 -2.6 0.2-4.8 1.6-5.8 3.4 -0.2 0.3 0.3 0.7-0.3 0.8 -0.7-0.2-0.9-0.9-1.5-1.1 0.6 0.7 1.3 1.9 1.4 2.8 -0.7 0.3-0.6-0.5-1.1-0.5 -1.7 1-3.3 2-4.1 3.7 -3.1 2.5-4.7 6.3-6.9 9.5 -0.6 6.5 1.4 14.1 3.8 19.3 0.1 0.4-0.6 0.1-0.4 0.6 0.2 0.6 1.7-1.8 1.7-2 0.6 0.1 1.6-1.2 2-1.6 0.8-0.8 1.1-1.5 1.7-2.4 0.6-1 1.6-1.8 2.3-2.7 1.6-1.9 3.1-3.9 4.6-5.9 -0.8-0.6-1.2-3.6-0.6-4.5 0.5 1.2 0 2.9 0.9 3.7 0.8-0.2 0.8-1 1.4-1.4 -0.2-0.8-0.5-2.1-0.5-2.8 0.5 0.4 0.5 1.6 0.9 2.2 -0.1-0.2 1.2-1.5 1.3-1.7 0.4-0.6 0.5-1.2 1-1.7 0.3-0.4 1.1-0.7 1.1-1.4 0-0.7-0.1-1.4 0.5-1.9 0.2-0.2 0.6-0.2 0.8-0.4 0.3-0.2 0.4-0.5 0.6-0.7 0.5-0.5 1.1-0.9 1.6-1.4 0.5-0.5 0.6-1.2 1-1.8C121.7 45.1 121.9 44.7 122 44.2zM98.8 74.8c-0.3-0.3-1-1.3-1.2-0.8C97.9 74.3 98.1 74.8 98.8 74.8zM100.5 76.3c-0.5 1.3-1.7 1.9-2.1 3.3C99.2 79.3 100.9 77.2 100.5 76.3zM97.6 49.9c0.7-1 1.6-2.1 1.8-3.4 -1.8 1.8-3 4-3.9 6.5C96.3 52.1 96.9 50.9 97.6 49.9zM100.6 73.2c-0.6 0.3-0.8 0.7-0.8 1.2C100.4 74.2 100.6 73.8 100.6 73.2zM101.7 75c-0.7 0-0.8 0.5-0.9 1C101.5 75.9 101.6 75.4 101.7 75zM101.1 73.1c0.5 0.1 1-0.8 0.9-1.5C101.5 71.9 100.8 72.5 101.1 73.1zM102.2 74.5c0.1-0.1 0.2-0.6-0.1-0.6C101.9 74 101.8 74.5 102.2 74.5zM103.4 70.8c-0.3-0.6 0.5-0.9 0-1.3 -0.3 0.6-1.3 1.2-0.8 2C102.9 71.2 102.9 70.6 103.4 70.8zM104.2 71.6c-0.3-0.3-1.1 1-1.4 1.6C103.5 72.8 103.6 72 104.2 71.6zM100 45.4c-0.1 0.1-0.4 0.7 0 0.9C100.1 46.1 100.4 45.5 100 45.4zM99.6 41c0.4 0.8 0.2 2.4 0.7 3 0.2-0.8 1.6-1.1 1.8-2.2 0.1-0.7 0-2.4-0.9-2.6C100.9 40 100 40.3 99.6 41zM102.3 42.8c-0.5 0.9-1.7 1.3-1.8 2.5C101.3 44.7 102.6 43.9 102.3 42.8zM107.5 66.8c-0.8 1.1-2.2 2.4-2.5 3.5C105.6 69.1 107.3 68.1 107.5 66.8zM107 65.9c-0.9 0.5-2 1.3-1.8 2.3C105.6 67.2 106.5 66.5 107 65.9zM102.1 39c-0.1-0.3 0.2-0.3 0.1-0.6C101.7 38.3 101.7 39 102.1 39zM103.5 40.9c-0.1-0.6-0.7-0.4-1-0.8 0.3 0.6-0.1 1 0.3 1.4C103 41.3 103.1 40.9 103.5 40.9zM104.4 41.3c-0.1 0-0.2-0.1-0.3-0.2 -0.6 0.4-1.1 0.8-1.2 1.4C103.5 42.6 104.2 41.8 104.4 41.3zM104.3 40c-0.7-0.3-1-1.1-1.6-1.5C102.1 39.4 103.8 40.5 104.3 40zM103.3 36.3c-0.2-0.2-0.5-0.2-0.6-0.1 0 0.1 0 0.3 0 0.4C103 36.5 103.5 36.7 103.3 36.3zM104.7 39.7c0.1-0.3 0.5-0.5 0.8-0.6 -0.5-0.8-2-1.8-2.6-1.2C103.9 38 104 39.3 104.7 39.7zM106.5 32.9c-1.4 0.2-2.5 1.6-3.3 2.7C104.8 35.5 105.4 33.8 106.5 32.9zM107.6 65.2c-0.3-0.2-0.5 0.3-0.7 0.6C107.3 65.7 107.4 65.4 107.6 65.2zM106 37c-0.6-0.1-1-0.5-1.7-0.6C103.7 37.4 105.7 37.9 106 37zM108.9 63.9c-0.8 0-0.6 1.1-1.1 0.6 0.1 0.4-0.2 0.7 0 0.9C108.1 64.8 108.6 64.4 108.9 63.9zM106.6 40.4c-0.5-1.8-1.4-0.5-1.4 0.4C105.9 40.8 105.9 40.3 106.6 40.4zM108.6 34.9c1.1-0.4 2.4-1.5 3.9-2 0.2 0.4-0.2 0.4-0.2 0.6 1.2 0 2.5-0.2 3 0.6 -0.2 0.4-0.8-0.2-1 0.2 2.4-0.1 3.6 1.5 5.1 2.6 0.2-0.8-0.5-0.8-0.7-1.4 -0.4 0.1-0.2 0.1-0.6 0.1 -2.1-2-5.1-3.7-8.6-3.5 0.4 0.1 0.7 0.3 0.8 0.7 -0.2 0.1 0.1 0.6-0.2 0.7 -0.8-0.4-0.8-1.2-1.7-1.1 -0.9 0.1-3.2 2.9-3.7 3.5 0.6 0.4 1.6 0.4 2.3 0.8C107.2 35.9 108.3 35.5 108.6 34.9zM107.8 38.1c-0.3 0-0.4-0.2-0.6 0.1C107 38.8 108 38.7 107.8 38.1zM112.3 35.2c-0.4-1.1 1.3-0.7 1.8-1.1 -1.7-0.3-3.8 0.2-4.5 1.3 -1.3 0.4-1.9 1.3-2.6 2.2 0.3 0.1 0.7 0 0.7 0.3C109 37.2 110.2 35.6 112.3 35.2zM112.4 75c0.4 0 0.6 0.2 0.7 0.6 -0.2-0.2-0.7 0-0.9-0.2 -0.1 0.3-0.3 0.6-0.1 1.1 1.2 0.1 2.7 0.8 3.7 0.2 0.2-0.5-0.7-0.5-0.3-0.7 0.5 0 0.5-0.3 0.9-0.2 -0.2-0.4 0.1-0.4 0.2-0.7 -0.7 0.2-0.1-0.5-0.5-0.6 -0.2 0.2-0.5 0.3-0.9 0.4 -0.6-0.6-2.5-0.7-2.9-0.6C112.7 74.3 112.2 74.7 112.4 75zM115 77.5c-0.8 0-2.2-0.7-2.6-0.2C113 77.8 114.5 78.7 115 77.5zM116.4 74.2c0.3-0.5-0.3-0.8-0.4-1.2 -0.9 0-1.5-0.4-2.4-0.5 -0.2 0.3-0.5 0.7-0.6 1.1C114.1 73.8 115.3 73.9 116.4 74.2zM118.2 70.9c0.1-0.4 0.3-0.7 0.2-1.2 -0.8-0.2-1.4-0.5-2.2-0.6 -0.4 0.4-0.9 0.8-1 1.4C115.9 70.5 117.3 70.6 118.2 70.9zM115.8 54.3c-0.5-0.1-0.9 0.9-1.3 1.3C115.3 55.5 115.5 54.9 115.8 54.3zM119.9 71.8c-0.4 0.3-0.9 0.8-0.6 1.4 -0.2 0-0.3 0-0.5 0 -0.5 1.5-0.9 3.1-1.5 4.5C119.5 76.7 118.9 74 119.9 71.8zM117.7 53.7c-1-0.8-1.1 0.9-1.7 1.1 0.6 0.5-0.5 0.9-0.2 1.2C116.3 55.2 117.2 54.6 117.7 53.7zM117 52.5c-0.5 0.3-1 0.6-0.9 1.4C116.6 53.6 117.1 53.3 117 52.5zM122.7 61.5c-1.6 2.6-2.4 7.6-3.5 10.4 0.4-0.1 0.5-0.5 0.4-1 1-0.2 1-2.1 1.7-2.9 0.1-0.6-0.5-1.1 0-1.3 0 0.2 0 0.5 0.2 0.5 0.2-0.2 0-0.6 0-1 1.2-1.1 1.1-2.9 1.8-4.2 0.7-1.1 2-0.8 2.3-2.2C124.2 60 123.3 60.5 122.7 61.5zM119.4 64.3c-0.1 0.3-0.4 0.5-0.4 0.8 0.2 0 0.3 0.1 0.5 0.1C119.1 64.9 119.6 64.5 119.4 64.3zM117.9 51.2c0 0.3-0.5 0.4-0.4 0.8C117.9 52.3 118.3 51.5 117.9 51.2zM120.6 72.4c0 0.4-0.7 0.9-0.4 1.2C120.3 73.3 120.9 72.7 120.6 72.4zM118.6 52.1c-0.4 0.2-0.9 0.8-0.6 1.1 0 0.1 0.1 0.1 0.3 0.1 0.8-0.8 1.6-2.4 2.9-3.4 1-0.8 1.3-1.1 2.1-2.2 0.6-0.8 1.7-1.7 0.6-2.4 -0.7 0.7-1.8 1.1-1.6 2.5C120.5 48.4 119.7 50.6 118.6 52.1zM118.7 50.8c0.2-0.3 0.3-0.5 0.3-0.9C118.6 49.9 118.2 50.6 118.7 50.8zM123.9 66.2c-1 1.2-2.5 2.7-2.6 4.3C122.1 69 123.2 67.8 123.9 66.2zM120 48.3c0 0.4-0.9 0.6-0.4 1.1C119.7 49.1 120.4 48.6 120 48.3zM121.2 46.8c-0.4 0.3-0.8 0.7-0.9 1.3C120.9 47.8 121 47.3 121.2 46.8zM125.3 70.2c-0.7 0.2-2 0.5-1.8 1.1C124 70.8 124.9 70.7 125.3 70.2zM124 64.2c-0.2 0.6-1.2 1.2-0.8 1.9C123.2 65.3 124.5 65 124 64.2zM124.9 61.5c-0.8 0.5-1.6 1.7-1.5 2.6C124 63.4 124.6 62.6 124.9 61.5zM130.7 66.4c-2.4 0.9-5.6 1.2-6.6 3.2C126.3 68.5 128.6 67.6 130.7 66.4zM122.2 45.5c-0.4 0-0.8 0.7-0.4 1C121.9 46.1 122.2 45.9 122.2 45.5zM127 62.2c-0.6 0.9-1.9 1.8-1.9 2.8C125.4 63.8 127.4 63.5 127 62.2zM127.8 79.6c0.1-0.4 0.2-0.8 0.4-1.2 -0.5-0.2-1-0.4-1.3-0.9 0.3-0.2 0.5 0 0.5-0.6 -0.5 0-0.6 0.2-0.9 0.3C126.8 78.4 127.3 79 127.8 79.6zM127 61c-1.3 0-1.9 0.5-2 1.5C125.8 62.2 126.4 61.8 127 61zM123.1 43.3c0.3-0.4-0.1-1-0.5-1C122.7 42.8 122.9 43.1 123.1 43.3zM131.5 65.4c-0.4-0.1 0.1-0.4-0.1-0.8 -0.4 0.1-0.4 0-0.3-0.2 -2.2 0.7-5 1-5.4 3.1C127.6 66.7 129.7 66.2 131.5 65.4zM130.6 79.2c-0.9 0.2-1.6 0.1-2.2 0 -0.1 0.3-0.4 0.4-0.4 0.8C129.1 79.9 130 79.7 130.6 79.2zM128.2 59.6c-0.1 0.2-0.1 0.5 0.2 0.5 2-0.5 4.4 0.8 6.5 1.1 1 2.7 1 5.7 2.3 8.3 -0.3-3-1-5.5-0.8-7.9 -1.7-2.6-5-3.1-8-2.7 0 0.2 0.1 0.5-0.1 0.5 -0.5-0.1 0-0.7-0.5-0.6 -0.7 0.6-1.8 0.4-1.9 1.6C126.8 60 127.6 60.2 128.2 59.6zM127.3 41.2c0-0.3 0.2-0.4 0.2-0.6 -0.3 0-0.8 0.6-0.6 0.7C126.9 41 127 41.3 127.3 41.2zM127.4 40.2c-0.1 0.4 0.4 0.2 0.3 0.6 -1.2 1.3-2.4 2.5-3.5 3.9 0.1 0.6 0.2 0.6 0.5 1.1 1.3-0.9 1.3-2.8 2.7-3.5 0.6-1.5 2.5-2.6 2.1-4.5C128.4 38.3 128.1 39.4 127.4 40.2zM127.9 55.5c-0.6 0.5-1.7 1.2-1.7 1.8C126.6 56.6 127.5 56.3 127.9 55.5zM130.5 63.9c-0.3-0.5-0.9-0.8-1.3-1.1 -1.3 0.3-1.4 1.5-2.2 2.3C128.3 64.8 129.3 64.3 130.5 63.9zM125.4 48.7c1.2-1.1 2-2.5 2.9-3.8 0.9-1.3 1.9-2.6 2.3-4.3 0.7-1 2.4-2.2 1.6-3.8 -2.6 3.1-4.8 6.6-7.3 9.8C125.1 47.8 125.3 47.7 125.4 48.7zM128.3 61.5c-0.5 0.1-1.1 0.1-1.1 0.6C127.8 62.1 128.1 61.8 128.3 61.5zM132 61.3c0.7 0.7 1.5 1.6 2.7 1.6 0-0.8-0.8-0.8-0.8-1.6 -2.3 0.3-4.5-1.7-6.8-0.1C129 61 130.2 61.6 132 61.3zM127.7 58.9c-0.8 0 0.6-0.2 0.1-0.3 -0.3 0.1-1.1-0.1-1 0.4C126.9 59 127.7 59 127.7 58.9zM130.8 77.1c0 0.2 0 0.4 0.3 0.3 1.1-0.6 2.4-1.1 3.2-1.9 -2.1 0.6-4.4 0.4-5 2.3C130.2 77.9 130.2 77.3 130.8 77.1zM139.2 71.5c0.9-0.1-0.2-1.7 0.4-1.3 -0.2-0.4-0.4-0.3-0.2-0.8C138.5 69.7 139.1 70.9 139.2 71.5zM140.3 70.6c-0.1-1.7-0.1-3.4 0.8-4.3 0.1 1.2-0.3 1.9-0.3 3 1.3-0.9 0.2-3.7 1.4-4.5 0.1 1-0.4 2.1 0 2.9 1-0.9 0.6-2.9 1.5-3.9 0.2 0.6-0.3 1.1 0.2 1.5 1.6-2.7 3.3-5.4 5-8 -0.2 0-0.4 0-0.5-0.2 0.5 0 0.5-0.3 0.9-0.3 -0.1-1.2-0.2-4.6-1-4.1 -1.8-3.3-6.4-2.4-9.2-1.8 0.3-0.2 0.5 0.3 0.3 0.3 -3.1-0.9-7 1-8.1 3.2 0-0.2-0.1-0.3-0.3-0.2 -1.1 1.3-3 2.3-3.6 3.6 0.5 0.1 1.5 0.3 1.8-0.2 0.9 1 2.6 0 3.9 0.2 0.9 0.2 1.1 1 1.7 1.3 0.8 0 1.4 0.1 1.9 0.4 1 2.4 2 4.9 2.9 7.4 -0.4-0.1-0.5 0-0.6 0.3 0.5 0.5 0.3 1.1 0.4 1.6 0-0.1 0-0.3 0.1-0.3C139.4 69.4 139.5 70 140.3 70.6zM131.9 78.5c-0.5 0.1-0.9 0.2-1 0.6C131.5 79.1 131.8 78.9 131.9 78.5zM132.3 63.1c0-0.2-0.1-0.5 0.1-0.5 0.1 0.5 0.5 0.5 1.1 0.4 -0.6-0.7-1.5-1.2-2.4-0.7 -0.2-0.3-0.4-0.4-0.7-0.6 0 0.4-0.6 0.2-0.7 0.5C130.3 62.9 131.3 63 132.3 63.1zM130.2 53.7c-0.5 0.2-0.9 0.4-1.1 0.9C129.7 54.4 130 54.1 130.2 53.7zM135.5 74.5c-1.3 0-3.2 0.1-3.7 1.1C132.9 75.1 135.1 75.4 135.5 74.5zM133 65.3c-0.1-0.4-0.3-1.4-0.7-1.6 -0.2 0.2-0.1 0.6-0.5 0.3C131.3 64.7 132.4 65.7 133 65.3zM134 76.6c-0.3-0.2-0.6 0.2-0.7 0.5C133.6 77 133.9 76.8 134 76.6zM133.8 73.4c-0.2-0.5 0.3-0.5 0.3-0.8 -0.5 0.2-0.8 0.6-1 1C133.4 73.6 133.4 73.4 133.8 73.4zM133 67.7c0-0.5 0.2-0.9 0-1.8C132 66.1 132.5 67.6 133 67.7zM133.6 69.2c-0.1 0-0.3 0-0.3-0.1 0.2 0 0.2-0.1 0.2-0.3 -0.4 0.1-0.5 0.5-0.4 1C133.5 69.8 133.4 69.4 133.6 69.2zM135 75.9c-0.1 0.3-1.1 0.5-0.7 0.7C134.4 76.3 135.4 76.2 135 75.9zM134 64.8c-0.2 0.1-0.6-0.3-0.5 0.2 0.2 1.7 0.3 3.2 0.8 4.7 0.9-1.8 0.6-4.2 0-6.3 -0.4 0-0.8 0.1-1.3 0.2C133 64.4 133.6 64.4 134 64.8zM131.4 36c-0.5 0.5-1.3 0.6-1.2 1.8C130.7 37.3 131.4 36.9 131.4 36zM131 34.5c0.2 0 0.3 0.1 0.3 0.3 -0.1 0.4-0.7 0.3-0.6 0.8 0.2 0.1 0.4 0.3 0.8 0.2 0.3-0.6-0.1-1.2-0.1-1.7 -0.9 0.3-1.4 0.8-1.5 1.7C130.8 35.8 130.3 34.9 131 34.5zM136.1 74.2c0.3-0.4 0.7-0.6 0.6-1.2 -0.1-0.2-1-0.3-1.1 0 0.3 0.1 0.6 0.2 0.7 0.6 -0.2 0-0.1 0.2-0.2 0.3 -0.4-0.3-1.3-0.5-1.5 0.2C135.2 73.9 135.6 74.1 136.1 74.2zM130.5 32.6c-0.1 0.4-0.6 0.5-0.5 1C130.4 33.5 130.7 32.8 130.5 32.6zM135.9 69.6c0-0.5-0.2-0.8-0.5-1 -0.1 0.3 0 0.7-0.1 1C135.5 69.7 135.7 69.6 135.9 69.6zM132.2 35.1c0.5-0.2 0.9-0.6 1.3-0.9 -0.1-0.6-0.9-0.9-0.8-1.3 -0.5 0.2-0.8 0.6-1 1C131.9 34.2 132.1 34.6 132.2 35.1zM136.5 71.7c0 0.3-0.5 0.2-0.3 0.6C136.6 72.4 136.8 71.8 136.5 71.7zM133.3 35.9c0.4 0 0.4-0.4 0.7-0.5 0.1-0.4-0.2-0.5-0.2-0.7C133.3 34.9 133.1 35.3 133.3 35.9zM135.6 27.5c2.7-3.5 5.4-6.9 7.9-10.4 0.3 0.1 0.7-0.4 0.5-0.4 0.8-0.9 2.8-3.1 3.8-4.8 -1.1 0.8-1.7 2-2.5 3.1 -0.2 0-0.1-0.3-0.4-0.2 -4.1 5.3-8.6 10.3-12.3 15.9C133.9 30 134.7 28.6 135.6 27.5zM134.5 35.9c-0.4-0.2-0.7 0.6-0.8 1C134.1 36.7 134.4 36.3 134.5 35.9zM138.2 71.3c0.4 0.8-0.4 1.4 0 1.8C138.5 72.7 139 71.6 138.2 71.3zM138.3 70.5c-0.4-0.8 0.1-1.5-0.5-1.9C138 69.3 137.7 70.1 138.3 70.5zM134.8 36.7c-0.4 0.2-0.7 0.4-0.6 1C134.6 37.5 134.9 37.3 134.8 36.7zM150.3 18c0.8 0.2 1.6 0.1 2.4 0.6 -0.3 0-0.5 0.1-0.5 0.3 0.3 0.1 1.5 0.2 1.5-0.3 -0.6 0.1 0.1-0.3 0.3-0.3 0.1-1.2 0.1-3.1-0.4-4.3 0 1.4-0.1 2.8-1.3 3.4 -0.4-0.4-1-0.5-1.5-0.9 -0.7-0.7-0.1-2.3-0.5-3 -0.5 0.8-1 1.7-1.8 2.2 0.1 0.4-0.4 0.4-0.3 0.8 -2 2.1-3.7 4.5-5.4 6.9 -1.7 2.4-3.6 4.8-4.4 7.6 3.1-4.6 5.8-9.6 10-13.4 -2.5 3.6-5.5 7.1-7.8 10.6 -0.8 1.2-1.7 2.5-1.9 3.9 0.9 0.2 1.1-1 1.5-1.6 1.3-2 2.8-4.3 4.4-5.6 -0.9 1.9-2.8 3.9-3.9 5.8 -0.5 0.8-0.6 1.8-1.7 2 -0.4-0.3-1-0.3-1.3-0.6 0.2-0.7-0.4-0.4-0.5-1 0.3-0.6 0-1.8 0.3-2.9 0.2-0.1 0.3-0.4 0.7-0.3 3.5-6.3 8.7-11.4 12.5-17.5 -0.2-0.5-1-0.5-1.6-0.2 0.1 0.4-0.1 0.5 0 0.8 -4.4 5.5-8.8 11-13.1 16.5 0.1 0 0.3 0 0.1 0.1 -0.1 0-0.2 0-0.4 0 -0.4 1.4-2 1.8-2.2 3.3 0.6 0 0.3 0.4 0.8 0.7 -0.3 0.7 0.3 0.9 0.4 1.2 0.6 1.8 1.9 4.3 3.2 5.5 -0.2-1.1-0.5-1.6-0.5-2.4 0.6-0.2 0.2 0.4 0.3 0.7 0.3 0.8 1 1.9 1.2 2.8 0.5-0.8 1.7-1.7 1.9-3.1 0.1-0.2-0.1-0.5-0.1-0.8 0.1-2.6 1-6.4 4.2-5.2 0.8-0.8 0.9-2.1 1.2-3 0.2 0 0.1 0.3 0.3 0.4 0.3-0.5-0.1-1-0.3-1.1 0.3-0.7-0.2-2.6 0.8-3.2 0-0.2-0.4-0.6-0.1-0.8 0.2 0.1 0.3 0 0.2 0.5 0.5-0.3 1-0.5 1.5-0.8 0.2-0.6 0.3-1.3 0.3-2.1 -1 0.5-0.9 1.7-1.8 2.3C148 21.4 149.3 19.7 150.3 18zM134.9 38.8c0.1-0.2 0.2-0.4 0.5-0.4 0-0.3 0-0.8-0.3-0.7 -0.1 0.3-0.4 0.5-0.4 1C134.8 38.5 134.8 38.8 134.9 38.8zM137.3 50.1c-0.3-0.4-0.8-0.1-1 0.2C136.6 50.4 137.1 50.4 137.3 50.1zM135.4 40.3c0.6 0.1 0.6-1.1 0.1-1.2C135.2 39.5 135.1 39.8 135.4 40.3zM138.7 49c-0.2 0.3-0.9 0.2-0.9 0.6 1-0.1 1.7 0.1 2.5-0.3C139.6 49 138.7 49.5 138.7 49zM148.1 49.7c-1.9-1.6-6.4-1.6-8.4-1C141.9 49.6 145.9 48.6 148.1 49.7zM141.2 37.7c-0.3 0.8-1.3 1.8-1.2 2.6C140.5 39.6 141.3 38.4 141.2 37.7zM143.6 21.4c-0.8 1.1-1.7 2.3-2.6 3.5 -0.8 1.1-1.9 2.4-2 3.7C140.3 26 142.4 23.6 143.6 21.4zM145.2 65.5c-0.4-0.3-0.3-0.8 0.3-0.9 0 0.3-0.2 0.6 0.2 0.6 1.4-2.2 3.6-3.8 3.6-7.1 -1.6 2-2.9 4.2-4 6.5 -0.6 0.5-1.6 1.9-1.4 2.2C144 66.1 144.5 65.7 145.2 65.5zM142.9 31.7c-0.3 0.6-1.1 1.5-0.8 2.3C142.1 33.1 142.9 32.3 142.9 31.7zM144.6 31.5c-0.3 0-0.2-0.3-0.5-0.2 -1.1 1.1-1.6 2.6-1.8 4.4 0.4 0.2 0.1 0.6 0.4 0.3 0.2-0.5-0.1 0-0.2-0.2C143.6 34.1 144.3 33.4 144.6 31.5zM145.9 32.4c0 0.1 0 0.2-0.1 0.3 -1.7-0.3-1.6 2.3-2.6 3.2 0.4-0.2 0.4-0.2 0.8-0.1C144.5 34.6 145.8 33.5 145.9 32.4zM147.7 51.3c0-0.3-0.2-0.4-0.3-0.6 -0.2 0-0.5 0-0.5 0.2C147.4 50.7 147.2 51.5 147.7 51.3zM147.3 29.5c-0.5 0.8-1.3 1.4-1.8 2.3 0.5-0.4 0.4 0 0.7 0.3C146.7 31.3 147.5 30 147.3 29.5zM149.6 52.8c-0.3-0.8-0.3-2-1.4-1.8C148.7 51.5 148.9 52.5 149.6 52.8zM150.3 57.3c-0.2 0.3-0.7 0.6-0.3 0.9 0.6-0.4 0.7-2.7 0.5-3.8 -0.5 0.5-0.3-1-0.9-0.9C149.9 54.8 150 55.6 150.3 57.3zM149.3 23.5c-0.3 0.2-0.5 0.7-0.7 1.2 -0.6 1.5-1.2 2.7-0.8 4.2C148.4 27.1 150 25 149.3 23.5zM147.8 25.6c0.2-0.6 0.7-1.1 0.8-1.9C147.7 23.7 147.1 25.1 147.8 25.6zM149.4 13.9c0.6-0.7 1.7-2.3 2.3-1.9 -0.2 0.6-0.6 1-0.6 1.7 0.9-0.3 1.1-1.9 0.5-2.1 0.2-0.1 0.5-0.8 0.3-0.8 -1.5 0.6-2.9 3.5-3.6 4.4C148.8 14.9 149 14.3 149.4 13.9zM149.9 8.5c-1.4 0.2-1.9 1.6-2 2.4C149 10.3 148.6 9 149.9 8.5zM151.2 21.5c0-0.3-1.1-0.4-0.9 0C150.4 21.8 150.9 21.5 151.2 21.5zM151.9 20.8c0.1-0.4-0.2-0.4-0.3-0.6 -0.4 0.1-0.8 0.2-1.1 0.4C150.9 20.6 151.3 20.8 151.9 20.8zM151.4 16.1c-0.3-0.7 0.2-1.8-0.2-1.9C150.9 14.2 150.9 15.9 151.4 16.1zM152.6 20.7c0-0.4 0.7-0.3 0.7-0.7 -0.2-0.2-0.7 0-1.1 0C152.2 20.4 152.4 20.6 152.6 20.7zM152.2 9.2c-0.4 0.1-1.1 0-1.1 0.4C151.4 9.8 152.5 10.2 152.2 9.2zM152.6 16.2c-0.2 0.1-0.5 0.5-0.1 0.5 0.4-0.9 0.7-2.1 0.3-3.2 -0.4 0.2-0.6 0.6-0.8 1 0.4 0 0.7-0.4 0.9 0 -0.4 0.4-1.1 0.6-1 1.4C152.1 16.1 152.6 15.9 152.6 16.2zM152.7 11.3c-0.1 0.1 0 0.5-0.3 0.4 -0.1 0.5 0.5 0.9 0.7 0.6 -0.2 0-0.1-0.4-0.3-0.5 0.4 0.3 0.1-0.2 0.3-0.3 -0.1 0.3 0.5 0.4 0.4 0.2 -0.3-0.6 0.2-1.5-0.6-2C152.6 10.3 153.5 11.6 152.7 11.3zM154.3 12.9c-0.3 0 0.1 0.4 0.2 0.4C154.5 12.4 154.1 11.5 154.3 12.9z" class="a"></path><path d="M54 26.3c0 0.2 0.5 0 0.3-0.3 0.2 0.5 0.6 1.4 0.2 1.8 0.1 0.2 0.2-0.1 0.4 0 -0.1 0.6 0.2 0.5 0.2 1 -0.1-0.1-0.2-0.1-0.4-0.1 0.3-0.5-0.7-0.6-0.3-1.3 0-0.1-0.4-0.1-0.4 0 -0.1-0.1-0.4-0.7 0-0.8 -0.3-0.2-0.5-0.6-0.6-1.1C53.9 25.4 54.2 26.2 54 26.3z" class="a"></path><path d="M59.1 43.5c-0.9 0-0.1-0.7-0.1-1 0-1-0.2-2.5 0.5-3.3C59.3 40.8 59 41.6 59.1 43.5z" class="a"></path><path d="M61 33.3c0.2-0.8 1-1.2 1.3-1.9C62.6 32.1 61.4 32.7 61 33.3z" class="a"></path><path d="M80.4 66.1c0.8 0.1 2.1 0.8 3.1 1.1C82.6 67.2 81.3 66.6 80.4 66.1z" class="a"></path><path d="M78.3 25.4c0-0.3 0.2 0.2 0.5-0.1 0.6 1.4 3.4 3 3.2 4.1 0.3 0.6 1.1 0.5 1.3 1.1 -2-0.8-3.5-2.2-5.2-3.3 1.2 1.3 3.1 1.9 4.1 3.4 -1.6-0.6-2.7-1.9-4-2.7 -1.3-0.9-2.9-1.4-4-2.6 1.1-0.3 1.8 1 2.7 1.3 0-0.4-1.1-0.8-1.4-1.2 1.9 0.2 3.4 2.2 5.3 3C80.3 27.6 79 26.5 78.3 25.4z" class="a"></path><path d="M84.1 49.9c0.4-0.5 0.3-1.3 1-1.5 -0.4 2.2-1.3 4-1.2 6.7 -0.2 0.3-0.2 0.7-0.8 0.6 0-0.2-0.1-0.5 0.1-0.5 -0.2-0.3-0.3 0.5-0.8 0.4 0.4-2.3 0.5-4.9 2-6.4C84.2 49.4 84.1 49.6 84.1 49.9zM83.5 53.3c0-0.2 0-0.3-0.1-0.5 0.2-0.6 0.5-1.9 0.2-0.9 -0.1 0.4-0.4 1.4-0.3 1.9C83.4 53.7 83.2 53.4 83.5 53.3z" class="a"></path><path d="M87.6 30.9c-0.3-0.1 0.4-0.5 0.2-0.9 0.1 0 0.1 0.2 0.2 0.2 0.2 0 0.4 0 0.4-0.2C88.7 30.4 87.7 30.6 87.6 30.9z" class="a"></path><path d="M95.4 36.4c-0.3 0.3 0.5 0.3 0.6 0.6 0.1-0.4 1.8 0.9 2.9 1 0 0.2-0.1 0.3-0.1 0.5 -0.5 0.2-0.7-0.1-1.3 0 -0.3-0.6-3.3-1.9-4.8-1.6 0.2-0.5-1-0.4-1.5-0.6 -0.1-0.5 0.7-0.1 0.6-0.6 1.3 0.4 2.4 0.6 3.7 0.7C95.5 36.5 95.4 36.5 95.4 36.4z" class="a"></path><path d="M93 29.9c0.4 0 1.7 0 2 0.5C94.3 30.3 93.5 30.2 93 29.9z" class="a"></path><path d="M97.3 29.4c0.7-0.4 1.7 0.8 2.3 0.4 0 0.3 0.4 0.3 0.6 0.7C99.2 30.1 98.3 29.7 97.3 29.4z" class="a"></path><path d="M97.7 30.9c0.3-0.3 1 0 1.4 0C98.8 31.8 98.2 30.7 97.7 30.9z" class="a"></path><path d="M103.9 73.7c-0.3-0.2 0.5-0.6 0.5-1 0.3 0.2-0.2 0.6-0.2 0.9C104.1 73.7 103.9 73.5 103.9 73.7z" class="a"></path><path d="M100.2 31.3c-0.4 0.1-0.5-0.3-0.9-0.2 0.1-0.6 0.8 0 0.9-0.2C100.3 31 100.1 31.1 100.2 31.3z" class="a"></path><path d="M100.7 31.2c-0.1 0.1-0.1 0.3-0.3 0.3 0.1-0.1 0.1-0.3 0.1-0.5 0.2-0.1 0.4 0.5 0.4 0.1 0.3-0.1 0.2 0.5 0.4 0.5C101 31.7 100.7 31.5 100.7 31.2z" class="a"></path><path d="M101.2 31.4c0.8-0.5 2.5 0.5 3.7 0.6 -0.1 0.1-0.1 0.2 0 0.2C104 32.1 102.3 31.8 101.2 31.4z" class="a"></path><path d="M122.6 59.1c0-0.2 0.3-0.1 0.5-0.2 -0.3-0.3 0-0.1 0.1-0.4C123.6 58.7 122.9 59.4 122.6 59.1z" class="a"></path><path d="M144.7 52.5c0.4-0.1 0.4 0.3 0.7 0.4C145.4 53.2 144.7 52.9 144.7 52.5z" class="a"></path><path d="M146.7 51.9c0.7 0.2 1 0.8 1.3 1.4C147.6 52.9 147 52.6 146.7 51.9z" class="a"></path><path d="M157.1 16.9c0-0.2-0.7-0.5-0.9-1.4 0.2-0.2 0.5-0.3 0.3-0.8 0.4-0.1 0.4 0.8 0.4 0C157 16 157.5 15.8 157.1 16.9z" class="a"></path><path d="M155.8 12.9c0.7 0 0 1.1 0.7 0.7 -0.2 0.3 0.2 0.6 0.2 0.8C156.4 14.5 155.9 13.6 155.8 12.9z" class="a"></path></g></svg>