<svg xmlns="http://www.w3.org/2000/svg" width="140" height="104" viewBox="29.5 0 140 104"><style>.a{fill:#A09078;}</style><defs><rect x="29.5" width="140" height="104"></rect></defs><clipPath><use xmlns:xlink="http://www.w3.org/1999/xlink" xlink:href="#SVGID_1_"></use></clipPath><g clip-path="url(#SVGID_2_)"><path d="M129.2 27.6c-0.4-1.7-2.9-3.1-3.7-4.7 -8.5-1.7-16.4 2.9-24.9 3.6 -5.1 0.4-10.2 0.7-15.5 0.4 -3.5 1.2-7.3 0.1-10.9 0.8 -0.7 0.1-0.3 0.8-0.9 0.8 -3.8-0.1-8.8 2.6-10.5 6.6 -1.3-1.7 1.1-2.6 1.9-3.7 0.8-1 0.6-2.2 2.3-3.1 2.1-1.1 10.2-1.9 13.6-1.5 2.1 0.2 4.5-0.5 7-0.4 6.5 0 14.4-0.5 20.5-1.8 5.5-1.1 11-3.7 16.6-2.6 0.7 0.2 1.8 1.1 2.9 1.9C127.4 25.2 130.1 26.1 129.2 27.6z" class="a"></path><path d="M62.9 36.1L62.4 35.4c-1.2-1.6 0.2-2.8 1.1-3.5 0.3-0.3 0.7-0.5 0.8-0.8 0.2-0.3 0.4-0.6 0.5-1 0.3-0.7 0.7-1.6 2-2.3 1.8-1 7.6-1.7 11.6-1.7 0.9 0 1.7 0 2.3 0.1 1.1 0.1 2.3 0 3.6-0.2 1.1-0.1 2.1-0.3 3.3-0.3l0.7 0c7.2 0 14.6-0.7 19.7-1.7 1.5-0.3 3-0.7 4.5-1.2 3-0.9 6.2-1.7 9.3-1.7 1 0 2 0.1 3 0.3 0.7 0.1 1.5 0.8 2.3 1.4 0.2 0.2 0.5 0.4 0.7 0.5l0.2 0.2 0 0.3c0 0.4 0.4 0.8 0.8 1.2 0.6 0.7 1.5 1.6 0.8 2.7l-0.6 1.1 -0.3-1.2c-0.2-0.8-1-1.6-1.9-2.4 -0.6-0.6-1.3-1.2-1.7-1.9 -1.2-0.2-2.4-0.3-3.6-0.3 -3.8 0-7.6 1-11.2 2 -3.1 0.8-6.4 1.7-9.7 2 -6.2 0.5-10.9 0.6-15.5 0.4 -1.6 0.5-3.1 0.6-4.5 0.6 -0.6 0-1.1 0-1.7 0 -0.6 0-1.1 0-1.7 0 -1.3 0-2.2 0.1-3.1 0.2l-0.1 0c0 0 0 0 0 0.1 -0.1 0.2-0.2 0.7-0.8 0.7l-0.3 0c-3.4 0-8.2 2.5-9.7 6.3L62.9 36.1zM73.5 27.4c-2.7 0.3-5.2 0.7-6.2 1.3 -1 0.5-1.3 1.1-1.5 1.8 0 0.1-0.1 0.1-0.1 0.2 2.3-1.8 5.2-2.8 7.6-2.7C73.3 27.8 73.3 27.6 73.5 27.4z" class="a"></path><path d="M67.7 31.5c4.2-1.7 8.7-1.7 13.2-2.1 -3.4 1.5-8.6 0.3-12.4 2.7C68.2 31.9 67.9 31.7 67.7 31.5z" class="a"></path><path d="M68.4 32.7l-0.3-0.2c-0.1-0.1-0.2-0.2-0.4-0.3 -0.1-0.1-0.3-0.2-0.4-0.3l-0.7-0.5 0.8-0.3c3.4-1.4 7-1.7 10.5-1.9 0.9-0.1 1.8-0.1 2.7-0.2l3-0.3 -2.7 1.3c-1.5 0.7-3.4 0.9-5.4 1 -2.4 0.2-4.9 0.4-7 1.7L68.4 32.7z" class="a"></path><path d="M75.6 31.4c-1.2 1.1-4 0.8-5.8 1.7C70.3 31.7 73.8 31.9 75.6 31.4z" class="a"></path><path d="M68.9 34l0.4-1.1c0.5-1.3 2.4-1.5 4.3-1.7 0.7-0.1 1.4-0.2 1.9-0.3l1.9-0.5 -1.4 1.3c-0.8 0.7-2 0.9-3.4 1.1 -0.9 0.1-1.9 0.3-2.6 0.6L68.9 34z" class="a"></path><path d="M91.9 40.8c-0.9 0.9-3.5 0.7-5.1 0.7C87.7 40.4 90.3 41.1 91.9 40.8z" class="a"></path><path d="M88.4 42c-0.4 0-0.8 0-1.1 0l-1.6 0 0.7-0.8c0.8-0.9 2.2-0.8 3.5-0.8 0.2 0 0.5 0 0.7 0 0.5 0 0.8 0 1.1-0.1l1.7-0.3 -1.2 1.2C91.4 41.9 89.8 42 88.4 42z" class="a"></path><path d="M79.5 58.7c-1.6 1.8-2.5 4.1-2.6 6.2C74 63.8 77.5 59.5 79.5 58.7z" class="a"></path><path d="M77.4 65.6l-0.7-0.2c-0.9-0.3-1.4-1-1.4-1.9 0-1.9 2.4-4.6 4-5.3l2.1-0.9 -1.5 1.7c-1.5 1.7-2.4 3.9-2.5 5.9L77.4 65.6zM77.2 61.4c-0.5 0.7-0.9 1.5-0.9 2.1 0 0.2 0 0.3 0.1 0.5C76.6 63.1 76.8 62.2 77.2 61.4z" class="a"></path><path d="M82.1 60c-1.7 0.3-5 2.6-3.5 4.6C75.6 63.6 80.3 59 82.1 60z" class="a"></path><path d="M79.9 65.7l-1.5-0.6c-1-0.4-1.4-1.1-1.3-2.1 0.3-1.7 2.7-3.7 4.3-3.7 0.3 0 0.6 0.1 0.9 0.2l1.2 0.7 -1.4 0.2c-1 0.2-2.8 1.2-3.3 2.4 -0.2 0.5-0.2 1 0.1 1.4L79.9 65.7z" class="a"></path><path d="M80.3 61.1c3.4-1.5 10.9 0.6 9 5.7 1.5-0.1 2.7-2.2 4.2-2 0.6 0.5 0.1 1.1-0.1 1.8 -0.6-0.3-0.1-0.7-0.5-1 -1.3 0.4-4.9 2.5-4 3.6C87.7 69 87.7 71 86.5 71c0.9-2.6 3.8-5.5 2.2-7.7 -2.6-2.5-4.8-1.7-7.2-2.1 -0.2 0.3-0.4 0.5-0.2 0.7C80.8 61.9 80.6 61.5 80.3 61.1z" class="a"></path><path d="M85.8 71.5l0.2-0.7c0.3-0.8 0.8-1.7 1.2-2.5 1-1.7 1.9-3.4 1.1-4.7 -1.8-1.6-3.3-1.7-4.9-1.8 -0.5 0-1.1 0-1.6-0.1l0.5 0.5 -1 0.1c-0.7 0.1-1-0.4-1.3-0.7 0-0.1-0.1-0.1-0.2-0.2l-0.4-0.5 0.6-0.3c0.8-0.3 1.7-0.5 2.8-0.5 2.3 0 5.2 0.9 6.5 2.8 0.6 0.9 0.9 2 0.7 3.1 0.3-0.2 0.6-0.4 0.9-0.6 0.8-0.6 1.7-1.2 2.7-1.1l0.1 0 0.1 0.1c0.7 0.6 0.4 1.4 0.2 1.9 0 0.1-0.1 0.2-0.1 0.4l-0.2 0.5 -0.5-0.2c-0.5-0.2-0.6-0.5-0.6-0.8 -1.2 0.5-3.1 1.8-3.3 2.5 0 0.1 0 0.1 0 0.2l1 1.1 -1.5-0.3c-0.4-0.1-0.5 0.1-0.9 0.6 -0.3 0.5-0.7 1.1-1.5 1.1L85.8 71.5zM88.9 67.4c-0.2 0.5-0.5 1-0.8 1.4 0 0-0.1 0.1-0.1 0.1 0.1-0.1 0.2-0.1 0.3-0.1 0-0.1 0-0.2 0-0.3 0.1-0.4 0.4-0.8 0.8-1.2L88.9 67.4z" class="a"></path><path d="M87.7 57.4c8.3-4.1 16.8-6.7 24.9-12.4 -7.2 6.4-16.3 8.6-24 12.7C88.4 57.8 88.1 57.7 87.7 57.4z" class="a"></path><path d="M88.6 58.3c-0.4 0-0.8-0.2-1.2-0.5l-0.6-0.5 0.7-0.3c2.8-1.4 5.7-2.6 8.4-3.8 5.4-2.3 11.1-4.8 16.4-8.5l0.6 0.8c-4.8 4.2-10.4 6.6-15.8 9 -2.9 1.2-5.6 2.4-8.2 3.8L88.6 58.3z" class="a"></path><path d="M113.1 26c3.2-1.7 6.6-1.1 10-1.5C120.6 25.6 116.3 25.3 113.1 26z" class="a"></path><path d="M109.6 27.3l3.3-1.7c2.3-1.2 4.7-1.3 7.1-1.4 1 0 2-0.1 3-0.2l3.3-0.4 -3 1.4c-1.6 0.7-3.8 0.9-5.9 1.1 -1.4 0.1-2.9 0.2-4.2 0.5L109.6 27.3z" class="a"></path><path d="M104.2 42.9c2.5-0.9 5-1.3 7.7-0.5C109.4 42.8 106.8 42.8 104.2 42.9z" class="a"></path><path d="M101 43.5l3-1.1c3-1.1 5.5-1.3 8-0.5l1.9 0.6 -2 0.4c-1.9 0.4-3.8 0.4-5.7 0.5 -0.7 0-1.4 0-2.1 0.1L101 43.5z" class="a"></path><path d="M116.7 26.5c2-1.3 4.3-0.8 6.5-0.2C121 26.4 118.8 26.2 116.7 26.5z" class="a"></path><path d="M114.4 27.4l2-1.3c1-0.6 2-0.9 3.2-0.9 1.2 0 2.5 0.3 3.7 0.6l3 0.8 -3.1 0.2c-0.5 0-1 0-1.5 0l-2 0c-0.9 0-1.9 0-3 0.2L114.4 27.4z" class="a"></path><path d="M94.8 57.3c2-1.5 4-2.5 6.1-3.3C99.6 55.2 96.8 56.8 94.8 57.3z" class="a"></path><path d="M92.4 58.4l2.1-1.5c1.9-1.3 3.8-2.4 6.2-3.3l2.7-1 -2.2 1.9c-1.4 1.2-4.2 2.8-6.3 3.4L92.4 58.4z" class="a"></path><path d="M86.2 73.8c1.6-0.8 3.4-0.3 5.1-0.7C90.4 74 87.8 74.1 86.2 73.8z" class="a"></path><path d="M88 74.5c-0.6 0-1.3-0.1-1.9-0.2l-1.5-0.3 1.3-0.7c1-0.5 2.1-0.5 3.2-0.6 0.7 0 1.4 0 2-0.2l1.8-0.5 -1.3 1.3C90.8 74.3 89 74.5 88 74.5z" class="a"></path><path d="M121.4 28.3c0.1-1 1.7-0.6 2.6-0.2C123.1 28.3 122.2 28.2 121.4 28.3z" class="a"></path><path d="M120.9 28.9l0-0.6c0-0.5 0.4-1.1 1.4-1.1 0.7 0 1.5 0.3 1.9 0.5l1.1 0.6 -1.2 0.3c-0.9 0.2-1.8 0.1-2.6 0.2L120.9 28.9z" class="a"></path><path d="M88.4 72.1c1.1-1 2.2-1.2 3.5-0.7C90.7 71.5 89.6 72.2 88.4 72.1z" class="a"></path><path d="M88.5 72.6l-1.3-0.1 0.8-0.8c1.2-1.1 2.6-1.4 4.1-0.8l2 0.9 -2.2 0.1c-0.5 0-1 0.2-1.5 0.3C89.8 72.5 89.2 72.6 88.5 72.6z" class="a"></path><path d="M97.1 65.4c0.6 0.7 0 1.6-0.6 2 -0.1-0.3 0-0.6 0.1-0.9 -1.9 0.7-3.5 3.1-5.3 4.2C91.9 68.9 95.3 66.1 97.1 65.4z" class="a"></path><path d="M90.4 71.8l0.4-1.3c0.6-2 4.2-4.8 6.1-5.6l0.3-0.1 0.2 0.3c0.3 0.3 0.4 0.7 0.3 1.2 -0.1 0.7-0.6 1.3-1 1.6L96.2 68.2l-0.2-0.7c0 0 0-0.1 0-0.1 -0.7 0.4-1.4 1.1-2.1 1.8 -0.7 0.7-1.5 1.5-2.3 1.9L90.4 71.8z" class="a"></path><path d="M94.4 69.4c0.7-0.9 1.5-1.9 2.4-1.2 1.5-1 3-2.7 4.7-2.2 -1 1.1-1 1.5-2.1 2 -0.2-0.2 0.2-0.5-0.1-0.7C97.6 67.5 96.2 70.3 94.4 69.4z" class="a"></path><path d="M95.1 70.1c-0.3 0-0.6-0.1-1-0.2l-0.6-0.3 0.4-0.5c0.6-0.8 1.3-1.6 2.2-1.6 0.2 0 0.4 0.1 0.7 0.2 0.3-0.2 0.6-0.4 0.8-0.6 1-0.8 2-1.6 3.2-1.6 0.3 0 0.6 0 0.8 0.1l0.7 0.2 -0.5 0.6c-0.3 0.3-0.4 0.5-0.6 0.7 -0.5 0.6-0.8 0.9-1.7 1.4l-0.4 0.2 -0.3-0.3c-0.1-0.1-0.2-0.3-0.2-0.4 -0.4 0.2-0.8 0.5-1.3 0.9C96.8 69.5 96.1 70.1 95.1 70.1zM96.1 68.5c-0.3 0-0.5 0.3-0.8 0.6 0.4-0.1 0.7-0.3 1.1-0.5C96.3 68.5 96.2 68.5 96.1 68.5zM99.5 66.9l0.1 0.1c0.1 0.1 0.1 0.1 0.2 0.2 0.3-0.2 0.4-0.4 0.7-0.7C100.2 66.5 99.8 66.7 99.5 66.9z" class="a"></path><path d="M127.3 33.4c-1 0.9-0.7 1.7-1.4 2.6 -0.5 0.1-1 0-1.5 0.4 -0.3-1.1 1.6-0.8 1.3-1.7 -1 0.1-1.9 1.3-2.9 1.8 -0.5-0.3-1.9-0.6-1.8-0.8 -0.1-0.9 1.1-0.3 1.7-0.2C124.1 34 125.6 32.7 127.3 33.4z" class="a"></path><path d="M124.1 37.2l-0.2-0.7c0-0.1 0-0.1 0-0.2 -0.3 0.2-0.5 0.4-0.8 0.5l-0.2 0.1 -0.2-0.1c-0.2-0.1-0.5-0.2-0.8-0.3 -0.7-0.2-1.3-0.4-1.3-1 0-0.3 0.1-0.5 0.2-0.7 0.1-0.1 0.3-0.3 0.7-0.3 0.3 0 0.7 0.1 1 0.2 0.1 0 0.1 0 0.2 0 1.1-1 2.3-2.1 3.8-2.1 0.4 0 0.7 0.1 1.1 0.2l0.8 0.3 -0.6 0.6c-0.5 0.5-0.6 0.9-0.7 1.3 -0.1 0.4-0.2 0.8-0.6 1.2l-0.1 0.2 -0.2 0c-0.1 0-0.3 0-0.4 0 -0.4 0-0.6 0.1-0.9 0.2L124.1 37.2zM126.3 33.7c-1 0-1.9 0.7-3 1.7 0.1-0.1 0.2-0.1 0.3-0.2 0.6-0.5 1.3-1 2-1.1l0.4 0 0 0.1C126.2 34 126.2 33.9 126.3 33.7z" class="a"></path><path d="M126.1 51.6c-1.7 2.6-4.9 4-7.6 6 -6.6 4.8-13.4 9.3-20.1 12.1 2.3-2.5 6.3-3.6 9-5C113.9 61.2 119.3 55.9 126.1 51.6z" class="a"></path><path d="M96.4 71.1l1.6-1.7c1.7-1.8 4.2-2.9 6.4-3.8 1-0.4 1.9-0.8 2.7-1.3 3.6-1.9 6.7-4.4 10.1-6.9 2.7-2.1 5.5-4.2 8.6-6.1l1.9-1.2 -1.2 1.9c-1.3 2-3.3 3.2-5.4 4.6 -0.8 0.5-1.6 1-2.4 1.6 -6.1 4.4-13.2 9.3-20.2 12.1L96.4 71.1z" class="a"></path><path d="M103.1 64.8c3.1-1.9 6.3-3.7 9.4-5.9 -2 2.7-5.7 3.7-8.3 6.1C103.8 64.7 103.5 65.3 103.1 64.8z" class="a"></path><path d="M104.2 65.6l-0.3-0.2c-0.3 0.2-0.8 0.2-1.2-0.3l-0.3-0.4 1.4-0.8c2.8-1.6 5.6-3.4 8.4-5.4l2.6-1.9 -1.9 2.6c-1.2 1.6-3 2.6-4.7 3.7 -1.3 0.8-2.6 1.5-3.7 2.5L104.2 65.6z" class="a"></path><path d="M112.5 62.8c-0.8 1.6-3.6 2.2-5.7 3.5 -1.9 1.1-3.5 2.9-5.3 3.8C104.3 66.6 108.8 64.9 112.5 62.8z" class="a"></path><path d="M99.4 71.8l1.6-1.9c2.2-2.7 5.3-4.4 8.4-6 1-0.5 1.9-1 2.8-1.5l1.6-0.9 -0.9 1.6c-0.6 1.2-2.1 1.8-3.6 2.6 -0.8 0.4-1.6 0.7-2.3 1.2 -0.8 0.5-1.7 1.2-2.4 1.8 -0.9 0.7-1.9 1.5-2.9 2.1L99.4 71.8z" class="a"></path><path d="M141.2 32.2c-0.3 0.5-0.8 0.4-1.1 0.7 0.3 0.9 1.7 0.7 0.4 1.8 0.8 0.2 1.5-0.5 2.3-0.7 0.3 0.5 1.1 1 1.3 1.6 -0.9 0.7-1.8 1.2-2.6 2.3 -0.3 0.7 0.6 0.1 0.8 0.6 -1.2 0.7-3.1 0.7-3.6 2.4 -1.1-2.8 2.8-2.9 4.6-5.6 -2.8-0.4-4.8 1.9-6.4 4.9 -1.1-1.5 1.8-3.4 2.8-4.5 -0.2-0.7 0.1-1.4 0.1-2.1 -2.3 0.1-2.5 4.1-3.8 5C135.4 36.1 138.9 31.6 141.2 32.2z" class="a"></path><path d="M138.7 42.3l-0.5-1.3c-0.8-2.1 0.7-3 2.1-3.9 0.6-0.4 1.3-0.8 1.9-1.4 -1.8 0.2-3.4 1.7-4.9 4.6l-0.4 0.7 -0.5-0.7c-0.3-0.5-0.4-1-0.3-1.4l-0.5 0.4 -0.2-0.8c-0.3-1.5 0.7-3.4 1.7-4.6 1.4-1.7 3-2.6 4.3-2.3l0.7 0.2 -0.4 0.6c-0.2 0.3-0.5 0.5-0.7 0.6 0 0 0 0 0.1 0 0.2 0.2 0.5 0.4 0.6 0.8 0 0.1 0 0.1 0 0.1 0.1 0 0.1-0.1 0.2-0.1 0.3-0.2 0.7-0.3 1.1-0.4l0.4-0.1 0.2 0.3c0.1 0.2 0.3 0.4 0.5 0.6 0.3 0.3 0.7 0.6 0.8 1.1l0.1 0.3 -0.3 0.2c-0.2 0.2-0.5 0.4-0.7 0.6 -0.5 0.4-1 0.7-1.5 1.2 0.2 0.1 0.4 0.2 0.5 0.4l0.2 0.4 -0.4 0.2c-0.4 0.2-0.9 0.4-1.3 0.6 -1 0.3-1.8 0.6-2.1 1.6L138.7 42.3zM141 37.8c-0.1 0-0.1 0.1-0.2 0.1 -0.8 0.5-1.4 0.9-1.7 1.4 0.5-0.4 1.2-0.6 1.8-0.8 0.1 0 0.1 0 0.2-0.1C140.9 38.2 140.9 38 141 37.8zM139.1 34c-0.7 0.3-1.1 1.3-1.6 2.5 0 0.1-0.1 0.2-0.1 0.3 0.4-0.4 0.7-0.7 1.1-1 0.2-0.2 0.4-0.4 0.6-0.6 -0.1-0.4 0-0.8 0-1.2C139.1 34.1 139.1 34.1 139.1 34zM140.2 33.7c0 0.2 0 0.4-0.1 0.6 0 0 0 0.1 0 0.1l0.1-0.1c0.2-0.2 0.3-0.3 0.3-0.3 0 0-0.1-0.1-0.1-0.1C140.3 33.8 140.2 33.8 140.2 33.7z" class="a"></path><path d="M132.6 42.3c0.2 1.5 0.3 3.1-0.2 4.7 0.7-0.1 0.9-2.4 2-2.2 -0.3 1.4-1.6 2.9-2.7 4.3 -0.5 0.2 0.7-1.3 0.8-1.8 -0.7-0.5-1.1 1.3-1.8 0.4C132.9 46.3 131.5 44.1 132.6 42.3z" class="a"></path><path d="M131.3 49.7l-0.2-0.3c-0.1-0.3-0.1-0.5 0.1-0.9 -0.3 0.1-0.7-0.1-1-0.4l-0.4-0.4 0.5-0.3c1.2-0.7 1.2-1.6 1.2-2.7 0-0.8 0.1-1.7 0.6-2.6l0.7-1.1 0.2 1.3c0.1 0.9 0.2 1.7 0.2 2.5 0.3-0.3 0.7-0.5 1.2-0.4l0.5 0.1 -0.1 0.5c-0.2 1.3-1.3 2.6-2.3 3.9l-0.6 0.8 -0.4 0.1H131.3z" class="a"></path><path d="M126.5 51.6c0.6-0.5 1.5-2.8 2.7-1.9 -0.7 1-1.6 1.2-2.3 2.2C126.8 51.6 126.7 51.4 126.5 51.6z" class="a"></path><path d="M126.7 52.9l-0.3-0.9c0-0.1 0-0.1-0.1-0.2 0 0 0.1 0.1 0.3 0.1 0.1 0 0.1 0 0.1 0l-0.6-0.8 0.1-0.1c0.1-0.1 0.3-0.4 0.5-0.6 0.5-0.7 1.1-1.6 1.9-1.6 0.3 0 0.6 0.1 0.8 0.3l0.4 0.3 -0.3 0.4c-0.4 0.5-0.8 0.9-1.2 1.2 -0.4 0.3-0.7 0.6-1 1L126.7 52.9z" class="a"></path><path d="M135.1 46.6c0.3 1.3-2.1 2.5-2.9 4.2C132.3 49.2 134 47.6 135.1 46.6z" class="a"></path><path d="M131.5 53.5l0.2-2.7c0.1-1.7 1.7-3.3 3.1-4.5l0.6-0.6 0.2 0.8c0.2 1-0.6 1.8-1.5 2.7 -0.6 0.6-1.2 1.2-1.5 1.8L131.5 53.5z" class="a"></path><path d="M135.1 37.8c-7.3-3.8-15.7 1.8-21.8 7.1 -0.1-0.7-0.4-0.2-0.9-0.4 -4.8 2.7-9.3 5.8-14.6 7.7 -5.2 1.8-10.8 1.7-15.3 3.3 -1 0.3-5.6 2.4-4.5 3.5 -2.4-1.1-5 6.2-3.9 7.9 2.5 0.1 5-0.5 7.5-0.3 1.1-0.8 2-2.6 3.3-1.5 0.5 3.2-2.3 5.8-3.4 9.3 1.3-0.1 1.8 0.4 3.1 1.2 2.3 0 4.9-0.4 7.1 0.2 6.7-1.2 13.2-3.8 19.4-8.7 6.4-2.9 12.4-8.5 18.7-11.9 2.8-2.7 5.5-5.4 8.1-8.7 0.1-2.2 0.8-4.5-1.9-6.3 0.6-0.6 1.4 0.3 2.1 0.4 0.5 2.2 1.5 4.6 0.4 6.7 -0.6 1-2.1 1.7-3.1 2.8 -2.5 2.7-5.5 5.8-8.3 7.7 -2.3 1.6-5.2 2.8-7.3 4.5 -1.4 1.1-2.4 1.6-3.6 2.4 -2.3 1.4-4.5 3.4-6.7 4.9 -2.3 1.5-5.9 2.6-8.8 4 -2.6 1.3-5.5 2.8-8.4 3 -4 0.4-7.5-0.2-11.1-1.4 -0.5-0.3-0.8 0.9-1.2 1.2 -0.4-0.6-0.1-1.2-0.1-1.9 -1.2 0.8-0.1 2.7-0.8 3.9 -0.6-0.3-0.2-0.8 0-1.2 -1.4 0.4-3-1.2-4.6-2 -0.7 0.6 0.1 1.4-0.8 1.5 -1.1-0.4-0.1-1.1-0.6-1.6 -2.9 0.1-3.9-2.3-0.9-4.4 -0.7-1.2-3.9-2.2-2-3.3 0.8-0.1 0.4 0.7 0.3 1.2 1.1 0.1 1.9-1 3-1.1 -0.8-2-0.4-4.2 0-6.4 0.4 0.2 0.2 0.4 0.4 0.6 5.2-8.5 14.1-7.3 21.5-9.1 5.4-1.3 8.8-4.7 14.1-6.9 -4.1 0.3-8.9 0.3-14.2 1.1 -4.7 0.7-9.6 2.1-14 2.4 -4.5 0.4-9.8 0.5-14.2-2.9 -1.5-1.1-1.5-2.4-1.8-4.1 -2.1 1.2-4.2 2.2-6.3 3.1 0.6-2.1 4.4-1.8 6.2-3.8 -1.4-1-6.8 4.2-8.8 2.7 -1.7-1.2 0.4-4.4 0.5-6.3 1.1 1.4-0.7 3.2-0.2 4.7 1.7 0.3 1.7-2.2 2.6-3.5 0.5-1.6-2.1-2.7-1.6-4.3 0.2-0.3 2.3 1.6 1.8 1.7 3.6 1.5 6.6-1.2 10.2-0.2 -1.1 0.8-1 1-0.3 1.6 -1 1.4-2.1 2.3-3.2 3.4 0 1.5 1.7 2.9 3.5 4.2 -0.5 0.3-1.2-0.1-1.8-0.5 0.3 1.9 3.3 2.5 4.6 3.2 0.4-0.1 0.6-0.3 0.2-0.7 4.2 1.4 8-0.1 12.1 0.4 0.2-0.3 0.4-0.5 0.6-0.8 3.9-0.2 7.7-1 11.5-1.9 4.5 0.2 8.9-0.2 13.4-0.1 1.7-1.5 3.7-1.5 5.4-3.1 0.2-0.9-0.8 0-1.1-0.5 1.5-0.1 3-1.1 4.4-1.8 -3.8 0.3-7.6 0.9-11.4 1.4 3.7-1 8.9-1.6 13.2-2.1 2.6-1.8 6.6-3.2 9.7-3.2C131.9 35.7 134.9 35.7 135.1 37.8zM58.5 42.7c3.1-0.2 6.8-2.6 9.1-4.3 -2.8-1.7-5.3-0.7-7.9-0.8C60.7 39.1 59 41 58.5 42.7zM80.7 67.5c-3.2 0-6.4-0.2-9.2 1.8 1 0.6 1.3 0.6 1.6 1.5C75.3 69.5 79.4 68 80.7 67.5zM77.5 70.8c-2.1 0.9-4.2 2-6.3 3.1 0.9 0.6 1.8 0.8 2.7 0.8 2.9-3.7 7-5.1 9.6-7 -4.1 0.1-8.8 2.2-11.9 5.2C73.6 72.2 75.4 70.6 77.5 70.8zM79 74.1c0.6-1.3 1.7-2.7 2.7-4 -2.3 0.4-3.6 1.8-5.6 3.3C77.1 73.9 78 73.4 79 74.1zM77.7 76.2c0.3-0.4 0.6-0.8 0.9-1.1 -1-1.2-2.8-0.9-3-0.1C76.6 74.7 76.7 76.2 77.7 76.2zM80.8 73.7c0.7-1.1 1.6-2.2 1.5-3.1C81.6 71.6 80.1 72.8 80.8 73.7z" class="a"></path><path d="M79.2 79.1l-0.4-0.2c-0.5-0.3-0.6-0.7-0.5-1.1 -0.9-0.1-1.8-0.7-2.8-1.3 -0.3-0.2-0.6-0.4-0.9-0.6 0 0.1 0 0.1 0 0.2 0 0.3 0 1-0.9 1.1l-0.1 0 -0.1 0c-1-0.4-0.9-1.1-0.8-1.5 0 0 0-0.1 0-0.1 -1.2 0-2.2-0.5-2.6-1.3l-0.8 0.4 0.7-0.7 0 0c-0.3-1 0.2-2.2 1.5-3.3 -0.2-0.2-0.6-0.5-0.9-0.7 -0.8-0.6-1.5-1.1-1.5-1.9 0-0.4 0.3-0.8 0.8-1.1l0.2-0.1c0.5-0.1 0.8 0.1 0.9 0.3 0.2 0.2 0.2 0.5 0.2 0.8 0.2-0.1 0.5-0.2 0.7-0.4 0.3-0.2 0.6-0.4 1-0.5 -0.5-1.9-0.2-3.9 0.1-5.9l0.1-0.9 0.6 0.3c0.1 0 0.1 0.1 0.2 0.1 4.1-6.1 10.1-6.9 16-7.7 1.8-0.3 3.7-0.5 5.5-0.9 3.2-0.8 5.6-2.3 8.2-3.8 1.1-0.7 2.2-1.3 3.4-2 -0.6 0-1.2 0.1-1.8 0.1 -3.1 0.1-6.3 0.3-9.8 0.8 -1.9 0.3-3.9 0.7-5.9 1.1 -2.7 0.6-5.6 1.1-8.2 1.3 -1 0.1-2.4 0.2-3.9 0.2 -4.4 0-7.8-1-10.7-3.2 -1.4-1.1-1.6-2.3-1.8-3.6 0 0 0 0 0-0.1 -1.8 1-3.7 1.9-5.7 2.8l-1 0.4 0.3-1c0-0.1 0.1-0.3 0.2-0.4 -1 0.3-1.9 0.3-2.5-0.1 -1.4-1-0.8-2.9-0.2-4.6 0.3-0.8 0.5-1.5 0.5-2.1l0.1-1.3 0.8 1c0.8 1 0.4 2.1 0.1 3.1 -0.2 0.5-0.3 1-0.3 1.4 0.4-0.1 0.6-0.6 1-1.5 0.2-0.6 0.4-1.2 0.8-1.6 0.1-0.5-0.2-0.9-0.7-1.6 -0.6-0.7-1.2-1.6-0.9-2.6l0.1-0.1c0.1-0.2 0.3-0.3 0.5-0.3 0.6 0 1.9 1.2 2.2 1.9 0.6 0.2 1.2 0.3 1.8 0.3 1 0 1.9-0.2 2.9-0.4 1.6-0.3 3.4-0.6 5-0.2l1 0.3L70 36.8c-0.5 0.3-0.6 0.5-0.6 0.5 0 0 0.1 0.1 0.3 0.3l0.4 0.3 -0.3 0.4c-0.8 1-1.6 1.8-2.3 2.6 -0.2 0.2-0.5 0.5-0.7 0.7 0.1 1.2 1.8 2.5 3.3 3.6l0.6 0.4 -0.6 0.4c-0.2 0.1-0.5 0.2-0.8 0.2 0.6 0.5 1.5 0.8 2.3 1.1 0.2 0.1 0.4 0.1 0.6 0.2l-0.7-1 1.5 0.5c1.2 0.4 2.5 0.6 4 0.6 1 0 2-0.1 2.9-0.1 1.6-0.1 3.4-0.2 4.8-0.1l0.6-0.7 0.2 0c3.9-0.2 7.8-1 11.4-1.9l0.1 0 0.1 0c2.6 0.1 5.1 0 7.6 0 1.9 0 3.7-0.1 5.6-0.1 0.8-0.7 1.7-1 2.5-1.4 0.7-0.3 1.4-0.6 2.1-1.1 -0.3-0.1-0.5-0.3-0.6-0.4l-0.4-0.7 0.8 0c0.7 0 1.3-0.3 2-0.6 -1.9 0.2-3.8 0.5-5.6 0.7 -1.1 0.1-2.2 0.3-3.2 0.4l-0.2-1c3-0.8 7-1.3 10.8-1.8 0.8-0.1 1.6-0.2 2.3-0.3 2.8-1.9 6.8-3.2 9.9-3.2 1.2 0 4.7 0 5 2.6l0.1 0.9 -0.8-0.4c-1.5-0.8-3.2-1.2-4.9-1.2 -4.6 0-9.9 2.7-16.3 8.2l-0.7 0.6 -0.1-0.8c-0.1 0-0.2 0-0.4 0 -1.3 0.7-2.5 1.4-3.7 2.2 -3.4 2-6.9 4.1-10.8 5.5 -2.7 1-5.5 1.4-8.3 1.8 -2.5 0.4-4.9 0.8-7 1.5 -1.7 0.6-4.4 2.2-4.3 2.7l1.7 1.8 -2.3-1c-0.6-0.3-1.4 0.4-2.1 1.6 -1.1 1.9-1.5 4.4-1.3 5.4 1 0 2.1-0.1 3.1-0.2 1.3-0.1 2.6-0.2 3.9-0.2 0.2-0.2 0.4-0.4 0.6-0.6 0.6-0.6 1.2-1.2 2-1.2 0.4 0 0.8 0.2 1.1 0.5l0.1 0.1 0 0.2c0.3 2.1-0.7 4-1.8 5.9 -0.5 0.9-1 1.9-1.4 2.9 0.8 0.1 1.3 0.4 2 0.8 0.2 0.1 0.4 0.2 0.6 0.3 0.5 0 1 0 1.6-0.1 0.8 0 1.5-0.1 2.3-0.1 1.3 0 2.3 0.1 3.1 0.4 7.2-1.3 13.4-4.1 19-8.6l0.1-0.1c3.5-1.6 6.9-4 10.3-6.4 2.7-1.9 5.5-3.9 8.4-5.4 2.9-2.8 5.4-5.3 7.9-8.5 0-0.3 0-0.6 0.1-0.8 0.2-1.9 0.3-3.5-1.7-4.9l-0.5-0.3 0.5-0.4c0.5-0.5 1.3-0.3 1.9 0 0.2 0.1 0.4 0.2 0.6 0.2l0.3 0.1 0.1 0.3c0.1 0.4 0.2 0.9 0.3 1.3 0.5 1.8 1 3.9 0 5.7 -0.4 0.7-1.1 1.2-1.8 1.7 -0.5 0.4-1 0.8-1.4 1.2 -2.6 2.8-5.5 5.9-8.4 7.8 -1 0.7-2.1 1.3-3.2 1.9 -1.4 0.8-2.9 1.6-4.1 2.6 -1 0.8-1.8 1.3-2.7 1.8 -0.3 0.2-0.6 0.4-1 0.6 -1.2 0.8-2.4 1.7-3.6 2.6 -1 0.8-2.1 1.6-3.1 2.3 -1.4 0.9-3.3 1.7-5.3 2.5 -1.2 0.5-2.5 1-3.6 1.5l-0.5 0.2c-2.5 1.2-5.3 2.6-8.1 2.9 -3.7 0.4-7.1-0.1-11.2-1.4 -0.1 0.1-0.2 0.3-0.3 0.4 -0.2 0.3-0.3 0.5-0.6 0.7l-0.4 0.3 0-0.1c0 0.6 0 1.1-0.3 1.7L79.2 79.1zM77.9 76.6c0.3 0.1 0.6 0.2 0.9 0.1 0-0.1 0-0.1 0-0.2 0-0.3 0-0.6 0-1 -0.2 0.3-0.5 0.6-0.7 0.9L77.9 76.6zM86.7 76c1.5 0.2 2.9 0.3 4.4 0.2 -0.7-0.2-1.5-0.3-2.5-0.3C87.9 75.9 87.3 76 86.7 76zM75.7 75.4c0.1 0.1 0.2 0.2 0.4 0.2 0 0 0.1 0 0.1 0.1C76 75.4 75.9 75.4 75.7 75.4zM76.7 74.7c0.2 0.1 0.3 0.3 0.4 0.5 0.2 0.2 0.3 0.4 0.4 0.4 0.1-0.2 0.3-0.4 0.4-0.6 -0.4-0.3-0.9-0.3-1.1-0.3C76.8 74.7 76.7 74.7 76.7 74.7zM82.1 74.9c0.3 0.1 0.5 0.2 0.8 0.2C82.6 75 82.4 75 82.1 74.9zM80.4 73.9l0 0.5c0 0.2 0 0.4 0 0.5 0.1-0.2 0.3-0.3 0.5-0.3l0.1-0.2 0 0 -0.4-0.5C80.4 74 80.4 74 80.4 73.9zM74.6 74.7l0.1 0.1c0.1 0.1 0.3 0.1 0.4 0.2l0.1-0.2c0.1-0.4 0.4-0.7 0.8-0.9 0 0 0 0 0 0l-0.4-0.2C75.2 74 74.9 74.4 74.6 74.7zM72.3 73.9c0.5 0.2 0.9 0.3 1.4 0.3 0.6-0.8 1.3-1.5 2.1-2.1C74.6 72.7 73.4 73.3 72.3 73.9zM80.1 73.1c-0.2 0.3-0.4 0.7-0.6 1 0 0 0.1 0 0.1-0.1l0.6-0.4C80.2 73.5 80.1 73.3 80.1 73.1zM77.3 73.2c0 0 0.1 0 0.1 0 0.4 0 0.9 0 1.4 0.3 0.4-0.8 1-1.6 1.6-2.4 -1.1 0.5-2 1.2-3 2.1C77.3 73.1 77.3 73.1 77.3 73.2zM72.6 71l-0.1 0.1c-0.8 0.6-1.4 1.3-1.5 1.9l0.3-0.3c0.4-0.4 0.9-0.9 1.4-1.3L72.6 71zM81.4 68.5c-1.8 0.3-3.6 1-5.4 1.9 0.5-0.1 1-0.1 1.5-0.1l0.6 0.1c0.7-0.5 1.5-0.9 2.2-1.3C80.7 68.9 81.1 68.7 81.4 68.5zM82.7 69.7l0.1 0.7c0.4-0.8 0.8-1.6 1.1-2.3l-0.2 0.1c-0.7 0.5-1.5 1-2.3 1.4 0 0 0.1 0 0.1 0l0.7-0.1 0.3-0.5 0 0.4 0.2 0L82.7 69.7zM72.4 69.2c0.4 0.2 0.7 0.4 0.9 0.8 1.4-0.7 3.3-1.5 4.8-2.1C76.2 68 74.2 68.2 72.4 69.2zM111.3 67.6c-0.9 0.7-1.9 1.4-2.8 2.1 0.3-0.1 0.5-0.3 0.7-0.4 0.8-0.5 1.6-1.1 2.4-1.8C111.5 67.5 111.4 67.5 111.3 67.6zM82 67l1.2 0 -1 0.4c0.4 0 0.8-0.1 1.2-0.1l0.8 0c0.2-0.6 0.2-1.2 0.2-1.8 -0.1-0.1-0.2-0.1-0.4-0.1 -0.4 0-0.8 0.5-1.3 0.9C82.5 66.5 82.3 66.8 82 67zM73.7 62.2c-0.1 0.6-0.2 1.2-0.2 1.8 0.1-0.5 0.3-1.1 0.5-1.6l0 0L73.7 62.2zM73.2 48.4c1.3 0.3 2.7 0.4 4.2 0.4 1.4 0 2.7-0.1 3.8-0.2 0.8-0.1 1.6-0.2 2.4-0.3 -1.2-0.1-2.5 0-3.7 0.1 -1 0.1-2 0.1-3 0.1 -1.3 0-2.5-0.1-3.5-0.4C73.3 48.3 73.3 48.4 73.2 48.4zM85.8 47.7l-0.3 0.4c1.2-0.2 2.4-0.4 3.6-0.7C87.9 47.5 86.9 47.6 85.8 47.7zM138 47.2c-0.1 0.1-0.2 0.2-0.3 0.4C137.8 47.5 137.9 47.3 138 47.2zM138.5 45c0 0.2 0 0.4-0.1 0.6 0 0.2 0 0.4-0.1 0.6C138.5 45.9 138.5 45.5 138.5 45zM97 45.8c-0.6 0.2-1.3 0.3-1.9 0.5 0 0 0.1 0 0.1 0 1.1-0.2 2.2-0.3 3.3-0.4C98 45.8 97.5 45.8 97 45.8zM65.7 41.7l0.1 0.4c0.1 0.3 0.1 0.5 0.1 0.8 0.2 1.3 0.3 2.1 1.4 3 0.2 0.1 0.4 0.3 0.5 0.4 -0.2-0.3-0.4-0.7-0.5-1.1l-0.2-1c-0.8-0.8-1.4-1.6-1.5-2.6L65.7 41.7zM56.3 42.9c0 0.4 0.1 0.7 0.4 0.9 0.6 0.5 2-0.1 3.3-0.8 -0.5 0.1-1.1 0.2-1.6 0.3l-0.7 0 0.1-0.4c-0.3 0.2-0.7 0.4-1.3 0.3l-0.3 0L56.3 42.9zM60.4 38.1c0.2 1.1-0.3 2.3-0.8 3.3 -0.1 0.3-0.2 0.5-0.4 0.8 2.6-0.5 5.5-2.3 7.4-3.7 -0.9-0.4-1.8-0.6-2.8-0.6 -0.6 0-1.2 0-1.8 0.1C61.5 38 61 38.1 60.4 38.1zM116.3 41.6c0 0.1 0 0.1 0 0.2 0.2-0.1 0.4-0.3 0.6-0.4C116.7 41.5 116.5 41.5 116.3 41.6zM64.9 40.9c0.2 0 0.5 0.1 0.6 0.2l0.2 0.2 0-0.1 0.1-0.1c0.3-0.3 0.6-0.6 0.9-0.9 0.7-0.6 1.3-1.3 1.9-2.1 -0.2-0.2-0.3-0.4-0.3-0.7 0-0.2 0.1-0.4 0.2-0.6 -1-0.1-2.1 0.1-3.3 0.3 0.9 0.2 1.7 0.5 2.5 1l0.6 0.4 -0.6 0.4C67.1 39.4 66.1 40.1 64.9 40.9zM131.6 36.2c0.8 0.1 1.5 0.3 2.2 0.5C133.3 36.4 132.4 36.2 131.6 36.2zM58.3 35.6c0.1 0.2 0.2 0.4 0.3 0.6l0.3-0.1C58.7 36 58.5 35.8 58.3 35.6z" class="a"></path><path d="M77.9 44.7c-0.4-0.3 0.5-0.9 0.7-1.3 -1.4 0-2.6 1.4-4.1 0.2 0.5-0.8 1.1-1.4 1.7-1.8 -0.9-0.8-2.8 1.1-4.2 0.7 -0.3-1 2.3-2.6 3.2-3.4 -2-0.9-3.5 1.4-5.3 1.4 1.2-1.6 4-2.8 6.1-1.7 -0.8 1.5-1.9 1.5-2.7 2.8 1.8-0.2 3.4-1.4 5.2-1.2 -0.4 1.1-2.1 1.9-3.1 2.8 1.4 0.3 2.7-0.7 4.1-0.6 0.2-0.4-0.6-0.6-0.5-1 2.2-0.3 5.3-0.9 7-0.4 -1.9 0.8-4 0.1-5.9 1 2.7 1.5 6.5-0.3 9.7 0.4 10.4-1.8 20.7-4 31.1-6.1 -0.9 1.3-2.3 0.7-3.5 1 -9.8 2.1-19.5 5-29.6 5.4 -2.5 0.5-5 0.5-7.5 0.3C79.5 44.3 78.6 43.9 77.9 44.7z" class="a"></path><path d="M78 45.4l-0.4-0.3c-0.2-0.1-0.3-0.3-0.3-0.5 0-0.1 0-0.2 0.1-0.3 -0.5 0.2-1 0.4-1.6 0.4 -0.6 0-1.1-0.2-1.6-0.6l-0.4-0.3 0.3-0.4c0.3-0.4 0.5-0.7 0.7-1 -0.2 0.1-0.3 0.1-0.5 0.2 -0.8 0.3-1.8 0.7-2.5 0.5l-0.3-0.1 -0.1-0.3c-0.3-1.1 1.1-2.2 2.5-3.2 -0.5 0.1-1.1 0.4-1.7 0.7 -0.7 0.4-1.5 0.9-2.4 0.9h-1l0.6-0.8c1.1-1.4 3-2.3 4.7-2.3 0.7 0 1.4 0.2 2 0.5l0.5 0.2L76.4 39.2c-0.4 0.8-1 1.2-1.4 1.6 0.1 0 0.2-0.1 0.3-0.1 1-0.4 2.1-0.7 3.2-0.7l0.6 0 -0.2 0.6c-0.3 0.9-1.1 1.5-2 2.1 0 0 0 0-0.1 0 0.2 0 0.4-0.1 0.5-0.1 0.4-0.1 0.8-0.2 1.2-0.3 -0.1-0.2-0.2-0.4-0.1-0.6l0.1-0.3 1.2-0.2c2.2-0.3 4.9-0.7 6.3-0.3l1.5 0.4 -1.4 0.6c-1 0.4-2.1 0.4-3.1 0.5 -0.4 0-0.8 0-1.2 0.1 1 0.1 2.2 0 3.5-0.1 1.5-0.2 3.2-0.3 4.4 0 8.6-1.5 17.2-3.3 25.6-5l6.6-1.4 -0.8 1c-0.8 1.1-1.8 1.1-2.8 1.1 -0.4 0-0.7 0-1 0.1 -2.3 0.5-4.6 1.1-6.9 1.6 -7.4 1.7-15 3.5-22.8 3.8 -1.4 0.3-2.9 0.5-4.7 0.5 -0.8 0-1.7 0-2.6-0.1 -0.4 0.4-0.9 0.6-1.2 0.7 -0.3 0.1-0.6 0.2-0.8 0.5L78 45.4zM79.2 43.3l-0.1 0.3c0.2-0.1 0.3-0.1 0.5-0.2l-0.2 0C79.3 43.3 79.2 43.3 79.2 43.3zM76.3 41.4c0.1 0 0.1 0.1 0.2 0.1l0.2 0.2c0.3-0.2 0.5-0.4 0.7-0.6C77 41.2 76.7 41.3 76.3 41.4z" class="a"></path><path d="M106.9 41c0.4 0.2-2.1 0.2-2.9 0.6C104.2 40.7 106.1 41.1 106.9 41z" class="a"></path><path d="M103.3 42.4l0.2-1c0.2-0.9 1.4-0.9 2-0.9 0.2 0 0.3 0 0.5 0l0.4 0c0.1 0 0.3 0 0.4 0l0.1 0 0.5 0.2 0 0.4c-0.1 0.4-0.4 0.5-1.4 0.6 -0.6 0.1-1.5 0.2-1.8 0.3L103.3 42.4z" class="a"></path><path d="M72.5 45.8c4.1-0.8 7.4-0.1 11.4-0.2C80.9 46.3 76.2 45.9 72.5 45.8z" class="a"></path><path d="M79.2 46.5c-1.5 0-3.1-0.1-4.6-0.1 -0.7 0-1.4-0.1-2.1-0.1l-4.4-0.1 4.3-0.9c1.4-0.3 2.8-0.4 4.4-0.4 1.1 0 2.2 0.1 3.3 0.1 1.1 0.1 2.2 0.1 3.4 0.1l0.3 0 0.1 1C82.8 46.4 81.2 46.5 79.2 46.5z" class="a"></path><path d="M103.8 62.3c0-1.1 2.1-1.9 3.4-2.5 1.3-0.6 3.3-1.5 3.5-1C108.4 59.9 106 60.7 103.8 62.3z" class="a"></path><path d="M103.3 63.2l0-0.9c0-1.3 1.8-2.2 3.3-2.8l0.5-0.2c1.3-0.6 2.6-1.2 3.4-1.2 0.5 0 0.7 0.3 0.8 0.5l0.2 0.4 -0.4 0.2c-0.7 0.3-1.4 0.7-2.1 1 -1.6 0.7-3.2 1.5-4.8 2.5L103.3 63.2z" class="a"></path><path d="M112.9 62.6c1.2-0.6 2.8-1.8 4.5-2.7 0.6-0.3 2.1-1.2 1.5-0.7C117 60.9 115 62.1 112.9 62.6z" class="a"></path><path d="M109.5 63.8l3.2-1.7c0.6-0.3 1.3-0.8 2.1-1.3 0.7-0.5 1.5-1 2.3-1.4l0.5-0.3c1.1-0.6 1.2-0.7 1.4-0.7h0.4l0.1 0.3c0.1 0.4-0.2 0.6-0.3 0.7 -2.2 2-4.2 3.1-6.1 3.5L109.5 63.8z" class="a"></path><path d="M135.6 29.1c0.7-0.3 2.6 1.4 0.9 2.8 -2.1-0.8-4 0.4-6 0.3 -0.3 0.8-0.1 2.2-1 2.5 -0.1-0.7 0.1-1.4 0.4-2.1 -0.5-0.6-1.1-0.2-1.2-0.9 2.6-0.5 5.4-0.4 8-0.9 -1.7-2.2-5.5 0.7-8.1-0.1 2.8-1.2 5.8-0.6 8.3-3.7 0.1-0.3-0.3-0.4-0.1-0.7 -3 0.3-5.7 2.8-8.8 2.7 2-1.6 5.8-1.1 6.5-3.8 1.2-1.1 3.2 1.2 3.4 2.3C137.3 28.7 136.4 28.6 135.6 29.1z" class="a"></path><path d="M129.1 35.5l-0.1-0.6c-0.1-0.6 0-1.3 0.3-2 -0.1 0-0.1 0-0.2-0.1 -0.3-0.1-0.8-0.2-0.9-0.9l-0.1-0.5 0.4-0.1c-0.1 0-0.1 0-0.2 0l-1.3-0.4 1.3-0.6c1-0.4 2-0.6 2.9-0.8 1.8-0.4 3.5-0.8 5-2.5 -1.1 0.2-2.2 0.7-3.3 1.2 -1.5 0.7-3.1 1.4-4.8 1.4l-1.5 0 1-0.8c0.9-0.7 2-1 3.1-1.3 1.6-0.4 2.9-0.8 3.3-2.2l0-0.1 0.1-0.1c0.3-0.3 0.7-0.4 1.1-0.4 0.8 0 1.6 0.6 2.2 1.3l0.4 0 -0.2 0.2c0.4 0.5 0.7 1.1 0.8 1.5l0 0.2 -0.1 0.2c-0.5 0.7-1 1-1.5 1.2 0.3 0.2 0.5 0.6 0.6 0.9 0.3 0.8 0 1.7-0.7 2.3L136.7 32.5l-0.3-0.1c-1-0.4-2.1-0.2-3.3 0 -0.7 0.1-1.4 0.3-2.1 0.3 0 0.1 0 0.2-0.1 0.4 -0.1 0.8-0.2 1.8-1.2 2.1L129.1 35.5zM134.8 30.5c-0.6 0-1.3 0.1-2 0.3 0.9-0.1 1.7-0.1 2.6-0.3C135.3 30.5 135.1 30.5 134.8 30.5zM134.8 29.5c0.6 0 1.1 0.1 1.6 0.4 -0.2-0.2-0.4-0.3-0.6-0.3L135.5 29c-0.3 0.2-0.6 0.4-0.9 0.5C134.7 29.5 134.8 29.5 134.8 29.5zM137.4 27.3l-0.1 0.1c-0.2 0.3-0.4 0.5-0.7 0.7 0.3-0.1 0.6-0.3 0.8-0.6C137.5 27.4 137.4 27.3 137.4 27.3zM135 25.6c-0.1 0.3-0.2 0.6-0.4 0.8 0.5-0.2 1.1-0.4 1.6-0.5C135.9 25.6 135.4 25.4 135 25.6z" class="a"></path></g></svg>