<svg xmlns="http://www.w3.org/2000/svg" width="283" height="85" viewBox="0 0 283.5 85"><path d="M258.5 72.7c-8.6 2.9-19.1 6.1-30.5 6.7 -8.8 0.5-16.7 0.2-24.8-1.3 -0.4 0-0.2 0.6-0.3 1l0.4 0.3 -0.1 0.5h0.5c1.2-0.2 1 1.1 1.8 1.3 6.6 1.2 14.6 1 22.5 1l-0.1-0.4 0.4 0.1c-0.1-0.6 0-1 0.3-1.3 0.5 0.2 0.9 0.5 0.8 1.3h0.3v0.3c9.4-0.7 18.3-2.6 25.8-5.2 2-0.7 4.5-1.4 4.1-3.6C259.2 73.2 258.7 73 258.5 72.7zM191.7 78.5l-1.5-0.5C190.6 78.5 191.2 78.3 191.7 78.5zM203 79.2h-1.3c-0.3-1 0.5-0.8 0.8-1.3 -4.9-0.6-9.1-1.9-13.4-3.1 -0.4 0.4-1.1 0.6-2.1 0.5 -0.4-0.6-0.5-0.5-0.3-1.3 -1.5-0.2-2.6-0.9-4.1-1l0.1 0.5 -0.4 0.3c-0.6 0.9 0.3 2 0.3 2.6 2.6 0.7 4.9 1.6 7.7 2.1l-0.1-0.4 0.4-0.1c-0.3-0.9 1.9-0.8 1.3 0.3h-0.3l0.1 0.4 0 0 -0.4 0.1c3.6 1.1 7.6 1.7 11.6 2.3 0.4 0 0.2-0.6 0.3-1l-0.4-0.3L203 79.2zM182.3 73.7l-0.1-0.5 0.4-0.3c-7.5-2.6-14.6-4.4-23-6.5 -0.9 0-0.9 1-2.1 0.8 -1.1-0.3-2.2-2-3.4-1.3 0.3 0 0.3 0.7 0 0.8 -1.6-0.4-3.3-2.2-4.9-1l-0.3 0.3h0c-0.7-0.6-1.8-0.6-2.6-0.6l2.6 0.6 -0.4 0.2c0.1 0.4 0.4 0.5 0.3 1 -0.8 0.1-1.2-0.2-1.8-0.3l0.1 0.4 -0.4 0.1c0.1 0.6-0.5 0.5 0.3 0.8 1.3 0.4 4.8 0 6.2 0.8 0-0.7 0-1.4 0.8-1.3 0.8 0.3 1.8 0.3 1.6 1.6 1.5 0 2.3 0.7 3.9 0.5 0.4 0-0.5-1.6 0.5-1.5 1.1 0.1 2.7-0.3 3.1 0.5 0.2 1.1-1.7 1-1 1.8 2.1 0.6 3.1 0.1 4.4 0 0.7 0.3-0.4 0.7 0.3 1 1.4 0 2.4 0.6 3.6 0.8v-0.3l0 0h0.3c-0.5-0.3-0.4-1.4-1-1.6 1.2-0.5 3.9 0.9 3.4 2.1v0.3h-0.3c2.8 1.1 5.8 1.9 8.8 2.8 0-1-0.8-1.3-1.3-1.8C180.4 73.6 181.5 73.8 182.3 73.7zM146.7 65.7l-0.4-0.3 0 0 0.1-0.5h-3.6c-0.2 1 0.2 1.5 0.3 2.3l0.4 0.3h0l-0.1 0.5c1.8 0.5 1.6-1 3.1-0.8l0.1-0.4 0.4 0.1c0 0 0 0 0 0C147 66.4 146.5 66.5 146.7 65.7zM172.8 73l-2.6-0.8C171 72.6 171.8 72.8 172.8 73zM143.5 67.6h-1.3C142.6 67.7 143 67.7 143.5 67.6zM141.5 64.7h-2.8c0 0.4 0.1 1-0.3 1 -1.4-1.2-2.8-0.7-5.4-0.8 -0.3 0.6-0.8 1.1-1 1.8 -1.2-0.3-0.2-1.6-1-1.8 -1.4-0.3-1.9 1.2-2.6 1.3 0.2 0-0.6-0.7-0.8-0.8 -0.8-0.3-1.6 0.1-2.6 0.3l0.1 0.4 0 0c-0.6-0.2-1.4-0.3-1.8 0.3l1.8-0.3 -0.4 0.1v1h-0.5l0.1 0.5 -0.4 0.3c1.6 1.5 3.4-0.3 4.6-0.8 1.2 0.6 2.6 1 4.6 0.8l-0.1-0.5 0.4-0.3v-1c1.1 0.1 2.3 0.2 2.1 1.5 1.8-0.6 2.8-0.4 4.4-1 -0.3 1.5 1.1 1.3 2.3 1.3l-0.1-0.5 0.4-0.3C141.8 66.8 141.9 65.6 141.5 64.7zM120.1 67.3l0.1 0.4 -0.4 0.1c0 1.9 3.5 1.5 3.9 0.3l-0.1-0.4 0.1-0.4v-0.8l-0.4-0.1 0.1-0.4C121.8 65.9 121.6 67.3 120.1 67.3zM119.6 67.8l-0.1-0.4 0.4-0.1c0-0.6 0-0.7-0.5-0.8 -1.1-0.2-3.7 0.9-4.6 1l0.1 0.5 -0.4 0.3c0.3 1 2.1-0.6 1.8 0.5 -1.3 1-5.4-0.9-5.2 1.6 2 1.5 4.5-0.5 7.2-0.5 0.1-0.6-0.5-0.6-0.3-1.3 0.8 0 0.1 1.4 1.3 1C120.3 68.8 118.2 68.2 119.6 67.8zM104.2 52.7c0.5-0.1 1-0.1 1.3-0.5L104.2 52.7zM124.2 45.1l0.9-0.4C124.8 44.7 124.5 44.9 124.2 45.1zM120.9 47.4c1.4 0.7 3.6 0.5 4.9-0.3 -1.4 0.2-1.5-1.2-1-2.1h-0.5v0 -0.5c-1 0.6-1.6 1.7-3.1 1.8V45.1c-2.2 0.7-3.9 0.3-5.4 1.5 -3-0.2-6.5 1.4-9.3 2.3l0.4 0.3 -0.1 0.5h0.3v0.8h-0.8v-0.8l-0.1-0.4 -0.1-0.4c-2.9 1.4-6.4 2.1-9 3.6 0.4 0.2 0.6 0.6 0.5 1.3 -0.8-0.2-1.1-0.8-1.5-1.3 -2.1 1.2-5 1.7-7.5 2.6l0.4 0.3 -0.1 0.5h1c0.5 0.4 0.5 1.3 1.3 1.3 4.4-0.6 9.4-2.8 13.7-4.4l-0.4-0.1 0.1-0.4c-1.2-0.4 1-1.5 0.8-0.3l0.4 0.1 -0.1 0.4c1.1-0.1 2-0.4 2.3-1.3 0.3 0.4 1.5 0.4 1.8 0l-0.1-0.4 0.4-0.1c0-0.5-0.9-0.2-1-0.5 0.2-1 1 0 1.8 0l0.4 0.1 -0.1 0.4c1.2-0.2 2.4-0.3 3.1-1 -0.4 0-0.9 0.1-1-0.3 0.5-0.2 0.8-0.6 1.3-0.8C116 50 119.5 48.9 120.9 47.4zM84.2 58.8l0.4 0.1 -0.1 0.4c1.1 0 1.6-0.6 2.8-0.5 -0.2-1.6 0.8-1.9 1.3-2.8l-0.4-0.3 0.1-0.5c-1.9 0.1-3.1 0.9-4.4 1.5l0.1 0.5 -0.4 0.3C84 57.8 84.4 57.9 84.2 58.8zM82.4 59.4c0.1-0.2 0.2-0.4 0.2-0.5l-1.7 0.8C81.5 59.7 82 59.6 82.4 59.4zM26.4 55.4c1.9 0.5 3.6 1.5 5.4 2.1 12.8 3.9 29.6 5 45.7 3.4 0.3-0.9-1.3-1.1-0.5-1.5 1.5-0.3 1.3 1 2.1 1.3 0.4-0.5 1.6-0.1 2.1-0.5l-0.1-0.5v0l0.4-0.3c0.1-0.5 0.1-1.1 0.8-1l0.3-0.4 0.5 0.1v-0.8l-0.4-0.3 0.1-0.5c-13.2 2.7-30.6 2.1-43.4-0.5l0.1 0.4 -0.4 0.1v0.8c-0.3-0.2-0.5-0.6-0.5-1l-0.4-0.1 1.3 0.3c-0.3-0.3-0.8-0.5-1.3-0.3H38.1l0.1-0.4c-2.2-0.5-4.8-1.3-7.7-2.1 -2.7-0.8-8.1-3.4-9.3-0.8C21.7 55.6 24.4 54.9 26.4 55.4zM88.1 57.5c0.6 0.9 1.8 0.8 2.6 0 -0.5-0.2-0.8-0.5-1.3-0.8C89.3 57.3 88.2 56.9 88.1 57.5zM146.7 54.9c0.3 0.1 0.5 0.4 1 0.3C148.1 54.4 146.6 54.4 146.7 54.9zM130.7 54.9c0.6 0.1 1.1 0.6 1.3-0.3C131.6 54.8 130.6 54.3 130.7 54.9zM191.2 46.3l-1.3-0.4C190.4 46.1 190.8 46.3 191.2 46.3zM195.1 47.2l-1.3-0.3C194.2 47.2 194.7 47.3 195.1 47.2zM153.3 47.3h-1.3C152.4 47.4 152.8 47.4 153.3 47.3zM160.1 48.7c-1.7-0.6 0.8-1.7-0.3-3.1 -2-0.3-4.3-0.8-5.9-0.8 0.2 1.3-0.6 1.6-1 2.3l0.4 0.1v0l-0.1 0.4c0.4 0.5 1.9 0 2.3 0.5 0-0.9 0.8-2.4 1.8-1.5 0.2 1-1.1 0.6-1 1.5C157.4 48.3 159.2 49.2 160.1 48.7zM152.6 46.4l-0.6 0c0.2-0.1 0.3-0.2 0.4-0.3 0.1-0.2 0.1-0.6 0.1-0.9 -0.3-0.5-0.9-0.6-1.4-0.4l0.1-0.5c-1.5-0.3-3.4-0.3-4.9-0.5l0.1 0.4 0 0 -0.4 0.1c0.1 1.7-2 1.1-3.1 1.6 -0.3-0.7-0.6-1.5-0.8-2.3h-1.8c0 0.8 0.6 1.1 0.5 2.1 -0.3 0-0.4-0.3-0.8-0.3l0.1 0.5 0 0 -0.4 0.3c1.4 1.2 5 0.3 7 1 0.3-0.6-0.8-1.1 0-1.3 1.1 0.3 2.1 2 3.4 1.3 -0.3-0.1-0.9-1.1-0.3-1.3 0.4 0.1 0.5 0.4 1 0.3l-0.1-0.4 0.4-0.1c0-0.2 0.1-0.2 0.1-0.3l0.3 0.6h-0.4l0.1 0.4 -0.4 0.1v1c0.5-0.1 0.6 0.3 1 0.3l-0.1-0.4 0.4-0.1C152.4 46.8 152.7 46.8 152.6 46.4zM151.2 44.8L151.2 44.8h0H151.2zM137.5 45.2l2.8 0.6C139.4 45.2 138.6 44.9 137.5 45.2zM144.9 44l1.7 0.1C146 43.9 145.4 44.1 144.9 44zM133.8 43.8c-0.5 0.2-0.1 1.3-1 1 -0.4 0-0.2-0.6-0.3-1 -0.8 0.2-2.2-0.3-2.6 0.3l0.4 0.1 -0.1 0.4c0.4 0.3 0.4 1.2 0 1.5l0.1 0.4 -0.1 0.4c1.8 0 3.8 0.2 4.9-0.5 -0.4 0-0.9 0-0.8-0.5 0.9-1.9 3.2 1.6 3.6-0.5l-0.4-0.1 0.1-0.4C136.9 43.9 135.1 44.1 133.8 43.8zM75.7 37.1l-0.4-0.1 0 0 0.1-0.4c-2.9 0.3-5.6 0.7-8.8 0.8 -0.6 0.3-0.9 1.6-1.8 0.8V37.8l-0.1-0.3 0.1-0.3c-1.8 0-3.8-0.2-4.9 0.5 -0.8-0.9-2.1-0.4-3.4-0.5 -9.9-0.7-19.4-3-27.4-5.2 -2.5-0.7-5.1-2.3-7.7-1.3 -1.3 3 2.7 3.1 5.9 4.1 13.8 4.3 31.3 6.6 48.3 4.4l-0.1-0.5 0.4-0.3C75.4 38.4 75.2 37.5 75.7 37.1zM75.3 36.9c0.4-0.1 0.9-0.2 1.3-0.4L75.3 36.9zM82.1 38.1c-0.4-0.3-0.4-1.5 0-1.8l-0.4-0.3 0.1-0.5c-1.3 0.5-2.1 1.5-3.9 1.5v1.3l0.4 0.3 -0.1 0.5c1.4 0 2.4-0.5 3.9-0.5l-0.1-0.3v0L82.1 38.1zM88.7 34.1l1-0.3C89.4 33.9 89.1 34 88.7 34.1zM89.1 36.8c-0.4-0.3-1.2-0.2-1-1 0.3-0.4 0.7-0.6 0.8-1.3l-0.1-0.4v0l0.1-0.4c-1 0.4-2.5 0.4-3.1 1.3 -1-0.5-2.7 0.1-3.6 0.5l0.4 0.3 -0.1 0.5c0.5-0.1 0.6 0.3 1 0.3v1.3l0.4-0.1 -1.8 0.6c0.6-0.2 1.4 0 1.8-0.6l-0.1 0.4C85.7 37.9 87.6 37.5 89.1 36.8zM89.1 36.8c1.6-0.2 3.1-0.5 4.1-1.3 -1-0.3-1.7-0.9-1.5-2.3l0.9-0.3c-0.4 0.1-1 0-1.2 0.4l0 0 0 0H91.4l-0.3-0.1c-0.8-0.2-0.9 0.3-1.5 0.3l0.1 0.4 -0.1 0.4C90.4 35.2 89.1 35.8 89.1 36.8zM97.4 34.2c-0.6-0.4-0.7-1.1-1-1.8l-0.1-0.5 0 0c2 1.3 4.1 1 6.2 0.1L96.2 31.9l0.4-0.3c-1.2-0.5-2.9 0.8-4.1 1l0.1 0.3 -0.1 0.3C94.1 33.3 96.5 34.2 97.4 34.2zM107.2 30.9c0.2-1-1.3-0.4-1.5-1 0.7-0.8 2.8-1.5 4.1-0.8v0.3l0.4-0.1 0.1 0.4c1.8-0.4 3.6-0.9 5.2-1.5l-0.4-0.3 0.1-0.5c-0.8 0.1-1.2-0.2-1-1l-0.1-0.4 -0.1-0.4c-3.2 1-6.5 2-9.6 3.1 -0.2 0.5-0.7 0.7-0.8 1.3 -0.9-1.2-2.2-0.3-3.4 0.3l0.4 0.3 -0.1 0.5c0.8 0.1 1.8 0 1.8 0.8l0.1 0.4 0.1 0.4C104.1 31.9 105.5 31.3 107.2 30.9zM137 23.3h3.1C139.1 23.2 137.9 22.7 137 23.3zM115.4 28c6.4-1.4 13.2-2.5 21.2-2.3 0.4-0.6 1-1.1 0.8-2.3l-0.4-0.1 0 0 0.1-0.4c-2.5 0.2-5.8-0.5-7.2 0.8 0.6-0.7-0.1-0.5-0.5-0.5 -4.4-0.5-10.7 1.7-14.7 2.3l0.1 0.4 -0.1 0.4c0.5 0.1 0.6 0.4 0.5 1l0.4 0.3L115.4 28zM142.5 25.7c2.9-0.3 5.7 1 7.7 0 -0.1 0.7 0.5 0.7 1 0.8 2.6 0.1 4.7 0.7 7 1 1-0.7 2.4-1 2.8-2.3 -6.2-1.7-13.5-2.2-21.2-2.3l0.1 0.4 -0.4 0.1C141.1 23.8 141.5 25 142.5 25.7zM80.3 35.8c-0.7 0-1.2 0.1-1.5 0.5C79.3 36.1 80.6 36.7 80.3 35.8zM174.8 28.8c-1.6 0.2-1.3-1.5-2.8-1.3 -0.7 1 0.9 1 0.3 1.8h-1.8c0 0.5-0.1 0.8-0.3 1 1.4 0.3 2.7 0.8 4.1 1C174.6 30.7 174.9 30 174.8 28.8zM171.2 27.3c-1.2-0.4-1 0.1-2.1 0.3 -0.7-0.1-0.4-1.4-1.5-1l-0.3 0.3 -0.4 0.2c0.1 0.5 0.7 0.5 0.5 1.3 -0.8 0-1.2-0.3-1.8-0.5l-0.2 0.4 -0.3 0.3c0.8 1 3.5 1.5 4.6 1.3C168.9 28.7 171.2 28.4 171.2 27.3zM159.8 27.3c0 0.8 0.8 0.8 1.6 0.8l-0.1-0.5 0.4-0.3C161.5 26.7 160.1 27 159.8 27.3zM80.2 27.9c0.3 0.1 0.5 0.1 0.8 0.1L80.2 27.9zM48.7 25.8c0.3 0.1 0.5 0.1 0.8 0.1L48.7 25.8zM25.4 23.5l-1-0.5C24.7 23.4 25 23.4 25.4 23.5zM25.3 23.1l0.1 0.4 0.1-0.4H25.3zM113.5 17.7l0.8-0.1C114 17.6 113.8 17.6 113.5 17.7zM166.9 16h1C167.6 15.9 167.3 15.9 166.9 16zM167.9 15.6l0.1 0.4 0.4-0.1C168.3 15.7 168.2 15.6 167.9 15.6zM219.2 18.7l0.4 0.1 0.1 0.4c2.3 0 4.6 0.1 5.9-0.8 0 0.6 0.2 0.8 0.8 0.8 3.4-0.8 8-0.5 10.8-1.8 1.3 0.6 2.7-0.2 4.1-0.3 0.1-0.4-0.3-1.3 0.3-1.3 1.3-0.4 1.1 0.8 1.8 1 2-0.7 5.3-1.2 8.8-2.3 3.1-1 9.8-2.6 6.5-5.2 -2.1-0.3-3.7 1.1-5.4 1.8 -3.1 1.2-6.4 1.3-9.3 2.8 -7 0.4-14.8 2.3-23.5 1.8l0.1 0.3 -0.1 0.3C221.8 17.5 220.2 18.4 219.2 18.7zM209.2 16.2l-0.1-0.4 0.4-0.1c-0.1-0.5-1.7-0.3-1.5 0.3C208.2 16.1 208.6 16.2 209.2 16.2zM66.6 18.7c0 0.4 0.6 0.2 1 0.3l-0.1-0.4 0.1-0.4C67.2 18.3 66.4 18 66.6 18.7zM56.3 18l0.1 0.4 -0.1 0.4c1.6 0.6 4.2 0.1 6.2 0.3l-0.1-0.4 0.4-0.1c-0.1-0.5-0.7-0.5-1-0.8 0.2-0.5 1-0.6 1.8-0.5v1.3l0.4 0.1h-1.5c0.5 0.2 1.1 0.4 1.5 0l-0.1 0.4c1.8 0.2 2.2-1 3.4-1.6 0.2 0.4 1.2 0 1.3 0.5v0.3l0.4 0.1 -0.1 0.4c2.5-0.5 7 0.9 7-2.1 -1.7-1.8-4.5-0.9-7.5-0.8 -4.3 0.2-9.5 0-12.6-0.3C55 16.1 57.3 17 56.3 18zM37.6 15.8l-1.8-0.3C36.3 15.7 37 16.1 37.6 15.8zM36 13.4l1 0.2C36.7 13.4 36.4 13.4 36 13.4zM36.7 13.8c0.3 0.4 0.7 0.9 0.5 1.8l0.4 0.1v0l-0.1 0.4c5.8 1.2 11.6 2.3 18.3 2.6l-0.1-0.5 0.4-0.3c-0.9-0.3-0.7-1.7-1.3-2.3 -1.5 0.1-2.3-0.5-3.9-0.3l0.1 0.5 -0.4 0.3c0.1 0.2 0.2 0.3 0.5 0.3 -0.5 0.7-2.4 0-0.8-0.3l-0.1-0.5 0.4-0.3c-4.8-0.7-8.8-1.3-13.7-2.3l0.1 0.5v0L36.7 13.8zM43.1 16.2C43.7 15.4 44.8 16.4 43.1 16.2L43.1 16.2zM27.6 13.8c2.7 0.7 5.8 1.6 8.3 2.1l-0.1-0.4 0.4-0.1c0.1-0.5-0.7-1.3 0-1.5l-0.1-0.5 0.4-0.3c-1.9-0.6-4.1-1.7-5.9-0.8 -2-1.5-6.3-4-9.3-2.1C21.6 13.1 25.1 13.2 27.6 13.8zM201 14.7l1 0.3C201.7 14.9 201.4 14.8 201 14.7zM201.7 15.1c-0.4 0.9-1.5 1.1-1.8 2.1 2.4-0.1 3.8 0.8 6.2 0.8 -0.3-0.7-0.3-1.8-0.3-2.8 -1.4-0.1-2.5-0.4-3.9-0.5l0.1 0.4 0 0L201.7 15.1zM201.2 15.1l-0.1-0.4 0.1-0.4c-1 0.3-1.8-0.8-2.3 0 0.4 0.2 0.4 0.8 0.5 1.3C200.2 15.7 200.6 15.3 201.2 15.1zM79.5 17.4c1.1-0.9 2.5-0.8 3.9-0.3 4.2-0.9 8.2-1.8 12.1-3.1 3.7-1.2 7.1-3.1 10.8-4.4 12.7-4.3 28.8-6.7 45.4-4.4 1.3-0.2 1-1.9 2.8-1.6 1.1 0.5 0.4 2.8 2.6 2.3 1.1-0.4 1.1-1.9 1.6-2.8 -18.1-3.6-41.2-1.1-55.5 4.4 -8.6 3.3-17 6.3-26.9 7.5C76.6 15.6 78.6 18.6 79.5 17.4zM195.7 16.2c0.8 0.2 0.8 0.2 1.5 0l-0.1-0.5 0.4-0.3c0-0.6-0.4-0.8-0.3-1.5 -1 0.2-1-0.7-2.1-0.5l-0.1 0.4 0 0c-0.6-0.4-1.5-0.8-2.3-0.5l1.9 0.4C193.8 14.9 195.9 14.9 195.7 16.2zM198.2 15.9l-1-0.2C197.5 15.8 197.8 16 198.2 15.9zM193.5 15l-1.5-0.3C192.4 15.2 193 15.1 193.5 15zM190.8 14.3c0.2 0.5 0.4 1 1.3 0.8l-0.1-0.4v0l0.4-0.1c0-0.3-0.3-0.4-0.3-0.8 0.2-0.4 1 0 1-0.5l-0.4-0.1 0.1-0.4c-0.8-0.6-2.1-0.6-3.1-1 -0.3 0.9-0.2 2.2-1 2.6C189.3 14.9 190.2 14.5 190.8 14.3zM109.8 68.8c-2.3 0.3-4 1.4-6.2 1.8 -0.7 0.1-0.3 1.3-0.8 1.5 -0.8-0.2-0.6-1-1.5-0.5 -10.5 4.5-21.2 7.6-36.7 8 -12.7 0.3-24.8-2.1-35.1-5.2 -1.5-0.5-8.6-3.6-8.3 0 0.1 1.5 5 2.4 7.5 3.1 12.4 3.7 29.2 6.5 44.7 4.4 0.7-0.1 1.4-0.4 2.1-0.5 0.6-0.1 1.2 0.1 1.8 0 9.6-1.1 17.9-4 25.6-7.2v-0.3c0.3 0.1 0.8-0.1 1-0.3l-0.8 0.2c-0.5-0.4 0.4-0.8 0.6-0.2h0.3l0 0v0.3c2-1.2 5.4-1.2 6.7-2.8C111.1 70.5 109.2 70.2 109.8 68.8zM40.6 78.9C39 79.9 38.9 78.1 40.6 78.9L40.6 78.9zM247.4 67.3c-0.2 0.8-0.7 0.3-1.3 0.3C246 67 247 67.4 247.4 67.3zM170.7 48.2c-0.5 0.1-0.1 1.1-0.8 1l0.1 0.3 0.1 0.3c0.8 0.6 0.2 0.9 0 1.8 0.8-0.2 0.9 0.3 1.5 0.3l-0.1-0.3 0.1-0.3c-0.5-1.2 0.7-0.9 1-1.3l0.5 0.1c-0.5 1.3 1.7 1.2 2.4 2 0.2 0.6-0.7 0.8 0.3 0.8 2.4 0.7 4.9 2.1 7.5 1.8 4.5 2.4 10.5 3.3 16 4.6 0.9 0 1.4-1.9 2.6-0.8 0.1 0.6-0.7 0.3-0.8 0.8l0.4 0.1 -0.1 0.4c7 1.2 14.3 2.1 22.7 1.8l-0.1-0.4h0c0.5 0.4 1.3 0.4 1.8 0h0l-0.1 0.4c1 0.1 1.4-0.2 2.1-0.3 10-0.7 18.6-2.8 26.3-5.2 2.1-0.7 5.3-0.9 5.4-3.4 -1.1-2-3.6-0.8-5.2-0.3 -3.6 1.2-7 2.5-10.6 3.4 -2.7 0.7-5.7 0.7-7.2 1.8 -7.5 0.3-16.8 1.6-25.3 0.5 -0.1 0.3-0.1 0.7-1.3 0.5 -0.1-0.5 0.4-0.5 0.5-0.8 -4.9-0.2-8.8-1.3-13.2-2.1l0.1 0.5c0 0-0.4 0.3-0.1 1.3 -0.5-0.1-0.6-0.4-0.3-1l-0.1-0.4 0.1-0.4c-5.9-1.7-11.8-3.4-17.6-5.2 -0.2 0.7-1.4 0.5-2.3 0.5 -0.4-1-3-3.2-3.6-1.5l0.1 0.4 0 0c-0.4-0.3-0.9-0.2-1.2-0.1h0v-0.3C172.2 48.9 171.8 48.1 170.7 48.2zM224.4 60.3c0.8-0.2 1.2 0.1 1 0.9h-1V60.3zM161.9 46.1c-2.6 4.1 4 4.4 7.5 4.1l-0.1-0.4 0.1-0.4h-0.3c-0.6-0.5 0.6-1.3 0-1.8 -1.9-0.1-3.3-0.8-5.2-1l-0.3 0.3 -0.4 0.2c0.1 0.4 0.4 0.5 0.3 1 -0.3-0.2-0.5-0.6-0.5-1l-0.1-0.4v0l0.1-0.4C162.6 46.3 162.5 46 161.9 46.1zM162.8 46.7l0.8 0.2C163.4 46.8 163.2 46.7 162.8 46.7zM234.3 36.5c0.3 0 0.6 0 0.9-0.1L234.3 36.5zM234.7 36.3l0.4 0.1v0l-0.1 0.4c0.1 0.4-1.4 0.4-1.3 0l-0.4-0.1 0.9-0.1c-0.3 0-0.6 0-0.9 0.1h0l0.1-0.4c-2.4 0.3-4.7 0.6-7.5 0.5 -0.1 0.5 0.7 1.3 0 1.5 -1.6 0.1-2.1-0.9-2.6-1.3h-1.3l0.1 0.4v0l-0.4 0.1c-0.1 0.4-0.4 0.4-0.5 0.8 -0.5-0.1-0.5-0.4-0.3-0.8l-0.4-0.1v0l0.1-0.4c-7.6 0-14.4-0.8-20.7-2.1L200 35.4l-0.1 0.4c-0.2 0.8 0.7 0.5 0.5 1.3 -0.2 0.6-2-0.3-1.8 0.8 1.9 0.8 4.2 1.1 6.7 1.3 0-0.5 1.1-1.3 1.5-0.5 0.4 0.9-0.9 0.2-0.8 0.8 13.8 2.1 28.4 0.8 40.3-2.3 2.6-0.7 4.7-1.4 7-2.1 4-1.1 8-1.4 5.4-4.6C251.2 32.8 243.5 35 234.7 36.3zM220.7 37.5h1.6C221.7 37.2 221.1 37 220.7 37.5zM176.6 29.4l-1.1-0.6C175.9 29.1 176.3 29.3 176.6 29.4zM187.7 32.7c-2.6-2.2-7.7-2-10.8-3.6l-0.3 0.3 -0.4 0.2c0.2 0.6 0.9 0.8 1.3 1.3 0.1 0.5-1.4 1.3-0.3 1.3 2 0.9 3.3 1.3 5.7 0.8 0.2 0.7-0.5 0.5-0.5 1 0.9-0.2 1 0.4 1.8 0.3l-0.1-0.3 0.1-0.3c-0.1-0.5 0.3-0.6 0.3-1 0.4 0.2 0.5 0.7 0.5 1.4l-0.9-0.1c0.1 0.1 0.2 0.1 0.3 0.3 0.2 0.1 0.6 0.1 1-0.2h0l0 0v0l-0.1 0.4c1.2 0.6 2.8 1 4.4 1.3l-0.1-0.5L189.8 35c-0.3-0.3-1-1.4-0.3-1.8l-0.1-0.3 -0.1-0.3C188.6 32 188.4 32.4 187.7 32.7zM161.4 6.9V6.6h0.3c-0.1-0.5-0.7-0.5-0.5-1.3 0.7 0.2 1.2 0.5 1.3 1.4l-1-0.1c0.3 0.1 0.7 0.2 1.2 0.3 0.1-0.1 0.2-0.1 0.3-0.2l-0.1 0.4c3.8 0.6 6.9 1.8 10.6 2.3 0.4-0.4 0.3-1.2 0.8-1.5 0.5 0.7 1.5 2 2.6 1.3 -0.1 0.6-0.9 0.5-0.8 1.3 4.1 1.1 7.9 2.6 12.1 3.6 -0.1-0.6 0-1 0.3-1.3l-0.4-0.1 0 0c0.4-0.4 0.5-0.7 0.5-0.9 -0.1-0.2-0.5-0.2-0.9-0.2l0.3-0.3c-0.4-0.6-1.1 0.6-1.8 0.5 0.2-0.8 0.2-0.5 0-1.3 -7.3-2.3-14.1-5-22.2-6.5l0.1 0.4 -0.4-0.1c0 0.3 0 0.7 0.3 0.8 -0.3 0.8-0.8-0.3-0.8-0.8V4h0.3c-1.2-0.8-2.2 0.8-3.9 0.3 0.4 0.8 0.3 1.6-0.3 2.1C159.8 6.6 160.7 6.6 161.4 6.9zM123.6 67.7l0.8 0.1C124.1 67.7 123.8 67.7 123.6 67.7zM84.6 58.9l-1.9-0.1C83.2 59.1 84 59.1 84.6 58.9zM82.5 56.9l1.6 0.3C83.5 57.1 83.1 56.6 82.5 56.9zM110.9 50.4l-1.5 0.5C109.9 51.1 110.5 50.7 110.9 50.4zM82.4 57.9l0.2 0.8C82.6 58.4 82.5 58.1 82.4 57.9zM106 49.3c0.3 0 0.5 0 0.8-0.1L106 49.3zM175 60.2l1.2 0.4C175.8 60.4 175.4 60.2 175 60.2zM190.4 43.8l1.3 0.4C191.3 44.1 190.9 43.7 190.4 43.8zM154.8 34.5c0.2 0.1 0.4 0.1 0.6 0.1L154.8 34.5zM92.1 46.2l-1.3 0.4C91.2 46.7 91.7 46.5 92.1 46.2zM128.5 44.4l0.1-0.4c-1.1-0.1-1.9 0.2-2.3 0.8 -0.1 1.3 1.1 1.1 1 2.3 0.9-0.1 2.1 0.2 2.6-0.3l-0.1-0.3 -0.1-0.3c-0.5-0.4-1.5-1-0.8-1.8l-0.4-0.1 1.8-0.3C129.7 44.2 129 44 128.5 44.4zM99.6 30.5l0.5 0C99.9 30.4 99.7 30.4 99.6 30.5zM110.1 29.2l-0.6 0.4C109.7 29.5 110 29.5 110.1 29.2zM78.4 38.7l-2.8 0.3C76.5 39.2 77.4 38.8 78.4 38.7zM64.7 37.6c0.2 0 0.3-0.1 0.5-0.1L64.7 37.6zM164.2 27.5l-3 0.1C162.2 27.9 163.5 28.4 164.2 27.5zM164.1 26.4c-0.3-0.4-0.8-0.4-1.2-0.5L164.1 26.4zM164.1 26.4l3.2 0.4C166.2 26.6 165 25.5 164.1 26.4zM164.2 27.5c0-0.5-0.1-0.8-0.2-1.1L164.2 27.5zM165.3 28.2c-0.3-0.3-0.7-0.5-1.1-0.7L165.3 28.2zM49.5 26l0.7 0.1C50 26 49.8 26 49.5 26zM85.4 26.7l0-0.6C85.2 26.3 85.3 26.5 85.4 26.7zM164.6 17.6l-1.1-0.2C163.8 17.5 164.2 17.6 164.6 17.6zM116.1 14.6c-0.8 0-1.6 0.5-2.3 0.7L116.1 14.6zM219.6 18.9l-2.1 0.1C218.2 18.9 219 19.1 219.6 18.9zM218.8 16.2h1.8C220.1 16 219.4 16 218.8 16.2zM209.9 16.2c0 0.7 0.1 1.5-0.3 1.8l0.4 0.1 0 0 -0.1 0.4c0.7 0.8 2.1 0.1 2.1-0.8 1.3 0.3 1.6 1.5 3.4 1.3 0.5-0.8 1.3-0.8 1.3-1.5 0.9-0.1 1.4 0.1 2.1 0.3l-0.1-0.5h0l0.4-0.3v-0.5l-0.1-0.3 0.1-0.3c-3.2 0.2-5.8-0.2-8.8-0.3l0.1 0.4v0L209.9 16.2zM210.1 18.1c-0.3 0.1-0.6 0.2-0.8 0.3L210.1 18.1zM219.4 17.2l-0.7 0.1C218.9 17.3 219.1 17.2 219.4 17.2zM210.3 16c-0.3-0.1-0.6-0.1-0.8-0.2L210.3 16zM56.4 18.3l-0.8-0.1C55.9 18.3 56.2 18.4 56.4 18.3zM114 59c0.3 0 0.5 0 0.8-0.1L114 59zM205.4 70.8l-2.9-0.8C203.5 70.3 204.4 70.6 205.4 70.8zM172.9 51.9c-0.4-0.3-0.9-0.2-1.3-0.4L172.9 51.9zM191 35.7c-0.2-0.1-0.5-0.2-0.7-0.2L191 35.7zM190.2 35.5l-0.8-0.2C189.7 35.4 189.9 35.5 190.2 35.5zM192.2 34c-0.8-0.7-1.8-1-2.8-1.1L192.2 34zM192.4 34l1.4 0.2C193.4 34.1 192.9 33.7 192.4 34zM192.9 34.2l-0.5-0.2h0l0-0.5 -0.2 0.6 0.4 0.4C192.8 34.5 192.9 34.4 192.9 34.2zM193.4 34.5c0 0.6-0.2 0.8-0.8 0.8l-0.4-0.1 -0.4-0.1c0 0.4-0.6 0.2-1 0.3l0.1 0.5 -0.4 0.3c2.4 0.7 4.6 1.4 7.2 1.8 0.8-0.4 0.8-1.6 1.5-2.1l-0.3-0.8c-1.6-0.6-3.6-0.9-5.4-1.3l0.1 0.5v0L193.4 34.5zM192.3 35.1l-0.1-1.1C192.1 34.5 192.2 34.7 192.3 35.1zM181.6 20.3l1.7 0.1C182.7 20.3 182.1 20.2 181.6 20.3zM177.5 20.9l-0.6-0.8C176.9 20.5 177 20.9 177.5 20.9z" fill="#D8C397"></path></svg>